<?xml version="1.0" encoding="UTF-8"?><svg xmlns="http://www.w3.org/2000/svg" viewBox="0 0 50.02 50.02"><defs><style>.d{fill:#fff;}</style></defs><g id="a"/><g id="b"><g id="c"><rect class="d" width="50.02" height="50.02" rx="12" ry="12"/><g><path class="d" d="M25.28,41.84c.05-.04,.11-.1,.16-.11,.72-.08,1.45-.13,2.17-.21,1.5-.16,2.97-.52,4.41-.96,1.42-.43,2.81-.97,4.11-1.69,.88-.49,1.72-1.05,2.56-1.6,.12-.08,.21-.34,.17-.47-.06-.17-.24-.33-.4-.4-.14-.06-.35,0-.5,.06-1.6,.69-3.24,1.23-4.93,1.64-.97,.24-1.95,.42-2.94,.6-1.41,.27-2.84,.41-4.28,.44-2.3,.05-4.59-.06-6.87-.44-1.74-.29-3.45-.69-5.12-1.25-1.1-.37-2.18-.79-3.24-1.26-1.02-.45-2-.99-3-1.5-.32-.16-.63-.47-1.02-.13M27.59,17.91c-.63,.06-1.17,.12-1.71,.16-1.65,.11-3.27,.39-4.84,.94-1.61,.56-2.95,1.49-3.81,2.99-.92,1.59-1.05,3.32-.69,5.09,.41,2.03,1.65,3.35,3.6,3.95,1.45,.44,2.93,.33,4.39,0,1.1-.25,2.02-.85,2.83-1.6,.31-.28,.57-.61,.88-.95,.61,.97,1.27,1.76,2.06,2.43,.34,.29,.79,.32,1.12,.03,.94-.81,1.88-1.62,2.82-2.43,.37-.32,.4-.64,.11-1.06-.14-.2-.28-.39-.44-.57-.7-.84-1.01-1.82-1.01-2.89-.01-2.82,0-5.64,0-8.46,0-.85-.17-1.68-.5-2.44-.51-1.2-1.45-2.04-2.62-2.61-.99-.48-2.03-.73-3.13-.82-1.77-.15-3.5-.03-5.17,.61-1.06,.41-2.05,.94-2.84,1.79-.85,.93-1.36,2.02-1.57,3.26-.11,.63,.04,.85,.65,.92,1.03,.13,2.05,.25,3.08,.39,.77,.1,.96-.08,1.16-.82,.11-.39,.3-.78,.56-1.08,.81-.94,1.9-1.21,3.08-1.02,.8,.13,1.46,.52,1.68,1.38,.09,.34,.16,.7,.2,1.05,.06,.58,.07,1.17,.11,1.76Zm10.73,17.19c.5,.06,1,.11,1.49,.2,.28,.05,.53,.21,.51,.54-.03,.46-.06,.93-.19,1.37-.28,.9-.64,1.77-.94,2.66-.04,.11-.02,.31,.05,.37,.08,.06,.26,.03,.38,0,.09-.02,.16-.11,.23-.18,.82-.74,1.34-1.67,1.7-2.69,.3-.83,.52-1.68,.48-2.58-.01-.31-.07-.64-.4-.71-.67-.13-1.35-.27-2.02-.27-.76,0-1.54,.11-2.29,.25-.67,.12-1.29,.39-1.79,.87-.09,.08-.1,.24-.14,.37,.13,.03,.26,.1,.38,.08,.85-.08,1.7-.18,2.56-.27Z"/><path d="M6.57,34.55c.39-.33,.69-.03,1.02,.13,1,.5,1.98,1.04,3,1.5,1.06,.47,2.14,.89,3.24,1.26,1.67,.56,3.38,.96,5.12,1.25,2.28,.38,4.57,.49,6.87,.44,1.44-.03,2.87-.17,4.28-.44,.98-.19,1.97-.37,2.94-.6,1.69-.41,3.34-.95,4.93-1.64,.15-.07,.36-.11,.5-.06,.17,.07,.35,.24,.4,.4,.04,.13-.05,.39-.17,.47-.84,.55-1.68,1.12-2.56,1.6-1.3,.72-2.69,1.26-4.11,1.69-1.44,.44-2.91,.8-4.41,.96-.72,.08-1.45,.14-2.17,.21-.06,0-.11,.07-.16,.11h-2.03c-.05-.04-.11-.1-.16-.11-.78-.08-1.56-.1-2.33-.22-1.21-.2-2.41-.41-3.6-.72-1.66-.43-3.23-1.09-4.76-1.88-1.57-.81-3.06-1.76-4.44-2.87-.47-.38-.93-.77-1.39-1.16v-.33Z"/><path class="d" d="M6.57,41.84v-6.96c.46,.39,.92,.78,1.39,1.16,1.38,1.11,2.86,2.06,4.44,2.87,1.52,.79,3.1,1.44,4.76,1.88,1.18,.31,2.39,.52,3.6,.72,.77,.13,1.56,.15,2.33,.22"/><path d="M27.59,17.91c-.03-.59-.05-1.18-.11-1.76-.03-.35-.11-.71-.2-1.05-.23-.86-.89-1.25-1.68-1.38-1.18-.19-2.27,.08-3.08,1.02-.26,.3-.46,.7-.56,1.08-.2,.74-.39,.93-1.16,.82-1.03-.13-2.05-.26-3.08-.39-.61-.08-.76-.29-.65-.92,.21-1.24,.72-2.33,1.57-3.26,.78-.85,1.77-1.38,2.84-1.79,1.67-.64,3.41-.76,5.17-.61,1.1,.09,2.14,.33,3.13,.82,1.16,.57,2.1,1.41,2.62,2.61,.33,.76,.5,1.6,.5,2.44,0,2.82,0,5.64,0,8.46,0,1.07,.31,2.06,1.01,2.89,.15,.18,.3,.38,.44,.57,.29,.41,.26,.74-.11,1.06-.94,.81-1.88,1.62-2.82,2.43-.33,.28-.78,.25-1.12-.03-.79-.67-1.45-1.46-2.06-2.43-.31,.34-.58,.67-.88,.95-.82,.75-1.73,1.36-2.83,1.6-1.46,.33-2.94,.44-4.39,0-1.96-.6-3.19-1.91-3.6-3.95-.36-1.77-.23-3.5,.69-5.09,.86-1.5,2.2-2.42,3.81-2.99,1.57-.55,3.19-.83,4.84-.94,.54-.04,1.08-.1,1.71-.16Zm-.02,3.01c-.85,.07-1.67,.08-2.47,.21-.75,.12-1.46,.42-2.05,.93-1.17,1.04-1.35,2.37-.99,3.79,.45,1.75,2.22,2.09,3.53,1.25,1.02-.65,1.49-1.65,1.78-2.75,.29-1.1,.22-2.23,.2-3.45Z"/><path d="M38.32,35.09c-.86,.09-1.71,.19-2.56,.27-.12,.01-.25-.05-.38-.08,.05-.12,.06-.29,.14-.37,.5-.48,1.12-.76,1.79-.87,.76-.13,1.53-.25,2.29-.25,.68,0,1.36,.14,2.02,.27,.33,.07,.39,.4,.4,.71,.04,.9-.18,1.75-.48,2.58-.36,1.02-.88,1.96-1.7,2.69-.07,.07-.14,.15-.23,.18-.12,.03-.3,.07-.38,0-.07-.06-.09-.26-.05-.37,.31-.89,.67-1.76,.94-2.66,.14-.43,.16-.91,.19-1.37,.02-.33-.23-.49-.51-.54-.49-.09-.99-.13-1.49-.2Z"/><path class="d" d="M27.57,20.92c.02,1.22,.09,2.35-.2,3.45-.29,1.1-.76,2.1-1.78,2.75-1.31,.83-3.08,.49-3.53-1.25-.37-1.42-.18-2.75,.99-3.79,.58-.52,1.3-.81,2.05-.93,.8-.13,1.62-.14,2.47-.21Z"/></g></g></g></svg>