<?xml version="1.0" encoding="UTF-8"?><svg xmlns="http://www.w3.org/2000/svg" viewBox="0 0 54.48 23.83"><defs><style>.d{fill:#fff;}</style></defs><g id="a"/><g id="b"><g id="c"><g><g><path class="d" d="M8.39,5.24h1.02l4.55,10.21h-1.49l-1.35-3.01H6.79l-1.27,3.01h-1.49L8.39,5.24Zm2.14,5.91l-1.64-3.68-1.52,3.68h3.16Z"/><path class="d" d="M22.93,5.3h1.36V15.45h-1.46V7.55l-3.12,3.92h-.27l-3.16-3.92v7.9h-1.45V5.3h1.38l3.37,4.17,3.35-4.17Z"/><path class="d" d="M29.46,15.45h-3.44V5.3h2.66c.84,0,1.49,.11,1.96,.34s.83,.54,1.08,.93c.25,.39,.37,.85,.37,1.37,0,1-.52,1.71-1.55,2.14,.74,.14,1.33,.45,1.77,.92,.44,.47,.66,1.03,.66,1.69,0,.52-.13,.98-.4,1.39s-.66,.74-1.17,1-1.16,.39-1.94,.39Zm-.73-8.86h-1.25v3.05h.97c.78,0,1.33-.15,1.65-.44,.33-.3,.49-.68,.49-1.15,0-.97-.62-1.46-1.86-1.46Zm.11,4.35h-1.36v3.22h1.43c.79,0,1.33-.06,1.62-.19s.51-.32,.68-.58,.26-.54,.26-.84-.09-.59-.27-.85c-.18-.26-.44-.45-.77-.57-.33-.13-.86-.19-1.58-.19Z"/><path class="d" d="M34.33,5.3h5.76v1.29h-4.3v3.1h4.16v1.3h-4.16v3.15h4.44v1.29h-5.89V5.3Z"/><path class="d" d="M42.11,15.45V5.3h2.54c1.03,0,1.84,.25,2.45,.76s.9,1.2,.9,2.06c0,.59-.15,1.1-.44,1.53-.3,.43-.64,.75-1.19,1.05l2.57,4.74h-1.73l-2.26-4.42s-.54,0-1.02,0h-.38v4.42h-1.45Zm1.89-8.92h-.44v3.2h.55c.74,0,1.24-.06,1.52-.19,.27-.13,.49-.32,.64-.57s.23-.54,.23-.87-.08-.61-.25-.87c-.17-.26-.41-.44-.72-.55-.31-.11-.82-.16-1.53-.16Z"/></g><g><path class="d" d="M24.6,17.48v1.54h-.42v-1.18c0-.23-.03-.4-.09-.49-.06-.09-.17-.14-.33-.14-.09,0-.17,.02-.24,.06-.07,.04-.16,.11-.25,.21v1.54h-.42v-2.12h.42v.28c.21-.21,.42-.32,.63-.32,.27,0,.48,.13,.62,.38,.22-.26,.46-.39,.7-.39,.21,0,.37,.08,.51,.23,.13,.15,.2,.38,.2,.69v1.25h-.42v-1.25c0-.18-.04-.31-.11-.41-.07-.09-.18-.14-.31-.14-.17,0-.34,.09-.49,.26Z"/><path class="d" d="M27.57,16.89c.32,0,.59,.1,.8,.31,.21,.21,.32,.47,.32,.78s-.11,.56-.32,.76-.49,.3-.82,.3-.58-.1-.8-.31c-.21-.2-.32-.46-.32-.77s.11-.57,.32-.77c.22-.21,.49-.31,.81-.31Zm-.02,.38c-.2,0-.37,.07-.49,.2s-.19,.3-.19,.5,.07,.37,.2,.5c.13,.13,.3,.19,.51,.19s.37-.06,.51-.19c.13-.13,.2-.3,.2-.5s-.07-.37-.2-.5c-.14-.13-.31-.2-.52-.2Z"/><path class="d" d="M30.52,16.9h.45l-.94,2.15h-.14l-.96-2.15h.46l.57,1.3,.55-1.3Z"/><path class="d" d="M31.56,16.01c.07,0,.13,.02,.18,.07s.07,.11,.07,.17-.02,.13-.07,.17-.11,.07-.18,.07c-.06,0-.12-.02-.17-.07-.05-.05-.07-.11-.07-.17s.02-.12,.07-.17c.05-.05,.11-.07,.17-.07Zm-.21,.89h.42v2.12h-.42v-2.12Z"/><path class="d" d="M32.86,16.9v.27c.19-.21,.4-.31,.64-.31,.13,0,.25,.03,.37,.1s.2,.16,.26,.28,.09,.31,.09,.56v1.21h-.42v-1.21c0-.22-.03-.37-.1-.46s-.18-.14-.33-.14c-.2,0-.37,.1-.5,.3v1.51h-.43v-2.12h.43Z"/><path class="d" d="M34.75,17.63c0-.23,.08-.4,.25-.54,.16-.13,.39-.2,.68-.2h.87v.33h-.43c.08,.08,.14,.16,.17,.23s.05,.15,.05,.24c0,.11-.03,.22-.09,.33-.06,.11-.14,.19-.24,.25-.1,.06-.26,.1-.49,.14-.16,.02-.24,.08-.24,.16,0,.05,.03,.09,.09,.12,.06,.03,.17,.06,.32,.1,.26,.06,.43,.1,.5,.13s.14,.08,.2,.14c.1,.1,.15,.23,.15,.38,0,.2-.09,.36-.27,.48-.18,.12-.42,.18-.72,.18s-.54-.06-.72-.18c-.18-.12-.27-.28-.27-.48,0-.29,.18-.47,.53-.55-.14-.09-.21-.18-.21-.27,0-.07,.03-.13,.09-.18s.14-.1,.25-.12c-.31-.14-.47-.36-.47-.67Zm.69,1.48c-.14,0-.26,.03-.35,.09-.09,.06-.13,.14-.13,.23,0,.22,.2,.33,.59,.33,.19,0,.33-.03,.43-.08,.1-.05,.15-.13,.15-.23s-.06-.18-.19-.24c-.13-.06-.3-.09-.5-.09Zm.1-1.85c-.11,0-.21,.04-.29,.12s-.12,.17-.12,.28,.04,.2,.12,.27c.08,.07,.18,.11,.3,.11s.22-.04,.3-.11,.12-.16,.12-.27-.04-.2-.12-.28-.18-.11-.3-.11Z"/><path class="d" d="M40.04,17.48v1.54h-.42v-1.18c0-.23-.03-.4-.09-.49s-.17-.14-.33-.14c-.09,0-.17,.02-.24,.06s-.16,.11-.25,.21v1.54h-.42v-2.12h.42v.28c.21-.21,.42-.32,.63-.32,.27,0,.48,.13,.62,.38,.22-.26,.46-.39,.7-.39,.21,0,.37,.08,.51,.23s.2,.38,.2,.69v1.25h-.42v-1.25c0-.18-.04-.31-.11-.41-.07-.09-.18-.14-.31-.14-.17,0-.34,.09-.49,.26Z"/><path class="d" d="M43.35,19.01v-.27c-.09,.1-.19,.17-.3,.23s-.23,.08-.34,.08c-.13,0-.26-.03-.37-.1-.11-.07-.2-.16-.26-.27-.06-.11-.09-.3-.09-.57v-1.21h.42v1.21c0,.22,.03,.38,.1,.47,.06,.09,.18,.13,.33,.13,.2,0,.37-.1,.51-.29v-1.51h.42v2.12h-.42Z"/><path class="d" d="M44.31,18.86v-.45c.12,.08,.24,.15,.36,.2,.12,.05,.23,.08,.31,.08s.16-.02,.23-.06c.06-.04,.09-.09,.09-.15s-.02-.11-.06-.15-.13-.1-.26-.18c-.27-.15-.45-.28-.53-.39-.08-.11-.13-.22-.13-.35,0-.16,.06-.3,.19-.4,.13-.1,.29-.15,.49-.15s.42,.06,.64,.17v.41c-.25-.15-.45-.23-.61-.23-.08,0-.15,.02-.2,.05-.05,.03-.07,.08-.07,.14,0,.05,.02,.1,.07,.14,.05,.04,.12,.1,.24,.16l.15,.09c.35,.2,.53,.42,.53,.66,0,.17-.07,.32-.2,.43-.14,.11-.31,.17-.52,.17-.13,0-.24-.01-.34-.04-.1-.03-.22-.08-.37-.15Z"/><path class="d" d="M46.51,16.01c.07,0,.13,.02,.18,.07,.05,.05,.07,.11,.07,.17s-.02,.13-.07,.17c-.05,.05-.11,.07-.18,.07-.06,0-.12-.02-.17-.07-.05-.05-.07-.11-.07-.17s.02-.12,.07-.17c.05-.05,.11-.07,.17-.07Zm-.21,.89h.42v2.12h-.42v-2.12Z"/><path class="d" d="M48.97,18.52v.41c-.21,.08-.42,.12-.62,.12-.33,0-.6-.1-.79-.29-.2-.2-.3-.46-.3-.79s.1-.6,.29-.81c.19-.2,.44-.31,.76-.31,.11,0,.21,.01,.29,.03,.09,.02,.19,.06,.32,.12v.45c-.21-.13-.41-.2-.59-.2s-.34,.07-.46,.2c-.12,.13-.18,.3-.18,.51,0,.22,.07,.39,.2,.52,.13,.13,.31,.19,.53,.19,.16,0,.35-.05,.55-.14Z"/></g><path class="d" d="M54.12,.36V23.47H.36V.36H54.12m.36-.36H0V23.83H54.48V0h0Z"/></g></g></g></svg>