<?xml version="1.0" encoding="UTF-8"?><svg xmlns="http://www.w3.org/2000/svg" viewBox="0 0 12.85 79.72"><defs><style>.d{fill:#f7931e;}.e{fill:#fff;}.f{fill:#d4d6d5;}</style></defs><g id="a"/><g id="b"><g id="c"><g><path class="f" d="M3.04,6.92c.04,.17,0,.35,.03,.52,.02,.12,.06,.19,.05,.28-.05,.35-.12,.67-.12,1.03s.03,.74,.03,1.12c0,.41-.03,.83,0,1.25,.01,.19,.04,.38,.04,.58,0,.22-.03,.47,.08,.67,.22,.38,.77,.31,1.14,.29,.18,0,.35-.06,.53-.06,.22,0,.43,0,.65,0,.4-.01,.78,.09,1.18,.09,.22,0,.43-.05,.65-.06,.24-.01,.48,0,.72,0,.39,0,.95,.03,1.02-.49l-.5,.38c-.12,0,.11,.02,.14,.02,.28,.03,.52-.26,.52-.51,0-.31-.23-.49-.51-.52,.1,.01-.11-.02-.14-.02-.2,0-.47,.15-.5,.38l.02-.04,.19-.18-.04,.02,.26-.07c-.37,.04-.75,0-1.12,0-.41,.01-.79,.1-1.2,.03s-.84-.05-1.28-.05c-.2,0-.38,.04-.58,.06-.09,.01-.19,0-.28,0-.04,0-.34,0-.25,.02l.23,.14-.03-.03,.13,.23c-.02-.09,0-.22,0-.32,0-.14-.01-.28-.03-.43-.03-.24,0-.49,0-.74,0-.47-.03-.95-.04-1.42,0-.2-.02-.42,0-.61,.01-.17,.06-.33,.09-.49,.05-.24,.03-.44-.02-.68-.04-.2-.02-.43-.06-.65-.14-.65-1.15-.39-1.01,.27h0Z"/><rect class="e" x="3.34" y="50.51" width="5.92" height="20.91" transform="translate(-.29 .03) rotate(-.27)"/><path class="e" d="M3.48,12.59l5.3-.03c.67,0,.68-1.04,.01-1.04l-5.3,.03c-.67,0-.68,1.04-.01,1.04h0Z"/><path class="e" d="M2.97,6.79c0,.19,.02,.38,.03,.57,0,.07,.01,.14,.02,.2,.02,.15,.03-.05,0,.05-.04,.11-.04,.28-.05,.4-.03,.43,.07,.84,.11,1.21,.01,.11-.02,.22,0,.33,0,0,.03,.19,.03,.2,.01,0,.03-.18,0-.05-.05,.2-.05,.41-.05,.64s0,.45,.02,.69c.02,.18,.05,.37,.04,.55h1.04v-.06c0-.67-1.04-.68-1.04-.01v.07c0,.67,1.01,.68,1.04,.01,0-.19-.03-.38-.04-.57-.02-.21-.02-.41-.02-.63,0-.17,.01-.35,.03-.49,.02-.15,0-.24,0-.39,0-.09,.01-.19,0-.28-.01-.4-.13-.75-.11-1.17,0-.1,.02-.19,.04-.29,.02-.14,0-.28,0-.4-.01-.19-.04-.4-.03-.56,.02-.67-1.02-.68-1.04-.01h0Z"/><path class="e" d="M3.81,7.12c.11,.08,.21,.06,.33,.1-.07-.01-.07,0-.01,0,.07,.01,.14,.02,.21,.03,.22,0,.43,0,.65,0,.43,0,.86-.02,1.29,0,.19,0,.37,.08,.57,.09,.21,0,.42,0,.63,0,.41,0,.82-.06,1.22-.09,.28-.02,.52-.21,.52-.51,0-.26-.23-.55-.51-.52-.38,.03-.76,.09-1.14,.1-.21,0-.43,.02-.64,0-.17,0-.34-.07-.52-.08-.41-.03-.83,0-1.24,0-.19,0-.39,0-.58,0-.03,0-.26,0-.21,0-.08,0-.17-.03-.26-.04l.26,.07-.03-.02c-.23-.17-.58-.04-.71,.18-.16,.26-.05,.55,.18,.71h0Z"/><path class="e" d="M8.24,7.15c0,.39,0,.78,0,1.17,0,.36-.05,.72-.09,1.1-.02,.18-.06,.36-.05,.55,0,.17,.04,.33,.04,.5,0,.39,.04,.78,.06,1.17,.01,.28,.22,.52,.51,.52,.27,0,.54-.23,.52-.51-.02-.38-.07-.75-.06-1.13,0-.16-.03-.39-.04-.51,0-.19,.03-.39,.05-.58,.04-.37,.09-.69,.09-1.05,0-.4,0-.81,0-1.21,0-.67-1.04-.68-1.04-.01h0Z"/><path class="e" d="M7.94,8.57c1.93,0,1.93-3,0-3s-1.93,3,0,3h0Z"/><path class="e" d="M4.09,43.98c.01,.28,.06,.57,.02,.85-.04,.3-.15,.57-.2,.87-.1,.57-.09,1.12-.24,1.68-.28,1.03-.12,2.11-.23,3.15l.39-.5h-.02l.27,1.01c.19-.06,.39-.03,.58-.04,.21,0,.41-.02,.62-.02,.4,0,.79,0,1.19-.04,.44-.04,.85-.09,1.3-.08,.22,0,.45,0,.67,0,.18,0,.38,.03,.56-.04,.24-.1,.35-.24,.39-.5s-.16-.58-.21-.83c-.07-.31-.07-.63-.11-.95-.03-.23-.14-.44-.38-.5-.21-.06-.49,.03-.59,.23-.09,.18-.09,.54-.25,.66-.13,.1-.38,.18-.54,.22-.19,.05-.38,.04-.57,.06-.76,.07-1.53,.24-2.3,.1l-.15,1.02c.75,0,1.49-.02,2.24-.01,.35,0,.7,.02,1.06,.02,.31,0,.62-.03,.85-.26,.45-.47,.16-1.38,.01-1.92-.17-.62-.31-1.25-.34-1.9-.01-.3-.02-.61-.03-.91,0-.34,.07-.75-.07-1.06s-.46-.41-.79-.43c-.38-.03-.77,0-1.15,.01-.62,.04-1.22,.41-1.43,1.02s-.26,1.39-.33,2.05-.36,1.31-.34,1.98c.02,.82,.95,.84,1.57,.84,.31,0,.65-.05,.96-.08s.71-.09,1-.24c.71-.36,.41-1.16,.33-1.78-.09-.7-.11-1.42-.13-2.12,0-.28,.02-.56-.12-.81-.19-.33-.47-.48-.85-.41-.58,.11-1.23,.38-1.53,.92-.35,.62-.35,1.41-.51,2.08-.14,.59-.55,1.66,.23,1.97,.69,.27,1.29-.11,1.92-.3,.83-.24,.69-1.17,.69-1.86,0-.76,.11-1.65-.36-2.3-.2-.28-.54-.35-.82-.11-.24,.22-.32,.59-.44,.88-.16,.37-.29,.75-.46,1.12-.16,.34-.34,.67-.51,1.01-.13,.28-.36,.65-.28,.96,.09,.35,.43,.46,.75,.43,.41-.03,.73-.22,.97-.55,.19-.26,.28-.6,.36-.91,.07-.28,.14-.65,.15-.94,0-.67-1.03-.68-1.04-.01,0,.29-.09,.61-.17,.89s-.14,.53-.47,.48l.37,.16-.03-.02,.13,.23v.23c.03-.22,.19-.47,.29-.68,.16-.31,.31-.61,.45-.93s.24-.62,.37-.92c.06-.14,.12-.29,.18-.43,.03-.07,.05-.13,.08-.2,.02-.05,.08-.11,.02-.06l-.82-.11c.23,.32,.22,.66,.22,1.04,0,.43,0,.85,0,1.28,0,.09-.02,.19,0,.28,.01,.14-.04,.1,.06,.06-.11,.05-.3,.05-.44,.12s-.25,.13-.4,.18c-.07,.02-.13,.03-.21,.04-.03,0-.17-.03-.11,.02l.13,.23c-.08-.26,.11-.68,.17-.93,.09-.38,.14-.76,.22-1.14,.06-.29,.09-.72,.33-.91,.18-.14,.5-.27,.73-.28l-.26-.07,.07,.03-.18-.19c.12,.16,.07,.32,.08,.54,.01,.26,.03,.51,.04,.77,.02,.58,.06,1.16,.15,1.74,.02,.11,.04,.22,.06,.33,.02,.07,.03,.13,.03,.2,.12-.15,.1-.19-.03-.13-.23,0-.46,.1-.7,.1-.26,0-.51,.07-.76,.06-.17,0-.49,.03-.63-.06l.18,.19-.04-.07,.07,.26c-.06-.5,.18-1.04,.27-1.53s.12-1.01,.19-1.5c.06-.37,.04-.85,.41-1.05,.19-.1,.5-.05,.71-.05,.23,0,.51-.05,.73,.03l-.23-.14,.05,.05-.13-.23c.08,.31,0,.7,.02,1.02s.01,.66,.05,1,.08,.69,.14,1.03,.18,.67,.26,1.02c.03,.15,.08,.31,.11,.46,0,.05,0,.13,.02,.18-.03,.13,0,.14,.08,.04,.1-.05,.12-.07,.05-.06-.07-.05-.41,0-.51,0-.2,0-.39-.01-.59-.02-.78-.02-1.57,.01-2.35,0-.57,0-.74,.91-.15,1.02,.98,.18,1.92,0,2.88-.08,.47-.04,.98-.17,1.38-.43,.17-.11,.31-.28,.4-.46,.08-.16,.08-.38,.16-.53l-.97-.27c.04,.33,.06,.66,.1,.99,.02,.18,.07,.34,.12,.52,.02,.06,.03,.11,.05,.17,.01,.04,.03,.2,.04,.1l.39-.5c-.12,.05-.35,0-.49,0-.21,0-.42,0-.63,0-.44,0-.87,.05-1.31,.1-.39,.04-.77,.02-1.16,.03-.42,.01-.91-.04-1.31,.09-.64,.21-.39,1.14,.27,1.01h.02c.24-.05,.36-.28,.39-.5,.02-.18,.04-.48,.04-.71,0-.29,0-.57,.01-.85,.03-.52,.07-.99,.19-1.5,.06-.27,.12-.55,.14-.83s.02-.56,.08-.83c.07-.3,.18-.59,.21-.91s0-.61-.02-.92c-.03-.67-1.07-.68-1.04-.01h0Z"/><path class="e" d="M3.24,71.55c0,.05,.02,.2,.02,.2,0,.03,0,.03,0-.01,0-.04,0-.04,0-.01,0,.07,0,.06,0,0,0,.06-.02,.13-.03,.19,0,.08,0,.17,0,.25,0,.03,0,.07,0,.1v.05s0-.05,0,0c-.05,.18-.08,.38-.07,.57,0,.09,0-.05,0,.02s-.02,.13-.03,.2c0,.03,0,.05,0,.08,0,.04,0,.03,0-.01,0-.08,.04-.14,.1-.2l.23-.13h-.03l.58,.25v-.03l.06,.26c0-.21-.09-.42-.28-.53-.1-.06-.17-.07-.28-.08-.09-.01,.14,.04-.01,0l.23,.14-.02-.03,.15,.37c-.02-.16-.05-.31-.17-.43s-.34-.2-.52-.14c-.2,.06-.32,.21-.48,.34l.23-.13c-.06,.02-.12,.04-.17,.07,0,0-.22,.15-.2,.19,0-.02,.19-.15,.05-.07-.06,.03-.11,.07-.16,.11-.12,.1-.23,.21-.33,.33-.03,.04-.02,.03,0,0-.05,.05-.12,.08-.18,.13-.04,.04-.03,.03,0,0-.04,.03-.08,.05-.12,.08-.07,.05-.14,.11-.21,.17-.02,.02-.05,.04-.07,.06l-.02,.02s.08-.06,.13-.07l.58,.77c-.07,.09,.03-.01,.04-.02-.07,.07,.02-.01,.04-.03,.07-.04,.13-.09,.2-.13,.16-.11,.32-.23,.48-.33,.18-.12,.33-.26,.42-.46,.04-.09,.1-.19,.13-.28,.01-.04,.02-.09,.03-.14l-.02,.05s.03-.05,0,0c.17-.21,.23-.53,0-.74-.19-.18-.55-.23-.74,0-.09,.11-.18,.22-.23,.37-.01,.04-.03,.09-.03,.13l.02-.05-.03,.07s-.03,.07-.05,.11c0,.01-.07,.11-.02,.05,.03-.03,.02-.03,0,0,.04-.03,.05-.04,.01-.02-.04,.02-.09,.05-.13,.08-.16,.11-.32,.23-.48,.33-.21,.13-.38,.27-.53,.47-.12,.16-.08,.43,.03,.58s.35,.26,.54,.19c.17-.06,.31-.17,.44-.29,.04-.03,.07-.06,.11-.09-.03,.03-.06,.04,0,.01,.06-.04,.12-.09,.17-.13,.07-.06-.03,.02,.01-.01,.15-.1,.25-.24,.38-.36,.03-.03,.06-.06,.09-.09-.06,.04-.01,.02,.02,0,.13-.07,.21-.16,.29-.28l-.19,.18-.06,.02c.07-.02,.13-.05,.18-.09,.04-.03,.08-.06,.12-.1,.02-.02,.04-.04,.06-.06-.04,.05-.03,.02,.01,0l-.4,.05h.02l-.23-.13,.02,.02-.15-.37c.03,.23,.11,.44,.34,.54,.05,.02,.09,.03,.14,.04,.05,0,.1,.02,.15,.02,.06,0,.04,0-.06,0l-.23-.14,.02,.02-.15-.37c0,.13,.03,.23,.08,.34,.08,.19,.39,.32,.58,.24,.3-.12,.44-.33,.46-.65,0-.01,0-.15,0-.06,0,.05,0,.04,0-.02l.02-.14c.01-.11,.01-.21,.02-.32-.01,.09,.02-.06,.02-.07,.01-.07,.03-.14,.03-.22,0-.09,0-.19,0-.28,0,0,0-.17,0-.06,0-.07,.03-.14,.03-.21,0-.04,0-.08,0-.12l-.02-.14c-.01-.06-.01-.05,0,.02,0-.27-.23-.53-.51-.52s-.52,.22-.52,.51h0Z"/><path class="e" d="M2.31,75.56s.06-.09,0-.02,0,0,0,0c.03-.03,.07-.06,.1-.1,.08-.07,.15-.14,.22-.21,.16-.15,.32-.29,.48-.43,.02-.01,.04-.03,.05-.04-.02,.02-.08,.06-.02,.02,.04-.03,.08-.06,.12-.09,.11-.08,.22-.16,.33-.24,.08-.06,.16-.13,.24-.2,.02-.02,.04-.04,.06-.05,.06-.06-.04,.03-.04,.03,0,0,.04-.02,.05-.03-.08,.03-.1,.04-.06,.03,.01,0,.03,0,.04,0,.27-.05,.45-.38,.37-.64-.09-.29-.35-.42-.64-.37s-.46,.27-.66,.43c-.04,.03-.08,.06-.12,.1,.1-.09,.02-.02,0,0l-.06,.04c-.12,.09-.24,.17-.35,.26-.18,.14-.34,.3-.51,.45-.18,.17-.38,.32-.51,.54-.14,.23-.07,.58,.18,.71s.57,.07,.71-.18h0Z"/><path class="e" d="M2.98,75.57h.09l-.26-.07c-.11-.14-.13-.15-.08-.03,0,.04,0,.07,0,.11,.01,.13,0,.26,0,.38,0,.25,.03,.52,0,.77-.06,.45-.26,.86-.32,1.3l.07-.26-.05,.1c-.17,.34,.03,.79,.44,.79,.83-.02,1.64-.08,2.48,0,.41,.04,.81-.01,1.22-.02,.45-.01,.9-.02,1.35,0,.67,.02,.67-.99,.01-1.04s-1.28-.08-1.93-.08c-.41,0-1.18,.12-1.42-.26-.26-.41-.57-.91-.69-1.38-.07-.26-.08-.49-.09-.76,0-.14,0-.25,.04-.39,.02-.06,.05-.12,.08-.18,.04-.1,.02-.09-.05,.05l-.87-.24c.18,.48,.24,1.07,.29,1.58,.02,.26,.04,.52,.05,.78,0,.12,0,.25,0,.37,0,.08,0,.16-.01,.25-.04,.19,0,.17,.1-.07l.63,.09c.25,.28,.04,.25,.14,.1,.07-.11,.11-.32,.15-.45,.09-.28,.15-.57,.19-.86,.08-.6,.07-1.23,.03-1.83-.04-.66-1.06-.68-1.04-.01s.23,1.29,.34,1.93c.05,.31,.08,.62,.13,.93s.08,.66,.38,.84c.26,.16,.58,.07,.86,.01,.35-.07,.71-.16,1.07-.17s.68,0,1.02,.01c.32,0,.65,.12,.97,.03,.43-.12,.52-.71,.13-.95-.22-.14-.43-.08-.67-.08-.28,0-.65-.03-.97-.04-.38-.01-.75,0-1.13,0-.08,0-.15,0-.23,0-.05,0-.1,0-.14,0l-.03,.54c.06,.04,.45-.02,.52-.03,.35,0,.69-.02,1.04-.01s.71,.11,1.03,.05c.6-.12,1.41-.32,1.3-1.07-.03-.24-.29-.36-.5-.39-.61-.07-1.27-.07-1.89-.08-.56,0-1.26,.14-1.8-.07l.31,.24-.03-.07,.05,.4c0-.05,.02-.09,.06-.12l-.31,.24c.35-.14,.9-.03,1.27,0,.47,.03,.93,.04,1.4,.06,.54,.02,1.6,.11,1.63-.7s-1.46-.78-2-.78c-.42,0-.84,.03-1.26,.07-.2,.02-.39,.05-.59,.06-.1,0-.2,0-.3-.01-.15-.01-.1-.06-.08,.02v.28l.02-.06-.24,.31c.21-.15,.67-.09,.93-.09,.44-.01,.88-.01,1.32-.01,.59,0,1.72,.14,2-.55,.16-.38-.12-.72-.48-.83s-.79-.1-1.16-.08c-.43,.02-.86,.08-1.29,.13-.23,.03-.46,.05-.68,.07-.09,0-.18,.01-.27,.02-.06,0-.12,.01-.18,.01-.1-.02-.1,.03,0,.14l-.07,.26c-.1,.06-.12,.08-.05,.06,.05-.02,.1-.02,.15,0,.12,0,.24,.03,.35,.05,.24,.04,.48,.07,.72,.09,.49,.03,1,.06,1.49,.04,.46-.02,.95-.18,.97-.73,.02-.45-.29-.7-.69-.85-.9-.33-1.94-.1-2.86-.02-.1,0-.2,.02-.29,.01-.06,0-.11,0-.17,0-.09-.04-.1-.03-.05,.01,.06,.11,.03-.17,.03-.2,0-.13,.02-.25,.02-.38,0-.51-.01-1.01,.1-1.52h-1c.13,.34,.09,.79,.11,1.16,.02,.34,0,.71,.09,1.03,.13,.52,.85,.48,1,0,.2-.59,.25-1.2,.42-1.79l-1.02-.15c.04,.68-.2,1.35-.08,2.01,.1,.54,.85,.46,1,0,.11-.33,.2-.66,.29-.99,.06-.26,.09-.72,.24-.92l-.97-.27c.03,.28,.05,.56,.06,.84s-.02,.54,.12,.79c.23,.39,.82,.31,.95-.11,.09-.3,.14-.69,.3-.96l-.97-.27c.04,.57-.04,1.14,.07,1.7,.1,.52,.86,.48,1,0,.08-.27,.15-.53,.22-.8,.04-.18,.02-.44,.15-.58l-.87-.24c.1,.36,.16,.72,.2,1.09,.04,.4,.55,.75,.88,.38s.22-.98,.48-1.41l-.82,.1c-.1-.1-.04-.06-.01,.07,.02,.09,.02,.17,.03,.26,.02,.19,.05,.38,.09,.56,.09,.42,.75,.53,.95,.13,.12-.23,.25-.46,.37-.69,.32-.59-.57-1.12-.89-.53-.13,.23-.25,.45-.37,.69l.95,.13c-.09-.44-.02-1.03-.37-1.35-.24-.23-.64-.2-.82,.1-.12,.2-.18,.41-.23,.64-.02,.11-.05,.22-.08,.33-.02,.07-.16,.42,0,.23l.88,.38c-.05-.46-.11-.92-.23-1.37-.1-.36-.59-.53-.87-.24-.23,.24-.34,.5-.39,.83s-.15,.68-.25,1.01h1c-.09-.44,0-.95-.03-1.41s-.69-.75-.97-.27c-.21,.36-.28,.81-.41,1.21l.95-.11-.05-.08,.07,.26c.05-.41-.02-.88-.07-1.29-.06-.51-.65-.71-.97-.27-.2,.28-.23,.71-.31,1.05-.09,.38-.19,.75-.32,1.12h1c-.05-.27,.05-.61,.07-.89s.05-.55,.04-.83c-.03-.57-.85-.73-1.02-.15s-.23,1.2-.42,1.79h1c-.18-.7,.06-1.5-.19-2.19-.16-.44-.88-.55-1,0-.14,.64-.12,1.27-.15,1.92-.02,.61-.01,1.23,.68,1.43,.59,.17,1.27,0,1.87-.04,.3-.02,.61-.04,.91-.04,.15,0,.29,.02,.43,.06,.06,.02,.12,.04,.18,.06,.07,.03,.05-.01-.07-.12l.07-.26c.06-.13,.14-.06-.04-.08-.09,0-.19,0-.28,0-.2,0-.41,0-.61-.01-.39-.01-.78-.04-1.17-.1-.6-.1-1.75,0-1.5,.92s1.34,.64,2.01,.57c.41-.05,.81-.1,1.22-.13,.22-.02,.45-.03,.67-.02,.12,0,.32-.01,.42,.06l-.24-.31,.02,.06,.06-.4c.13-.22,.13-.08,.05-.07,0,0-.15,.04-.2,.05-.21,.03-.44,0-.65,0-.46,0-.93,0-1.39,0-.57,.01-2.02-.11-1.93,.81s1.25,.84,1.9,.78c.42-.04,.83-.07,1.25-.08,.22,0,.43,0,.65,.03,.11,0,.22,.02,.33,.04,.07,0,.35,.12,.21,.01l-.15-.37v.06l.07-.26,.12-.1c-.07,.01-.09,.02-.06,.02,.03,0-.24,0-.17,0-.2,0-.41-.01-.61-.02-.44-.02-.89-.03-1.33-.06-.67-.04-1.96-.26-2.04,.72-.07,.92,1.31,.76,1.89,.75,.81-.01,1.67-.02,2.48,.07l-.5-.39v.07l.07-.4c.05-.09,.14-.05,.04-.07-.07-.01-.22,.07-.28,.09-.15,.04-.3,.1-.46,.12h.28c-.69-.1-1.37-.1-2.07-.07-.31,0-.72-.02-.98,.18-.28,.21-.33,.59-.21,.9,.26,.67,1.17,.48,1.73,.49,.36,0,.73,.02,1.09,.02,.17,0,.35,.01,.52,0,.15-.02,.18-.02,.09,0-.06,0-.07,0-.02,0,.02,0,.04,0,.06,0,.08,0,.04-.01-.11-.05l.13-.95c-.19,.05-.49-.06-.69-.06-.27,0-.54-.02-.82-.02-.31,0-.62,.04-.93,.09-.15,.02-.29,.05-.44,.08-.08,.01-.37,.03-.42,.08,.28,.31,.37,.36,.3,.14v-.07c-.03-.13-.05-.26-.07-.39-.04-.3-.07-.59-.12-.89-.1-.5-.27-1.01-.29-1.53h-1.04c.05,.68,.08,1.44-.09,2.12-.13,.51-.55,1.17-.12,1.65,.16,.18,.43,.19,.63,.09,.63-.32,.44-1.35,.41-1.93-.02-.34-.06-.69-.12-1.03-.06-.37-.1-.77-.23-1.12s-.57-.54-.87-.24c-.46,.46-.46,1.39-.34,1.98,.13,.69,.51,1.29,.85,1.89,.16,.28,.4,.59,.72,.69s.74,.15,1.08,.14c.84,0,1.65,.01,2.48,.08v-1.04c-.44-.01-.89,0-1.34,0-.41,.01-.81,.06-1.22,.02-.83-.08-1.64-.01-2.48,0l.44,.79c.31-.59,.46-1.38,.46-2.04,0-.62,.15-1.84-.78-1.83-.67,0-.68,1.05-.01,1.04h0Z"/><path class="e" d="M7.61,74.05c1.93,0,1.93-3,0-3s-1.93,3,0,3h0Z"/><path class="e" d="M6.89,72.62c-.33,0-.66-.02-.99,0-.2,.01-.39,.04-.58,.08s-.39,.06-.53,.23c-.09,.11-.15,.22-.16,.37,0,.13,.05,.28,.15,.37,.19,.18,.55,.23,.74,0,.06-.07-.1,.06-.04,.03l-.12,.05c.08-.02,.16-.03,.23-.04,.09-.02,.19-.03,.28-.05l-.14,.02c.38-.05,.77-.01,1.15-.01,.27,0,.53-.23,.52-.51s-.22-.53-.51-.52h0Z"/><path class="e" d="M7.64,71.79c-.1-.03-.18-.09-.23-.17,0,.01,.02,.03,.03,.05,.04,.08-.04-.12,0,0,.03,.09,.06,.17,.1,.26,.01,.03,.02,.05,.04,.08-.02-.06-.03-.06,0,0,.02,.05,.04,.11,.05,.16,.01,.04,.02,.08,.03,.12,0,.02,.04,.21,.01,.07,.04,.23,.06,.48,.05,.71,0,.05,0,.09,0,.14,0,.06,0,.06,0,0,0,.06-.02,.12-.02,.18,0,.05,0,.11,0,.16,0,.06,0,.05,0-.02,.03-.06,.03-.06,0-.01l.45-.25,.32,.13,.06,.07s-.04-.09,0,0,0-.03-.01-.06c-.02-.06-.03-.11-.05-.17-.09-.28-.18-.54-.37-.76-.18-.21-.55-.2-.74,0-.2,.22-.19,.51,0,.74-.12-.14,.05,.08,.03,.08-.02-.06-.03-.07-.01-.04l.02,.05s.02,.06,.03,.09c.03,.08,.05,.16,.08,.24,.09,.34,.26,.64,.65,.67,.19,.01,.35-.11,.45-.25,.11-.16,.14-.34,.14-.53,0-.03,0-.07,0-.1,0-.03,0-.03,0,0-.01,.07,0,.03,.02-.11,0-.07,.01-.14,.02-.21,0-.32-.03-.65-.08-.96-.02-.12-.04-.25-.08-.37-.03-.09-.07-.18-.1-.26-.01-.03-.03-.07-.04-.1,0,0,.05,.14,.03,.07-.04-.12-.08-.24-.14-.34-.09-.17-.23-.27-.41-.35-.25-.1-.58,.1-.64,.36-.07,.3,.09,.53,.36,.64h0Z"/><path class="e" d="M7.17,73.09c.12,.34,.35,.68,.75,.69s.7-.35,.84-.7c.13-.3,.13-.61,.07-.93s-.1-.57-.06-.91l-.97,.25c-.03-.06,.03,.11,.04,.14,.01,.05,.02,.11,.03,.17,.03,.14,.06,.29,.08,.43,.06,.31,.1,.63,.15,.94s.08,.58,.13,.89c.05,.27,.12,.62,.28,.85s.45,.34,.71,.19c.23-.13,.35-.47,.19-.71-.03-.05-.03-.05,0,0,0-.03-.02-.06-.03-.08-.02-.06-.04-.11-.05-.17-.03-.11-.08-.29-.09-.36-.05-.33-.09-.66-.15-.99-.05-.31-.09-.61-.15-.92s-.11-.61-.24-.89c-.1-.21-.38-.3-.58-.24-.24,.06-.36,.27-.39,.5-.02,.2-.01,.43,0,.64,.01,.14,.04,.27,.06,.4,0,.05,.02,.1,.03,.15,.03,.15,0-.04,0,.08,0,.01,0,.13,0,.06s-.01,.05-.02,.06c-.01,.04-.03,.09-.04,.13,.04-.08-.02,.01-.03,.04-.04,.07,.02,0-.01,.01-.03,.02-.02,.02,.02-.01h.36s.12,.13,.07,.05c-.06-.08,.03,.08,0-.01-.09-.27-.35-.44-.64-.37-.26,.07-.46,.37-.37,.64h0Z"/><path class="e" d="M8.47,71.94s-.08-.13-.06-.16c-.01,.02,0,.1,0,.13,0,.07,.01,.15,.03,.22,.05,.13,.07,.17,.04,.1-.01-.03-.01-.03,0,.01,.12,.29,.35,.44,.63,.56,.1,.04,.19,.07,.29,.1h.05c.09,.04,.06,.02-.09-.06l-.07-.12c.02,.05,.04,.1,.06,.14,.11,.2,.31,.35,.48,.5,.1,.08,.2,.17,.31,.25,.04,.03,.09,.05,.13,.09-.07-.06,.03,.05,.05,.07,.07,.08,.14,.16,.21,.24,.09,.11-.03-.07,.03,.05,.02,.04,.04,.07,.07,.11,.15,.21,.34,.36,.56,.5,.04,.03,.09,.06,.13,.09,.09,.06-.04-.03,.07,.06,.04,.03,.08,.06,.12,.09,.11,.07-.03-.02-.04-.06l-.07-.26v.07c0,.08,.01,.17,.04,.24,.03,.07,.04,.08,.08,.14,.01,.02,.03,.04,.05,.06,.03,.03,.01,.01-.04-.05l-.07-.26v.04c0,.27,.23,.53,.52,.52s.53-.22,.52-.51c0-.11-.02-.21-.07-.31-.02-.04-.05-.08-.09-.12-.05-.06-.03-.02,.08,.13v.28c.04-.22,.02-.43-.14-.6-.07-.08-.16-.14-.25-.2-.04-.02-.04-.03,0,0,.06,.04,.03,.02-.08-.07-.04-.03-.08-.06-.13-.09-.07-.05-.22-.14-.25-.16,.02,.02-.07-.07-.08-.09,.05,.06,0-.02-.02-.04-.06-.11-.14-.21-.22-.3-.08-.09-.16-.18-.24-.26-.06-.06-.13-.12-.2-.17-.01,0-.12-.08-.07-.04-.09-.07-.18-.15-.27-.23-.04-.04-.09-.08-.13-.12-.02-.02-.05-.04-.07-.06-.03-.04-.04-.04-.01,0,.04,.15,0-.04-.04-.1-.04-.06-.08-.11-.13-.16-.11-.1-.24-.15-.39-.19-.05-.01-.1-.03-.15-.04-.03-.01-.06-.02-.1-.04,.04,.02,.04,.02,0,0-.03-.02-.09-.08-.13-.08l.15,.2c-.02-.05-.04-.11-.06-.16,0,.03,.03,.16,.03,.05,0-.07-.01-.15-.02-.21-.03-.14-.1-.3-.21-.4-.21-.17-.53-.23-.74,0-.17,.19-.23,.55,0,.74h0Z"/><path class="e" d="M12.83,75.75c0-.09,0-.18,0-.28,0-.11,0-.22-.03-.32-.02-.07-.05-.13-.07-.2-.01-.03-.02-.06-.04-.08-.03-.05-.07-.09-.1-.13,0-.01-.02-.02-.03-.03-.11-.09-.15-.12-.28-.17-.07-.02-.14-.03-.21-.01-.07,0-.13,.02-.19,.06-.06,.03-.11,.08-.15,.13-.05,.05-.08,.11-.09,.18-.03,.13-.03,.28,.05,.4l.08,.11c.06,.07,.14,.11,.23,.14h0l-.12-.05s.02,.01,.03,.02l-.1-.08s.03,.03,.05,.05l-.08-.11s.04,.07,.06,.1l-.05-.12s.03,.08,.03,.12l-.02-.14c0,.06,0,.13,0,.19,0,.07,0,.15,0,.22,0,.13,.05,.27,.15,.37,.05,.05,.1,.09,.17,.11,.06,.03,.13,.05,.2,.05,.13,0,.27-.05,.37-.15s.16-.23,.16-.37h0Z"/><path class="e" d="M12.02,75.02c-.09,0,.08,.03,.03,.01-.09-.04,0,.02,.01,.01-.02,0-.12-.07-.15-.08-.1-.06-.19-.14-.3-.19-.05-.03-.11-.06-.16-.09-.06-.03-.13-.06-.2-.09-.08-.04,.02,0,.02,0,0,0-.16-.09-.17-.09-.04-.02-.14-.07-.17-.12,.02,.03,.06,.05,0,0s-.1-.08-.15-.12-.12-.08-.18-.1c-.05-.02,.07,.08,.02,0-.02-.02-.04-.04-.06-.06-.04-.04-.08-.08-.11-.13-.08-.09,.03,.06,0,0-.01-.03-.03-.05-.05-.08-.03-.05-.06-.1-.09-.15-.05-.07-.1-.14-.16-.2s-.03,0,0,0c-.02-.01-.05-.07-.06-.09-.13-.24-.48-.34-.71-.19s-.33,.45-.19,.71c.05,.09,.11,.16,.17,.24,.02,.02,.04,.05,.06,.07l.03,.04s.02,.02-.03-.04c.03,.01,.07,.13,.09,.16,.05,.09,.11,.16,.17,.24,.1,.12,.21,.24,.33,.33,.05,.04,.12,.08,.18,.11,.05,.02-.06-.05,.01,0,.05,.05,.11,.09,.17,.13,.11,.08,.23,.16,.35,.22,.06,.03,.12,.05,.18,.08-.12-.04,0,0,.02,.02,.06,.03,.12,.06,.18,.1,.27,.16,.53,.39,.87,.37,.27-.02,.54-.22,.52-.51,0-.26-.22-.55-.51-.52h0Z"/><path class="e" d="M9.94,74.62l.04,.05-.13-.23,.02,.06c.09,.24,.3,.42,.57,.38,.25-.04,.46-.24,.46-.51,0-.42-.27-.82-.51-1.16-.21-.3-.54-.72-.91-.82-.21-.06-.48,.03-.59,.23-.21,.4-.21,.9-.21,1.34,0,.2,0,.4,0,.6-.02,.26,.05,.51,.1,.76,.06,.34,.48,.47,.76,.32,.22-.12,.34-.38,.39-.62l-.95,.11c-.01-.1-.01-.09-.01,0v.07c0,.1,.03,.18,.05,.27,.02,.15,.02,.3,.05,.45s.03,.3,.08,.44c-.01-.03,.1,.29,.06,.15,.02,.1,.03,.22,.05,.32,.04,.26,.04,.48,.11,.77,.03,.13,.06,.26,.08,.39,0,0,0,.03,.02,.12,.01,.11,.05,.21,.07,.32l.51-.65s.04,.01-.02,0c-.06-.02-.12-.02-.18-.02-.08,0-.16,.01-.23,0-.19-.02-.38-.06-.57-.08-.17-.02-.33,0-.5-.04-.1-.02-.21-.05-.32-.05-.03,0-.06,0-.09,0-.1,0-.07,.02,.07,.05l.24,.31v-.04l-.02,.28c-.03,.14-.08,.09-.01,.05s.15-.11,.21-.17c.15-.12,.31-.23,.45-.36,.28-.25,.58-.56,.78-.87l-.31,.24,.05-.02-.65-.51c.01,.14-.04,.27-.08,.4-.02,.07-.04,.15-.07,.22,0,.03-.08,.2-.02,.1l.31-.24h.2c-.27-.05-.56,.08-.64,.36-.07,.25,.08,.59,.36,.64,.41,.08,.66-.13,.78-.51,.09-.3,.23-.65,.2-.97s-.3-.63-.65-.51c-.27,.1-.41,.31-.59,.51-.17,.18-.33,.36-.52,.52-.32,.26-.94,.56-.79,1.11,.08,.28,.33,.43,.61,.43,.21,0,.41,.06,.62,.08s.44,0,.66,.04c.24,.04,.49,.06,.72,.06,.37,0,.55-.32,.51-.65-.04-.29-.1-.59-.17-.87-.03-.12-.03-.26-.05-.39,.01,.09,0-.08,0-.1,0-.1-.04-.19-.06-.29-.06-.3-.15-.58-.18-.88-.01-.17-.05-.34-.06-.51s0-.35-.12-.53c-.23-.35-.85-.35-.95,.11,0,.04-.02,.08-.03,.12-.04,.09,.01,0-.03,.05l.19-.18h-.02l.76,.33c-.04-.19-.07-.34-.06-.53,.01-.15,0-.31,0-.46,0-.25-.06-.68,.06-.91l-.59,.23c-.13-.04-.06-.04,0,.03,.03,.04,.07,.08,.1,.11,.09,.09,.17,.16,.24,.26s.13,.2,.19,.3c.03,.06,.14,.19,.14,.26l1.02-.13c-.05-.13-.11-.23-.19-.34-.17-.22-.55-.19-.74,0-.22,.22-.18,.51,0,.74h0Z"/><path class="e" d="M7.74,78.32c-.47,.04-.93,.03-1.4,.04h-.37s-.35,.02-.36,0c.08,.02,.1,.02,.06,0-.01,0-.03,0-.04-.01-.1-.02-.21-.03-.31,0-.26,.07-.39,.29-.41,.55-.02,.27,.25,.53,.51,.52,.3-.01,.5-.22,.52-.51v-.03l-.07,.26v-.02l-.18,.18h.01l-.26,.06c.07,0-.16-.03-.04,0,.06,.01,.13,.02,.2,.03,.1,0,.21,0,.31,0h.62c.4,0,.8,0,1.2-.04,.27-.02,.54-.22,.52-.51,0-.26-.22-.55-.51-.52h0Z"/><g><path class="f" d="M6.78,13.03c-.06,.12-.12,.25-.2,.35l.08-.1c-.05,.06-.1,.11-.16,.16-.03,.02-.05,.04-.08,.07-.04,.04-.07,.09-.11,.14-.01,.02-.02,.03-.03,.05-.04,.06-.06,.12-.06,.19-.02,.07-.01,.14,0,.21,.02,.07,.05,.13,.09,.18,.04,.06,.08,.1,.14,.14,.12,.06,.27,.1,.4,.06l.12-.05c.08-.05,.14-.11,.19-.18,.01-.02,.02-.04,.04-.06l-.08,.1s.09-.08,.14-.13c.08-.07,.14-.16,.21-.24,.08-.1,.13-.22,.19-.34,.04-.06,.06-.12,.06-.19,.02-.07,.01-.14,0-.21-.02-.07-.05-.13-.09-.18-.04-.06-.08-.1-.14-.14-.12-.06-.27-.1-.4-.06-.12,.04-.25,.12-.31,.24h0Z"/><path class="f" d="M3.09,13.41c.05,.08,.11,.16,.16,.25-.05-.08,.04,.13,.04,.14,.05,.21,.13,.42,.21,.62,.14,.33,.3,.61,.53,.89l-.13-.23c-.04-.24,.05,.15,.08,.2,.08,.13,.2,.21,.35,.25,.18,.05,.39,.05,.58,.05,.36,0,.73-.08,1.11-.1,.17,0,.35-.03,.52-.04,.11,0,.24,0,.34-.04,.07-.02,.08-.02,.03-.02,.04,0,.08,0,.12-.01,.31-.04,.63-.16,.93-.19,.28-.03,.52-.21,.52-.51,0-.26-.23-.55-.51-.52s-.56,.12-.84,.17c-.08,.02-.17,.03-.25,.04,.06,0,.05,0-.01,0-.06,0-.11,0-.16,.02-.12,.03-.23,.03-.36,.05-.31,.03-.62,.05-.94,.08-.27,.03-.56,.09-.83,.03l.31,.24-.02-.03,.07,.26c-.02-.2-.09-.33-.2-.48-.12-.17-.2-.32-.28-.51-.07-.17-.12-.36-.17-.54-.07-.2-.15-.35-.29-.57-.35-.57-1.25-.06-.9,.52h0Z"/><path class="f" d="M8.27,12.62c-.09,.09-.17,.21-.22,.32-.04,.08-.08,.16-.11,.25-.02,.05-.03,.11-.05,.16l.05-.12c-.04,.07-.08,.15-.11,.23-.01,.05-.02,.1-.04,.14l.05-.12c-.08,.18-.13,.33-.14,.54l.02-.14c-.02,.08-.03,.17-.03,.25l.07-.26c-.05,.1-.09,.21-.13,.32l.05-.12c-.03,.07-.06,.15-.1,.22l.05-.12c-.03,.07-.06,.14-.09,.21l.05-.12s-.01,.03-.02,.04c-.07,.1-.09,.28-.06,.4s.12,.25,.24,.31c.12,.06,.27,.1,.4,.06s.23-.12,.31-.24c.05-.07,.07-.15,.1-.22l-.05,.12c.03-.07,.06-.15,.1-.23l-.05,.12c.04-.1,.08-.19,.11-.29l-.05,.12c.06-.11,.11-.22,.1-.35l-.02,.14c.01-.1,.03-.19,.04-.29l-.02,.14c0-.05,.02-.1,.04-.15l-.05,.12c.05-.11,.09-.22,.13-.33l-.05,.12c.03-.08,.08-.15,.11-.23,.02-.06,.03-.11,.05-.16l-.05,.12c.05-.1,.1-.21,.17-.3l-.08,.1,.02-.02c.19-.19,.21-.54,0-.74s-.53-.21-.74,0h0Z"/><path class="f" d="M4.08,13.62c.4,.03,.75,.11,1.17,.08,.06,0,.13-.02,.19-.03-.05,0-.04,.01,.02,0,.09,0,.19,0,.28,0,.18,0,.36,.02,.54,0,.17-.01,.34,.02,.52,.02,.09,0,.18,0,.27,0,.03,0,.34-.02,.23-.02,.2,0,.39,0,.59,0,.11,0,.22,0,.33,0,.03,0,.36-.03,.23-.02,.28-.03,.52-.21,.52-.51,0-.26-.23-.55-.51-.52-.31,.03-.75,0-1.14,.02-.18,.01-.28,.02-.51,.02-.17,0-.34-.03-.52-.02s-.36,0-.54,0c-.2,0-.38,.02-.58,.02,.04-.01,.03-.01-.04,0-.05,0-.1,0-.15,0-.1,0-.21,0-.31,0-.15-.01-.39-.07-.58-.08-.28-.02-.52,.25-.52,.51,0,.29,.23,.51,.51,.52h0Z"/><path class="f" d="M7.98,13.09c-.09,.17-.18,.37-.24,.52-.01,.02-.05,.11-.07,.15-.01,.03-.03,.06-.04,.09-.02,.05-.08,.09,0,.03,.14-.11-.03-.03-.11-.01-.07,.01-.12,.01-.2,.02-.2,.01-.39,.05-.58,.07-.4,.03-.79,.04-1.2,.03-.19,0-.26-.04-.44-.08-.1-.02-.11-.02-.17-.06-.02-.02-.08-.08-.11-.09-.02-.01-.02,0,0,0,.05,.04,.08,.09,.09,.16v.25l-.13,.23,.03-.02-.23,.13s.05-.02,0,0c.05,0,.1,0,.15,0,.1,0,.2-.01,.3-.01,.24,0,.48,0,.71,0s.48-.04,.72-.07c.03,0,.07,0,.02,0,.04,0,.08,0,.12,.01,.13,0,.26,0,.39-.03,.28-.05,.44-.38,.37-.64-.08-.29-.36-.42-.64-.37,.07-.01-.14,0-.18,0-.1,0-.2,0-.3,.02-.18,.02-.36,.03-.54,.04-.39,.02-.78,0-1.17,.03-.27,.02-.54,.14-.63,.42-.07,.23,.02,.46,.18,.63,.26,.26,.59,.37,.96,.47s.81,.08,1.19,.06,.78-.08,1.13-.11c.4-.03,.88-.09,1.11-.47,.16-.27,.25-.57,.4-.84,.13-.25,.07-.56-.18-.71-.23-.14-.58-.07-.71,.18h0Z"/><path class="f" d="M5.96,4.13c0,.17,.01,.35,0,.52l.02-.14s-.01,.06-.02,.09c-.02,.07-.03,.14-.01,.21,0,.07,.02,.13,.06,.19,.03,.06,.08,.11,.13,.15,.05,.05,.11,.08,.18,.09,.13,.03,.28,.03,.4-.05,.11-.07,.21-.18,.24-.31,.03-.14,.05-.29,.05-.44,0-.11,0-.21,0-.32,0-.13-.05-.27-.15-.37-.05-.05-.1-.09-.17-.11-.06-.03-.13-.05-.2-.05-.13,0-.27,.05-.37,.15s-.16,.23-.16,.37h0Z"/><path class="f" d="M3.97,6.12c.33,.19,.68,.12,1.04,.12,.33,0,.66,.05,.99,.06,.18,0,.36,0,.54,0s.35,.05,.53,.06c.35,.02,.76,.04,1.11-.03,.43-.09,.69-.54,.48-.94-.07-.13-.13-.21-.2-.36s-.14-.33-.23-.48c-.15-.24-.25-.5-.35-.79-.11-.31-.3-.57-.47-.83-.21-.31-.29-.7-.5-1.01-.09-.14-.22-.26-.3-.41-.09-.18-.16-.34-.29-.49-.18-.21-.54-.19-.74,0-.21,.21-.19,.52,0,.74,.08,.09,.13,.3,.22,.42,.12,.17,.25,.31,.33,.5,.09,.21,.19,.42,.29,.63,.09,.18,.22,.33,.32,.5,.21,.35,.29,.75,.47,1.1,.09,.17,.2,.33,.28,.51,.04,.09,.08,.19,.12,.28,.02,.05,.05,.09,.08,.14,.02,.02,.11,.18,.07,.11l-.07-.26v.05l.07-.26c.05-.09,.12-.13,.21-.14h-.04c-.07-.02-.18,0-.26,0-.17,0-.34,0-.51,0-.33,0-.66-.06-.99-.06-.3,0-.61,0-.91-.04-.16-.02-.31-.02-.48-.02-.07,0-.14,0-.2,0-.02,0-.13-.02-.08,.01-.58-.34-1.11,.55-.53,.89h0Z"/><path class="f" d="M5.61,1.09c-.08,.1-.1,.28-.13,.35-.02,.06-.13,.2-.18,.29-.15,.25-.35,.45-.45,.76-.08,.26-.27,.52-.38,.77-.06,.13-.12,.24-.2,.36-.09,.13-.13,.25-.2,.39s-.13,.27-.2,.4c-.04,.07-.08,.15-.12,.22-.03,.05-.14,.23-.04,.1-.21,.28-.44,.59-.19,.93,.23,.3,.61,.2,.91,.18,.16,0,.32-.05,.46-.07,.16-.03,.35-.02,.51-.05,.33-.05,.67-.03,1.01-.03,.18,0,.36,0,.54,0,.09,0,.18,0,.27-.01,.02,0,.13,.01,.01,0-.14-.02,.09,.05,.12,.05,.42,.1,.7-.24,.65-.63-.02-.17-.13-.3-.2-.45-.06-.13-.11-.27-.17-.4-.13-.29-.26-.58-.4-.86-.13-.26-.21-.54-.37-.79-.03-.06-.02-.04,.02,.06-.02-.05-.04-.1-.06-.16-.02-.04-.03-.08-.05-.12-.06-.12-.15-.25-.27-.31-.21-.11-.45-.09-.63,.08-.37,.35-.59,.78-.8,1.23-.11,.24-.18,.49-.28,.73s-.25,.46-.27,.73,.25,.55,.51,.52c.39-.04,.77-.28,1.09-.5,.21-.15,.42-.31,.51-.56,.04-.11,.04-.22,.06-.33,.03-.13,.06-.25,.06-.39,0-.67-1.03-.68-1.04-.01,0,.04-.02,.31-.07,.39,.04-.07,0,0-.03,0,.03-.02,.02-.02-.03,.02-.03,.02-.06,.04-.09,.06-.12,.08-.23,.14-.36,.21-.04,.02-.07,.04-.11,.06-.1,.05-.1,.03,.01,.02l.51,.52v-.05l-.07,.26c.1-.2,.19-.39,.27-.59s.14-.41,.22-.61c.15-.36,.33-.7,.6-.96l-.63,.08c-.18-.09-.16-.19-.1-.06,0,.02,.07,.16,.01,.02,.05,.12,.1,.23,.16,.34,.12,.23,.2,.47,.32,.7s.23,.49,.34,.73c.06,.13,.11,.27,.17,.4,.02,.05,.05,.11,.08,.16,.01,.03,.03,.05,.04,.08,.04,.05,.04,.06,0,.03l.65-.63c.07,.04,.04,.03-.1-.04-.06-.03-.12-.04-.19-.04-.07,0-.13-.01-.19-.01-.16,0-.32,.01-.48,.01-.33,0-.65,0-.98,0-.18,0-.35,.03-.53,.06-.16,.02-.32,.02-.48,.05-.15,.02-.25,.05-.39,.05-.09,0-.18,0-.27,.02-.02,0-.22,.02-.08,.01l.26,.07h-.02l.24,.3v.26c-.02,.06-.06,.09-.01,.01,.04-.06-.05,.06,0,0,.06-.08,.12-.14,.17-.23,.12-.2,.22-.41,.32-.62,.18-.36,.36-.67,.54-1.05,.09-.19,.21-.37,.3-.57,.04-.09,.07-.23,.1-.3,0,0-.08,.09,.02-.03,.02-.03,.05-.06,.08-.09,.13-.16,.24-.34,.35-.51,.06-.09,.12-.2,.15-.3,.01-.03,.02-.06,.02-.1,0-.03,0-.05,.01-.08,0-.04,0-.03,0,.01,.17-.22,.04-.58-.18-.71-.26-.16-.54-.05-.71,.18h0Z"/><path class="f" d="M5.88,.68c0,.07,.02,.13,.04,.19,.01,.04,.03,.09,.03,.13v-.07s0,.04,0,.06v-.07s0,.02,0,.03l.44-.11h0l.04,.04s-.01-.02-.02-.03l.03,.06s-.03-.1-.06-.15c-.04-.07-.1-.12-.18-.14-.07-.02-.13-.01-.2,0-.03,0-.06,.02-.09,.05-.03,.02-.05,.04-.07,.07-.02,.03-.03,.06-.03,.1,0,.03,0,.07,0,.1,.02,.06,.06,.12,.12,.16l.06,.03s.09,.01,.14,0h-.05s.02,0,.03,0h-.05l-.06-.03h.01l-.05-.03h0l-.04-.04v.02l-.02-.06s.01,.04,.02,.06c.02,.07,.05,.12,.1,.17,.06,.07,.16,.09,.25,.07s.16-.09,.18-.18c.03-.1,.02-.2,0-.3-.02-.06-.04-.11-.05-.17v.05c0-.07-.02-.13-.07-.18-.02-.03-.05-.04-.08-.05-.03-.02-.06-.02-.1-.02-.07,0-.14,.02-.18,.07s-.08,.11-.08,.18h0Z"/><path class="e" d="M6.77,7.47c-.04,.46-.02,.92-.02,1.38,0,.27,.23,.53,.51,.52s.53-.22,.52-.51c0-.46-.02-.92,.02-1.38,.01-.13-.06-.28-.15-.37s-.24-.16-.37-.16-.27,.05-.37,.15-.14,.22-.16,.37h0Z"/><path class="e" d="M4,6.9c-.18,.38-.41,.83-.38,1.26,.01,.23,.05,.45,.06,.67,0,.21,0,.43,.02,.64,.03,.42-.02,.84,.03,1.26,.02,.21,.07,.43,.08,.64,0,.05,0,.11,0,.16,.02-.04,.02-.03,0,.02-.01,.14-.04,.22,0,.36,.06,.22,.27,.38,.5,.39,.38,0,.76-.1,1.14-.12s.75,0,1.13-.03c.4-.03,.81,0,1.21,0s.87,0,.94-.51c.04-.36-.12-.73-.16-1.09-.04-.4-.1-.8-.14-1.2-.02-.19,0-.38-.01-.57s-.05-.37-.06-.55-.01-.37-.07-.55c-.03-.08-.05-.16-.09-.23,0-.01-.28-.29-.18-.19l-.38,.88c.06,0,.27-.04,.27-.04,.28-.03,.52-.21,.52-.51,0-.27-.23-.53-.51-.52-.38,0-.76-.05-1.14-.05s-.77,.02-1.16-.02c-.33-.03-.74-.09-1.07,0s-.58,.44-.59,.79c-.02,.82,1.27,.74,1.81,.76,.35,.01,.71,.02,1.06,.02,.08,0,.16,0,.24,0,.08,0,.09,0,.03-.01-.06-.02-.05-.02,.03,.03,.07,.04,.14,.08,.21,.12,.04,.02,.07,.05,.11,.07,.06,.03,.07,.04,.02,.02l-.13-.23v-.1l.06-.26c.05-.09,.13-.15,.22-.17-.02,0-.04,.01-.07,.02-.06,0-.05,0,.02,0-.03,0-.06,0-.09,0-.09,0-.19,0-.28,.01-.29,0-.58,.01-.87-.02-.4-.05-.8-.16-1.14-.15-.37,.01-.64,.29-.89,.53-.3,.28-.45,.79-.02,1.05,.24,.14,.6,.08,.87,.08,.4,0,.8-.06,1.2-.03,.18,.01,.21,0,.34,.09,.11,.07,.22,.13,.34,.17,.03,0,.05,.02,.08,.02,.09,.03,.06,0-.07-.06l-.13-.23v.04l.26-.58c.09,0,.11,0,.05,0-.03,0-.05,0-.08,0-.07,0-.15,0-.22,.01-.15,0-.29,.01-.44,.02-.3,.01-.6,0-.91,.01-.25,0-.52-.04-.77,.04-.3,.09-.46,.32-.55,.61s-.06,.62,.23,.8c.21,.13,.46,.1,.69,.08,.31-.03,.61-.09,.91-.14,.24-.04,.54-.14,.78-.12l-.26-.07c-.1-.12-.12-.13-.07-.04l.03,.06c.04,.08,.08,.15,.14,.22,.06,.08,.12,.14,.21,.2,.04,.02,.24,.1,.17,.06l-.18-.19c-.08-.15-.02-.13-.02-.04,0,.04,0,.08,0,.13,0-.07-.02,.06-.01,.07,.02,.05-.03,.01,.03,0,0,0,.11-.08,.12-.07,0,0-.13,0-.15,0-.12,0-.24,0-.36,0-.27,0-.54-.02-.81-.03-.11,0-.23-.03-.34-.03-.06,0-.13,.02-.19,.02,.11-.01-.03,0-.05,0l.26,.07,.03,.03,.13,.23c.06,.21-.04,.12-.09,.25-.04,.01-.03,0,.03,0h.06c.15-.04,.29-.06,.44-.09s.29-.04,.44-.05,.32-.05,.48-.01c.27,.06,.56-.07,.64-.36,.07-.25-.08-.59-.36-.64-.41-.09-.88-.05-1.3,.02-.31,.05-.7,.08-.97,.25-.36,.22-.56,.79-.25,1.13,.14,.15,.34,.22,.54,.21,.08,0,.16-.03,.23-.03-.11,0,0,.01,.01,.02,.05,.01,.11,.01,.16,.02,.4,.04,.8,.03,1.2,.04s.76-.05,.96-.42c.16-.29,.21-.69,.13-1.01-.05-.21-.21-.44-.44-.49-.14-.03,.09,0,.08,.09,0-.02-.04-.07-.05-.09-.04-.08-.08-.16-.14-.24-.32-.43-.92-.21-1.36-.13-.23,.04-.46,.09-.69,.12-.1,.02-.2,.03-.3,.03-.02,0-.06,0-.08,0-.09,.02,.04,.03-.03,0l.23,.14-.03-.03,.13,.23v.14l.02-.04c.03-.07,.02-.08-.02,0-.01,.03-.04,.06-.07,.08-.03,.06-.06,0,0,.03,.04,.02,.12,0,.17,0,.26,0,.52,0,.78,0s.51-.01,.76-.02c.28-.01,.58,.02,.82-.14,.17-.12,.33-.36,.24-.58-.08-.2-.18-.34-.38-.43-.13-.06-.19-.06-.29-.12-.15-.09-.28-.18-.45-.22s-.36-.04-.53-.05c-.33-.02-.66,.04-.99,.04-.15,0-.31,0-.46,0-.04,0-.08,0-.12,0-.09,0-.15-.04-.02,0l.31,.24-.02-.02,.07,.26c.01,.15-.14,.25,0,.14,.04-.04,.08-.07,.12-.11,.03-.03,.08-.07,.1-.1,.09-.05,.08-.05-.03,0-.06-.02-.02-.01,.12,.02,.4,.05,.81,.13,1.21,.15,.43,.02,1.09,.09,1.48-.14,.44-.25,.34-.79-.03-1.05-.32-.22-.64-.38-1.04-.38s-.81,0-1.22-.02c-.2,0-.39-.01-.59-.02-.09,0-.19-.02-.28-.03l-.12-.03c-.11-.03-.07,.01,.13,.13l.07,.26c0,.06,0,.07,0,.02,.03-.07,0-.04-.09,.07-.12,.11-.16,.09-.05,.1,.14,.01,.28,0,.41,0,.29,.01,.57,.05,.86,.05s.56-.01,.85,0c.31,0,.61,.06,.92,.05v-1.04c-.08,.01-.17,.03-.26,.04-.21,.02-.39,.11-.48,.31-.08,.19-.05,.42,.1,.57,.26,.25,.07-.04,0-.04,0,0,.04,.15,.04,.12,.03,.17,.02,.36,.04,.53,.04,.33,.02,.66,.06,.99s.09,.67,.12,1c.02,.19,.04,.38,.08,.56,.02,.08,.03,.15,.05,.23,.02,.09,0,.3,.04,.08l.14-.23-.02,.02,.23-.13c.15-.04-.02,0-.07,0-.09,0-.18,0-.27,0-.17,0-.35,0-.52,0-.33,0-.65,.03-.98,.04-.3,0-.61-.02-.91,.01-.32,.03-.66,.12-.98,.11l.5,.39c0,.16,0,.19,.01,.1,.02-.07,.02-.14,.02-.21,0-.08,0-.16,0-.24-.02-.2-.06-.4-.08-.6-.04-.38,0-.76-.02-1.13s-.01-.77-.05-1.15c-.02-.21-.05-.31,.02-.51,.05-.17,.11-.32,.19-.48,.12-.25,.08-.56-.18-.71-.22-.13-.59-.07-.71,.18h0Z"/><rect class="d" x="4.07" y="15.6" width="4.16" height="27.67" transform="translate(-.14 .03) rotate(-.27)"/><path class="e" d="M7.47,43.97c.26,.77,.06,1.64,.19,2.41,.07,.4,.09,.79,.12,1.19,.03,.36,.05,.82,.33,1.1,.35,.34,.83,.07,.89-.36,0-.07,0-.14-.01-.21,0-.02-.03-.14-.02-.04-.01-.1-.02-.23-.02-.29-.03-.23-.08-.47-.09-.7s-.06-.46-.1-.7c-.04-.22-.03-.4-.17-.61-.15-.24-.46-.34-.71-.19-.23,.13-.35,.47-.19,.71,0,0,0-.03,0-.04,.01,.06,0,.13,.02,.19,.02,.08,.04,.16,.06,.24,.02,.1,.04,.12,.05,.23s.01,.22,.02,.33,.03,.22,.04,.33c0,.07,.02,.13,.03,.2,0,0,.02,.09,.01,.04,.02,.11,.02,.19,.02,.28,0,.06,.02,.13,.03,.19v.05s.02,.04,0-.01l.89-.36c.07,.07,.04,.06,.02-.04-.01-.06-.02-.12-.03-.18-.03-.18-.04-.36-.04-.53-.01-.38-.1-.75-.14-1.13-.07-.78,.07-1.59-.18-2.36-.09-.27-.35-.44-.64-.37-.26,.07-.46,.37-.37,.64h0Z"/><path class="e" d="M4.96,44.54c.21,0,.41,.02,.62,.03,.24,0,.48-.02,.72-.06,.12-.02-.06,0,.05,0,.06,0,.12,0,.18,0,.11,0,.21,0,.32,0s.21,0,.31,0c.07,0,.15-.01,.22-.02,.03,0,.05,0,.08-.01-.07,0-.08,0-.02,0,.27,0,.53-.24,.52-.51s-.22-.52-.51-.52c-.09,0-.17,.01-.25,.03-.13,.02,.12,0-.02,0-.1,0-.21,0-.31,0-.25,0-.49,0-.74,.04-.05,0-.09,.01-.14,.02h-.09c.06,0,.06,0,0,.01-.1,0-.2,.01-.31,0-.21,0-.41-.03-.62-.03-.27,0-.53,.23-.52,.51s.22,.52,.51,.52h0Z"/><path class="e" d="M4.74,44.32c.41,.07,.82,.14,1.24,.15,.13,0,.27-.06,.37-.15s.16-.24,.16-.37c0-.28-.22-.52-.51-.52-.23,0-.45-.03-.68-.06l.14,.02c-.14-.02-.28-.04-.42-.07-.07-.02-.14-.03-.21-.01-.07,0-.13,.02-.19,.06-.11,.06-.21,.18-.24,.31-.03,.13-.03,.28,.05,.4,.07,.11,.18,.22,.31,.24h0Z"/><path class="f" d="M3.57,6.26c.48,0,.48-.75,0-.75s-.48,.75,0,.75h0Z"/><path class="f" d="M3.77,6.24c.48,0,.48-.75,0-.75s-.48,.75,0,.75h0Z"/><path class="f" d="M8.67,6.31c.48,0,.48-.75,0-.75s-.48,.75,0,.75h0Z"/><path class="f" d="M7.73,14.21c.48,0,.48-.75,0-.75s-.48,.75,0,.75h0Z"/><path class="f" d="M7.91,15.29c.48,0,.48-.75,0-.75s-.48,.75,0,.75h0Z"/><path class="f" d="M7.82,15.33c.48,0,.48-.75,0-.75s-.48,.75,0,.75h0Z"/><g><rect x="3.37" y="50.33" width="5.89" height=".35" transform="translate(-.1 .01) rotate(-.11)"/><g><rect x="3.04" y="6.11" width="6.12" height=".35" transform="translate(-.02 .02) rotate(-.22)"/><rect x="4.02" y="15.24" width="4.25" height=".35" transform="translate(-.06 .02) rotate(-.22)"/><rect x="3.07" y="12.37" width="6.12" height=".35" transform="translate(-.05 .02) rotate(-.22)"/><g><rect x="4.15" y="43.29" width="4.25" height=".35" transform="translate(-.17 .02) rotate(-.22)"/><path d="M6.41,28.05l-.06-12.21h1.22l.06,12.2h-1.23Zm.29-11.85l.06,11.51h.53l-.06-11.52h-.53Z"/><path d="M5.16,33.89v-2.1h1.17v2.1h-1.17Zm.34-1.75v1.41h.49v-1.41h-.49Z"/><path d="M4.72,41.58v-1.36h1.35v1.35h-1.35Zm.34-1.01v.66h.67v-.67h-.67Z"/><g><path d="M8.19,79.72l-1.66-8.61-1.36,7.48-.34-.06,1.39-7.67c.03-.15,.15-.25,.3-.26,.16,0,.28,.1,.31,.25l1.31,6.76,1.04-7.41,.34,.05-1.33,9.47Z"/><rect x="3.92" y="70.2" width=".35" height="8.52" transform="translate(-11.05 1.44) rotate(-8.57)"/><path d="M4.54,53.3v-2.24h1.26v2.23h-1.26Zm.34-1.88v1.54h.58v-1.54h-.58Z"/><path class="e" d="M1.04,76.47s.02-.03,.03-.04l-.24,.18h.04c.07-.03,.14-.06,.2-.09,.03-.01,.06-.02,.08-.04-.02,.01-.09,.04-.03,.01,.04-.02,.09-.03,.13-.05,.12-.04,.24-.1,.36-.16,.05-.02,.09-.04,.13-.07,.02-.01,.04-.03,.05-.04l.11-.08c-.06,.04-.07,.05-.04,.03,.02,0,.08-.04,.01-.01s0,0,.01,0c.05-.01,.1-.02,.14-.04,.1-.03,.2-.07,.29-.11,.25-.1,.48-.21,.67-.4s.21-.54,0-.74-.53-.21-.74,0c-.02,.02-.03,.03-.05,.04-.08,.07,.07-.04,.01,0-.04,.02-.09,.05-.13,.08-.04,.02-.08,.04-.12,.06,.11-.06,.05-.02,.01,0l-.07,.03c-.1,.04-.2,.06-.3,.09-.08,.02-.16,.05-.23,.09-.02,.01-.04,.02-.06,.04-.04,.03-.2,.15-.11,.08,.06-.05,0,0-.01,0-.02,.01-.04,.02-.06,.03-.05,.02-.09,.04-.14,.07-.02,0-.11,.05-.03,.02,.07-.03,0,0-.02,0-.05,.02-.1,.03-.15,.05-.08,.03-.16,.06-.24,.1-.06,.03,.09-.02,.04-.02-.02,0-.04,0-.05,.01-.11,.03-.2,.08-.29,.16-.06,.05-.1,.12-.14,.19-.16,.22-.05,.59,.18,.71,.27,.14,.54,.06,.71-.18h0Z"/><path class="e" d="M1.22,75.68s0-.05,0-.08l-.02,.14s.01-.05,.02-.08l-.05,.12s.04-.07,.06-.1l-.08,.1s.05-.06,.08-.08l-.11,.08c.09-.07,.18-.13,.25-.21s.14-.17,.21-.26l-.08,.1c.04-.06,.1-.1,.15-.14l-.11,.08c.07-.05,.14-.1,.21-.15,.06-.04,.12-.09,.18-.14,.06-.06,.11-.13,.15-.19l-.08,.1h.01l-.11,.07s.1-.05,.15-.09c.08-.06,.15-.12,.22-.18,.09-.1,.15-.23,.16-.37,0-.13-.05-.28-.15-.37-.2-.19-.53-.21-.74,0-.03,.03-.07,.07-.11,.1l.11-.08s-.09,.05-.13,.08c-.11,.07-.19,.15-.25,.26l.08-.1s-.07,.07-.11,.1l.11-.08c-.1,.08-.21,.15-.31,.23s-.18,.18-.26,.28l.08-.1c-.07,.09-.14,.17-.23,.24l.11-.08c-.13,.1-.25,.19-.33,.34-.08,.13-.14,.3-.12,.46,.01,.14,.05,.27,.15,.37,.09,.09,.24,.16,.37,.16s.27-.05,.37-.15c.09-.1,.17-.23,.16-.37h0Z"/><path d="M5,79.62c-.09,0-.17-.08-.17-.17v-.71H1.89v-.33h.3l1.1-8.19-.1-19.71,.79-7.05-.13-28-.94-2.84s0-.04,0-.05l-.03-6.27s0-.05,.02-.08L5.97,.1C6,.04,6.06,0,6.12,0h0c.07,0,.12,.04,.15,.1l3.04,6.1s.02,.05,.02,.08l.03,6.27s0,.04,0,.05l-.92,2.85,.13,28.02,.85,7,.1,19.76,1.21,8.4s0,.1-.04,.14-.08,.06-.13,.06h-2.23v.6s-.01,.09-.05,.12c-.03,.03-.08,.05-.12,.05h-3.16Zm0-1.21c.09,0,.17,.08,.17,.17v.71h2.82v-.6s.01-.09,.05-.12c.03-.03,.08-.05,.12-.05h2.2l-1.18-8.24-.1-19.76-.85-7-.13-28.07s0-.04,0-.05l.92-2.85-.03-6.2L6.12,.56,3.21,6.33l.03,6.2,.94,2.84s0,.04,0,.05l.13,28.05-.79,7.05,.1,19.72-1.09,8.16h2.46Z"/><polygon points="12.85 76.58 10.02 75.44 10.15 75.12 12.51 76.06 12.5 74.73 9.55 72.02 9.79 71.77 12.84 74.57 12.85 76.58"/><polygon points="0 77.05 0 75.05 3.03 72.21 3.27 72.47 .35 75.2 .35 76.53 2.7 75.56 2.83 75.88 0 77.05"/></g></g></g></g></g></g></g></g></svg>