<?xml version="1.0" encoding="UTF-8"?><svg xmlns="http://www.w3.org/2000/svg" viewBox="0 0 20.13 79.58"><defs><style>.d{fill:#fff;}.e{fill:#d8d8db;}</style></defs><g id="a"/><g id="b"><g id="c"><g><path class="d" d="M7.63,47.18c-.13,.43-.22,.86-.28,1.31-.03,.22-.09,.43-.14,.65-.02,.08-.03,.17-.04,.25,0,.06,0,.13-.01,.18,.04-.16-.01,0-.02,.02-.02,.06-.04,.11-.06,.17-.1,.29,.11,.66,.41,.73,.32,.07,.62-.1,.73-.41,.03-.1,.07-.19,.09-.29,.02-.09,.03-.18,.03-.27,0-.16-.03,.07,0-.05,.07-.21,.11-.43,.14-.65,.06-.44,.15-.88,.28-1.31,.09-.3-.11-.66-.41-.73s-.63,.1-.73,.41h0Z"/><path class="d" d="M12.43,42.56c1.93,0,1.93-3,0-3s-1.93,3,0,3h0Z"/><path class="d" d="M9.54,39.1c-.15-.56-.06-.36-.05-.13,0,.11,.01,.22,.02,.33,.02,.24,.05,.56,.1,.76,.1,.41-.04-.21-.02-.22-.04,.02-.02,.68-.02,.79,0,.04-.02,.23,0,.27,.08-.6,.07-.52-.03,.24l-.02,.12v.15c.09-.44,.1-.45,.04-.02-.03,.21-.05,.41-.06,.61s-.04,.43-.05,.64c-.02,.29-.01,.57,0,.86,0,0,.03,.33,0,.35,.05-.34,.05-.38,.02-.11l-.08,.63c-.02,.32,.09,1.38,.08,.36s-.09-.01-.09,.32c0,.22,.02,.45,.02,.68,0,.27-.01,.53-.02,.8,0,.21-.11,.58-.04,.78l.05-.36c-.03,.15-.05,.3-.07,.45,0,.03-.04,1.3,.04,1.04,.07-.22-.03-1.88-.09-.3,0,.11,0,.22,0,.33-.01,.3-.06,.6-.08,.9-.02,.25-.13,.24,.03-.13-.06,.13-.06,.32-.09,.46-.27,1.13-.16,2.29-.16,3.44,0,.45,.07,.9,.17,1.34,.02,.1,.05,.21,.07,.31,.11,.42-.05-.21-.02-.21-.1,.02,.02,1.63,.03,1.78,.01,.29,.03,.57,.04,.86,0,.08-.03,.24,0,.31-.08-.29,.09-.44,0-.17-.07,.25-.11,.52-.16,.78s-.09,.48-.12,.79c-.04,.56,.08-.53,0,.07-.03,.2-.09,.55-.1,.81,.02-.57,0-.22-.03-.04-.08,.4-.11,.82-.16,1.22-.06,.57,.08-.38,0,0-.03,.16-.04,.32-.08,.47-.09,.39-.21,.77-.21,1.17,0,.37,.02-.2,.05-.21-.07,.04-.07,.34-.1,.43-.12,.49-.23,.94-.29,1.46,0,.05-.05,.35-.04,.36,.05-.29,.06-.36,.02-.2-.05,.18-.01,.1,.11-.24-.14,.37-.34,.73-.43,1.12l-.08,.63c.05-.29,.06-.36,.02-.2-.06,.14-.09,.3-.14,.45-.06,.19-.33,1.17-.03,.3-.13,.36-.21,.45-.27,.73-.1,.74-.11,.84-.04,.29l-.03,.13,1.26-1.19c1.28,.35,1.7,.38,1.27,.09-.14-.1-.3-.15-.44-.26l.85,.85c-.07-.09-.13-.19-.2-.29-.12-.17-.19-.42-.06,.06-.1-.36,.06,.1-.01,.14,.05-.03-.06-.64-.05-.6-.03-.23-.05-.4-.13-.61-.04-.11-.32-1.04-.12-.29,.13,.48,.04,.37,.03,.17,0-.1,0-.21-.02-.31l-.08-.63c-.11,.29,.02,.39,.04,.1,0-.1,0-.2,0-.3-.07-1.56-.14,.05-.04,.27-.07-.16,.2-1.18,.08-.64-.09,.41,.05-.15,.06-.19,.03-.1,.06-.19,.08-.29,.09-.4-.07,.12-.09,.17,.14-.4,.31-.68,.37-1.09,.14-1.01-.06,.38,.04-.15,.04-.24,.09-.51,.09-.75,0-.36-.04,.15-.04,.19,.05-.29,.09-.58,.11-.87,.02-.27,.02-.55,.03-.82,0-.03,.07-.62,0-.23-.06,.36,.06-.23,.08-.3,.04-.17,.22-.93,.11-1.21,.09,.24-.08,.46-.01,.17s.09-.57,.12-.86c.05-.53-.02-1.06,0-1.59,.01-.31-.02-.49-.08-.86-.04-.3,.01,.38,.04,.31,.07-.19-.02-.58-.03-.77-.02-.49-.04-.97-.03-1.45v-.05c-.11-.75-.12-.84-.03-.24,.02-.06,.01-.21,.01-.28,0-.27,0-.54,0-.81,.01-.52-.01-1.03-.02-1.55-.03-1.17,.08-2.36,.16-3.53,.03-.5,.03-1,.04-1.5,.01-.73,.07-1.39-.09-2.12,.02,.07,.03,.62,.08,.22,.02-.15,0-.3,0-.45-.02-.34-.03-.67-.03-1.01,0-.65-.02-1.29,0-1.94,.01-.33,.04-.66,0-.99-.02-.26,.04-.43-.1,.12,.07-.28,.11-.57,.11-.86,0-.32-.04-.64-.04-.96,0-.21,.03-1.21-.09-.3,.09-.66,.11-1.22-.24-1.82-.29-.49-.85-.96-1.41-1.08-1.11-.25-2.73,.34-2.9,1.65-.09,.66-.1,1.28-.07,1.94,0,.15,0,.33,.03,.48,.07,.39,.1-.63,.04-.18-.07,.54-.03,.93-.04,1.46-.02,1.22,0,2.43,.01,3.65,0,.43-.03,.75,.06,1.21,.07,.39-.03-.21-.02-.21,.02,0,0,.48,0,.52-.02,.56-.02,1.12-.04,1.68-.04,1.29-.19,2.57-.19,3.86,0,.46,.06,.91,.04,1.37-.03,.74-.04,1.46,.06,2.2-.12-.91-.08-.08-.06,.15,.02,.28,.02,.56,.04,.84,0,.23,.03,.47,.03,.7,0,.33-.02,.43,.07,.85,.08,.34,0-.62-.05-.15-.02,.27,0,.55,.01,.81,0,.13,.01,.26,0,.39,0,.45-.11,0,.03-.09-.05,.03-.09,.63-.09,.62-.03,.21-.07,.42-.07,.64,0,.47,.06-.12,.05-.13,.04,.11-.14,.73-.15,.84-.05,.38-.08,.75-.09,1.13,0,.1,.04,.39-.02,.46,.14-.18,.05-.42,.02-.14,0,.03-.15,.71-.1,.91-.01-.05,.12-.67,.01-.21l-.08,.63c.28-.83,.33-1.06,.16-.7-.13,.27-.24,.56-.33,.85-.08,.26-.15,.52-.19,.78-.02,.1-.13,1.14-.03,.33-.04,.29-.15,.59-.14,.89l.04,.31c.06,.46,.06,.42-.02-.11-.03,.08-.02,.24-.01,.32,0,.28,.08,.58,.11,.86-.07-.69-.03-.13-.03,0,.04,.67,.17,1.05,.43,1.64l-.12-.27c-.04-.37-.06-.46-.05-.27,0,.27,.06,.63,.1,.86,.17,.83,.74,1.82,1.42,2.34s1.43,.95,2.29,.94c1.33-.02,2.46-.92,2.79-2.21,.02-.09,.05-.17,.07-.26l.08-.63c-.31,.96-.31,1.03,.01,.21,.06-.23,.11-.47,.18-.7s.15-.46,.2-.69c.06-.28,.17-1.18,.08-.41,.06-.49-.2,.45-.03,.03,.27-.63,.36-.96,.44-1.64,.02-.15,.03-.3,.05-.45,.04-.36-.15,.55,.04,.03,.09-.24,.13-.51,.18-.76s.09-.52,.11-.77c0-.09,.01-.18,0-.27-.08,.42-.08,.52-.02,.32,.24-.65,.25-1.45,.33-2.12,.07-.57-.16,.5,.02-.04,.08-.23,.1-.62,.12-.79,.06-.56-.1,.36,0,0,.04-.24,.07-.48,.1-.72,.03-.29,.02-.24-.02,.13,.11-.2,.11-.57,.16-.78,.08-.38,.15-.77,.16-1.16,.03-.61-.04-1.22-.07-1.83-.03-.71,.02-1.38-.14-2.09-.02-.1-.05-.21-.07-.31-.15-.55-.04,.48,0-.09,.02-.31-.01-.61,0-.92,0-.33-.03-.64-.03-.97,0-.11,.01-.23,.01-.34,.02-.58-.1,.48,0,.04,.19-.75,.24-1.55,.3-2.32l.02-.17c.02-.29,0-.23-.07,.18l.08-.63c.02-.25,0-.5-.08-.74,.36,.87-.09,1.23,.03,.8,.09-.33,.1-.73,.12-1.08,.04-.57,.1-1.2,.04-1.77-.07-.63-.16,.89-.03-.1,.03-.14,.04-.29,.05-.43-.09-.88-.12-.84-.09,.13-.03-.02,.13-1.06,.13-1.32,0-.35,0-.69,.02-1.03,0-.13,.02-.26,.03-.39,0-.08,.01-.16,.02-.24-.08,.55-.07,.46,.03-.28,0-.08,0-.22-.01-.29-.08,.6-.06,.52,.04-.24,0-.06,.01-.13,0-.19,0-.28,.02-.56,.02-.84,0-.21-.02-.4-.05-.62-.01-.15-.04-.3-.07-.44,.04,.41,.05,.49,.04,.23-.02-.45-.01-.89-.13-1.32-.32-1.19-1.69-2.04-2.9-1.65s-1.99,1.63-1.65,2.9h0Z"/><path class="d" d="M7.83,21.22c-.08,.27-.13,.58-.14,.86-.03,.24,0,.47,.08,.71l-.06-.37c-.12,.05,.12,1.42,.09,1.31,.1,.3-.02-.19-.02-.27,.03,.24,.06,.47,.1,.71,.02,.13,.01,.11-.01-.07-.03-.21-.04-.2-.01,.02l.08,.63c.02,.11,.06,.22,.09,.33,.06,.21,.07,.53,.18,.72-.09-.15-.1-.65,0,.06,.04,.29,.12,.74,.31,.97l-.23-.77c0,.23,.04,.46,.1,.69,.02,.1,.06,.19,.09,.29,.11,.38,.27,.74,.44,1.1l-.32-1.19c0,.19,.03,.36,.05,.56,.05,.36,.22,.64,.33,.99-.08-.25-.19-.49-.05-.09,.05,.14,.1,.28,.15,.41,.03,.1,.07,.19,.1,.28,.26,.62,.32,.75,.17,.4-.07-.19-.09-.22-.05-.09,.02,.25,.14,.52,.2,.76,.04,.16,.08,.54,.2,.65-.03-.35-.04-.42-.03-.23,0,.09,0,.18,.02,.26,.03,.25,.05,.51,.12,.76,.05,.16,.08,.52,.17,.65-.09-.12-.06-.57-.02-.12,.03,.29,.05,.57,.1,.87,.02,.09,.02,.24,.06,.32-.04-.31-.05-.38-.04-.19,0,.06,0,.12,.01,.18,.03,.3,.07,.6,.12,.9,.02,.08,.09,.55,.04,.16-.05-.42,0,.17,0,.21,.01,.15,.02,.3,.03,.45,.01,.26,0,.53,.01,.79,0,.13,0,.29,.02,.42,.04,.25,.07-.43,.01,.01-.04,.3-.09,.6-.11,.91,0,.06,0,.12,0,.18,0,.18,0,.12,.03-.18-.02,0-.16,1.07-.17,1.23-.01,.12-.06,.27-.04,.39-.03-.28,.16-.79,.38-.96l1.04-.61-.11,.02,1.82,.24c.68,.74,.75,.77,.2,.09-.06-.08-.13-.14-.2-.21-.15-.16-.3-.3-.47-.45-.09-.08-.68-.59-.22-.13-.16-.16-.24-.39-.36-.58-.11-.23-.1-.19,.03,.11-.04-.1-.08-.21-.12-.31-.07-.21-.15-.42-.22-.64-.06-.19-.1-.71-.07-.04-.02-.41-.1-.69-.21-1.06v1.25c.08-.47,.1-.85,.04-1.32-.02-.18-.05-.35-.08-.52-.05-.29,.05,.52,.03,.07-.03-.66-.16-1.33-.28-1.99-.05-.3,.03,.44,0-.02,0-.12-.02-.24-.03-.36s-.01-.24-.01-.37c0-.09,0-.18,0-.27,0-.14,0-.12-.02,.04-.04,.24-.03,.18,.02-.18,.02-.13,.04-.27,.05-.4,.04-.33-.02-.26,0,.02-.02-.25,.09-.53,.11-.78,.04-.43-.09,.4-.02,.09,.13-.59,.18-1.19,.31-1.78-.02,.11-.08,.58,0,.22,.02-.13,.04-.27,.06-.4,.04-.37,.05-.42,.03-.15,.02,.3,0,.09,.04-.03,.07-.27,.1-.55,.11-.83,.07-1.09,.14-2.21-.13-3.28-.28-1.14-1.47-1.84-2.59-1.69s-2.16,1.15-2.05,2.32c0,.19,.02,.17,.04-.04,.06-.38,.04-.23-.06,.46-.06,.39,.1-.39,0-.1-.13,.37-.22,.87-.17,1.25,.03,.25,.17-.48,.01-.07-.06,.16-.11,.3-.14,.47l-.08,.63c-.02,.21-.01,.2,.02,0,.04-.22,.04-.22,0,0l-.03,.17c-.16,.75-.23,1.46-.23,2.22,0,.31,.02,.29,.03,0-.01,.29-.09,.58-.1,.88-.01,.36,.01,.2,.04-.06-.09,.69-.11,.84-.06,.45,.04-.23,.03-.23-.02-.02-.06,.26-.12,.53-.18,.79-.04,.24-.07,.47-.09,.71-.01,.13-.01,.11,0-.06,.03-.2,.02-.2-.02,.02l-.08,.63c-.02,.06-.02,.12-.01,.18,0,.17,.03,.08,.07-.3-.04,0-.12,.36-.13,.39-.09,.28-.17,.55-.25,.83-.13,.42-.28,.84-.27,1.29,0,.27,.02,.53,0,.81s-.02,.52,.01,.79c.05,.49,.1-.5,0,0-.06,.31-.1,.63-.12,.95-.05,.82,.49,1.64,1.17,2.04,.78,.45,1.6,.37,2.38,0,.45-.21,.7-.57,.98-.96,.73-1,.2-2.67-.85-3.23-1.22-.65-2.45-.22-3.23,.85l-.05,.07,.85-.85-.08,.04,3.55,2.04c-.04,.65-.02,.13,0-.02,.04-.28,.1-.58,.1-.87,0-.26-.04-.51-.02-.78,.01-.15,.03-.29,.03-.44,.01-.08,0-.16,0-.25-.01-.19-.04-.09-.08,.28,.13-.12,.19-.6,.24-.77,.08-.27,.17-.54,.25-.82,.09-.3,.16-.64,.16-.94,0-.11,.05-.41-.03-.06-.03,.22-.02,.22,.01,0l.08-.63c.06-.45-.11,.32,.01,.06,.11-.25,.14-.57,.19-.84l.08-.63c-.06,.45-.06,.47,0,.04,.03-.22,.06-.43,.06-.66,0-.22,0-.22-.02-.02-.03,.25-.02,.19,.03-.17,.03-.22,.06-.44,.07-.67,0-.31,0-.62,0-.93s-.1,.48,.02,.05c.04-.14,.06-.28,.08-.43,.05-.29,.09-.58,.12-.86,.04-.49-.2,.49,.01,.02,.16-.36,.26-.89,.22-1.27-.06-.48-.13,.5-.01,0,.02-.1,.04-.21,.06-.31-.04,.24,.2-1.55,.06-.44,.04-.3,.11-.6,.08-.9l-4.64,.63c.12,.5,0-.41,0-.07,0,.13,0,.27,.01,.4,0,.25,.01,.48,0,.73s-.03,.47-.04,.7c0,.06-.03,.21,0,.27,.07-.4,.07-.48,0-.23-.04,.14-.07,.29-.08,.44l-.04,.31c.06-.31,.06-.38,0-.21v.04c-.08,.22-.11,.44-.11,.67,.11-.71-.05,.18-.09,.35-.04,.2-.08,.39-.12,.59l-.08,.63c-.02,.21,0,.21,.02,0,.04-.22,.04-.22,0,0-.03,.24-.07,.48-.09,.71-.02,.15-.07,.57,.01-.01-.03,.26-.08,.54-.1,.81-.02,.3,0,.61,.02,.91,.06,.77,.24,1.51,.32,2.28,0-.07-.03-.49-.03-.09,0,.11,0,.22,.01,.33,0-.13,.06,.82,.15,.93-.12-.15,0-.64,.02-.75-.11,.4-.1,.85,0,1.25l.04,.14c.06,.19,.07,.18,.04-.03l-.02-.16c.02,.26,.06,.52,.12,.78,.03,.12,.06,.25,.1,.37,.39,1.29,.95,2.61,1.97,3.52,.21,.18,.4,.37,.6,.56,.11,.1,.3,.32-.09-.15,.1,.12,.3,.42,.46,.58,1.23,1.19,3.1,.81,4.03-.53,.45-.65,.52-1.45,.58-2.21,.03-.36-.12,.61,0,.02,.05-.25,.09-.6,.11-.81,.01-.12,.02-.23,.03-.35,.02-.27,0-.25-.03,.07,.02-.17,.05-.33,.07-.5,.08-.59,.06-1.2,.03-1.8-.01-.27-.03-.54-.06-.82-.03-.29-.06-.58-.11-.87-.01-.07-.09-.62-.06-.26,.04,.4,0-.2,0-.23,0-.01-.06-.77-.14-.95,.13,.28,.05,.4,.03,.15-.03-.31-.07-.62-.12-.93-.02-.1-.1-.76-.19-.78,0,0,.06,.66,.02,.14-.02-.31-.05-.64-.13-.94-.15-.53-.28-1.09-.46-1.61l-.12-.28c-.16-.39-.16-.38,.02,.05-.03-.16-.12-.35-.18-.5-.15-.42-.32-.82-.5-1.23l.32,1.19c-.01-.19-.03-.37-.05-.56-.05-.35-.18-.62-.31-.95-.11-.28,.17,.5,.07,.09-.01-.05-.03-.19-.07-.23,.05,.45,.05,.45,0,.03-.01-.13-.03-.27-.06-.4-.02-.13-.07-.25-.14-.36-.23-.58-.19-.37,.12,.63,0-.38-.09-.79-.18-1.16-.03-.14-.08-.55-.18-.65,.05,.04,.07,.53,.03,.15l-.08-.63c-.04-.21-.04-.2,0,.02,.04,.28,.03,.23-.02-.14,0-.13-.03-.25-.06-.37-.04-.22,.01,.56,.04,.11,0-.11,0-.23,0-.34-.01-.15-.03-.3-.05-.44-.07-.58-.07-.42,0,.5,.37-1.18-.43-2.63-1.65-2.9-1.28-.29-2.51,.39-2.9,1.65h0Z"/><path class="d" d="M9.71,61.19c.11,.29,.02-.09,.02-.2,0,.25,.06,.53,.1,.78,.04,.21,.11,.4,.16,.61,.02,.08,.03,.25,.07,.31l-.05-.32,.08,.63c.04,.2,.11,.41,.17,.61,.05,.17,.1,.35,.15,.52,.1,.33-.04-.06,0-.16-.02,.06,0,.18,0,.24,0,.09,.17,.7,.13,.76l-.02-.37v.17l-.03,.17,.04-.28c.03,.1-.06,.31-.08,.41-.06,.36-.12,.73-.12,1.1,0,.07-.01,.2,.02,.27,0,.11,.01,.08,.03-.07,.04-.24,.03-.18-.02,.18-.03,.2-.04,.36-.04,.55,0,.08-.02,.45,.02,.09,.06-.5-.08,.41-.06,.31-.03,.2-.05,.36-.04,.55,0,.14-.07,.33,.03,.1,.04-.24,.03-.19-.02,.17-.02,.13-.04,.27-.05,.4,0,.11-.03,.24,0,.35,.08,.25,.11-.37,.04-.14-.13,.44-.12,.87-.06,1.32,.05,.37,.06,.42,.02,.14-.02-.19-.03-.23-.02-.09,0,.15,0,.1,.03-.14,.02-.38,.18-.71,.49-.99l1.67-.69c-.33,.02-.73-.05-1.03,.09,.92,.06,1.16,.05,.74-.04-.09-.02-.19-.05-.28-.07-.26-.05-.52-.09-.79-.11-.26-.03-.21-.02,.15,.03-.09-.03-.19-.05-.28-.06-.25-.05-.5-.08-.75-.09l1.19,.32-.1-.04,1.08,1.41-.02-.07v1.25c-.2,.4-.23,.5-.1,.3,.72-1.01,.21-2.67-.85-3.23-1.22-.64-2.46-.23-3.23,.85-.44,.61-.56,1.44-.35,2.15,.32,1.08,1.28,1.71,2.37,1.78-1.12-.07,.62,.1,.56,.09,.47,.07-.48-.12,0,.02,.61,.17,1.18,.17,1.8,.09-1.12,.14,.55-.03,.51-.02,.41-.13,.8-.35,1.1-.66,.53-.54,.74-1.25,.8-1.99,.03-.33-.04-.69-.09-1.01l.05,.34c-.05,.37-.05,.42,0,.16,.09-.32,.1-.64,.06-.97,0-.27-.01-.24-.05,.1,.04-.24,.07-.48,.09-.72,0-.16-.02-.8-.05-.09,.01-.31,.12-.62,.13-.94,0-.19,.08-.59-.06-.03,.09-.36,.09-.65,.08-1,0-.07,0-.15,0-.22,.01-.26,0-.21-.04,.16-.03-.04,.08-.46,.09-.51,.05-.3,.1-.66,.12-.97,.01-.23-.14-.96-.11-1-.06-.18-.06-.07,0,.32,0-.09,0-.18-.02-.27-.03-.31-.07-.63-.15-.94s-.15-.63-.26-.91c-.05-.18-.05-.09,0,.26-.03-.26-.07-.52-.1-.78-.03-.16-.07-.31-.12-.47-.03-.1-.06-.21-.09-.31l.04,.34c-.03-.36-.06-.72-.18-1.06-.44-1.15-1.61-2.07-2.9-1.65-1.12,.36-2.12,1.67-1.65,2.9h0Z"/><path class="d" d="M5.55,68.58c-.18,.1-.37,.12-.57,.17-.23,.06-.46,.11-.69,.14-.09,0-.19,0-.29-.01-.05,0-.1,0-.16,0-.03,0-.18,.03-.07,.02-.13,0-.25-.02-.39,0-.11,.01-.21,.02-.32,.03-.23,.01-.46,.03-.68,.09-.19,.05-.36,.14-.55,.09-.15-.04-.25-.04-.4-.02,.12-.01,.04,0-.04-.02-.06,0-.11-.01-.18,0-.29,.04-.49,.3-.45,.59,.03,.22,.15,.41,.38,.43,.21,.02,.43-.1,.49-.32,.06-.24,.03-.54,.05-.76,0-.1,.03-.2,.04-.29,.04-.27-.02-.08,0-.05-.01-.03,.07-.15,.07-.19,.05-.35-.19-.61-.54-.54h-.02c-.24,.04-.37,.33-.31,.55,.07,.25,.31,.35,.54,.31h.02l-.54-.55c.01-.07-.07,.16-.06,.13-.02,.06-.02,.12-.03,.18,0,.05,0-.07,0,.01-.01,.09-.02,.18-.03,.28,0,.08-.01,.2-.02,.29s-.04,.19-.03,.29c0,.08,.02,.06,0,.12l.87,.12-.03,.08-.26,.2s-.1-.01-.02,.01c.05,.01,.11,.02,.17,.01,.04,0,.17,0,.07-.01,.04,.01,.09,.03,.13,.04,.24,.05,.47,.01,.71-.05,.38-.11,.79-.17,1.18-.16s.76,.02,1.14-.04c.23-.04,.45-.13,.68-.17s.39-.11,.59-.21c.5-.26,.06-1.03-.45-.76h0Z"/><path d="M3.75,74.77s0,.02,0,.03l.04-.11s-.01,.02-.02,.03l.07-.09s-.09,.08-.13,.12c-.05,.06-.1,.14-.17,.19l.09-.07s-.1,.07-.15,.12c-.03,.03-.06,.07-.08,.11,0,.02-.02,.03-.03,.05l.07-.09s-.06,.08-.1,.11l.09-.07s-.04,.03-.06,.04l.11-.04s-.03,.01-.05,.01l.12-.02h-.01l.44,.44s0-.01,0-.02l-.02,.12s0-.02,0-.03l-.04,.11s.04-.06,.06-.09l-.07,.09s.08-.07,.12-.11c.04-.04,.08-.08,.12-.12,.08-.08,.17-.15,.27-.22l-.09,.07c.08-.06,.16-.11,.23-.18,.09-.08,.17-.2,.2-.32,.06-.23-.08-.48-.31-.54-.05-.01-.11-.02-.16-.02-.02,0-.04,0-.05,0l.12,.02h-.01l.11,.04h-.01c-.05-.04-.11-.06-.16-.06-.06-.01-.12-.01-.18,0-.1,.03-.21,.11-.26,.2-.05,.1-.08,.23-.04,.34,.03,.1,.1,.22,.2,.26,.09,.04,.16,.07,.26,.07,.02,0,.04,0,.07,0l-.12-.02h.01l-.31-.54v.02l.04-.11s-.02,.03-.03,.05l.07-.09s-.07,.07-.11,.1l.09-.07c-.16,.13-.34,.25-.48,.4-.03,.03-.06,.07-.09,.1-.03,.03-.06,.05-.09,.08-.11,.13-.21,.28-.2,.45,0,.11,.05,.24,.13,.31s.2,.14,.31,.13c.05,0,.1,0,.15-.02s.1-.04,.14-.06c.06-.03,.12-.08,.17-.12,.02-.02,.05-.05,.07-.07,.03-.04,.07-.08,.09-.12,.01-.02,.02-.04,.03-.06l-.07,.09s.02-.02,.03-.03l-.09,.07s.1-.07,.14-.11c.02-.02,.04-.04,.06-.07,.04-.04,.07-.09,.11-.14,.03-.03,.06-.05,.09-.08,.08-.07,.14-.18,.16-.28,.02-.12,.02-.23-.04-.34-.05-.09-.16-.18-.26-.2-.11-.03-.24-.02-.34,.04-.09,.06-.18,.15-.2,.26h0Z"/><path d="M1.3,78.26s0-.05,0-.08v.04s0-.03,0-.05v.04s0-.03,.01-.05l-.02,.03s.02-.02,.03-.03l-.03,.02s.03-.02,.04-.02c.02-.01,.04-.03,.06-.04,.04-.03,.05-.07,.07-.11v.04h0l-.02,.02h0l-.03,.02h-.05l-.14-.1h0v-.03h0v-.05s0,.03-.01,.05l.02-.03s-.04,.05-.06,.08c-.01,.02-.02,.04-.04,.06l.02-.03s-.02,.03-.04,.04l.03-.02s-.02,.01-.03,.02h.03l.14,.23s.05-.06,.06-.09c.01-.02,.03-.04,.04-.06l-.02,.03s.03-.03,.05-.05l-.03,.02s.07-.05,.1-.08c.01,0,.02-.02,.03-.03,.03-.03,.04-.06,.05-.09,.01-.03,0-.09-.01-.11-.02-.03-.05-.05-.09-.07h-.04s-.08-.02-.11,0-.06,.05-.07,.09c0,.04,0,.08,.01,.11s.05,.05,.09,.07h.04l-.1-.17h0v-.01l.03-.03s-.02,.03-.04,.04l.03-.02s-.1,.06-.14,.11c-.04,.05-.08,.11-.12,.16l.02-.03h0s-.04,.06-.04,.09c0,.03,0,.07,.02,.09,.01,.02,.03,.04,.05,.05,.03,.02,.08,.03,.11,.01,.04-.02,.07-.03,.1-.06,.02-.02,.03-.03,.05-.05,.02-.03,.04-.06,.06-.09l-.02,.03s.05-.06,.07-.09c.01-.02,.02-.04,.03-.06,0-.02,0-.03,0-.05s0-.04,0-.05v-.04s-.04-.03-.05-.04c-.02-.02-.06-.03-.09-.03-.06,0-.11,.02-.14,.07-.02,.03-.03,.05-.04,.08v-.04h0l.02-.02h.02s-.03,0-.04,.01c-.02,.01-.04,.03-.06,.04-.03,.03-.05,.06-.07,.09-.04,.07-.05,.14-.04,.22,0,.04,.01,.07,.04,.1,.03,.03,.07,.04,.1,.04s.08-.01,.1-.04c.02-.03,.05-.07,.04-.1h0Z"/><path d="M.72,77.16s.01,.02,.02-.01c0-.03,0-.07,0-.11,0-.06,.02-.13,.03-.19,.06-.22,.04-.46,.09-.68s.1-.45,.1-.67c0-.17-.01-.4-.13-.54-.05-.06-.16-.06-.21,0-.07,.09-.07,.19-.07,.3,0,.12-.04,.25-.04,.37,0,.06,0,.11,0,.17,0,.04,.02,.09,.02,.13,0,.11-.08,.21-.03,.32,.03,.07,.1,.13,.18,.1,.07-.02,.13-.11,.1-.18,0-.02,.02-.07,.02-.09,0-.04,.02-.09,.02-.13s0-.09-.01-.13,0-.09,0-.13c0-.1,.01-.19,.02-.28,0-.05,0-.1,.01-.15,0-.02,0-.05,0-.07,0-.04,.02-.05-.02,0h-.21s.03,.16,.04,.21c.01,.13,0,.24-.02,.37-.03,.24-.09,.48-.12,.73-.01,.11-.02,.21-.04,.32-.02,.07-.03,.15-.04,.23-.02,.18,.01,.35,.19,.43,.07,.03,.16-.03,.18-.1,.02-.08-.03-.15-.1-.18H.72Z"/><path d="M.8,72.01c.48,0,.48-.75,0-.75s-.48,.75,0,.75H.8Z"/><path class="d" d="M3.31,67.29c1.93,0,1.93-3,0-3s-1.93,3,0,3h0Z"/><path class="d" d="M9.89,67.46s.05-.03,.07-.04c.05-.03,.02-.02-.09,.02-.12,.02-.14,.03-.07,.03,.02,0,.05,0,.07,0,.12,0-.12-.02-.04,0,.07,.02-.1-.06,0,0,.03,.02,.06,.03,.09,.05,.06,.04,.11,.07,.17,.11,.13,.09,.26,.17,.39,.25,.06,.03,.12,.07,.18,.1,.03,.02,.06,.03,.09,.05,.09,.05-.05-.06,0-.01,.02,.02,.04,.04,.06,.06,.05,.04-.06-.09,0,0s.12,.18,.18,.26c.08,.1,.19,.18,.29,.27,.07,.07,.13,.14,.21,.19,.14,.09,.33,.11,.49,.07,.04,0,.15-.04,.17-.08,.02-.01,.02-.01-.03,0-.05,.02-.05,.02,0,0,.06-.02,.25-.06,.07-.04l-.42-1.01s-.03,.03,.01,0c.03-.03,.07-.05,.11-.06-.02,0-.06,.02-.08,.02-.05,0-.12,0,.04,0-.03,0-.06,0-.09,.01-.16,.02-.3,.05-.42,.17-.1,.1-.18,.27-.17,.42,.01,.29,.26,.63,.59,.59s.61-.07,.84-.31c.17-.17,.22-.42,.12-.64-.08-.2-.31-.38-.54-.36-.25,.02-.44,.11-.66,.21l.3-.08h-.02l.3,.08s.11,.1,.05,.03c-.02-.03-.05-.05-.07-.07-.05-.04-.09-.08-.14-.12-.02-.02-.04-.04-.06-.06-.07-.06,.02,0,.01,.02,0-.01-.09-.14-.1-.16-.12-.17-.24-.29-.42-.4-.11-.07-.23-.13-.34-.19-.22-.13-.42-.31-.66-.41-.17-.07-.34-.11-.53-.12s-.36,.07-.52,.16c-.27,.16-.38,.54-.21,.81s.52,.38,.81,.21h0Z"/><path class="d" d="M5.46,61.31c-.19-.07-.39-.07-.56,.03-.23,.13-.3,.36-.32,.61l.02-.16c-.01,.09,.04-.07,.06-.1,.06-.08,.01-.02,0,0-.03,.03-.07,.06-.1,.09-.04,.04-.09,.1-.12,.15s.1-.12,.03-.04-.13,.16-.17,.26c-.02,.04-.04,.08-.05,.13-.02,.08,.03-.05,.03-.06,0,.02-.08,.16-.08,.17-.02,.05-.06,.13-.07,.2,.04-.09,.05-.11,.03-.07l-.02,.03s-.03,.05-.04,.08c-.07,.13-.13,.27-.16,.41-.02,.09,.01-.06,.02-.05l-.04,.07s-.06,.09-.06,.13c.06-.07,.07-.09,.04-.05l-.02,.02s-.08,.1-.11,.15c-.02,.04-.04,.08-.06,.11s-.05,.07-.07,.11c-.03,.05-.05,.11-.07,.16-.06,.18,.05-.13,.2-.23-.26,.17-.39,.53-.21,.81,.16,.25,.53,.4,.81,.21,.11-.07,.19-.15,.26-.26,.03-.05,.06-.13,.07-.19,.03-.09-.07,.12-.03,.06,.03-.04,.06-.09,.08-.13,0-.02,.03-.04,.03-.06-.07,.08-.09,.11-.06,.07,.01-.01,.02-.02,.03-.04,.09-.11,.16-.24,.22-.37,.04-.08,.08-.18,.1-.27,.01-.05,.01-.05,0,0-.02,.05-.02,.05,0,0,.01-.03,.03-.05,.04-.08,.04-.07,.07-.14,.1-.21,.02-.04,.04-.09,.05-.13,0-.02,.04-.12,0-.02s0,.01,0,0c.03-.06,.07-.13,.09-.19,0-.02,.02-.05,.02-.07,0-.03,0-.02-.01,.03-.01,.05-.04,.09-.08,.12,.03-.03,.06-.07,.08-.1,.13-.17,.01,0,0,0,0,0,.1-.09,.11-.1,.08-.08,.15-.17,.19-.28s.05-.22,.07-.34l-.02,.16v-.02l-.14,.26v-.02l-.25,.15h-.3s.06,.01,.09,.02c.29,.1,.66-.12,.73-.41,.08-.33-.1-.62-.41-.73h0Z"/><path class="d" d="M4.55,68.21v.03l.14-.26-.02,.02,.26-.15c.08,0,.08,0,0,0-.05,0-.09,0-.14,0-.1,0-.19,.03-.29,.05,.11-.03-.04,0-.07,0-.1,0-.19,.02-.29,.06-.06,.02-.12,.04-.17,.08,.07-.03,.07-.04-.02-.02h-.06c-.06,.03-.04,.04,.04,.02-.07,.04-.21-.04-.29,.02-.05,.02-.04,.02,.03,0-.03,0-.07,0-.1,.01-.19,.02-.36,.05-.54,.12-.05,.02-.1,.04-.15,.06l-.09,.03c.12-.01,.09,0-.09,.01-.04,0-.08,.01-.12,.02,.06,0,.06,0-.02,0-.06,0-.11,0-.17,0-.06,0-.12-.01-.18-.01-.51-.01,.21,.13,.01,.02l.21,.21s-.11-.17-.12-.16c.07,.1,.06,.08-.05-.06,.05,.07,.06,.08,.04,.04,.01-.01-.12-.16-.15-.19-.04-.04-.09-.08-.14-.11-.08-.07-.06-.03,.08,.1l.08,.3s0-.03-.02,.04c.02-.08,.03-.16,.01-.24,0-.07-.03-.14-.04-.21v.31l-.03,.07c.08-.16,.08-.19,.02-.07-.1,.17,.05-.05,.07-.08,.05-.08,.11-.17,.16-.26,.1-.15,.19-.29,.26-.46,.12-.29-.13-.66-.41-.73-.34-.08-.6,.1-.73,.41,.07-.17,0-.05-.01-.01-.03,.04-.05,.08-.08,.12-.07,.1-.13,.2-.19,.31,.07-.12-.06,.07-.08,.12l-.06,.14c.04-.1,.03-.07-.04,.09-.05,.16-.02,.32,.02,.48v-.31c-.03,.19-.04,.39,.06,.57,.04,.06,.09,.13,.14,.17l.12,.09s.06,.04,.02,.01c-.08-.09-.05-.04,0,.04,.06,.08,.06,.08-.01-.01l.09,.12c-.05-.07-.06-.09-.03-.04l.09,.12c.06,.06,.14,.11,.21,.14,.21,.1,.39,.11,.62,.08-.08,.01-.14,.02-.02,.02,.05,0,.11,0,.16,0,.14,0,.28-.02,.42-.04,.07-.01,.08-.02,.04,0-.08,.01-.03,0,.13-.02,.05,0,.09-.02,.14-.04,.1-.03,.19-.08,.28-.11,.03-.01,.06-.02,.09-.02-.04,0-.04,0,0,0,.05,0,.1,0,.15-.01-.12,.01,.24-.04,.23-.05-.08,.02-.09,.02-.04,.02,.02,0,.05,0,.07,0,.13,0,.3-.04,.42-.09,.02,0,.23-.1,.13-.06-.05,.02-.05,.02,0,0-.07,0-.07,.01-.03,0,.13,.01,.26-.04,.38-.06-.12,.02,.08,0,.09,0,.08,0,.17-.01,.25-.04,.24-.08,.35-.24,.44-.46,.12-.29-.13-.66-.41-.73-.34-.08-.6,.11-.73,.41h0Z"/><path class="d" d="M4.03,62.74c-.03,.09-.04,.17-.05,.26l.08-.3c-.03,.06-.05,.12-.07,.17-.07,.17,.07-.15-.02,.05-.1,.22,.04-.14-.04,.09-.03,.09-.05,.17-.05,.26l.08-.3s-.04,.07-.05,.1c-.04,.1-.04,.09,0,0l.35-.27h-.03l.73,.73c.02-.1,.01-.2,.02-.29-.02-.11-.01-.1,0,.02,0-.04,0-.07,0-.11,.03-.29-.25-.55-.51-.58s-.6,.13-.65,.42c.03-.07,.03-.07,0,0-.02,.04-.04,.08-.06,.11-.03,.06-.06,.13-.08,.19-.02,.07-.02,.07-.01,0,.08-.13-.1,.15-.12,.18-.03,.06-.05,.13-.08,.19,.03-.06,.03-.07,0,0-.22,.37,.15-.14-.13,.19,.02-.04,.02-.04,0-.01-.04,.04-.08,.09-.11,.15-.06,.16-.08,.19-.04,.09-.07,.17-.08,.19-.02,.06-.06,.11-.09,.2-.09,.33l.08-.3c-.06,.13-.14,.26-.22,.38-.04,.06-.08,.12-.11,.18-.04,.07-.04,.07,.01-.01-.07,.07-.12,.16-.15,.26,.07-.13-.07,.1-.09,.13-.03,.06-.05,.12-.08,.19,.01-.06,0-.05-.03,.02-.11,.17-.14,.25-.23,.39-.06,.09-.1,.18-.14,.28,.06-.13-.1,.29-.04,.11-.06,.16-.08,.19-.04,.1-.02,.03-.04,.07-.06,.1,.05-.04,.05-.04,.02,0-.05,.05-.09,.11-.13,.17-.04,.05-.03,.05,.01,0-.04,.05-.08,.1-.12,.16-.05,.09-.09,.21-.12,.31-.17,.54,.15-.35-.03,.1-.04,.1-.06,.18-.06,.29-.02,.61,.8,.77,1.1,.3l.04-.06c.17-.27,.06-.65-.21-.81-.29-.17-.63-.06-.81,.21l-.04,.06,1.1,.3s0,.07-.01,.11c-.02,.07,0,.03,.05-.12,0-.03,.01-.06,.01-.09,.01-.11,.01-.1,0,.03l.02-.04c.04-.09,.03-.09-.02,0-.07,.1-.05,.08,.05-.06l.02-.04c.06-.12-.04,.05,.01-.03,.06-.09,.1-.15,.15-.24,.03-.05,.06-.11,.08-.16,.03-.08,.04-.09,.01-.03,.03-.05,.05-.11,.07-.16,.01-.04,0-.03,0,.03l.06-.14c-.03,.07,.05-.1,0-.02,.07-.12,.16-.23,.23-.36s.12-.26,.19-.38c-.05,.09,.07-.08,.07-.08,.04-.07,.07-.15,.1-.23l-.15,.26c.14-.12,.24-.33,.33-.48,.11-.19,.25-.4,.25-.63l-.08,.3c.04-.06,.12-.28,.05-.12,.09-.19,.08-.19-.03,.02,.06-.04,.1-.09,.14-.16-.07,.09,.12-.15,.14-.18,.06-.16,.07-.19,.05-.1,.02-.04,.03-.08,.05-.12,.04-.09,.08-.14,.01-.05,.09-.12,.15-.21,.2-.35,.03-.06,.03-.07,0,0,.02-.04,.04-.08,.06-.11,.05-.09,.1-.18,.12-.28l-1.16-.16c-.01,.11,0,.22,.02,.33v-.31s0,.04-.01,.06c-.09,.42,.27,.87,.73,.73,.17-.05,.3-.15,.4-.3,.03-.06,.08-.22,.02-.07,.04-.12,.08-.21,.08-.33l-.08,.3c.04-.05,.05-.11,.08-.17-.05,.13,.01-.02,.04-.1,.02-.07-.06,.18,.01-.04,.03-.05,.04-.1,.04-.15,0-.1,.01-.1,.01-.03,.09-.3-.11-.64-.41-.73s-.63,.11-.73,.41h0Z"/><path class="d" d="M2.58,68.93c.46-.29,.84-.67,1.12-1.13,.3-.49,.57-1.02,.82-1.53,.1-.21,.19-.43,.35-.61,.17-.2,.37-.37,.57-.55,.39-.36,.73-.72,.93-1.21l-.15,.26,.02-.03-.99-.57c-.08,.51-.42,.99-.64,1.45-.26,.53-.47,1.14-.81,1.62l1.08,.14c.02,.17,.03-.14,.03-.17,.02-.15,.05-.29,.07-.44,.05-.29,.11-.59,.19-.88,.16-.6,.37-1.23,.37-1.86,0-.29-.22-.55-.51-.58-.31-.04-.54,.14-.65,.42-.36,.9-.46,1.93-.54,2.88s-.21,1.54-.25,2.39c-.02,.49,.67,.8,1.01,.42-.06,.07,.1-.05,.11-.06,.05-.03,.11-.05,.17-.08,.16-.09,.3-.21,.4-.36,.14-.22,.24-.53,.24-.79,0-.49-.66-.81-1.01-.42-.02,.03-.05,.06-.08,.08l.26-.15s.04,0,0,.01c-.08,0-.04,.02,.11,.04l.27,.35v-.03l-.07,.45c-.06,.09-.09,.07-.02,.06,.06,0,.14-.07,.19-.1,.13-.07,.25-.15,.38-.21l-.81-.81c.07-.13-.04,.03-.08,.07-.06,.05-.12,.1-.17,.15-.14,.11-.27,.23-.41,.34s-.29,.2-.44,.29c-.02,.01-.18,.1-.1,.07,.04-.02-.11,0-.15,0l.51,.89c.06-.14,.11-.26,.1-.41-.02-.76-1.2-.76-1.18,0v.06l.08-.3-.02,.05c-.17,.38,.02,.91,.51,.89,.23,0,.42-.02,.64-.12,.24-.11,.46-.26,.67-.41s.4-.32,.6-.48c.17-.14,.37-.29,.47-.49,.28-.53-.28-1.08-.81-.81-.42,.22-1.09,.48-1.03,1.06,.07,.69,1.04,.73,1.43,.3l-1.01-.42c0,.06-.05,.16-.12,.25l.21-.21c-.21,.15-.49,.22-.66,.42l1.01,.42c.02-.4,.05-.6,.08-.98,.03-.44,.12-.88,.15-1.32,.08-.89,.18-1.83,.51-2.66l-1.16-.16c0,.61-.26,1.23-.4,1.82s-.31,1.25-.23,1.84c.03,.22,.29,.4,.49,.42,.25,.03,.45-.08,.59-.28,.36-.51,.58-1.15,.85-1.7,.26-.52,.63-1.07,.72-1.64,.04-.26-.03-.52-.27-.67-.21-.12-.56-.11-.71,.09-.06,.07-.11,.14-.15,.22,.01-.03-.08,.17-.04,.08,.04-.08-.02,.06-.02,.06-.03,.04-.06,.07-.09,.1-.15,.18-.31,.34-.49,.5-.39,.36-.78,.72-1.02,1.2s-.51,.99-.77,1.48c-.22,.42-.44,.71-.84,.97-.64,.41-.05,1.43,.6,1.02h0Z"/><path class="d" d="M5.78,74.96c-.18-.12,.03,.04,.07,.06,.04,.03,.08,.06,.13,.08,.15,.08,.33,.13,.49,.13,.12,0,.22-.03,.33-.09,.03-.02,.28-.2,.08-.08s.05,.01,.08,0c.1-.04,.18-.1,.27-.17l-.26,.15c.09-.02,.17-.06,.25-.11,.14-.1,.16-.12,.07-.06,.02-.01,.04-.03,.06-.04,.02-.01,.18-.1,.06-.05,.03,0,.06-.01,.09-.03-.05,.02-.1,.02-.15,0l.16-1.16c-.09,.01-.18-.01-.27,0-.07,0-.15,.01-.21,.03h-.03c.14-.02,.27,.02,.39,.13l.09,.71,.02-.03-.21,.21c.09-.05,.19-.1,.28-.15,.05-.02,.09-.05,.13-.08,.02-.01,.04-.03,.07-.04,.05-.03,.06-.03,.02-.01-.12,0-.03,.02,.04,0,.09,0,.19-.01,.27-.03,.11-.03,.24-.07,.35-.12,.02,0,.15-.06,.05-.03,.08-.02,.16-.05,.24-.09,.03-.02,.06-.05,.1-.07,.08-.06,.08-.06,.01,0,.09-.05,.05-.04-.14,.02h.04c.08,0,.17-.02,.25-.04-.2,.03,.14-.03,.14-.02-.09,.03-.17,.02-.25-.02,.04,.02,.07,.04,.11,.05,.05,.02,.41,.09,.2,.05,.3,.06,.65-.08,.73-.41,.07-.29-.09-.66-.41-.73-.07-.01-.13-.02-.2-.03,.18,.06,.23,.07,.14,.03-.11-.06-.26-.11-.38-.11-.08,0-.16,.03-.24,.03,.25,0-.3,.03-.07,.01-.18,.01-.34,.05-.5,.14-.05,.04-.11,.07-.16,.12,.03-.03,.06-.05,.1-.07-.07,.02-.13,.05-.19,.08-.03,0-.05,.02-.07,.04-.04,.02-.03,.02,.03-.01-.03,0-.06,.01-.08,.03-.06,.02-.05,.02,.02,.01-.04,0-.08,0-.12,.01-.2,.02-.38,.04-.56,.14-.11,.06-.21,.12-.31,.18-.18,.1-.32,.19-.45,.36-.16,.21-.07,.54,.09,.71,.19,.21,.46,.24,.72,.19,.02,0,.05,0,.07-.02,.08-.02-.05,0-.05,0,0,0,.2,.01,.22,0,.3-.03,.54-.2,.58-.51,.04-.27-.13-.6-.42-.65-.36-.06-.64,.02-.95,.22-.05,.03-.3,.2-.12,.09,.11-.05,.08-.04-.08,.03-.14,.11-.16,.12-.05,.05,.21-.13-.18,.05-.16,.04-.06,.03-.11,.07-.16,.11-.04,.04-.03,.03,.04-.03l.3-.08,.08,.02h-.03l-.05-.02c.05,.02,.06,.02,.02,0-.06-.02,.05,.05,.03,.01-.03-.05-.11-.09-.16-.12-.26-.17-.66-.06-.81,.21-.16,.3-.06,.63,.21,.81h0Z"/><path class="d" d="M11.28,74c-.15,.03,.01,.01,.05,.02,.02,0,.2,.03,.09,.01,.14,.02,.27,.03,.4,.04,.07,0,.07,0,0,0l.11,.03c.06,.02,.11,.04,.17,.06s.11,.03,.17,.04c.07,.02,.14,.02,.21,.02,.06,0,.07,0,.02,0-.08,0,.08,.02,.1,.03,.06,.01,.11,.03,.17,.04,.04,.01,.09,.02,.13,.02,.09,.01,.1,.01,.03,0,.06,.02,.13,.04,.19,.06,.12,.03,.23,.07,.35,.1,.13,.04-.05-.04,.05,.02,.08,.05,.17,.08,.26,.11l-.26-.15s.04,.04,.06,.06c.1,.09,0-.04,.02,.02,.05,.09-.08-.19,.01,.03,.04,.09,.06,.14,.14,.22,.17,.18,.38,.22,.62,.24l-.51-.29v.02l.11-.71c.07-.06,.07-.07,.02-.03-.36,.2-.35,.64-.12,.93l.02,.02-.15-.26v.03l.28-.67-.04,.02,.3-.08h.08l.26,.16c-.07-.06-.14-.12-.21-.16-.16-.07-.19-.08-.07-.03,.15,.25,.21,.31,.17,.18-.07-.3-.43-.51-.73-.41s-.49,.4-.41,.73c.03,.14,.1,.27,.19,.38,.05,.05,.1,.1,.16,.13,.06,.03,.15,.05,.19,.09l-.16-.09,.03,.02c.06,.08,.18,.13,.28,.16,.18,.06,.38,.02,.55-.07,.21-.12,.36-.43,.27-.67-.05-.13-.1-.21-.18-.31l-.12,.93c.08-.04,.15-.1,.22-.15,.2-.16,.22-.51,.09-.71-.05-.08-.1-.14-.17-.19-.05-.04-.31-.19-.36-.13h.06c.25,.34,.34,.41,.25,.23-.01-.03-.03-.06-.04-.09-.11-.22-.32-.42-.55-.51-.1-.04,.07,.05,0,0-.04-.03-.09-.05-.14-.07-.1-.04-.2-.07-.3-.1-.08-.02-.16-.05-.24-.07-.04-.01-.09-.03-.13-.04-.07-.02-.18-.02-.24-.04,.06,.02,.04,0,0-.01-.05-.01-.09-.02-.14-.03-.1-.02-.2-.05-.31-.06,0,0-.15,0-.08,0s-.07-.02-.09-.03c-.08-.03-.16-.06-.25-.08-.12-.04-.24-.05-.36-.05-.04,0-.22-.02-.12,0-.24-.03-.48-.07-.72-.02-.3,.07-.51,.43-.41,.73,.1,.32,.4,.48,.73,.41h0Z"/><path class="d" d="M14.93,74.48c.18-.33,.13-.5,.03-.89,.06,.21,0-.19,0-.22,0-.16,.03-.32,.05-.48,.09-.68,.09-1.38,.1-2.06,.01-.73,.03-1.46,.09-2.19,.03-.4,.01-.79,.05-1.19,.03-.35,.2-.64,.29-.97l-1.14-.31c-.29,1.31-.34,2.68-.54,4.01-.11,.7-.18,1.4-.2,2.11,0,.57,.03,1.24,.31,1.76,.16,.29,.53,.35,.81,.21s.46-.48,.46-.78c0-.42-.32-.65-.69-.72-.34-.07-.68-.18-1.02-.24-.14-.03-.31-.05-.45,0s-.21,.11-.31,.21c-.16,.16-.04,.02,.07-.04l.3-.08c-.16,0-.4-.17-.57-.22-.11-.03-.26-.1-.4-.13-.37-.09-.76,0-1.12,.04-.7,.07-1.34-.1-2.09-.11l.3,.08c-.22-.1-.14-.45-.2-.72-.14-.64-1.24-.51-1.16,.16,.05,.37,0,.75,.05,1.12v-.27l.86-.35c.07,.05,.12,.17,.1,.04-.01-.07-.09-.16-.12-.22-.04-.08-.08-.16-.12-.23-.03-.08-.04-.08,0,0,.02,.09,.04,.07,.05-.06,.18-.74-.96-1.05-1.14-.31-.09,.39-.07,.68,.11,1.03,.14,.28,.28,.59,.54,.77,.3,.21,.79,0,.87-.35s.05-.8,0-1.16l-1.16,.16c.07,.31,0,.56,.17,.86,.14,.26,.36,.49,.64,.59,.54,.2,1.17,.09,1.7,.14,.3,.03,.58,.04,.88,0,.24-.04,.46-.07,.65,0,.62,.2,1.33,.65,1.78-.06l-.51,.29c.17-.01,.38,.09,.55,.13,.12,.03,.23,.05,.35,.07,.19,.03,.19,.12,.02-.14l-.08-.3c0-.09,.04-.15,.12-.2l.81,.21c-.2-.38-.16-1.04-.14-1.47,.03-.64,.14-1.27,.21-1.91,.15-1.19,.21-2.42,.48-3.59,.16-.74-.94-1.05-1.14-.31-.09,.33-.24,.63-.3,.97-.07,.37-.06,.76-.09,1.13-.05,.74-.09,1.49-.09,2.23,0,.69-.02,1.39-.07,2.08-.02,.24-.09,.55-.09,.82,0,.16,.03,.35,.06,.51,0,.03,.04,.22,.07,.22-.01-.23-.03-.27-.04-.12-.01,.04-.01,.08,0,.13l.08-.3-.03,.06c-.37,.66,.65,1.26,1.02,.6h0Z"/><path class="d" d="M10.11,74.1c-.05,.07-.07,.2-.07,.29,0,.19,0,.39,0,.58,0,.18-.01,.37,0,.55s.04,.36,.04,.54c0,.33-.07,.65-.09,.98,0,.16,.02,.32,.03,.49,0,.17,.02,.33,0,.5,0,.11,.13,.18,.22,.13,.11-.07,.16-.2,.15-.33,0-.21-.08-.39-.06-.61,.02-.24,.02-.48,.04-.72,.02-.2,.04-.38,.03-.59-.02-.34-.05-.68-.03-1.03s.03-.71-.03-1.04c-.03-.19-.32-.11-.28,.08,.03,.16,.01,.33,.02,.49s.01,.3,0,.45c-.02,.29,0,.59,.02,.88,.03,.36-.02,.71-.03,1.08,0,.2-.05,.41-.03,.61,0,.06,.11,.44,.06,.47l.22,.13c0-.17,0-.31,0-.47-.02-.15-.03-.31-.03-.46,0-.3,.07-.59,.08-.88,.01-.34-.03-.68-.03-1.02,0-.18,0-.36,0-.55,0-.1-.05-.32,.01-.41,.11-.15-.14-.3-.25-.15h0Z"/><path class="d" d="M15.61,64.08c-.01-.08-.04-.15-.08-.22l.06,.22c0-.08-.01-.15-.03-.22v.24c.02-.13,.03-.24,.01-.38,0-.07-.02-.14-.04-.21,0-.04-.02-.14-.02-.05,0-.15-.01-.27-.03-.41-.01-.07,0-.15-.02-.23,0-.02-.01-.15-.02-.07,.01-.49,.2-.88,.03-1.35v.24c.05-.36-.13-.66-.15-1.01,0-.31,.07-.69-.03-1.01-.14-.41-.61-.55-.98-.68-.22-.08-.43-.16-.65-.24-.16-.06-.32-.16-.48-.19-.35-.08-.73,.31-.5,.65,.16,.24,.4,.44,.6,.65,.11,.12,.21,.24,.33,.35,.07,.07,.15,.13,.23,.2-.1-.08,.02,.03,.06,.07,.29,.23,.75,.1,.76-.31,0-.5-.21-1.09-.71-1.28-.22-.08-.49,.09-.54,.31-.13,.56,.49,.88,.71,1.31l-.06-.22c.01,.12,.03,.24,.05,.36l.04-.34c.03-.06-.08,.14-.09,.17-.03,.07-.03,.23-.04,.23l.43-.32h.03c-.22-.1-.49,.1-.54,.31-.07,.25,.09,.45,.31,.54,.07,.03,.14,.03,.21,.04,.18,0,.39-.14,.43-.32,.02-.1,.02-.2,.03-.3l-.06,.22s.11-.19,.12-.22c.03-.1,0-.18,0-.28-.02-.17-.06-.3-.15-.45-.08-.14-.2-.28-.31-.41-.05-.06-.11-.1-.16-.16-.03-.04-.06-.08-.1-.11,.04,.07,.04,.08,.02,0v.19l-.53,.31,.04,.02-.2-.11c.15,.17,.22,.28,.22,.52l.76-.31c.06,.05-.06-.06-.08-.08-.05-.04-.1-.08-.15-.12-.12-.11-.22-.23-.33-.35-.09-.1-.18-.2-.27-.29-.07-.08-.2-.16-.26-.25l-.5,.65c.12,.03,.24,.1,.36,.14,.17,.06,.33,.12,.5,.19,.15,.06,.31,.11,.46,.17,.07,.03,.19,.07,.25,.12-.09-.08-.06-.06-.06,.06,0,.24-.02,.48,0,.72,.03,.29,.12,.55,.17,.84v-.24c-.02,.12,0,.31,0,.38,0,.03,.06,.27,.05,.12,0,.02-.04,.22-.03,.16-.05,.26-.14,.6-.09,.88,.02,.13,.03,.26,.06,.39,0,.05,.01,.05,.03,0l-.02,.12c0,.08,0,.17,.03,.25,.03,.13,.04,.2,.04,.33s.05,.15,.07,.34c.03,.24,.33,.37,.54,.31,.25-.07,.34-.31,.31-.54h0Z"/><path class="d" d="M5.02,58.95c-.04,.18-.03,.38-.03,.57,0,.17-.03,.34-.01,.51,0,.05,.01,.1,.02,.16,.02,.14,0-.03,0,.07l.02,.12s.01,.06,0,.02c0-.04,0-.03,0,.01l.02,.12s.01,.13,.01,.08c0,.04,0,.08,0,.12s0,.08,0,.12c0,.03,0,.12,.02,0l.11-.2-.02,.02,.43-.11h-.04c-.2-.08-.39,.04-.5,.19-.09,.12-.11,.26-.1,.39l.06-.22v.03l.81,.22v-.07s.01-.06,0-.09c0,0-.02-.18-.01-.09,0-.03,0-.06,0-.09,0-.13-.03-.26-.03-.39,0,.04,0,.05,.01,0,0-.03,0-.07,0-.1s0-.07,.01-.1c0-.03,0-.07,0-.02,.02-.14,.02-.28,.02-.42,0-.05-.01-.11-.02-.16,0,0-.01-.09-.01-.04s0-.05,0-.06c0-.03,0-.07,0-.1,0-.06-.02,.06,0,0,0-.03,.01-.05,.01-.08,.01-.08,.02-.16,.02-.24,0-.07,0-.13,0-.2,0-.04-.01-.08-.02-.12,0-.07,0,.06,0-.02,0-.06,0-.12,0-.18,0-.03,0-.06,0-.1,0-.02,.02-.11,0-.05,.05-.22-.07-.49-.31-.54-.23-.05-.49,.07-.54,.31-.04,.16-.03,.31-.02,.47,0,.07,0,.14,0,.22,0,.04,0,.09,.02,.12,.02,.06,.01-.06,0,0,0,.03,0,.19,0,.1,0,.08-.03,.16-.04,.24-.02,.15-.02,.31,.02,.46,.02,.06,0-.06,0,0,0,.03,0,.05,0,.08,0,.01,.02,.1,.01,.05,0-.04,0,.02,0,.04-.02,.15-.05,.32-.05,.47,0,.05,0,.11,.02,.16,.01,.08,0-.02,0-.03,0,0,0,.15,0,.17,0,.08,0,.15,.02,.23,.02,.13,0,.03,0,0,0-.04,0-.02,0,.04,0,.03-.01,.06,0,.1,.02,.19,.12,.38,.32,.43,.18,.04,.42-.02,.5-.2,.04-.08,.08-.16,.07-.25v-.03c0-.07-.02-.04-.03,.08l-.5,.2h.04c.13,.06,.34,.02,.43-.1,.1-.12,.15-.24,.15-.39,0-.07,0-.13,0-.2,0-.12-.01-.24-.03-.36,.01,.09,0-.05,0-.06,0-.03,0-.06-.01-.1,0,.04,0,.05,0,.01-.02-.15-.03-.33-.02-.53,0-.09,0-.18,.01-.27,0-.05,0-.09,0-.14,0-.02,0-.14-.01-.07,.05-.23-.07-.49-.31-.54-.22-.05-.49,.07-.54,.31h0Z"/><path class="d" d="M5.7,58.1c.01-.27,.09-.53,.1-.8,0-.1-.01-.2-.02-.29,0-.08,0-.16-.02-.23,0-.02-.07-.23-.04-.13l-.11,.43,.02-.02-.69-.09c.19,.34,.26,.71,.4,1.06,.17,.43,.89,.42,.87-.12-.01-.33,.09-.66,.03-.99s-.14-.62-.13-.97c0-.38,.04-.73,.13-1.1,.08-.29,.12-.63,.25-.9l-.26,.2c-.11,0-.11,.02,.01,.07,.06,.05,.12,.09,.18,.13,.07,.05,.15,.11,.23,.16,.2,.13,.43,.26,.65,.35,.37,.14,.74,.26,1.11,.37,.27,.08,.54,.18,.81,.25,.24,.06,.51,.02,.65-.21,.12-.18,.06-.35,.06-.53l-.22,.38,.04-.03-.34,.04c-.09-.04,.11,.15,0,0l.26-.65c-.14,.05-.53-.09-.65-.14l-.24,.85c1.21,.23,2.32,.79,3.49,1.13,.18,.05,.37,.15,.56,.1,.21-.06,.36-.29,.48-.46,.13-.2,.22-.43,.27-.66,.05-.22,.08-.58,.12-.72h-.85c.04,.24-.04,.62-.04,.89,0,.29,.04,.57,.06,.85l.82-.22c-.12-.22-.27-.42-.36-.65l-.61,.61s.16,.17,.18,.21l.74-.43c-.28-.32-.35-.62-.46-1.01-.12-.43-.73-.41-.85,0-.04,.12-.06,.26-.16,.35l.31-.13c-.05,.01-.11,.01-.16,0l.31,.13-.03-.04,.13,.31c-.01-.16-.04-.28-.12-.42-.29-.49-1.06-.04-.76,.45,.02,.04,.08,.27,.21,.36,.14,.11,.38,.13,.55,.08,.35-.11,.48-.54,.58-.86h-.85c.07,.25,.11,.47,.22,.72,.12,.27,.27,.46,.47,.69,.28,.32,.9-.02,.74-.43-.11-.28-.32-.59-.58-.74-.42-.25-.77,.23-.61,.61,.1,.23,.25,.43,.36,.65,.2,.37,.86,.22,.82-.22-.03-.32-.07-.63-.06-.96s.07-.69,.01-1.01c-.08-.45-.73-.39-.85,0-.14,.46-.04,.99-.45,1.34l.43-.11c-1.17-.34-2.52-.98-3.82-1.23-.57-.11-.76,.64-.24,.85,.28,.11,.82,.24,1.12,.14,.24-.09,.45-.4,.26-.65-.19-.26-.53-.55-.88-.37-.28,.15-.32,.52-.22,.79l.04-.34-.03,.04,.26-.2c.14-.04-.03-.04-.13-.07-.1-.03-.21-.06-.31-.09-.19-.06-.38-.11-.57-.17-.38-.12-.75-.25-1.09-.44-.3-.18-.59-.45-.93-.55-.42-.12-.64,.18-.75,.54-.14,.45-.28,.93-.34,1.4-.05,.45-.09,.94,0,1.38,.04,.18,.1,.37,.11,.55,0,.24-.06,.49-.05,.73l.87-.12c-.08-.2-.09-.42-.18-.62-.1-.21-.19-.45-.31-.66-.15-.27-.48-.26-.69-.09l-.02,.02c-.12,.09-.16,.3-.11,.43,.02,.04,.05,.1,.06,.14,0-.1-.02-.12-.04-.02-.01,.1,.02,.21,.02,.31-.01,.26-.09,.52-.1,.79-.03,.57,.86,.57,.88,0h0Z"/><path class="d" d="M12.35,54.58c-.08-.09-.16-.18-.23-.28l.07,.09s-.02-.03-.03-.05l.04,.11s-.02-.05-.02-.08c0-.03-.02-.06-.03-.09l.02,.12s0-.06,0-.08c0-.09-.02-.17-.07-.25-.07-.1-.16-.18-.28-.21-.11-.03-.24-.01-.34,.04-.05,.03-.09,.07-.12,.11-.04,.04-.07,.09-.08,.15-.03,.11-.02,.24,.04,.34s.15,.17,.26,.2h0l-.11-.04h0l-.09-.06h0l-.07-.09h0l-.04-.1v-.1s-.01,.04-.01,.06c0,.06,0,.12,.02,.18,.03,.09,.05,.19,.1,.27s.12,.15,.18,.23c.04,.05,.09,.11,.14,.16,.04,.04,.09,.07,.14,.09,.05,.03,.11,.04,.17,.04,.06,0,.12-.01,.17-.04,.05-.02,.1-.05,.14-.09,.08-.08,.13-.2,.13-.31s-.05-.22-.13-.31h0Z"/><path class="d" d="M4.89,56.16c.04-.12,.05-.13,0-.04-.18,.36,.11,.72,.5,.65h0c.14-.02,.29-.17,.31-.31,.06-.32,.03-.7,.05-.96,.03-.38,0-.77-.01-1.15s-.07-.75-.03-1.11c.04-.4-.03-.78-.09-1.17v.24c.06-.32,0-.65,.05-.97,.02-.14,.03-.27,.03-.4,0-.1-.02-.19-.02-.29,0-.05,.07-.28,0-.17l-.61,.16c-.11-.24-.16-.29-.14-.17l.02,.12c.02,.09,.04,.18,.06,.27,.04,.16,.02,.31,.02,.47,0,.31-.04,.58,.26,.78,.25,.17,.56-.01,.65-.26l.02-.05c.19-.54-.66-.77-.85-.24l-.02,.05,.65-.26-.03-.02,.2,.26c.02,.06,0-.06,0-.09,0-.06,0-.11,0-.17,0-.2,.02-.4-.02-.59-.06-.29-.09-.7-.38-.85-.21-.11-.48-.05-.61,.16-.15,.26-.11,.57-.11,.86,0,.23-.05,.39-.07,.65-.03,.54,.1,1.05,.08,1.59s0,1.13,.04,1.68c.01,.25,.02,.5,0,.76-.01,.15,.03,.46,0,.65l.31-.31h0l.5,.65c.07-.13,.13-.25,.12-.41-.06-.56-.94-.57-.88,0h0Z"/><path class="d" d="M5.24,49.79h-.02l.34,.05c.06,.03,.1,.08,.12,.14,0-.03-.02-.05-.02-.08,0-.03-.01-.05-.02-.08,0-.06,0-.04,0,.04,.03-.05,.03-.14,.04-.19,0-.04,0-.07,0-.11,0,.07,0,.04,.01-.09,0-.07,0-.14,0-.22,0-.03,0-.18-.01-.07,.01-.21,.02-.39-.02-.59v.24c.05-.25,.08-.53,.07-.78s0-.5-.02-.75c0-.12-.01-.24-.02-.36,0-.14,0-.24,.01-.38,0-.11,0-.16,.01-.28,0-.05,.04-.27,.05-.37,.02-.24-.22-.44-.44-.44-.26,0-.42,.2-.44,.44-.02,.22-.06,.4-.06,.59,0,.23-.02,.48,0,.72,.03,.45,.03,.99-.02,1.38-.01,.12,0,.24,0,.36,0,.07,0,.16,0,.26,.02,.39,.02-.24,0,.15,0,.08,0,.02,0,.1,0,.1-.03,.18-.05,.28-.07,.44,.19,1,.7,.91,.24-.04,.37-.33,.31-.54-.07-.25-.31-.35-.54-.31h0Z"/><path class="d" d="M4.93,46.81c-.04,.16-.06,.31-.03,.47l-.02-.12s0,.07,0,.11l.02-.12c-.01,.09-.02,.18-.03,.28l.02-.12s-.02,.08-.03,.12c-.02,.07-.03,.14-.03,.22l.02-.12c0,.06-.03,.11-.04,.16-.02,.09-.02,.18-.03,.27l.02-.12s0,.02-.01,.03l.04-.11c-.04,.1-.06,.16-.07,.27,0,.04,0,.07,0,.11,0,.14,.03,.26,.09,.38,.16,.3,.6,.28,.76,0h0c.12-.21,.05-.5-.16-.62s-.48-.05-.61,.16h.75l.04,.1s-.02-.05-.02-.08l.02,.12c0-.06,0-.12,0-.18l-.02,.12v-.02l-.04,.11c.05-.11,.07-.15,.08-.28,0-.04,0-.09,0-.13l-.02,.12s.02-.09,.03-.13c.02-.07,.02-.15,.03-.22l-.02,.12c.01-.05,.03-.1,.04-.15,.02-.08,.01-.17,.02-.25l-.02,.12c.02-.15,.04-.27,0-.41l.02,.12s0-.05,0-.07l-.02,.12s.02-.1,.03-.14c.06-.22-.08-.49-.31-.54s-.48,.07-.54,.31h0Z"/><path class="d" d="M5.99,47.05c.32-.45,.43-1.24,.47-1.78,.05-.63-.04-1.26-.03-1.89,0-.59,.02-1.19-.03-1.77-.03-.38,.01-.74,.09-1.11,.08-.41,.07-.82,.06-1.23-.02-.44-.07-1.47-.65-1.55s-.86,.62-.92,1.06c-.02,.18-.04,.38-.03,.56,0,.04,.03,.25,.02,.02,0,.06-.01,.13-.01,.2,0,.34,.03,.68,.07,1.01,.07,.55,.19,1.09,.27,1.63,.1,.72,.25,1.44,.36,2.16,.06,.38,.1,.73,.22,1.1,.1,.34,.13,.59,.02,.94l.2-.26c.09,0,.08-.02-.05-.05-.08-.05-.15-.12-.21-.19-.11-.11-.13-.13-.05-.05,.05,.08,.07,.06,.06-.06,.11-.2,.11-.46,.11-.69,0-.53-.02-1.04,.04-1.57,.07-.6,.13-1.19,.18-1.79,.02-.25-.04-.37-.16-.6-.14-.25-.19-.54-.29-.8-.07-.17-.22-.34-.43-.32h-.04c-.19,.02-.38,.13-.43,.33-.03,.13-.02,.22-.02,.35-.01-.27,0,.06,0,.1,0,.23,.07,.47,.09,.7,.04,.62-.01,1.26-.02,1.88,0,.45,.01,.89,.03,1.33s-.02,.89-.03,1.35l.22-.38-.04,.02,.54,.07c.21,.26,.06,.05,.04-.11-.02-.13-.02-.27-.02-.4,0-.27,.02-.53,.04-.8,.02-.25,0-.49,.03-.73,.06-.36,.11-.71,.07-1.07-.06-.56-.87-.58-.88,0,0,.09,0,.2-.01,.3l.74-.2c.05,.13,.07,.12,.04-.03,0-.06,0-.13,0-.19,.02-.13,.06-.26,.08-.4,.03-.31,.05-.58,.14-.87,.17-.55-.69-.78-.85-.24-.13,.42-.13,.84-.22,1.27-.07,.36-.07,.79,.18,1.08,.21,.23,.69,.13,.74-.2,.03-.18,.04-.35,.05-.53h-.88c.04,.37-.03,.69-.08,1.05s-.02,.69-.06,1.03c-.04,.49-.09,1.26,.24,1.66,.12,.15,.38,.16,.54,.07,.4-.24,.31-.99,.31-1.39,0-.42-.05-.85-.05-1.27,0-.57,.01-1.14,.03-1.71,0-.32,0-.63-.04-.94-.01-.12-.04-.24-.05-.35,0-.02,.02-.34,0-.22l-.43,.32h.04l-.43-.33c.1,.25,.16,.53,.27,.78,.05,.11,.1,.24,.17,.33-.02-.02,.02-.36-.02-.05,0,.06,0,.12,0,.19-.04,.62-.14,1.24-.2,1.86-.04,.51,.03,1.02-.01,1.54-.02,.25-.13,.47-.13,.72,0,.28,.13,.44,.32,.63,.34,.33,1.03,.71,1.41,.22,.31-.41,.21-1.09,.07-1.54-.17-.58-.21-1.18-.34-1.77-.11-.53-.21-1.06-.26-1.6s-.22-1.1-.27-1.66c-.02-.28-.04-.57-.03-.86,0-.17-.01-.33,.01-.5,.01-.1,.1-.27,.1-.27l-.43-.11c-.08-.08,0,.02,0,.08,.02,.08,.06,.15,.07,.22,.05,.19,.05,.39,.06,.58,.02,.43-.02,.8-.1,1.22-.13,.72,0,1.44-.03,2.17-.03,.61,.03,1.22,.03,1.83,0,.37,.02,.71-.06,1.07-.06,.3-.1,.71-.29,.96-.33,.46,.43,.9,.76,.45h0Z"/><path class="d" d="M5.24,39.75s-.05,.08-.06,.12c-.01,.05-.02,.06-.01,.02l.26-.2-.05,.02h.19l.2,.11c.07,.07,0-.02-.02-.05-.05-.06-.11-.12-.17-.16-.13-.08-.28-.1-.43-.05l.5,.65c.19-.45,.14-.91-.03-1.3l.06,.22c0-.31,.06-.54,.08-.85,.01-.16,.05-.32,.04-.48,0-.17-.04-.34-.05-.51-.02-.19,0-.22,0-.43,0-.13-.02-.23,.02-.36,.09-.33,.12-.69,.03-.96-.17-.54-1.02-.31-.85,.24,.09,.29-.1,.62-.09,.93,0,.19,.02,.39,.03,.58,0,.16,.05,.37,.04,.55-.02,.37-.09,.73-.12,1.08,0,.09-.01,.18,0,.26,.01,.06,.03,.13,.06,.19,.04,.06-.02-.15,0,0,0,.11,.07,.3,.03,.38-.07,.17-.09,.34,.03,.49,.11,.13,.29,.21,.47,.16h.04l-.34-.06c-.06-.03-.08-.09,0,.02,.03,.05,.06,.07,.1,.1,.13,.1,.3,.12,.45,.08,.28-.08,.35-.33,.44-.57,.09-.22-.1-.49-.31-.54-.26-.07-.45,.09-.54,.31h0Z"/><path class="d" d="M7.07,31.24c-.05-.1-.11-.2-.2-.27-.15-.12-.36-.19-.54-.07-.08,.06-.14,.11-.2,.2l.26-.2c-.13,.03-.21,.1-.31,.18l.2-.11c-.11,.04-.1,0-.22,0s-.21,.03-.31,.09l.34-.04c-.3-.07-.64,.11-.78,.37l.16-.16c-.39,.27-.28,.75-.28,1.16,0,.39-.05,.78-.05,1.18s-.07,.79-.12,1.19c-.02,.19-.03,.32-.01,.51,.02,.29,.12,.49,.42,.59,.54,.18,.78-.68,.24-.85h-.04l.2,.1-.03-.02,.11,.2s-.01,.02,0-.04c0-.04,0-.08,0-.12,0-.03,0-.29,0-.16s.02-.12,.02-.13c.01-.1,.03-.2,.03-.3,.02-.33,.09-.65,.08-.98,0-.31,.05-.61,.05-.92,0-.15-.02-.29-.02-.44,0-.09,0-.19,0-.28,0,.08,.05-.26,.02-.15l-.11,.2c-.17,.16,.22-.23,.08-.09-.06,.06-.04,.04,.06-.04,.05-.04,.05-.04,.02,0l-.22,.06c-.06-.02-.08-.02-.04-.01,.06,.02,.12,.02,.18,0,.08-.01,.14-.04,.21-.08l-.22,.06c-.12,0,.11,.02,.13,.02,.08,0,.16,0,.24-.02,.15-.03,.26-.11,.38-.2l-.2,.11c.15-.04,.24-.11,.32-.24l-.16,.16,.02-.02-.54-.07s.03,.03,.06,.09c.26,.51,1.02,.06,.76-.45h0Z"/><path class="d" d="M12.23,22.25c-.05,.26,.03,.44,.11,.68,.07,.22,.11,.44,.2,.65,.2,.44,.34,.92,.47,1.39s.24,.96,.34,1.46c.05,.25,.11,.55,.12,.81,.01,.29-.04,.56,0,.86,.03,.24,.34,.37,.54,.31,.26-.07,.34-.31,.31-.54s.05-.48,.02-.73c-.04-.26-.07-.53-.11-.8-.08-.5-.2-.98-.33-1.47s-.27-.95-.44-1.41c-.14-.37-.3-.75-.39-1.15v.17c.12-.56-.73-.79-.84-.24h0Z"/><path class="d" d="M15.17,34.78c-.13-.42-.15-.98-.17-1.42-.03-.66,.03-1.33-.04-1.98-.08-.69-.21-1.38-.3-2.07-.07-.52-.07-1.09-.22-1.59-.29-1.02-.89-1.92-1.21-2.92-.14-.45-.19-.91-.37-1.35-.13-.3-.22-.53-.24-.73-.02-.18-.07-.34-.1-.51-.09-.56-.94-.32-.85,.24,.06,.4,.14,.8,.3,1.18,.2,.46,.26,.93,.41,1.41,.31,1.03,.99,1.95,1.22,3,.12,.54,.15,1.13,.22,1.68,.08,.68,.26,1.36,.28,2.04,.03,1.05-.09,2.24,.22,3.26,.17,.54,1.02,.31,.85-.24h0Z"/><path class="d" d="M11.18,18.21c-.32-.2-.66-.44-1.05-.25-.15,.07,.25-.05-.08,0-.07,.01-.13,.03-.2,.05-.15,.05-.28,.05-.44,.07h.24c-.28-.06-.5,.06-.73,.21-.27,.18-.36,.5-.47,.78s-.28,.56-.4,.85c-.13,.33-.13,.58,.11,.86l-.11-.43-.06,.2,.31-.31c-.26,.08-.42,.21-.52,.46s-.22,.52-.33,.78c-.17,.41-.42,.65-.44,1.09l.06-.22c-.13,.22-.16,.49-.25,.73-.09,.25-.15,.51-.23,.77-.16,.47,.61,.81,.81,.34s.36-.9,.52-1.37,.38-.82,.68-1.18c.14-.17,.3-.32,.47-.47,.13-.12,.3-.23,.4-.38,.12-.18,.21-.37,.31-.56,.08-.16,.15-.43,.2-.55l-.16,.16,.05-.03-.22,.06c.24-.03,.55,.1,.79,.15,.27,.06,.56,.22,.83,.14,.2-.06,.3-.23,.32-.43,.06-.58-.5-1.02-1.01-1.15-.31-.07-.56,.12-.64,.42-.07,.26,.03,.56,.03,.76l.06-.22v.03l.68-.09c-.26-.23-.44-.61-.68-.88-.21-.24-.68-.12-.74,.2-.04,.21-.05,.4,.08,.58,.31,.41,.88,.17,.81-.34-.04-.26-.32-.47-.58-.43-.3,.05-.38,.28-.52,.5-.3,.48,.46,.93,.76,.45,.06-.09,.08-.18,.15-.26l-.16,.16,.05-.03-.34,.04,.05,.02-.2-.11,.04,.04-.11-.2v.05l.82-.34v.11l-.73,.2c-.05-.06-.04-.04,.02,.04,.04,.05,.08,.11,.12,.16,.05,.07,.1,.13,.15,.2,.11,.16,.25,.36,.39,.48,.2,.18,.55,.18,.69-.09,.08-.16,.08-.3,.05-.47,0-.06-.07-.26-.04-.3l-.38,.22c.13-.01,.31,.13,.3,.27l.32-.43h.18c-.14-.02-.26-.09-.41-.12-.17-.03-.35-.07-.52-.11-.29-.06-.61-.19-.88-.03s-.26,.47-.38,.72c-.07,.14-.14,.28-.22,.42-.06,.09-.11,.12-.22,.23-.45,.42-.91,.85-1.19,1.41-.3,.61-.48,1.27-.74,1.9l.81,.34c.14-.41,.22-.84,.37-1.25,.06-.16,.07-.24,.12-.38-.05,.12,.03-.03,.05-.07,.05-.1,.1-.18,.16-.28,.11-.19,.18-.41,.27-.62,.05-.12,.1-.22,.15-.33l.04-.11c.05-.14,.03-.12-.07,.05,.17,.06,.3-.29,.34-.41,.02-.07,.05-.14,.05-.22,0-.08-.02-.15-.06-.22-.08-.1-.09-.12-.05-.06v.24s-.03,.02,0-.05c.03-.06,.05-.11,.07-.17,.03-.07,.07-.15,.11-.22,.08-.17,.17-.34,.24-.52,.04-.1,.07-.26,.13-.36,.06-.11,.2-.17,.31-.22l-.22,.06c-.12,0,.26,0,.17,0,.15,0,.28-.02,.42-.07,.18-.06,.36-.09,.53-.16l-.22,.06c.07,0,.13,.01,.2,.04l-.2-.11c.12,.1,.25,.19,.38,.27,.48,.31,.93-.46,.45-.76h0Z"/><path class="d" d="M14.17,35.26c0,.34-.1,.8,.03,1.12,.17,.42,.69,.42,.85,0,.08-.19,.1-.39,.11-.6l-.87,.12c.21,.67,.06,1.49,.07,2.19s.07,1.35,.06,2.03c-.03,1.61,.15,3.21,.08,4.83-.02,.57,.86,.57,.88,0,.04-.83,.04-1.69,0-2.52s-.13-1.62-.07-2.41c.05-.69-.06-1.37-.07-2.07-.01-.75,.13-1.56-.1-2.28-.15-.47-.86-.39-.87,.12,0,.14-.03,.23-.08,.36h.85c-.09-.22,0-.64,0-.89,0-.57-.89-.57-.88,0h0Z"/><path class="d" d="M13.77,40.22c-.01,.41,.06,.83,.07,1.24,.01,.32,0,.64-.01,.97-.02,.76-.06,1.55-.02,2.32,.09,1.6-.05,3.22,0,4.82,.05,1.71,.13,3.42,.07,5.13-.03,.89-.14,1.78-.22,2.66-.04,.45-.03,.89-.05,1.34-.02,.35-.1,.69-.04,1.03,.06,.37,.65,.43,.81,.11,.18-.36,.11-.7,.09-1.08-.02-.41,0-.79-.08-1.21-.15-.94-.23-1.96-.17-2.92,.06-1-.07-1.99-.11-2.99-.04-.87-.04-1.74-.13-2.6-.06-.56-.94-.57-.88,0,.08,.77,.17,1.58,.14,2.36-.02,.44,.01,.91,.06,1.35,.06,.53,.03,1.04,.06,1.57,.02,.42-.04,.85,0,1.27s.03,.88,.07,1.32,.2,.91,.19,1.36c0,.16-.06,.32-.05,.49s.14,.46,.06,.63l.81,.11c-.06-.34,.07-.78,.08-1.13,0-.42,.02-.84,.08-1.26,.13-.85,.17-1.73,.19-2.58s.05-1.73-.01-2.6c-.06-.81-.01-1.62-.07-2.43-.11-1.58,.14-3.19,.02-4.76-.06-.73-.04-1.51,0-2.24,.02-.35,.04-.69,.02-1.04-.02-.41-.09-.84-.07-1.24,.02-.57-.87-.57-.88,0h0Z"/><path class="d" d="M15.26,59.73c.19-.67,.16-1.42,.14-2.12-.02-.59-.04-1.15,0-1.73,.05-.68,.04-1.45-.15-2.11-.2-.7-.51-1.38-.61-2.1-.07-.56-.96-.56-.88,0,.09,.67,.31,1.3,.51,1.93,.22,.69,.3,1.41,.26,2.14-.04,.58-.04,1.13-.02,1.72,.03,.66,.08,1.4-.1,2.04-.16,.55,.7,.78,.85,.24h0Z"/><path class="d" d="M13.87,58.53c.04,.12,.07,.25,.09,.38l-.02-.12c.02,.16,.02,.31,.01,.47,0,.07-.01,.13-.01,.2,0,.09,0,.19,.04,.27,.06,.15,.15,.26,.31,.31,.15,.04,.32,0,.43-.11,.16-.16,.17-.36,.13-.57-.01-.07-.04-.14-.05-.21l.02,.12c0-.06,0-.12,0-.17,0-.09-.03-.18-.04-.27l.02,.12s0-.07,0-.1c0-.23-.2-.45-.44-.44s-.44,.19-.44,.44c0,.12,.03,.25,.05,.37l-.02-.12c.01,.12,0,.23,.03,.34,.02,.07,.04,.13,.05,.2l-.02-.12s0,.04,0,.06l.02-.12s0,.02,0,.03l.04-.11h0l.07-.08h0l.74,.2s-.01-.04-.01-.05l.02,.12c-.02-.18,.02-.37,.02-.55,0-.24-.04-.48-.12-.71-.04-.11-.1-.21-.2-.26-.09-.06-.23-.08-.34-.04-.22,.07-.39,.31-.31,.54h0Z"/><path class="d" d="M15.55,54.78c.04-.15,.03-.33,.03-.49,0-.08-.03-.16-.04-.24,0-.07,0-.14,0-.21-.01-.17-.04-.34-.06-.51,0-.03-.03-.22-.03-.17,0-.06,.02-.12,.02-.17s-.01-.11-.02-.17c-.01-.15,0-.34-.02-.51-.02-.14-.06-.28-.08-.43-.04-.33-.04-.7-.22-1-.29-.49-1.05-.05-.76,.45-.01-.03,.03,.1,.04,.13,.02,.07,.02,.12,.03,.21,.02,.14,.04,.28,.06,.43s.07,.28,.08,.42,0,.29,0,.42c.01,.11,0-.04-.01,.16,0,.08,.01,.15,.02,.23,.02,.15,.03,.3,.05,.44s0,.3,.03,.45c.02,.08,.04,.27,.03,.31-.15,.55,.7,.78,.85,.24h0Z"/><path class="d" d="M14.59,45.08c-.11,.53-.1,1.16-.1,1.7,0,.63,.01,1.28,0,1.92s.03,1.22,.04,1.82c0,.35,.04,.71,.03,1.06,0,.16,0,.32-.02,.48,0,.06-.03,.12-.04,.18,0,.03-.05,.24-.01,.09l.87,.12c0-.25,0-.5,.02-.76,.06-.57-.82-.56-.88,0-.03,.25-.02,.5-.02,.76,0,.48,.77,.62,.87,.12,.22-1.09,.05-2.42,.04-3.6,0-.64-.03-1.28-.01-1.91,0-.28,.02-.55,.03-.83s-.02-.62,.04-.9c.12-.56-.74-.79-.85-.24h0Z"/><path class="d" d="M14.58,46.36s.03,.11,.02,.15c0-.06-.01-.07-.01-.03,0,.01,0,.03,0,.04,0,.05,0,.1,0,.15s.03,.11,.02,.16v-.13l-.02,.12c0,.07,0,.14-.01,.2,0,.07,0,.15,0,.22,0,.08,.03,.17,.02,.25,0-.04,0-.06-.01,0,0,.04,0,.09,0,.13,0,.03,0,.07,0,.1,0,.01,0,.11,0,.05,0,.05-.01,.1-.02,.15,.01-.09-.01,.09-.01,.09,0,.07,0,.14,0,.21-.01,.18-.03,.29-.05,.44-.01,.13-.04,.29-.03,.42,0,.05,.02,.05,.02,0,0,.05-.02,.1-.02,.15,.01,.11,0-.09,0,.06,0,.07,0,.14,.02,.21,.04,.17,.2,.3,.37,.32,.16,.02,.37-.05,.44-.21,.05-.11,.07-.2,.1-.32,.03-.13,.07-.25,.08-.38,0-.05,0-.1,0-.15,0,.12,.02-.08,.02-.1,0-.13-.02-.16-.02-.08v-.04s0-.06,0-.1c-.02-.14-.02-.16,0-.06h-.88c0,.13,.02,.26,.02,.39s0,.25,.03,.37c.08,.23,.31,.37,.54,.31,.22-.06,.38-.32,.31-.54-.03-.08-.02,.04,0-.04,0-.04,0-.09,0-.13,0-.12-.01-.23-.01-.35,0-.24-.2-.44-.44-.44-.26,0-.42,.2-.44,.44,0,.05,0,.1,.01,.15-.01-.04-.02-.04-.02,0-.01,.08,.01,.17,.03,.24v-.24c-.03,.12-.02,.27-.05,.35-.02,.06-.03,.12-.04,.19,0,.02-.04,.18,0,.09l.81,.11v.2c0-.05,.01-.1,.01-.15,0-.03-.03-.12,0-.06,0,.05,0,.04,0-.03,0-.03,0-.05,0-.08,0-.03,0-.06,0-.09,0-.13,.01-.27,.03-.4,0,.08,.01-.09,.02-.12,0-.03,0-.07,0-.1,0-.07,.02-.14,.02-.21,0-.04,0-.14,0-.15,0-.05,.01-.1,.02-.15-.01,.1,0-.06,.01-.11,.01-.13,.02-.27,.02-.4,0-.05-.03-.1-.02-.15,0,.05,.01,.02,.01-.01,0-.07,0-.15,0-.22,0-.03,0-.06,0-.1,0-.01,0-.09,0-.05,0,.08,.01-.1,.01-.14,0-.04,0-.1-.02-.14,0,.02,0,.09,.01,.03,0-.03,0-.06,0-.08,0-.03,0-.06,0-.09,0-.02-.01-.22,0-.08,0-.24-.2-.44-.44-.44s-.45,.2-.44,.44h0Z"/><path class="d" d="M6.55,24.13s-.02,.09-.04,.14l.87,.12c.06-.53,.57-.88,.61-1.4,.03-.47-.6-.55-.82-.22-.21,.31,.03,.61,.28,.77l-.2-.5c-.12,.41-.25,.82-.37,1.24l.43-.32c-.29,.03-.46,.1-.61,.35-.05,.09-.12,.29-.22,.38l.76,.31c-.01-.17,.08-.37,.08-.56,0-.58-.84-.56-.88,0-.04,.6-.34,1.21-.46,1.81-.05,.27-.1,.53-.13,.8-.04,.3-.14,.58-.18,.88-.04,.28-.08,.56-.11,.84,0,.07,0,.13-.01,.19,0,.2,.02-.19,0,.02-.02,.19-.04,.39-.04,.58-.02,.58-.14,1.15-.17,1.73h.88c0-.23-.01-.73,.08-.86l-.26,.2c.48-.2,.41-.55,.43-1,.01-.28,.14-.37,.24-.61,.08-.18,.14-.43,.26-.59l-.82-.22c-.01,.37-.09,.74-.1,1.11s-.06,.77-.1,1.16l.87-.12c-.05-.15-.07-.3-.15-.43-.07-.12-.21-.18-.27-.29-.1-.18-.31-.25-.5-.2-.11,.02-.05,.03,.16,.03l.16,.61,.02-.03c.35-.45-.42-.89-.76-.45l-.02,.03c-.14,.18-.04,.52,.16,.61,.19,.08,.32,.1,.52,.05l-.5-.2c.07,.13,.16,.2,.26,.3-.02-.13-.01-.12,0,.03,.02,.06,.04,.12,.06,.18,.17,.49,.82,.38,.87-.12,.04-.39,.09-.77,.1-1.16s.09-.74,.1-1.11c.02-.48-.58-.55-.82-.22-.1,.13-.15,.32-.21,.47-.08,.19-.21,.35-.29,.54-.15,.35-.04,.72-.14,1.06l.31-.31c-.58,.24-.54,1-.53,1.54,.01,.57,.86,.57,.88,0s.16-1.1,.16-1.66c0-.19,.02-.37,.03-.56,0-.08,0-.16,0-.24,0,.14,0,.09,.02-.01,.06-.3,.05-.61,.13-.9,.14-.54,.19-1.09,.3-1.64,.13-.62,.41-1.22,.45-1.86h-.88c0,.18-.09,.37-.08,.56,.02,.38,.47,.59,.76,.31,.09-.09,.17-.22,.24-.33,.04-.06,.07-.13,.1-.19l.03-.05c.09-.19,.04-.15-.16,.1,.2-.02,.37-.12,.43-.32,.12-.41,.25-.82,.37-1.24,.06-.2-.04-.39-.2-.5l.07,.12-.04,.34,.02-.02-.82-.22c0-.11,0-.03-.04,.04s-.08,.14-.12,.2c-.09,.14-.18,.25-.24,.41-.09,.24-.18,.49-.2,.75-.06,.52,.71,.56,.87,.12,.05-.13,.07-.24,.07-.37,.01-.57-.87-.57-.88,0h0Z"/><path class="d" d="M9.87,6.17c-.12,.46-.19,1.09-.07,1.55s.7,.38,.85,0c.11-.26,.09-.57,.16-.85h-.85c.09,.46,.05,.99,.08,1.45,.03,.43,0,.87-.03,1.3-.05,1.02,.07,2.06,.14,3.08,.06,.92-.03,1.84-.02,2.77,0,.45,.02,.91,.03,1.35,0,.38,.18,.87,.08,1.23l.43-.32c-.19-.02-.35-.16-.56-.11-.04,0-.17,.07-.17,.07,.04,.07,.04,.07,0,0-.02-.05-.05-.1-.09-.14-.07-.08-.14-.1-.15-.16s.07-.32,.08-.43c.03-.22,.03-.44,.03-.67,0-.47-.02-.93,.02-1.4,.05-.62,.15-1.24,.17-1.86,.02-.54-.12-1.04-.13-1.58,0-.51-.02-1.03,0-1.54,.03-.59,.16-1.17,.14-1.76-.02-.68-.07-1.32,.18-1.97l-.2,.26h-.03l-.38-.21c.21,.32,.08,.95,.04,1.3-.05,.48,.04,.97,0,1.45-.09,.98-.12,1.99-.09,2.98,.03,1.04,.1,2.07,.17,3.11,.03,.48,.11,.94,.09,1.42-.01,.33,.04,.76-.09,1.07l.2-.26-.05,.02,.61,.16c-.11-.18-.06-.52-.09-.72-.04-.24-.1-.47-.16-.7-.13-.49-.15-1.01-.24-1.51-.07-.42-.25-.9-.22-1.32,.03-.44,.23-.84,.17-1.29-.07-.56-.96-.56-.88,0,.06,.47-.19,.91-.18,1.38,0,.49,.18,1,.27,1.49,.09,.52,.12,1.05,.26,1.56s.06,1.12,.32,1.56c.13,.22,.38,.25,.61,.16,.29-.12,.27-.43,.31-.69,.06-.48,.09-.97,.06-1.46-.03-.53-.11-1.06-.15-1.59-.05-.56-.06-1.1-.08-1.65-.02-.52-.04-1.03-.02-1.55s-.06-1.09,0-1.62,.11-.98,.08-1.49,.08-.97,.03-1.47c-.03-.34-.05-.81-.4-.97-.38-.18-.72,.1-.83,.45-.17,.5-.24,1.05-.2,1.57,.04,.57,0,1.09-.06,1.66-.11,.86-.1,1.82-.03,2.69,.04,.49,.12,.92,.08,1.42-.05,.56-.13,1.11-.17,1.67-.03,.43,0,.87-.01,1.3,0,.48-.19,1.06,0,1.51,.06,.14,.24,.28,.28,.32,.13,.15,.19,.27,.4,.33s.39,.04,.61,.01c.36-.04-.13-.04,.1,0,.12,.02,.23,.06,.35,.07,.19,.02,.38-.15,.43-.32,.1-.37,.02-.75-.01-1.13-.03-.44-.05-.89-.06-1.33-.02-1.02,.08-2.04,.03-3.06s-.19-2.1-.14-3.14c.02-.46,.07-.95,.02-1.41-.06-.52,0-1.07-.1-1.58-.09-.43-.75-.41-.85,0-.07,.27-.05,.59-.16,.85h.85c-.08-.29,0-.8,.07-1.08,.14-.55-.71-.79-.85-.24h0Z"/><path class="e" d="M10.97,75.67c1.93,0,1.93-3,0-3s-1.93,3,0,3h0Z"/><path class="e" d="M10.87,74.62c.13,.04,.26,.09,.39,.11,.05,0,.09,.01,.14,.02,.09,.01,.1,.01,.05,0-.05,0-.04,0,.01,0,.09,.03,.18,.05,.28,.06,.09,.01-.01,0-.03,0,0,0,.09,.02,.11,.02,.1,.03,.2,.05,.31,.06,.03,0,.06,0,.09,0,.09,0,0-.02-.03,0,.05-.01,.15,.03,.2,.05s.14,.06,.19,.05c-.01,0-.23-.17-.14-.08,.02,.02,.04,.03,.06,.05,.07,.06,.15,.13,.23,.17,.06,.03-.07-.08-.03-.03,.03,.04,.11,.1,.16,.12,.06,.03-.03-.04-.04-.05-.02-.02-.09-.11-.07-.13,0,0,.01,.07,.02,.08,.02,.06,.05,.13,.08,.19,.12,.27,.49,.35,.74,.24s.45-.42,.34-.7c-.06-.15-.13-.26-.24-.38-.15-.18-.44-.21-.64-.12s-.37,.3-.36,.54c0,.28,.14,.48,.33,.67,.04,.04,.08,.09,.12,.13s.1,.07,.14,.11l-.09-.07c.08,.07,.04,0-.11-.2l.06-.45h0l.21-.2h-.02c-.13,.06-.24,.24-.27,.36-.04,.14-.02,.33,.06,.45s.2,.24,.35,.27c.17,.04,.3,0,.45-.06,.41-.17,.39-.74,.1-1.01-.04-.04-.1-.09-.15-.12,.14,.08,.08,.06,.04,.01-.03-.03-.05-.06-.08-.08-.02-.02-.04-.04-.06-.07,.06,.07,.09,.15,.09,.24l-1.01,.42c.06,.08,.04,.03-.06-.14l1.08-.45s.04,.12,.03,.03c0-.05-.07-.19-.07-.19-.05-.08-.1-.16-.17-.23-.01-.01-.16-.11-.16-.11,0,0,.12,.1,.05,.04-.05-.04-.11-.09-.16-.12-.01,0-.08-.04-.08-.05,0,.02,.1,.08,.02,0-.02-.02-.04-.04-.05-.05-.1-.1-.22-.15-.35-.19s-.28-.08-.42-.1c-.07,0-.13-.02-.2-.02,0,0-.15-.01-.05,0s-.04-.02-.05-.02c-.03,0-.06-.01-.09-.02-.05-.01-.11-.02-.17-.02-.04,0-.08-.01-.12-.01h.07s-.24-.05-.26-.05c-.23-.03,.08,.02-.05,0-.03,0-.06-.01-.08-.02-.03,0-.06-.02-.09-.03l-.19-.06c-.3-.09-.66,.11-.73,.41s.1,.63,.41,.73h0Z"/><path class="e" d="M13.05,75.1c-.16-.02-.29,.05-.42,.12l.14-.06c-.09,.03-.17,.07-.26,.08l.16-.02c-.1,0-.19,0-.29,0-.13,0-.26,.03-.39,.06l.16-.02c-.08,0-.17,.01-.25,.04-.04,.01-.07,.03-.11,.03l.16-.02c-.12,0-.23,.03-.34,.05l.16-.02s-.09,0-.14,0c-.1,0-.18,.03-.28,.06l.16-.02c-.09,.01-.19,0-.28,.04-.04,.01-.08,.03-.13,.04l.16-.02s-.02,0-.04,0l.3,.08h-.02l.12,.08s-.1-.08-.15-.11c-.26-.18-.67-.06-.81,.21-.16,.3-.06,.62,.21,.81h.02l-.12-.08c.15,.12,.29,.19,.48,.19,.12,0,.2-.04,.32-.07l-.16,.02c.08-.01,.17-.01,.25-.03,.04-.01,.08-.03,.12-.04l-.16,.02s.09,0,.14,0c.09,0,.19-.03,.28-.04l-.16,.02c.08,0,.17,0,.26-.03,.04-.01,.08-.03,.12-.04l-.16,.02c.13-.01,.25-.04,.38-.06l-.16,.02c.07,0,.14,0,.21,0,.11,0,.21,0,.31-.03,.16-.03,.31-.11,.46-.17l-.14,.06h.02l-.16,.02h.03c.14,.02,.32-.07,.42-.17,.1-.1,.18-.27,.17-.42s-.06-.31-.17-.42c-.12-.11-.25-.16-.42-.17h0Z"/><path class="e" d="M12.61,75.44c.03-.15,0-.29-.13-.38-.07-.06-.16-.08-.24-.11-.18-.07-.36-.14-.54-.18-.06-.01-.12-.02-.18-.02-.02,0-.05,0-.07,0s-.04,0,0,0l-.06-.02c-.1-.03,.04,.03,.03,.03,0,0-.1-.08-.13-.09-.09-.05-.19-.07-.29-.09,0,0-.07-.02-.04-.01,.03,.01-.04-.02-.04-.02-.06-.03-.11-.05-.17-.07-.09-.03-.19,0-.26,.05-.08,.06-.11,.14-.12,.23,0,.03,0,.07,0,.1,0,.05,0,.03,0-.06-.02,.02-.03,.09-.03,.11-.03,.11-.02,.21,0,.33,.01,.06,.03,.12,.05,.18,0-.04,0-.04,0,0v.06s0,.07,0,.11c0,.06,0,.11,.01,.16,0,.04,0,.04,0,0,0,.02,0,.04,0,.06,0,.09,0,.17,.02,.25,0,.01,.01,.12,0,.06,0,.06,0,.11,.02,.16,0,.03,.01,.06,.02,.09,0,.03,0,.03,0,0,0,.01,0,.03,0,.04l.5-.21h0l.08,.12s.02,.08,0,.07v-.05l.02-.03s-.02,.05-.01,.03c.01-.02,.02-.04,.03-.05,.04-.06-.03,.02,.02-.03l.05-.05c.06-.05-.01-.02-.04,0,.03-.02,.08-.03,.12-.05,0,0,.07-.06,.02-.03,.02-.01,.05-.02,.07-.02,.07-.02,.13-.05,.19-.08,.13-.06,.25-.14,.29-.28,.09-.27-.13-.47-.36-.57-.1-.04-.2-.09-.3-.12s-.22-.05-.33-.09c-.27-.1-.51,.31-.29,.49,.24,.2,.73,.42,.89,.01,.04-.11-.03-.28-.14-.33-.04-.02-.08-.04-.12-.05-.15-.04-.33,.05-.36,.21s.05,.32,.21,.36h-.02l-.14-.34h0l.08-.12h0l.13-.07s.09-.01,.1,0c0,0-.04,0-.04-.01-.02,0-.05-.02-.07-.03-.01,0-.02,0-.04-.01,.02,0,.03,.02,0,0-.02,0-.03-.02-.05-.03-.04-.02,.05,.04,0,0l-.29,.49c.1,.04,.2,.06,.3,.08,.02,0,.05,.01,.07,.02,0,0,.08,.03,.05,.01s.03,.01,.04,.02c.02,0,.04,.02,.06,.02,.03,.01,.07,.03,.1,.05,.05,.02-.02-.02,0,0,.02,.02,.01,0-.01-.02l-.02-.09,.05-.14s.03-.03,.02-.02c-.02,0-.04,.02-.06,.03,.05-.02-.04,.01-.04,.01-.02,0-.05,.02-.07,.02-.06,.02-.12,.04-.17,.07-.02,.01-.05,.04-.01,.01-.03,.02-.07,.03-.11,.05-.1,.06-.2,.17-.27,.27-.05,.07-.09,.16-.11,.25-.04,.15-.02,.28,.08,.4,.07,.09,.23,.1,.32,.06,.12-.05,.17-.15,.18-.27,.01-.08,0-.17-.03-.24,0-.03,0-.03,0,0v-.06c0-.05-.02-.11-.02-.16,0-.02,0-.04,0-.05,0,.03,0,.03,0,0,0-.03,0-.06,0-.09,0-.05,0-.11-.01-.16,0-.04,0-.04,0,0v-.06c0-.07,0-.15,0-.22,0-.08-.04-.15-.06-.23,0,0-.02-.12-.01-.06,0-.04,0-.04,0,0,0-.02,0-.04,.02-.06,.02-.05,.03-.1,.03-.16,0-.03,0-.07-.01-.1,0-.03,0-.03,0,0l-.37,.28s.04,.01,0,0l.05,.02s.1,.05,.15,.06c.07,.02,.14,.04,.21,.06,.03,.01,.03,.01,0,0-.03-.02-.03-.03,0,0,.06,.05,.1,.08,.17,.1,.08,.03,.17,.05,.26,.05,.04,0,.08,0,.12,0-.03,0-.03,0,0,0,.02,0,.04,.01,.05,.02,.08,.03,.16,.05,.24,.08s.15,.05,.22,.08c.03,.01,.06,.02,.09,.03h.03c-.1-.02-.15-.11-.14-.26-.03,.15,.04,.33,.21,.36,.15,.03,.33-.04,.36-.21h0Z"/><path class="e" d="M9.71,76.24c-.13-.03-.26-.04-.39-.06-.15-.02-.25,0-.41,0-.1,0-.22-.01-.33-.03-.15-.02-.29-.04-.44-.05-.05,0-.09-.02-.13-.03-.07-.01-.14-.01-.2-.02-.12-.02-.23-.07-.35-.1-.14-.04-.27-.09-.4-.14-.06-.03-.12-.05-.18-.08-.02,0-.21-.11-.15-.05l.08,.13v.13c-.06,.04-.07,.06-.04,.06,.04-.01,.08-.02,.11-.04,.05-.02,.1-.04,.15-.06,.15-.05,.29-.11,.42-.2,.19-.13,.41-.27,.63-.3,.07-.01,.15,0,.22,0s.14-.01,.21-.02c.13,0,.26,0,.39-.01,.14-.01,.29-.06,.43-.09,.06-.01,.12-.02,.18-.03,.04-.01,.07-.03,.11-.05-.06,0-.07,0-.01,0l-.15-.04h.03l-.14-.16v-.13c-.03,.25,.05,.48,.02,.73,0,.06-.01,.11-.01,.17,0,.04,0,.08,.01,.13,0-.04,0-.03,0,.02,0,.07,0,.13,0,.2,0,.03,0,.07,0,.1,0,.06,0,.06,0,0l.11-.11-.04,.03,.15-.04c.08,.04,.1,.04,.05,0-.02-.01-.04-.03-.05-.05l.08,.13c-.02-.06,0-.18,0-.25,.01-.11,0-.21,0-.32-.02-.21-.1-.46-.36-.46-.23,0-.36,.23-.43,.42-.04,.1-.05,.2-.06,.31,0,.04,0,.08,0,.12,0,.02,0,.13,0,.11l.14-.18-.03,.02,.23-.03h-.03l.18,.13s0,.04,0-.05c0-.04,0-.07,0-.11,0-.1,0-.2-.02-.3-.05-.18-.21-.33-.4-.32s-.32,.18-.38,.35c-.05,.14-.03,.31-.09,.45l.11-.11h.28c.05,.06,.05,.06,.02,.02l-.05-.06s-.05-.05-.07-.08c-.03-.06-.01-.14-.03-.22-.03-.17-.14-.3-.29-.38-.21-.11-.45-.02-.53,.2-.02,.07-.05,.14-.07,.21-.01,.05-.03,.12-.03,.17v.08s.02,.01,.03-.04l.11-.11h-.02l.15-.03s-.04,0-.07-.01c-.07-.03-.12-.07-.19-.1-.19-.08-.35,.02-.44,.19l.11-.11-.03,.02,.23-.03h-.02l.21,.2c-.03,.08-.04,.11-.01,.08,0,0,.01,0,.02,0,.06,.01,.18-.04,.23-.06,.1-.05,.18-.11,.27-.17,.11-.07,.23-.13,.34-.19s.21-.14,.31-.22c.09-.07,.15-.15,.24-.22,.11-.08,.21-.17,.31-.25,.2-.17,.37-.37,.43-.63l-.58-.08c0,.09,0,.17,.02,.27,0,.05,.01,.09,.02,.14,0,.04,0,.18,.03,.06l.21-.21h0l.23,.03s.04,.04,0,0l-.04-.04s-.05-.05-.09-.07c-.1-.07-.21-.12-.33-.17-.24-.09-.5-.12-.7-.03-.11,.05-.22,.11-.33,.16-.05,.02-.09,.04-.13,.08-.06,.04-.12,.12-.18,.16,.07-.04-.04,0-.06,0-.06,.01-.14,.04-.2,.07-.09,.05-.2,.17-.24,.2l.13-.08c-.13,.05-.24,.12-.36,.19-.1,.06-.24,.1-.36,.14-.15,.06-.28,.11-.34,.28-.05,.14-.03,.29,0,.43s.05,.27,.17,.36c.11,.07,.25,.09,.37,.1,.14,.01,.27-.03,.38-.12,.15-.12,.17-.29,.13-.46-.09-.37-.66-.21-.57,.16v-.04l.08-.13s0,.02-.03,.02c.1,0,.11,0,.05-.02-.05-.02-.11-.01-.16-.03l.13,.08h0l.04,.16c0-.07-.07-.26-.04-.31l-.11,.11c.05-.04,.17-.08,.24-.09,.11-.03,.2-.06,.3-.12,.05-.03,.1-.05,.15-.08,.07-.04,.08-.05,.05-.04-.02,0-.01,0,.02-.01,.1-.05,.16-.14,.25-.19-.06,.03,0,0,.02,0,.05-.01,.11-.01,.16-.03,.12-.04,.18-.13,.28-.2,.14-.1,.32-.15,.46-.24l-.15,.04c.15-.02,.31,.02,.43,.1,.07,.04,.07,.03,.12,.07,.05,.04,.1,.09,.17,.12,.22,.08,.42-.08,.42-.31,0-.17-.04-.34-.06-.51-.01-.15-.1-.27-.26-.29-.14-.02-.29,.07-.32,.21-.07,.27-.37,.44-.58,.6-.12,.1-.22,.22-.35,.31s-.27,.15-.4,.22c-.11,.06-.21,.15-.32,.19-.19,.05-.32,.1-.44,.27s-.12,.45,.08,.57c.09,.05,.19,.06,.29,.02,.04-.02,.09-.05,.13-.08,0,0,.08-.1,.05-.07l-.29,.08c-.05-.01,.08,.05,.08,.05,.06,.03,.12,.06,.18,.08,.12,.04,.26,.05,.38-.02,.13-.08,.18-.21,.18-.36,0-.04,0-.08-.01-.12,.01,.04,.02,.03,.03-.03,.02-.03,.04-.11,.04-.12l-.18,.14h-.13s.06,0,.04,.01l-.06-.06s0,0,0,.03c-.04,.08,.03,.26,.06,.33,.07,.12,.21,.32,.34,.38,.26,.14,.45-.1,.5-.32,.02-.09,.04-.17,.05-.26-.01,.07,.01-.12,.02-.09,0-.05,.06-.03-.03,.01l-.15,.04h.03l-.15-.04s-.04-.05-.05-.05c-.01,0,0,.11,0,.12,0,.1,0,.2,.02,.3,.04,.21,.24,.37,.46,.28,.37-.16,.07-.61,.32-.81l-.21,.09h.03l-.21-.09c-.06-.06-.04-.08-.03,0,0,.03,0,.07,0,.1,0,.09-.01,.18-.02,.27-.01,.2,.01,.36,.16,.5,.14,.13,.32,.22,.5,.11s.22-.31,.22-.5c0-.34,0-.69-.03-1.03-.01-.15,.03-.33-.15-.44-.19-.12-.34,0-.52,.02-.14,.03-.29,.07-.44,.09-.17,.02-.36,.02-.53,.03-.2,0-.38,0-.57,.07-.14,.05-.28,.12-.43,.22-.17,.1-.25,.16-.43,.23-.14,.05-.33,.1-.45,.19-.17,.12-.27,.33-.16,.52,.08,.14,.31,.21,.45,.28,.37,.17,.77,.27,1.16,.34,.19,.04,.38,.04,.57,.07,.1,.02,.2,.02,.31,.04,.13,.02,.23,0,.36-.02h-.16c.06,0,.12,.03,.18,.03l.11-.02c-.07,0-.08,0-.02,0,.1,.03,.21,.02,.31,.05,.37,.09,.53-.48,.16-.57h0Z"/><path class="e" d="M7.84,75.29s.02-.05,.04-.07l-.09,.12s.01-.02,.02-.03l-.12,.09s.1-.06,.15-.09c.05-.04,.11-.06,.17-.09,.2-.1,.35-.24,.42-.46,.08-.23-.05-.55-.27-.67-.17-.08-.32-.11-.5-.06l.45,1.08s.05-.02,.07-.03l-.14,.06c.06-.03,.13-.05,.2-.06l-.16,.02c.07,0,.15-.01,.22-.03,.08-.02,.13-.06,.2-.09l-.14,.06s.1-.04,.15-.05l-.16,.02c.12,0,.23-.02,.34-.04l-.16,.02c.06,0,.12-.01,.17,0l-.16-.02c.05,0,.11,.02,.16,.03,.3,.08,.65-.1,.73-.41s-.09-.64-.41-.73c-.24-.07-.48-.06-.73,0l.16-.02c-.11,.01-.22,0-.33,.04-.1,.03-.2,.07-.28,.12l.14-.06s-.03,.01-.04,.01l.16-.02c-.22,.02-.39,.08-.59,.17-.12,.06-.24,.22-.27,.35s-.02,.26,.03,.38c.12,.27,.41,.41,.7,.34h.02l-.16,.02h.02l-.3-.08h.01l-.27-.66h0l.06-.13h0l.09-.11s-.01,.01-.02,.02l.12-.09c-.09,.06-.2,.09-.29,.16-.05,.03-.1,.06-.15,.09-.12,.08-.21,.18-.27,.3-.07,.15-.1,.29-.06,.45,.04,.14,.14,.29,.27,.35,.14,.07,.3,.11,.45,.06,.14-.05,.29-.13,.35-.27h0Z"/><path class="e" d="M9.17,75.82c1.93,0,1.93-3,0-3s-1.93,3,0,3h0Z"/><g><path d="M13.99,75.41l.08-.02c.75-.24,1.13-.53,1.13-.86,0-.82-2.37-1.27-4.71-1.29v.22c2.68,.02,4.49,.58,4.49,1.07,0,.2-.33,.43-.9,.62l-.59-.8c-.38-.51-1.45-.8-3.02-.82v.22c1.45,.02,2.52,.29,2.84,.73l.68,.93Z"/><path d="M6.49,75.36l.64-.93c.25-.31,1.14-.71,2.81-.76v-.22c-1.47,.05-2.61,.37-2.99,.85l-.56,.8c-.56-.18-.89-.41-.89-.61,0-.15,.18-.29,.34-.38,.7-.41,2.32-.69,4.13-.73v-.22c-1.87,.03-3.49,.32-4.24,.76-.3,.17-.45,.36-.45,.57,0,.33,.38,.62,1.13,.85l.08,.02Z"/><path d="M10.52,76.72c1.89-.04,3.81-.43,3.81-1.11,0-.68-1.93-1.06-3.82-1.08v.22c2.54,.03,3.6,.58,3.6,.86,0,.39-1.45,.84-3.6,.89v.22Z"/><path d="M9.96,76.73v-.22c-2.15-.03-3.6-.47-3.6-.86,0-.39,1.45-.84,3.6-.89v-.22c-1.9,.04-3.82,.43-3.82,1.11,0,.68,1.93,1.06,3.83,1.08Z"/><path d="M4.74,59.77h.22c0-.17,.2-.32,.37-.41,.82-.47,2.7-.77,4.79-.78,3.04-.01,5.17,.6,5.17,1.16h.22c0-.91-2.78-1.39-5.39-1.38-2.13,0-4.05,.33-4.9,.81-.32,.18-.48,.39-.48,.61Z"/><path d="M5.16,31.61c0-.21,.15-.4,.44-.57,.77-.45,2.53-.75,4.47-.75,2.38,0,4.92,.44,4.92,1.28h0c-1.24,10.21-2.83,19.26-4.71,26.92h-.21c-2.16-8.23-3.81-17.27-4.91-26.88Zm4.91-1.1c-1.91,0-3.62,.29-4.36,.72-.15,.09-.33,.23-.33,.36,1.07,9.42,2.69,18.3,4.79,26.41,1.84-7.55,3.38-16.45,4.6-26.44-.02-.51-1.94-1.07-4.7-1.06Z"/><path d="M6.23,24.52h.22c0-.08,.09-.18,.24-.27,.57-.33,1.89-.55,3.36-.55,2.23,0,3.6,.46,3.6,.8h.22c0-.67-1.97-1.02-3.83-1.02-1.5,0-2.86,.23-3.47,.58-.24,.14-.35,.29-.35,.46Z"/><path d="M12.01,22.49c.39,.03,.8,.13,1.23,.28-.59-1.37-1.1-2.63-1.68-4-.33-.05-.67-.08-1.01-.1,.6,1.38,1.07,2.52,1.46,3.82Z"/><path d="M11.15,18.33h.22c0-.42-1.21-.42-1.34-.42-.52,0-.97,.08-1.19,.2-.1,.06-.15,.13-.15,.22h.22s0,0,.04-.03c.15-.09,.54-.17,1.08-.17,.67,0,1.08,.13,1.12,.2Z"/><g><polygon points="15.14 74.49 20.01 79.05 19.49 68.2 15.4 61.05 15.14 74.49"/><path d="M15.03,74.54l.27-13.89,4.29,7.49v.02l.55,11.16-5.11-4.78Zm.47-13.08l-.25,12.99,4.63,4.34-.51-10.56-3.88-6.77Z"/></g><g><path d="M.94,68.34l-.43,10.59,4.63-4.4-.35-13.04-3.85,6.84Zm4.14,6.17l-4.51,4.29,.43-10.44,3.74-6.66,.34,12.81Z"/><path d="M.51,78.93l.43-10.59,3.85-6.84,.35,13.04-4.63,4.4Zm-.05,.1l4.72-4.49-.35-13.21-3.93,6.99-.44,10.71Z"/><path d="M4.83,61.34l.35,13.21L.47,79.04l.44-10.71,3.93-6.99ZM.45,79.07l4.74-4.51-.35-13.26-3.96,7.04-.43,10.73Z"/><path d="M.82,68.28s-.01,.03-.01,.04l-.44,10.71s.02,.08,.06,.1c.01,0,.03,0,.04,0,.03,0,.05,0,.07-.03l4.72-4.49s.03-.04,.03-.07l-.35-13.21s-.03-.08-.08-.09-.09,0-.11,.05l-3.93,6.99Zm4.38,6.28L.45,79.07l.43-10.73,3.96-7.04,.35,13.26Z"/><path d="M.53,79.11s-.04,.03-.07,.03c-.01,0-.03,0-.04,0-.04-.02-.06-.06-.06-.1l.44-10.71s0-.03,.01-.04l3.93-6.99s.06-.06,.11-.05,.07,.05,.08,.09l.35,13.21s-.01,.06-.03,.07l-4.72,4.49Zm.22-10.8l-.44,10.86s.02,.08,.06,.09c.01,0,.03,0,.04,0,.02,0,.05,0,.07-.03l4.84-4.6s.03-.05,.03-.07l-.36-13.44s-.03-.08-.08-.09c-.04-.01-.09,0-.11,.05l-4.04,7.17s-.01,.03-.01,.04Z"/><path d="M4.98,61.14l.36,13.44s-.01,.05-.03,.07L.47,79.24s-.04,.03-.07,.03c-.01,0-.03,0-.04,0-.04-.02-.06-.05-.06-.09l.44-10.86s0-.03,.01-.04l4.04-7.17s.06-.06,.11-.05c.04,.01,.07,.05,.08,.09Zm.06,0c0-.07-.05-.13-.12-.15-.07-.02-.14,.01-.17,.07l-4.04,7.17s-.02,.04-.02,.07l-.44,10.86h0c0,.07,.03,.12,.09,.15,.01,0,.05,.01,.06,.01,.04,0,.08-.01,.11-.04l4.84-4.6s.05-.07,.05-.12l-.36-13.43Z"/></g><path d="M15.19,74.52c.41-15.34,.75-32.66-.24-44.03-.46-4.28-1.23-7.85-3.67-12.4l-.31-11c-.03-1.2-.16-2.4-.37-3.57l-.64-3.53-.61,3.53c-.2,1.18-.32,2.38-.35,3.58l-.23,11c-2.41,4.56-3.16,8.14-3.58,12.42-.68,8.54-.75,21.33-.19,39.09l-4.22,.1v.22l4.26-.1h0s.05,0,.07,0h.11v-.11c-.56-17.82-.5-30.63,.18-39.18,.42-4.26,1.17-7.82,3.57-12.36v-.02l.24-11.05c.02-1.18,.14-2.38,.34-3.54l.4-2.3,.42,2.3c.21,1.16,.33,2.35,.37,3.54l.31,11.05v.02c2.45,4.53,3.22,8.08,3.67,12.34,.99,11.35,.64,28.66,.24,44h.22Z"/><path d="M4.24,71.31c-.11,.48-.2,.96-.26,1.45-.03,.2-.07,.4-.12,.59-.05,.21-.14,.4-.32,.52-.09,.06-.24,.06-.34,0-.18-.12-.21-.3-.28-.47-.04-.1-.05-.19-.06-.3,0-.06-.03-.11-.04-.19-.04-.18-.05-.35-.08-.53-.04-.2-.03-.39-.03-.59,0-.18,.15-.33,.33-.33s.33,.15,.33,.33c0,.14-.02,.3,0,.42,.03,.17,.06,.34,.08,.51v.04s0-.02,0,0c0,.03,.01,.06,.02,.09,.03,.09,.03,.19,.04,.28,0,.02,.03,.09,.05,.14,.01,.03,.02,.07,.03,.1,.03,.1,.03,0-.08-.06h-.34s-.06,.07-.02,0c-.03,.06,.01-.03,.02-.05,.02-.07,.03-.14,.05-.21,.04-.2,.08-.39,.11-.59,.06-.44,.14-.88,.24-1.31,.04-.17,.24-.28,.41-.23,.18,.05,.27,.23,.23,.41h0Z"/><path d="M5.13,70.16c-.02,.1-.02,.25-.01,.38,0,.08,.02,.16,.03,.24v.09c-.01-.05-.01-.05,0,0,0,.04,.01,.08,.02,.12,.05,.4,0,.8,.05,1.2s.1,.81,.1,1.21c0,.23,0,.45-.02,.67-.01,.1-.03,.21-.06,.31,0,.03-.02,.06-.03,.09,0,0-.05,.23-.03,.14-.1,.42-.74,.24-.64-.17,.01-.05,.03-.09,.05-.13l-.04,.17c.02-.18,.08-.36,.1-.55,.03-.24,.01-.49,0-.73-.01-.38-.07-.76-.12-1.14s0-.74-.04-1.09c-.04-.32-.05-.67,0-.99,.07-.42,.71-.24,.64,.17h0Z"/><path d="M4.64,74.99c.06-.01,.08-.01,.05,0-.03,0-.01,0,.04-.02,.02-.02,.12-.13,.05-.04-.04,.06-.09,.1-.15,.14-.06,.05-.13,.09-.2,.13s.05-.05,0,0c-.03,.03-.06,.05-.09,.07-.05,.04,0,0,.01-.01,0,.01-.03,.04-.04,.04-.05,.06-.1,.11-.15,.17-.02,.03-.05,.05-.07,.08-.03,.03-.06,.05-.09,.07,0,0-.02,.01-.03,.02-.02,.01-.01,0,.03-.02,0,0-.07,.06-.06,.06l-.05,.04,.04-.03s-.05,.06-.07,.08c-.01,.01-.03,.03-.04,.04l-.03,.02s-.01,0,.02-.03c-.02,.05-.06,.09-.09,.13-.02,.03-.06,.06-.09,.07-.03,0,.06-.05,.02,0-.03,.03-.06,.07-.1,.1-.1,.1-.28,.13-.4,.05-.13-.08-.19-.22-.15-.37,0-.03,.02-.06,.04-.1,.02-.04-.01,.02-.01,.03-.01-.03,.04-.13,.05-.15,.04-.07,.09-.12,.15-.17,0,0,.02-.03,.03-.03-.01,0-.04,.06-.02,.02,.01-.02,.03-.05,.05-.07,.05-.07,.1-.14,.17-.2,.1-.08,.22-.15,.32-.22,.01,0,.02-.02,.04-.02,.03-.01-.04,.04-.02,.01,.01-.02,.03-.03,.05-.05,.09-.08,.19-.14,.32-.14,.17,0,.34,.15,.33,.33s-.14,.34-.33,.33c.06,0,.12-.02,.16-.07,0,0-.02,.02-.03,.02-.01,.01-.02,.03-.04,.04-.05,.05-.11,.08-.17,.12-.04,.03-.09,.06-.13,.09l-.06,.04s-.09,.06-.04,.02c.02-.02,.02-.02,0,0-.02,.03-.02,.02,.02-.02,0,.02-.02,.03-.03,.05-.04,.06-.07,.12-.12,.17-.01,.01-.03,.03-.04,.04l-.03,.03s-.02,.02,.01-.02c.04-.07,.01-.03,0,0-.01,.03-.02,.07-.04,.1-.02,.03-.01,.02,.01-.03l-.56-.32s.06-.07,.1-.1,.05-.05,.09-.08-.03,.03-.04,.04c-.04,.03,0,0,0-.01,.02-.03,.05-.07,.07-.1,.03-.03,.07-.06,.1-.09,.03-.04,.06-.06,.1-.09,.09-.07,.01-.01,.01-.01,0-.01,.09-.08,.09-.08,0,0,.02-.01,.03-.02,.02-.01,.01,0-.03,.02,0,0,.04-.04,.04-.04,.03-.03,.05-.06,.08-.09,.05-.06,.1-.12,.15-.17,.03-.03,.06-.05,.1-.08,.03-.02-.06,.05-.01,0s.1-.08,.16-.12c.04-.03,.07-.05,.11-.07,.02-.01,.04-.03,.06-.04,.02-.02,.01,0-.03,.02l-.03,.04c.05-.06,.09-.12,.17-.16s.15-.06,.23-.06c.17,0,.34,.15,.33,.33s-.14,.33-.33,.33h0Z"/><path d="M3.45,76.18c.06-.11,0,.04-.02,.05-.02,.03-.04,.06-.06,.09-.06,.09-.13,.13-.2,.2-.04,.03-.07,.07-.1,.11,.05-.06-.04,.05-.06,.07-.05,.05-.11,.1-.16,.15-.02,.03-.04,.05-.07,.07-.02,.02-.05,.04-.08,.06-.02,.01-.01,0,.02-.02-.01,.01-.11,.09-.07,.05-.04,.03-.08,.07-.12,.1-.12,.08-.18,.15-.3,.26-.03,.03-.04,.03-.04,.04-.03,.04-.06,.08-.09,.11-.03,.02-.05,.04-.08,.06,.02-.01,.02-.01,0,0-.03,.03-.06,.06-.09,.09-.02,.02-.14,.12-.07,.06-.02,.02-.12,.1-.08,.06-.07,.06-.13,.12-.21,.16-.11,.07-.24,.16-.3,.25-.1,.14-.18,.29-.3,.42-.12,.14-.34,.12-.47,0h0c-.13-.13-.12-.35,0-.48,.13-.13,.34-.12,.47,0h-.46c-.04,.05,.02-.02,.03-.03,.02-.03,.04-.07,.06-.1,.04-.06,.08-.12,.12-.18,.11-.16,.24-.25,.38-.35,.07-.05,.15-.1,.18-.14,.04-.04,.08-.07,.12-.1-.02,.02-.02,.02,0,0l.07-.05s.02-.03,.03-.04c.03-.03,.06-.05,.09-.08,.13-.1,.06-.05,.04-.02,.04-.04,.07-.09,.11-.13,.12-.11,.23-.23,.36-.32,.08-.06,.09-.06,.15-.11,.04-.03,.04-.03,0,0,.01-.02,.03-.03,.05-.04,.02-.02,.03-.03,.05-.04-.03,.02-.03,.03-.01,0,.05-.05,.1-.11,.15-.16l.04-.03s-.02,.03,.01-.01c.03-.04,.06-.07,.09-.1s.06-.06,.09-.09c.02-.02,.11-.1,.08-.06-.01,.01,.08-.09,.03-.03,0,.03,0,.03,0,0,.01-.03,.03-.07,.04-.1,.08-.16,.31-.21,.45-.12,.16,.09,.2,.29,.12,.45h0Z"/><path d="M.76,78.8s0,.03-.01,.05c-.01,.03-.02,.05-.03,.08l-.03,.03s-.03,.03-.05,.03c-.01,0-.03,.01-.04,.01-.02,0-.04,0-.07,0l-.04-.02-.03-.03s-.03-.03-.03-.05c-.01-.02-.02-.04-.01-.06h0s0-.05,.01-.07c0-.02,.02-.04,.03-.05,.01-.02,.03-.03,.05-.03,.02-.01,.04-.02,.06-.01h.04s.05,.03,.07,.05l.03,.03s.02,.05,.02,.08h0l-.31-.08v0s.01-.04,.01-.06c0-.02,.01-.04,.03-.06,.01-.02,.03-.03,.05-.04,.02-.01,.04-.02,.06-.02,.02,0,.04,0,.07,0l.04,.02s.04,.03,.06,.06l.02,.04s0,.06,0,.09H.76Z"/><path d="M.44,78.43s0-.07,0-.04c0-.03,0-.05-.01-.08,0-.05,0-.1,0-.16,0-.1,0-.21,0-.31,0-.05,.02-.11,.03-.16,0-.05,.01-.07,.01-.12,0-.05,0-.11,.02-.16,0-.03,0-.08,0-.12,0-.09,.08-.17,.17-.17s.17,.08,.17,.17c0,.1-.02,.19-.02,.28s-.03,.2-.04,.28c-.01,.1,0,.21,0,.31,0,.05,0,.11,0,.16,0-.04,.01,.08,0,.05,0,.02,0,.05,0,.07,0,.09-.07,.17-.17,.17s-.17-.08-.17-.17H.44Z"/><path d="M.93,69.83c.15,.02,.28,.06,.43,.06,.16,0,.31,0,.47,0,.34,.01,.67,0,1.01,0,.18,0,.34-.04,.51-.07,.13-.02,.26-.02,.39-.03,.14,0,.28-.04,.42-.05s.26,.03,.4,.04c.15,0,.25,.24,.08,.31-.07,.03-.14,.04-.22,.04-.21,0-.22-.33,0-.33,0,0,.08,0,.05,0l.08,.31c-.13,0-.27-.05-.4-.04-.14,.01-.28,.04-.42,.05s-.28,.01-.43,.04c-.16,.03-.32,.06-.48,.06-.34,0-.67,.02-1.01,0-.16,0-.31,0-.47,0s-.28-.04-.43-.06c-.21-.02-.21-.35,0-.33H.93Z"/><path d="M4.41,70.64c-.61,0-1.22,.02-1.83,.05-.28,0-.57,.02-.85,.02-.25,0-.53,.02-.75-.11-.37-.22-.03-.8,.33-.57,.05,.03,.05,.03,0,0,.03,0,.06,0,.09,0,.06,0,.12,.02,.19,.02,.09,0,.2,0,.31-.01,.27,0,.54-.02,.82-.03,.57-.02,1.14-.05,1.71-.04,.43,0,.43,.67,0,.66h0Z"/><path d="M1.4,70.33s0,.07,0,.09c0-.06-.01-.07,0-.04,0,.04,.01,.07,.01,.11,0,.02,0,.04,0,.06,0,.03,0,.07-.01,.1-.01,.06-.01,.02,0-.12,.03,.09,.04,.19,.02,.28v.02s0,.02,0-.03v.09c0,.05,0,.1,0,.16,0,.03,0,.06,0,.09,0,.04,0,.03,0-.02,0,.04,.01,.07,.02,.11,0,.1,0,.21,0,.32,0,.17-.15,.34-.33,.33s-.33-.14-.33-.33c0-.06,0-.12,0-.17,0-.02,0-.05,0-.07,0-.03,0-.11,0,0,0-.08-.02-.16-.02-.24,0-.05,0-.1,0-.16,0-.07,0-.15,.01-.22,0-.03,0-.02,0,.03,0,.06,0,.07,0,.03-.01-.04-.02-.09-.02-.13,0-.04,.02-.08,.02-.12,0,.12-.01,.02,0,0,0,.06,0,.07,0,.04,0-.04-.01-.07-.01-.11,0-.03,0-.06,0-.09,0-.17,.15-.34,.33-.33s.33,.14,.33,.33h0Z"/><path d="M1.47,71.67c0,.16,.01,.31,0,.46s.03,.31,0,.47c-.04,.27-.5,.34-.61,.08-.08-.2-.11-.37-.12-.58l.65,.09c-.01,.05-.01,.09-.02,.16,0,.03-.01,.05-.02,.08,0-.05,0-.05,0,0,0,.02,0,.05-.01,.07,.01-.05,0-.03,0,.07,0-.02,0-.01,0,.03,0,.03,0,.05,0,.08,.01,.18-.16,.33-.33,.33-.2,0-.31-.15-.33-.33-.02-.14-.03-.26-.05-.39-.02-.15,0-.33,.05-.46,.12-.24,.56-.2,.61,.08,.04,.25,0,.52,0,.77,0,.12-.02,.25-.02,.37,0-.1,0,.06,0,.08s0,.08,0,.11c-.02,.26-.03,.52,0,.78,0,.1,0,.2,.01,.3,0,.05,0,.11,0,.16,0,.04,0,.08-.01,.12,0-.04,0-.04,0,0l-.25-.32h.02l-.32,.09-.02,.03c.1-.15,.29-.22,.45-.12,.15,.08,.22,.31,.12,.45-.03,.04-.05,.07-.08,.11-.07,.08-.22,.13-.32,.09h-.02c-.14-.07-.24-.17-.25-.33,0-.02,.01-.21,.01-.12,0-.04,0-.08,0-.11,0-.1,0-.2,0-.3-.01-.25-.03-.51,0-.77,0-.06,0-.08,0-.13,0-.02,.01-.21,0-.15,0-.02,.02-.18,.01-.07,0-.07,0-.14,0-.2,0-.12,0-.25,0-.37,0-.08,.03-.24,.02-.28l.61,.08v.02l.04-.17c-.02,.22,.02,.44,.04,.67H.69c0-.05,0-.11,0-.16,0,.01,.01-.13,0-.08,0-.02,.02-.14,.01-.1,0,.05,0-.08,.01-.08,0-.01,.01-.04,.01-.05,.01-.06,.02-.14,.03-.2,.09-.37,.64-.28,.65,.09,0,.06,.02,.12,.03,.19,0,.01,0,.09,0,.07,0-.03,.02,.06-.01,0l-.61,.08s-.01-.07-.01-.08c0-.08-.01-.17,0-.25,0-.14,0-.28-.01-.42,0-.43,.66-.43,.66,0h0Z"/><path d="M1.29,74.94s-.01,.04-.02,.04c.01-.05,0-.02,0,0,0-.03,0,0,0,.02,0-.05,.01,.08,.01,.08,0,.04,0,.07,.01,.15,0,.07,0,.14,0,.2,0,.12-.02,.23-.02,.34,0,.06-.01,.16-.01,.18,0,.02-.01,.14-.01,.15-.01,.12,0,.21,0,.35,0,.06,0,.13,0,.19,0,.03-.03,.22-.01,.23,0,0-.02-.11,0-.03,0,.04,.01,.08,.01,.13,0,.08-.01,.11,0,.19,0,.06,0,.12,0,.19,0,.03,0,.07,0,.1,0,.02,0,.05,0,.07,0,.08-.01,.06,0-.05l-.23-.23h0c.18,.03,.28,.25,.23,.41-.05,.19-.23,.26-.41,.23h0c-.1-.02-.21-.13-.23-.23-.03-.16,0-.26,0-.41,0-.07,0-.15,0-.22v-.02s0-.09,0-.14c0-.14,0-.28,0-.42,0-.07,0-.14,0-.21,0-.13,.01-.11,.03-.24,0,0,0-.08,0-.09,0,.07,.01-.05,.01-.09s0-.1,0-.16c0-.07,0-.12,.01-.18,0-.04,0-.07,0-.11,0,0,0-.07,0-.04-.02-.16-.05-.27-.03-.44s.09-.29,.19-.42c.11-.14,.35-.12,.47,0,.14,.14,.11,.33,0,.47h0Z"/><path d="M1.66,77.3v-.1l-.56-.14c.1-.12-.07-.49-.09-.62-.04-.28-.05-.6,0-.87,.04-.25,.4-.31,.55-.15,.13,.13,.18,.34,.22,.51s.1,.45,.23,.58l-.24-.1c-.12,0-.02-.03,.03-.07,.04-.03,.08-.07,.12-.1,.09-.07,.2-.14,.31-.2,.09-.05,.2-.09,.3-.13,.02,0,.03-.02,.05-.02,.16-.07,.03-.03,.01,.04l.03,.26v-.03l.18,.15c.16,.03,.09,0,0,.04-.06,.02-.13,.04-.19,.06-.14,.05-.29,.09-.43,.14-.28,.1-.59,0-.7-.29-.12-.33,.19-.51,.47-.57,.3-.07,.58-.09,.81-.31l-.08,.32v-.02l.23,.23c.06,.02,.02-.01-.01,0-.06,.03-.14,.03-.21,.04-.1,.02-.2,.04-.3,.05-.19,.03-.43,.09-.62,.03-.39-.12-.61-.5-.66-.89s-.06-.81-.06-1.21c0-.43,.05-.87,.16-1.28,.05-.21,.3-.31,.49-.2,.32,.19,.39,.67,.41,1.01s.06,.7,.02,1.06c-.01,.15-.06,.31,0,.46-.05-.14-.06-.04,0-.05,.02,0,.09,.03,.11,.04,.08,.02,.16,.03,.24,.03,.32,.02,.53-.06,.83-.18s.51-.31,.73-.55,.3-.47,.31-.79c0-.06-.03-.17,0-.22h.02c.1,.03,.2-.01,.28-.12,.01,.02,0,.08,.01,.11,0,.18,0,.36-.03,.53-.08,.34-.33,.63-.6,.85s-.61,.35-.92,.43c-.28,.08-.74,.17-.98-.04s-.35-.59-.22-.88c.07-.15,.18-.25,.33-.31,.18-.07,.37-.02,.56-.02,.16,0,.32,0,.47-.06,.08-.02,.15-.06,.22-.1,.01,0,.08-.05,.09-.05l.09,.28s-.07,0-.1,0c-.18,.01-.37,.03-.54,.09l-.08,.03-.02,.02,.03-.07c.02,.06,.02,.18,.03,.24,.05,.38-.14,.76-.58,.66-.32-.07-.67-.21-.62-.59,.04-.32,.11-.7,.41-.88,.36-.22,.8-.15,1.18-.28,.12-.04,.17-.14,.12,.03l-.03,.1,.14,.15s-.15-.01-.17-.01c-.07,0-.15,0-.23,0-.1,0-.14,.05-.22,.11-.3,.2-.75,.25-1.06,.05-.13-.09-.18-.22-.15-.37,.1-.55,.68-.48,1.09-.46,.27,.01,.55,0,.81-.05,.13-.02,.53-.08,.57-.17l.05,.4c.07,.02,.07,.03,0,.03h-.12c-.09,0-.18,0-.27,.01-.16,.01-.33,.02-.49,.04-.34,.05-.68,.13-1.03,.14-.13,0-.26,0-.38-.04-.07-.02-.13-.05-.19-.08-.04-.02-.16-.11-.18-.11l.1,.05c-.06,0-.11-.01-.16-.03-.06-.01-.13-.03-.2-.05-.15-.05-.27-.15-.3-.31-.09-.42,.55-.6,.64-.18-.2-.13-.23-.18-.1-.13h.07c.07,.03,.14,.04,.2,.05,.12,.03,.19,.1,.29,.14,.23,.08,.56-.02,.79-.05,.33-.05,.65-.09,.98-.11,.26-.02,.63-.08,.82,.16,.1,.12,.13,.26,.05,.4-.21,.39-.81,.45-1.19,.51-.25,.03-.51,.05-.77,.04-.09,0-.19,0-.28-.01-.05,0-.1,0-.14,0-.18-.02-.03,.01-.03,0l-.15-.37c.16,.1,.32,0,.45-.09,.19-.14,.42-.15,.65-.15,.21,0,.47-.01,.64,.15s.17,.44,.03,.61c-.32,.37-.83,.28-1.25,.42-.05,.02-.11,.04-.16,.06-.03,.01-.06,.02-.08,.03-.08,.03-.06,.01,.07-.06,0,.02-.06,.04-.07,.06-.01,.03-.02,.08-.03,.12-.01,.05-.02,.09-.03,.14-.05,.28-.12-.14-.16-.09,0,0,.13,.04,.14,.05,.03,.01,.06,.02,.09,.03,.05,.01,.04,.01-.03,0l-.2,.15c.06-.08-.03-.29-.03-.38,0-.1,.02-.23,.07-.32,.16-.28,.55-.35,.84-.39,.25-.04,.57-.09,.79,.05,.27,.17,.25,.58,.03,.78-.18,.17-.48,.29-.72,.34-.13,.03-.27,.03-.4,.04-.06,0-.41,.05-.44-.01l.05-.11c-.05,.08-.05,.1-.02,.06l.03,.06c.07,.09,.04,.09-.1,0,.01-.01,.26,.01,.31,0,.27-.05,.62-.18,.85-.34,.19-.14,.37-.35,.4-.59,.03-.29-.11-.65,.18-.85,.21-.14,.51-.05,.66,.13,.19,.22,.19,.53,.16,.8-.03,.25-.07,.5-.19,.73-.13,.25-.37,.48-.57,.68-.18,.17-.41,.29-.64,.39-.26,.11-.5,.23-.78,.26-.25,.03-.55,0-.79-.07-.33-.1-.52-.29-.57-.64s.05-.69,.02-1.04c-.01-.15-.02-.31-.03-.46,0-.08-.01-.16-.03-.24-.01-.06-.03-.11-.06-.17-.06-.09-.06-.1,0-.03l.49-.2c-.18,.67-.15,1.39-.1,2.08,.02,.27,.07,.51,.34,.48,.31-.03,.69-.19,1-.11,.11,.03,.21,.12,.23,.23,.07,.28-.18,.47-.39,.6-.14,.09-.31,.13-.47,.17-.09,.02-.18,.04-.27,.06-.04,0-.07,.01-.11,.02-.11,.05-.1,0,.04-.12l-.03-.26s-.19,.03-.11-.03c.04-.03,.13-.04,.17-.06,.1-.03,.19-.06,.29-.1,.16-.05,.35-.14,.53-.1,.25,.06,.34,.35,.22,.56-.1,.18-.28,.25-.45,.32-.19,.08-.37,.19-.53,.32-.2,.16-.43,.32-.67,.12-.16-.13-.25-.39-.32-.58-.04-.12-.07-.25-.11-.37-.01-.05-.04-.09-.05-.14-.03-.09-.06-.09,.02,0l.55-.15c-.09,.61,.36,1.25-.07,1.79-.16,.2-.49,.08-.56-.14-.03-.09-.03-.17,0-.25,.12-.41,.76-.24,.64,.17h0Z"/><path d="M1.64,71.7c.1,.02,.22,.09,.29,.11,.12,.04,.25,.09,.38,.11s.26,.01,.39,.03c.11,.02,.23,.02,.35,.01,.13,0,.24,0,.37-.03,.15-.03,.3-.03,.45-.05,.06,0,.13,0,.19,0,.01,0,.14-.02,.05,0s.05-.03,.07-.03c.03,0,.05-.02,.08-.03,.02,0,.15-.05,.08,0s0-.01,.02-.02c.06-.03,.06-.05,.03,.02l-.04,.17s.08,.17,.11,.14c0,0-.16,0-.18,0-.13,.02-.27,.04-.4,.06-.25,.03-.51,.07-.76,.06-.24,0-.48-.04-.71-.07-.22-.03-.46-.08-.67-.15-.24-.09-.52-.28-.44-.58,.06-.25,.36-.41,.6-.42,.46-.02,.91,.04,1.36,.08,0,0,.14,.01,.07,.01-.05,0,.11,0,.11,0,.07,0,.14,0,.21,0,.13,0,.24,0,.37-.02,.05,0,.09,0,.15-.01,.02,0,.04,0,.06,0,.04,0,.05-.01,.01,0,.06-.03,.05-.03,.09-.07,.01-.01,.03-.04,.05-.05,.02-.03,.02-.02,0,.03-.02,.04-.02,.07,0,.11l.12,.12-.04-.02,.17,.04c-.13-.01-.26,.03-.39,.04-.12,0-.24,.03-.36,.05-.28,.04-.54,.05-.82,.03-.12,0-.25,0-.37,0-.11,0-.23-.02-.34-.02-.14,0-.27,.04-.41,0-.13-.04-.29-.09-.38-.19-.08-.08-.12-.21-.09-.32,.13-.42,.69-.37,1.04-.35,.17,0,.33,.01,.5,.02,.08,0,.17,.02,.25,.02,.03,0,.07,0,.1,0-.02,0,.13,0,.06,0l-.15,.09,.02-.02c.14-.11,.33-.14,.47,0,.12,.11,.14,.36,0,.47-.25,.2-.57,.1-.87,.09-.16,0-.32-.02-.48-.02-.08,0-.16,0-.24,0-.04,0-.08,0-.12,0-.04,0-.09,.05-.03-.01l.08-.15v.03l-.09-.32,.02,.02-.15-.08s.09,.03,.14,.04c.04,.01,.08,.04,.12,.05-.03,0-.06,0-.02-.01,.09-.03,.24-.01,.34-.01,.23,0,.46,.01,.68,.02s.45,0,.68-.03c.13-.02,.26-.04,.4-.05,.11,0,.23-.04,.34-.04,.31,0,.51,.28,.44,.58-.05,.21-.27,.41-.45,.5-.12,.06-.24,.07-.37,.08,.02,0,.06,0-.03,0-.03,0-.06,0-.09,0-.06,0-.12,.01-.18,.02-.11,.01-.22,0-.33,0-.06,0-.12,0-.19,0-.03,0-.06,0-.09,0,0,0-.13,0-.07,0-.26-.01-.52-.06-.78-.07-.14,0-.27,0-.41,0h-.08s-.08,.02-.04,0c-.02,.01-.05,.05-.06,.07l.08-.15v.03l-.04-.26s-.02-.01,.03,0,.09,.02,.14,.03c.12,.03,.24,.06,.37,.09,.23,.05,.48,.07,.71,.08,.26,0,.53-.04,.78-.07s.56-.12,.81,.01,.37,.5,.16,.72c-.16,.17-.42,.21-.6,.27-.11,.04-.23,.03-.34,.04-.12,0-.24,.02-.36,.03s-.24,.05-.36,.05c-.11,0-.22,.01-.33,.01-.12,0-.26-.03-.37-.04-.14-.01-.28-.01-.42-.05s-.27-.08-.4-.12c-.05-.02,.03,.02-.02,0-.04-.01-.08-.03-.12-.05-.02,0-.04-.02-.06-.03-.02,0-.14-.04-.06-.02-.42-.09-.24-.73,.17-.64h0Z"/><path d="M9.89,78.03l-.07-19.32c0-.18,.14-.33,.32-.33h.05c.18,0,.33,.14,.33,.32l.07,19.32c0,.18-.14,.33-.32,.33h-.05c-.18,0-.33-.14-.33-.32Zm.26-19.42c-.06,0-.1,.05-.1,.1l.07,19.32c0,.06,.05,.1,.1,.1h.05c.06,0,.1-.05,.1-.1l-.07-19.32c0-.06-.05-.1-.1-.1h-.05Z"/><rect x="9.98" y="72.87" width=".5" height="1.33" transform="translate(20.73 147.04) rotate(179.79)"/><path d="M7.96,73.44h.22l-.02-5.01h-.12c-1.15,.15-2.05,.39-2.56,.68-.31,.18-.47,.38-.47,.6h.22c0-.16,.2-.31,.36-.4,.46-.27,1.3-.48,2.35-.62l.02,4.76Z"/><path d="M7.33,70.8c-.04-.08-.06-.15-.08-.23s-.04-.16-.05-.25c0-.07,0-.14,0-.21,0-.03,.04-.21,.01-.11,.01-.05,0-.1,.02-.15,.01-.03,.02-.06,.04-.09,.01-.03,.01-.02,0,.02,0,0,.02-.1,.02-.11,.02-.08,.03-.15,.05-.23,0-.04,.01-.08,.02-.12,0,.04,0,.04,0,0,0-.04,.01-.08,.02-.12,0,.08,0-.04,0-.05,0-.04,0-.08,0-.12,0-.17,.15-.34,.33-.33s.33,.14,.33,.33c0,.08,.01,.15,0,.23-.01,.09-.02,.12,0,.07,0-.02,0-.02,0,.02,0,.06-.01,.12-.02,.18-.02,.14-.05,.28-.08,.41-.01,.04-.04,.08-.05,.13,.01-.02,.02-.05,.02-.08,0,.04,0,.08-.01,.11,0-.08,0,.01,0,.02,0,.04,0,.07,0,.11,0,.02,0,.03,0,.05,0,.04,0,.03,0-.02,0,0,.02,.06,.02,.07,0,.03,.01,.06,.02,.09,0,.02,0,.03,.01,.05,.01,.04,0,.03,0-.02,.09,.15,.04,.37-.12,.45s-.36,.04-.45-.12h0Z"/><path d="M7.8,69.27s.01,0,0,0c-.05,.03,0,0-.03,.02-.06,.03-.11,.05-.17,.06-.1,.02-.19,.08-.33,.09-.1,.01-.22,.04-.33,.06-.04,0-.08,.01-.14,.03-.04,.01-.1,.07-.16,.06,.02,0-.06,0,0-.01,.02-.02,.02-.01-.02,.02-.01,.01-.03,.02-.04,.03-.03,.02-.07,.04-.1,.04-.04,0,.02-.02,.03-.03-.03,0-.07,.05-.1,.07-.04,.02-.07,.03-.11,.04-.06,.02-.12,.04-.19,.06-.1,.04-.21,.06-.3,.1-.05,.03-.1,.05-.15,.08-.02,0-.04,.02-.06,.03-.07,.03,0,.05,.03-.05l-.38-.49s-.04,.03,0,0c0,0,.06-.04,.04-.03,.01,0,.08-.07,.11-.09,.11-.08,.25-.12,.36-.17,.02-.01,.07-.04,.1-.06,.01,0,.06-.03,.01,0,.03-.02,.06-.05,.09-.07,.05-.03,.11-.05,.17-.06,.02,0,.04-.01,.07-.02,.03-.01,.05-.04,0,0,.15-.11,.37-.03,.45,.12,.1,.17,.03,.35-.12,.45-.05,.03-.11,.05-.16,.07-.02,0-.04,.02-.07,.02-.08,.01,.04-.03,.03-.03,.02,.01-.3,.19-.33,.2-.11,.05-.19,.07-.24,.12-.09,.08-.21,.18-.33,.21-.3,.05-.49-.21-.38-.49,.05-.12,.17-.17,.28-.23,.13-.07,.26-.14,.4-.18,.06-.02,.11-.03,.17-.05,.05-.02,.09-.04,.14-.06,.03,0,.14-.01,0,.03,.03,0,.06-.05,.09-.07s.08-.04,.12-.05c.04,0,.02,0-.06,.05l.07-.05s.06-.04,.1-.05c.25-.1,.51-.17,.78-.2,0,0,.12-.02,.07,0,.01,0,.05-.02,.02,0,.07-.03,.13-.06,.21-.07,.05-.01,0,0,.03,0,.04-.02,.08-.04,.13-.05,.07-.03,.14-.04,.22-.05,.18-.01,.33,.16,.33,.33,0,.19-.15,.32-.33,.33h0Z"/><path d="M8.05,69.8c0,.14-.04,.29-.04,.43,0,.13,0,.26,0,.39,0,.24,.02,.48,.03,.72,.02,.5-.03,1,.03,1.5,.03,.23,.09,.48-.14,.63-.15,.1-.37,.11-.55,.14-.25,.05-.49,.09-.73,.16-.21,.06-.44,.14-.66,.17l.17-.05c-.1,.05-.19,.06-.29,.09l.15-.09c-.1,.09-.21,.13-.33,.18-.03,.01-.11,.03-.13,.05,.06-.06-.03,.11-.03,.11-.1,.17-.29,.19-.45,.12-.1-.04-.17-.14-.18-.24-.03-.18,.04-.36,.23-.41,.16-.04,.38,.05,.41,.23v.03l-.15-.2h.02l-.45,.13c.05-.09,.09-.18,.16-.26,.08-.09,.18-.12,.3-.17,.18-.07,.32-.14,.53-.17l-.17,.05c.1-.05,.18-.07,.29-.09l-.17,.05c.12-.07,.26-.11,.4-.14,.17-.04,.34-.1,.51-.14,.16-.03,.33-.05,.49-.08,.07-.01,.15-.02,.22-.04,.03,0,.13-.04,.1-.02l-.15,.2c.02-.05-.04-.22-.05-.29,0-.12-.01-.24-.02-.36-.02-.3,0-.6,0-.9,0-.26-.02-.52-.02-.79,0-.16,0-.32,0-.48s.04-.31,.04-.47c.01-.43,.68-.43,.66,0h0Z"/><path d="M7.64,73.07c-.17,.14-.38,.17-.58,.2-.15,.02-.22,.04-.37,.05,0,0-.09,.01-.06,0,.03,0-.06,.02-.06,.02-.04,.02-.1,.05-.15,.05-.04,0,.02-.02,0,0-.02,.01-.04,.03-.06,.04-.03,.02-.07,.03-.11,.05,0,0-.09,.02-.05,.01,.03,0-.02,.01-.03,.02-.04,.02-.08,.04-.12,.05-.04,.01-.08,.01-.11,.02-.09,0,.1-.05,.05-.01-.08,.06-.19,.09-.28,.15-.06,.03-.12,.06-.18,.08,.02,0,.04-.02,0,0-.06,.03-.12,.05-.19,.05-.17,0-.34-.15-.33-.33,0-.24,.21-.51,.4-.65,.14-.1,.38-.03,.45,.12,.09,.17,.03,.35-.12,.45,.06-.04-.03,.05,.02-.01-.01,.02-.03,.04-.04,.06s-.03,.04-.04,.06l-.02,.02c-.03,.05-.03,.03,0-.06l-.33-.33h.02l-.17,.05s.1-.05,.15-.07c-.05,.02,0,0,.02-.01,.02-.01,.04-.02,.06-.03,.09-.04,.17-.09,.26-.14,.03-.02,.07-.03,.11-.04,.02,0,.1,0,.11-.02,0,0-.13,.06-.06,.01,.03-.02,.06-.03,.09-.04,.03-.01,.06-.02,.09-.03,.05-.01-.03,.02,0,0,.05-.03,.1-.06,.16-.08,.09-.03,.18-.06,.27-.08,.07-.02,.14-.02,.21-.03,.02,0,.05,0,.07,0,.06,0-.04,0,.02,0,.14-.03,.17-.03,.3-.05,.04,0,.07-.01,.11-.02,.01,0,.04-.01,.05-.01,.02,0,.02,0,0,0-.02,0-.03,.02-.05,.03,.13-.11,.34-.14,.47,0,.11,.12,.14,.35,0,.47h0Z"/><path d="M7.5,69.44c0,.16,.02,.31,.02,.47s0,.33,0,.49c0,.23,.02,.48,.08,.7,.16,.53,.27,1.37-.26,1.73-.36,.25-.63-.11-.66-.45-.02-.3-.03-.59-.07-.89s0-.58-.05-.87c-.03-.15-.01-.3-.03-.45,0-.07-.02-.14-.02-.21,0-.13-.01-.04,.09-.03l.26-.03c.07-.03,.1-.08,.1-.14,0,.02,0,.04,0,.06,0,.06,0,.11,0,.17,0,.14,0,.29,0,.43-.02,.29,0,.59-.01,.88-.02,.32-.06,.65-.11,.96-.04,.26-.07,.55-.35,.67-.38,.16-.54-.27-.56-.55-.01-.14,0-.28,0-.42s-.02-.28-.02-.42c-.01-.29,.02-.58,.02-.87,0-.08,0-.15,.01-.22v-.06s0,.03,0-.03c-.02-.1-.02-.12,0-.04-.02-.04-.04-.09-.06-.13,0-.02-.05-.11-.04-.1l.4,.05-.04,.03,.12-.12c-.05,.1-.13,.24-.16,.35-.05,.15-.02,.33,0,.48,.02,.32,.08,.63,.05,.95s-.01,.63-.05,.94c-.02,.17-.05,.33-.17,.46s-.26,.14-.42,.16l.17-.05c-.16,.08-.34,.08-.48-.06-.13-.12-.14-.27-.15-.44-.01-.3-.02-.61-.05-.91s-.07-.63-.03-.94c.02-.16,0-.32,0-.49,0-.07,.01-.14,.02-.21,0-.05,.01-.1,.03-.15,0,0,.03-.09,.02-.06,.03-.18,.25-.28,.41-.23,.19,.05,.26,.23,.23,.41,0,.07-.04,.12-.07,.18l.04-.17c0,.11-.01,.21-.03,.32-.01,.12,.01,.24,0,.36,0,.07-.02,.14-.03,.21-.02,.11,0,0,0,.08,.01,.13,.03,.27,.03,.4,0,.22,.03,.44,.04,.67,0,.11,0,.22,0,.33,0,.06,.02,.11,.02,.17,0,.02,0,.05,0,.07-.02-.06-.02-.07,0-.02l-.12-.12,.03,.02-.26-.03c-.06,.03-.05,.03,.04-.01,.04,0,.08-.01,.13-.02-.07,.1-.11,.12-.11,.07,0-.03,.01-.06,.02-.09,.02-.16,.02-.33,.02-.49,0-.27,.04-.55,.02-.81-.03-.32-.09-.65-.06-.97,.02-.17,.08-.33,.16-.48s.11-.27,.26-.37c.12-.08,.3-.05,.4,.05,.16,.16,.26,.44,.28,.66,.02,.12,0,.23,0,.35,0,.14,0,.28,0,.41-.02,.26,0,.5,.01,.76,0,.24-.05,.5,.04,.73l-.09-.15,.02,.02-.15-.08h.03l-.26,.04c-.05,.04-.02,.04-.02-.03,0-.08,.02-.16,.03-.23,.02-.14,.03-.27,.04-.41,.03-.32,.05-.63,.04-.96,0-.28,.01-.57,.02-.86,0-.23,.05-.5,.31-.57,.36-.1,.57,.33,.58,.61,0,.26,.04,.52,.06,.79,.03,.3,.01,.6,.06,.89,.02,.15,.02,.29,.03,.43,0,.11,0,.32,.04,.39l-.12-.12h.02l-.26-.02c-.08,.03-.02,0,0-.04,.02-.04,.04-.1,.05-.15,.01-.1,.01-.22,0-.32-.03-.25-.12-.48-.15-.73s-.05-.48-.05-.72c0-.15,0-.29,0-.44,0-.14-.02-.27-.02-.41,0-.43,.66-.43,.66,0h0Z"/><path d="M9.25,6.42s0,0,.02-.01c.09-.05,.36-.11,.72-.11,.44,0,.7,.08,.74,.12,0,0,0-.01,0-.03h.22c0-.3-.79-.32-.95-.32-.36,0-.68,.06-.83,.14-.1,.06-.12,.13-.12,.18h.22s0,.03,0,.03Z"/><path d="M10.31,6.22s-.01-.02-.02-.02l.07,.05s-.05-.03-.08-.05l.08,.03s-.06-.02-.1-.03h.09c-.12,0-.24-.01-.36-.01s-.25-.01-.38,0h.09s-.02,0-.04,0l.08-.03s-.01,0-.02,.01l.07-.05c-.1,.08-.18,.15-.32,.14-.17,0-.34-.15-.33-.33s.14-.34,.33-.33h-.07l-.08,.04s.01,0,.02-.01l-.07,.05c.07-.05,.12-.1,.21-.13,.07-.02,.15-.03,.22-.03,.11,0,.23,0,.34,0s.23,.01,.34,.03c.14,.02,.3,.08,.4,.19,.06,.07,.1,.14,.1,.23,0,.08-.04,.18-.1,.24-.12,.12-.35,.14-.47,0h0Z"/><path d="M10.05,1.31c0,.05,.02,.1,.02,.15,0,.04,0,.08,0,.13,.01,.1,.05,.19,.06,.29h-.17s-.02-.08-.02-.12c0-.04,0-.07,0-.11l.16,.02c-.02,.06-.01,.12-.02,.17s-.02,.12-.03,.17c-.02,.07,0,.16-.09,.19-.04,.01-.09-.02-.1-.06-.02-.06-.02-.14-.03-.21-.01-.07-.04-.14-.04-.22l.15,.04s0,.07,0,.09c0,.03,0,.07,0,.1,0,.07,0,.13,0,.2,0,.11-.17,.11-.17,0,0-.11,.03-.23,.04-.34,0-.05,.02-.09,.03-.14,0-.04,0-.08,.03-.11s.07-.06,.11-.03c.04,.03,.05,.06,.07,.11,.02,.06,.05,.12,.07,.18,.04,.12,.1,.24,.13,.36,.02,.11-.12,.14-.16,.04-.03-.08-.04-.17-.06-.26,0-.04-.02-.08-.03-.13,0-.02-.02-.1-.02-.1l.14-.08c.02,.1,.02,.2,.06,.3s.04,.19,.07,.29c.03,.1-.13,.15-.16,.04-.01-.04-.03-.08-.04-.12,0-.03-.01-.09-.03-.12h.14s.02,.08,.02,.09c0,.04,0,.07,.01,.11,0,.07,.01,.13,.01,.2,0,.09,.03,.22-.04,.29-.03,.03-.07,.03-.1,.01-.08-.04-.1-.14-.13-.22-.03-.12-.05-.23-.05-.36,0-.11,.16-.11,.17,0,0,.07,.04,.17,0,.24-.03,.06-.11,.05-.14,0-.03-.04-.03-.08-.04-.12-.01-.05-.03-.11-.04-.16l.14,.06s0-.03,.01,0c0,.01,0,.03,0,.05,0,.04,0,.07,0,.11,0,.1,0,.19,0,.29,0,.11-.17,.11-.17,0,0-.05,0-.11,0-.16,0-.03,.01-.07,0-.09l.15-.02s0,.03,0,.03c0,.02,0,.04-.01,.06-.01,.04-.03,.07-.07,.08-.05,.01-.1-.02-.11-.08,0-.01,0-.03,0-.04,0-.03-.01-.04,.01-.01h.1s.02-.01,.02,0v.03s0,.03,0,.05c0,.05-.02,.07-.03,.11v-.06h.01l-.1-.04c.08-.03,.19-.01,.26,.05,.03,.03,.06,.07,.07,.11,0,.01,0,.03,.01,.04v.03s.01,0-.01-.01l-.09,.04c.03-.05,.03-.12,.04-.17,.01-.05,.01-.1,.04-.14,.03-.04,.09-.06,.13-.02,.07,.07,.1,.19,.15,.28l-.15,.02s0-.02,0-.03c0-.02,0-.04,0-.06,0-.06,0-.12,0-.18l.16,.02c-.03,.13,0,.35-.16,.4-.15,.05-.31-.02-.45-.06-.1-.03-.06-.19,.04-.16s.23,.09,.34,.06c.05,0,.04-.06,.05-.11,.01-.06,.01-.13,.03-.19,.02-.09,.17-.07,.16,.02,0,.06-.01,.13,0,.19,0,.04,.02,.08,0,.12-.02,.07-.11,.08-.15,.02-.03-.04-.04-.09-.07-.14-.02-.03-.03-.08-.06-.11l.13-.02s0,.05,0,.06c0,.03-.02,.06-.02,.08-.01,.06-.02,.12-.05,.17-.02,.03-.06,.05-.09,.04-.12-.03-.08-.27-.24-.21-.04,.01-.09-.02-.1-.06,0-.04,0-.06,.01-.09,0-.02,0-.05,0-.07,0-.07,0-.12,.06-.16,.03-.02,.08-.01,.1,.01,.05,.05,.03,.11,.04,.17l-.11-.08-.04,.03h0s0-.03,0-.04c0-.02,0-.04,0-.05,.01-.08,.12-.07,.15-.02,.03,.04,.03,.09,.03,.14,0,.06,0,.13,0,.19h-.17c0-.12,.01-.24,0-.37,0-.06-.02-.14,.03-.19,.05-.05,.14-.01,.14,.06,0,.04,.02,.08,.03,.12,0,.03,0,.06,.02,.08h-.14v.05c-.02-.07-.03-.14-.03-.21h.17c0,.09,0,.17,.03,.26,0,.04,.03,.16,.06,.18h-.1s0-.02,0-.03c0-.02,0-.03,0-.05,0-.06,0-.13,0-.19,0-.11-.07-.26-.02-.36,.03-.06,.11-.05,.14,0,.03,.04,.03,.09,.04,.13,.01,.05,.03,.09,.05,.14l-.16,.04c-.03-.09-.04-.19-.07-.29s-.04-.2-.06-.3c-.02-.09,.07-.13,.14-.08,.03,.02,.04,.06,.04,.1,.01,.05,.03,.11,.04,.16,.03,.1,.03,.21,.07,.3l-.16,.04c-.02-.11-.07-.21-.11-.31-.04-.09-.07-.19-.1-.28l.04,.05h-.01l.11-.04s-.01,.06-.02,.08c-.01,.05-.01,.09-.02,.13-.01,.1-.03,.19-.03,.29h-.17c0-.08,0-.16,.01-.25,0-.07,0-.15,.03-.22,.03-.08,.16-.04,.15,.04,0,.06,.03,.14,.04,.2,0,.06,0,.13,.03,.19l-.1-.06c-.06,.02-.03,.06-.04,.02,0,0,0-.02,0-.03,0-.05,.02-.09,.03-.14,.02-.09,0-.18,.03-.27,.03-.09,.15-.07,.16,.02,0,.08,.03,.15,.03,.23,0,.11-.16,.11-.17,0,0-.1-.05-.19-.06-.3,0-.04,0-.08,0-.12,0-.05-.02-.1-.02-.15,0-.11,.16-.11,.17,0h0Z"/><path d="M10.37,2.82c-.03,.13,0,.28,0,.42,0,.11,.02,.2,.03,.31,.02,.22,.05,.43,.09,.64,.04,.23,.09,.47,.14,.7,.03,.14,.05,.29,.09,.43,.03,.12,.06,.23,.08,.35,.03,.18-.3,.23-.33,.05-.04-.26-.06-.52-.08-.78-.03-.29-.03-.57-.14-.84-.08-.22-.18-.43-.28-.64-.04-.09-.08-.19-.12-.28-.02-.06-.05-.13-.06-.19,0-.03,0-.05-.01-.08-.01-.05-.04-.06,.01-.05l.16-.04c-.08,.07-.08,.27-.1,.37-.02,.15-.01,.31-.03,.46-.03,.33-.06,.65-.12,.98-.03,.17-.06,.33-.09,.5-.01,.07-.03,.13-.04,.2,0,.05-.02,.1-.03,.16,0,.02-.01,.05-.01,.07l-.08-.06s.23-.05,.26-.06c.09-.02,.17-.01,.26-.02,.11,0,.2,0,.3,.01,.03,0,.07,0,.1,0,.07,.01,.06-.01,0,.02l-.08,.14c0,.12,.04,.07-.04,.06-.04,0-.08-.02-.12-.03-.07-.01-.15-.02-.22-.02-.12-.01-.26,.02-.36-.07-.16-.15-.08-.45-.04-.64,.05-.3,.1-.6,.15-.9,.05-.28-.04-.67,.15-.89,.04-.04,.11-.06,.16-.04,.15,.05,.21,.22,.26,.35,.07,.17,.07,.37,.08,.55,0,.21,.02,.42,.05,.62s.06,.39,.06,.59c0,.14,.03,.33-.13,.39-.13,.05-.27-.06-.35-.16-.02-.02-.04-.09-.06-.1,.03,.02-.02,.01-.03,.02-.07,.01-.14,0-.19-.05-.1-.09-.1-.29,0-.37,.07-.05,.17-.07,.23,0,.04,.05,.07,.12,.11,.16l-.26,.03c-.01,.06-.02,.07,0,.03,0-.02,0-.05,.01-.07,0-.03,.02-.07,.02-.1,.01-.08,.01-.17,0-.25,0-.22,.3-.21,.33,0,0,.03,0,.07,.01,.1l-.31-.08s-.01-.03-.01-.05c0-.04,0-.08,0-.12,.01-.1,.05-.19,.05-.29h.33c0,.09,.02,.2,.02,.29,0,.21-.33,.22-.33,0,0-.1,.01-.2,.01-.3,0-.04,0-.08,0-.12v-.04s0-.03,.03,.03c-.19-.09-.03-.38,.17-.29,.22,.11,.13,.52,.13,.71h-.33c0-.09-.03-.2-.02-.29,.02-.21,.34-.22,.33,0,0,.13-.05,.25-.06,.38,0,.08,.02,.17-.03,.25-.09,.14-.3,.08-.31-.08,0-.03,0-.07-.01-.1h.33c0,.1,0,.22-.01,.32-.01,.07-.03,.18-.07,.24-.06,.09-.18,.11-.26,.03-.05-.05-.07-.11-.11-.16h.23c.07-.06-.12-.11-.05-.14,.02,0,.04,0,.06,0,.06,0,.12,.02,.17,.06,.07,.05,.1,.19,.18,.2l-.13,.02h.02l-.08,.09c.02-.06,0-.15,0-.21,0-.09,0-.17-.01-.26-.03-.19-.06-.38-.07-.58,0-.18-.02-.35-.03-.53,0-.08-.01-.17-.04-.25-.01-.03-.03-.07-.04-.1-.02-.05-.08-.08,0-.06l.16-.04s-.02,.17-.03,.22c0,.06,0,.13,0,.19,0,.15-.03,.29-.05,.43-.02,.14-.05,.27-.08,.41-.02,.15-.04,.3-.07,.44-.01,.08,0,.18-.02,.26,0,.01,0,.02,0,.03l-.09-.06s.08,0,.1,0c.07,0,.14,.01,.21,.02,.19,.02,.61,.05,.61,.31,0,.06-.03,.12-.08,.14-.09,.05-.18,.03-.26,.02-.15-.02-.3-.03-.46,0-.22,.03-.58,.2-.62-.15-.01-.13,.03-.28,.06-.41,.02-.12,.04-.24,.07-.36,.05-.25,.1-.51,.13-.76s.04-.51,.05-.76c0-.2,.02-.48,.14-.65,.07-.11,.19-.16,.31-.08,.11,.08,.12,.22,.15,.34,.06,.25,.2,.49,.3,.73,.12,.29,.25,.57,.28,.89,.02,.19,.03,.38,.04,.57,.01,.17,.03,.35,.06,.52l-.33,.05c-.02-.12-.07-.24-.1-.36-.04-.13-.05-.28-.07-.42-.03-.24-.09-.48-.14-.72-.04-.22-.05-.44-.08-.66-.03-.24-.07-.53-.02-.78,.04-.21,.36-.12,.32,.09h0Z"/></g></g></g></g></svg>