<?xml version="1.0" encoding="UTF-8"?><svg xmlns="http://www.w3.org/2000/svg" xmlns:xlink="http://www.w3.org/1999/xlink" viewBox="0 0 32.38 16.67"><defs><style>.e{fill:url(#d);}.f{fill:#fff;}</style><linearGradient id="d" x1="0" y1="8.34" x2="32.38" y2="8.34" gradientTransform="matrix(1, 0, 0, 1, 0, 0)" gradientUnits="userSpaceOnUse"><stop offset="0" stop-color="#00a6ff"/><stop offset=".23" stop-color="#008aff"/><stop offset=".75" stop-color="#004dff"/><stop offset="1" stop-color="#0036ff"/></linearGradient></defs><g id="a"/><g id="b"><g id="c"><rect class="e" x="0" y="0" width="32.38" height="16.67" rx="6.54" ry="6.54"/><g><path class="f" d="M9.62,10.91v.73H5.25v-.23c0-.29,.06-.58,.12-.8,.03-.11,.08-.23,.16-.35,.15-.25,.21-.38,.43-.6l.25-.25,.31-.25,.29-.23c.06-.05,.17-.12,.33-.23,.16-.12,.27-.2,.32-.23,.8-.56,1.21-1.01,1.21-1.74,0-.76-.49-1.21-1.25-1.21-.85,0-1.32,.53-1.28,1.35h-.82c-.03-.62,.16-1.12,.55-1.5,.4-.38,.93-.58,1.59-.58,.62,0,1.12,.18,1.49,.54,.38,.36,.56,.82,.56,1.39,0,.97-.54,1.58-1.48,2.28l-.41,.29c-.22,.15-.36,.25-.44,.32-.08,.07-.21,.16-.37,.3-.16,.13-.27,.24-.35,.34-.14,.18-.32,.46-.36,.72,.39-.04,.84-.06,1.32-.06h2.17Z"/><path class="f" d="M10.43,6.84v-1.96h4.45v.57c-.63,.88-1.19,1.89-1.68,3-.49,1.12-.83,2.19-1,3.19h-.88c.17-.95,.49-1.97,.95-3.06,.47-1.09,1.01-2.08,1.62-2.98h-2.75v1.24h-.7Z"/><path class="f" d="M15.9,10.04h.83c.08,.61,.55,.98,1.24,.98,1.1,0,1.6-.9,1.49-2.7h-.05c-.32,.64-.85,.96-1.61,.96-.6,0-1.09-.21-1.47-.61-.38-.4-.56-.94-.56-1.6s.2-1.22,.6-1.63c.4-.42,.95-.63,1.62-.63,1.56,0,2.34,1.18,2.34,3.54s-.79,3.41-2.39,3.41c-1.13,0-1.93-.68-2.04-1.7Zm3.43-3.01c0-.9-.55-1.5-1.38-1.5s-1.32,.59-1.32,1.54,.53,1.5,1.32,1.5c.86,0,1.38-.68,1.38-1.54Z"/><path class="f" d="M23.75,11.64v-1.18h1.05v1.18h-1.05Z"/><path class="f" d="M26,9.1v-.55h3.18v.55h-3.18Z"/></g></g></g></svg>