<?xml version="1.0" encoding="UTF-8"?><svg xmlns="http://www.w3.org/2000/svg" xmlns:xlink="http://www.w3.org/1999/xlink" viewBox="0 0 175.42 39.42"><defs><style>.e{fill:url(#d);}.f{fill:#fff;}</style><linearGradient id="d" x1="0" y1="19.71" x2="175.42" y2="19.71" gradientTransform="matrix(1, 0, 0, 1, 0, 0)" gradientUnits="userSpaceOnUse"><stop offset="0" stop-color="#00a6ff"/><stop offset=".23" stop-color="#008aff"/><stop offset=".75" stop-color="#004dff"/><stop offset="1" stop-color="#0036ff"/></linearGradient></defs><g id="a"/><g id="b"><g id="c"><path class="e" d="M162.05,2c6.27,0,11.37,5.1,11.37,11.37v12.68c0,6.27-5.1,11.37-11.37,11.37H13.37c-6.27,0-11.37-5.1-11.37-11.37V13.37C2,7.1,7.1,2,13.37,2H162.05m0-2H13.37C6.02,0,0,6.02,0,13.37v12.68c0,7.36,6.02,13.37,13.37,13.37H162.05c7.36,0,13.37-6.02,13.37-13.37V13.37c0-7.36-6.02-13.37-13.37-13.37h0Z"/><g><path class="f" d="M27.49,25.61l-1.28-3.44h-6.7l-1.28,3.44h-1.9l5.5-14.58h2.08l5.54,14.58h-1.96Zm-7.42-4.94h5.58l-.92-2.5-1.8-5.3h-.1l-1.84,5.3-.92,2.5Z"/><path class="f" d="M39.69,15.17v10.44h-1.48l-.24-1.94h-.16c-.56,1.3-1.92,2.14-3.54,2.14-2.16,0-3.46-1.44-3.46-3.98v-6.66h1.72v6.42c0,1.8,.78,2.7,2.32,2.7,1.9,0,3.1-1.48,3.1-3.66v-5.46h1.74Z"/><path class="f" d="M41.53,15.17h1.8v-3.16l1.72-.66v3.82h2.34v1.44h-2.34v6.02c-.02,.82,.12,1.56,1.46,1.64,.38,0,.66-.04,.88-.12v1.46c-.38,.1-.82,.16-1.3,.16-1.84,0-2.76-1-2.76-2.98v-6.18h-1.8v-1.44Z"/><path class="f" d="M49.77,25.61V15.17h1.52l.22,2.12h.12c.58-1.52,1.72-2.28,3.38-2.28v1.56c-2.34,.04-3.5,1.44-3.5,4.22v4.82h-1.74Z"/><path class="f" d="M57.03,24.35c-.9-.98-1.36-2.3-1.36-3.94s.44-2.96,1.34-3.94c.9-1,2.1-1.5,3.58-1.5,2.9,0,4.62,1.84,4.62,4.7,0,.42-.02,.78-.06,1.08h-7.72c-.02,2.3,1.22,3.64,3.22,3.64,1.52,0,2.64-.78,2.9-1.92h1.74c-.18,1-.7,1.8-1.56,2.42-.84,.62-1.88,.92-3.12,.92-1.48,0-2.68-.48-3.58-1.46Zm6.46-4.88c0-1.98-1.06-3.08-2.92-3.08s-3.06,1.22-3.12,3.08h6.04Z"/><path class="f" d="M68.73,22.45c.02,1.22,1,2,2.6,2,1.46,0,2.36-.64,2.36-1.74,0-.78-.46-1.26-1.4-1.44l-2.22-.42c-1.86-.34-2.8-1.26-2.8-2.76,0-1.94,1.54-3.12,3.94-3.12s3.98,1.26,4,3.18h-1.66c-.06-1.22-.82-1.84-2.32-1.84-1.42,0-2.22,.62-2.22,1.6,0,.56,.24,.96,.66,1.18,.42,.18,.6,.24,1.02,.32l2.06,.38c1.82,.32,2.74,1.28,2.74,2.9,0,1.9-1.66,3.12-4.16,3.12-2.64,0-4.26-1.34-4.26-3.36h1.66Z"/><path class="f" d="M82.79,15.17h1.58l.16,1.88h.12c.54-1.26,1.9-2.08,3.6-2.08,1.38,0,2.46,.48,3.26,1.46,.82,.98,1.22,2.28,1.22,3.9s-.42,3.02-1.24,4c-.82,.98-1.92,1.48-3.28,1.48-1.68,0-3.02-.84-3.56-2.14h-.12v5.28h-1.74V15.17Zm1.74,5.9c0,.94,.3,1.72,.92,2.32,.62,.6,1.38,.9,2.32,.9,2.02,0,3.18-1.56,3.18-3.96s-1.22-3.82-3.14-3.82c-.94,0-1.74,.3-2.36,.92s-.92,1.38-.92,2.3v1.34Z"/><path class="f" d="M95.37,25.61V15.17h1.52l.22,2.12h.12c.58-1.52,1.72-2.28,3.38-2.28v1.56c-2.34,.04-3.5,1.44-3.5,4.22v4.82h-1.74Z"/><path class="f" d="M102.65,16.49c.94-1.02,2.16-1.52,3.66-1.52s2.7,.5,3.6,1.52c.92,1,1.38,2.3,1.38,3.92s-.46,2.9-1.38,3.9c-.9,1-2.1,1.5-3.6,1.5s-2.72-.5-3.66-1.48c-.92-1-1.38-2.3-1.38-3.9s.46-2.92,1.38-3.94Zm3.64,7.78c1.98,0,3.22-1.48,3.22-3.9s-1.16-3.86-3.22-3.86-3.24,1.48-3.24,3.88,1.18,3.88,3.24,3.88Z"/><path class="f" d="M123.01,25.61h-1.56l-.18-1.82h-.1c-.56,1.22-1.96,2.02-3.62,2.02-1.36,0-2.44-.48-3.26-1.44-.82-.98-1.22-2.28-1.22-3.9s.42-3,1.24-4c.82-1,1.92-1.5,3.26-1.5,1.74,0,3.04,.88,3.6,2.24h.1v-6.26h1.74v14.66Zm-1.74-5.84c0-1.94-1.38-3.26-3.24-3.26-2.02,0-3.18,1.5-3.18,3.98s1.2,3.8,3.14,3.8c.94,0,1.72-.3,2.34-.9,.62-.62,.94-1.38,.94-2.28v-1.34Z"/><path class="f" d="M135.23,15.17v10.44h-1.48l-.24-1.94h-.16c-.56,1.3-1.92,2.14-3.54,2.14-2.16,0-3.46-1.44-3.46-3.98v-6.66h1.72v6.42c0,1.8,.78,2.7,2.32,2.7,1.9,0,3.1-1.48,3.1-3.66v-5.46h1.74Z"/><path class="f" d="M138.55,13.41v-2.28h1.72v2.28h-1.72Zm0,12.2V15.17h1.72v10.44h-1.72Z"/><path class="f" d="M142.27,15.17h1.8v-3.16l1.72-.66v3.82h2.34v1.44h-2.34v6.02c-.02,.82,.12,1.56,1.46,1.64,.38,0,.66-.04,.88-.12v1.46c-.38,.1-.82,.16-1.3,.16-1.84,0-2.76-1-2.76-2.98v-6.18h-1.8v-1.44Z"/><path class="f" d="M151.33,22.45c.02,1.22,1,2,2.6,2,1.46,0,2.36-.64,2.36-1.74,0-.78-.46-1.26-1.4-1.44l-2.22-.42c-1.86-.34-2.8-1.26-2.8-2.76,0-1.94,1.54-3.12,3.94-3.12s3.98,1.26,4,3.18h-1.66c-.06-1.22-.82-1.84-2.32-1.84-1.42,0-2.22,.62-2.22,1.6,0,.56,.24,.96,.66,1.18,.42,.18,.6,.24,1.02,.32l2.06,.38c1.82,.32,2.74,1.28,2.74,2.9,0,1.9-1.66,3.12-4.16,3.12-2.64,0-4.26-1.34-4.26-3.36h1.66Z"/></g></g></g></svg>