<?xml version="1.0" encoding="UTF-8"?><svg xmlns="http://www.w3.org/2000/svg" xmlns:xlink="http://www.w3.org/1999/xlink" viewBox="0 0 195.08 428.7"><defs><style>.f{fill:url(#e);}.g{fill:url(#d);}.h{fill:#fff;}.i{fill:#d4d6d5;}</style><linearGradient id="d" x1="67.43" y1="251.86" x2="68.72" y2="360.88" gradientTransform="translate(165.97) rotate(-180) scale(1 -1)" gradientUnits="userSpaceOnUse"><stop offset="0" stop-color="#e55900"/><stop offset=".05" stop-color="#e46006" stop-opacity=".92"/><stop offset=".2" stop-color="#e17b1b" stop-opacity=".64"/><stop offset=".34" stop-color="#df912c" stop-opacity=".41"/><stop offset=".48" stop-color="#dea23a" stop-opacity=".23"/><stop offset=".6" stop-color="#dcae43" stop-opacity=".11"/><stop offset=".71" stop-color="#dcb649" stop-opacity=".03"/><stop offset=".78" stop-color="#dcb94c" stop-opacity="0"/></linearGradient><linearGradient id="e" x1="77.84" y1="248.27" x2="77.22" y2="360.75" gradientTransform="translate(165.97) rotate(-180) scale(1 -1)" gradientUnits="userSpaceOnUse"><stop offset="0" stop-color="#d3a71d"/><stop offset=".2" stop-color="#d9b33c" stop-opacity=".66"/><stop offset=".4" stop-color="#debd56" stop-opacity=".38"/><stop offset=".56" stop-color="#e1c469" stop-opacity=".17"/><stop offset=".68" stop-color="#e4c974" stop-opacity=".05"/><stop offset=".76" stop-color="#e5cb79" stop-opacity="0"/></linearGradient></defs><g id="a"/><g id="b"><g id="c"><g><path class="g" d="M9.95,316.12c-3.52,22.47,7.88,52.47,31.55,77.25,31.55,33.02,73.41,44.69,95.6,27.33,24.03,2.43,44.51-4.4,53.44-20.2,11.68-20.69,0-50.43-26.44-73.44,4.94-13.48,2.2-29.19-8.38-40.28-5.22-5.47-11.67-9.08-18.5-10.82,1.64-14.49-3.98-31-16.38-43.98-1.99-2.09-4.1-4.01-6.28-5.75,4.16-10.83,2.07-23.53-6.44-32.42-11.78-12.32-31.38-12.7-43.79-.84-8.26,7.89-11.24,19.23-8.82,29.57-.33,.28-.65,.57-.97,.88-7.6,7.26-11.24,17.35-11.12,28.14-11.11-1.32-22.7,2.15-31.42,10.5-15.23,14.55-16.06,38.51-2.07,54.06Zm19.88,11.86c-1.33-6.95-1.38-14.53,.11-22.27,1.47-7.66,4.28-14.61,8.03-20.53,3-4.72,6.58-8.78,10.57-12,3.54-2.84,7.37-5.03,11.38-6.44-.93-3.19-1.21-6.52-.8-9.78,.39-3.12,1.42-6.17,3.12-8.99,1.66-2.74,3.82-5.02,6.31-6.78,7.95-5.63,19.28-6.14,28.69-.43,.95,.58,1.87,1.21,2.73,1.87,10.09,7.87,13.38,21.47,7.34,32.01,2.69,.44,5.41,1.14,8.11,2.08,3.43,1.19,6.81,2.77,10.11,4.76,3.12,1.88,5.95,4.03,8.48,6.36,8.5,7.84,13.54,17.8,14.12,27.33,.34,5.57-.83,10.97-3.71,15.73-2.29,3.78-5.46,6.79-9.21,9.02-2.67,1.58-5.64,2.75-8.82,3.5,1.73,2.75,3.07,5.77,3.96,8.98,.78,2.8,1.22,5.75,1.28,8.8,.35,19.42-15.2,35.44-34.73,35.8-19.54,.35-35.66-15.1-36.02-34.51-.01-.62-.01-1.25,.04-1.86-1.04-.09-2.08-.22-3.12-.43-7.81-1.5-14.45-5.99-19.38-12.43-4.18-5.42-7.16-12.23-8.59-19.8Z"/><path class="f" d="M29.84,327.97c1.43,7.56,4.4,14.38,8.59,19.8,4.93,6.44,11.57,10.93,19.38,12.43,1.04,.21,2.08,.34,3.12,.43-.05,.61-.05,1.24-.04,1.86,.35,19.42,16.48,34.87,36.02,34.51,19.54-.35,35.09-16.38,34.73-35.8-.06-3.05-.5-5.99-1.28-8.8-.89-3.21-2.24-6.23-3.96-8.98,3.18-.75,6.15-1.92,8.82-3.5,3.76-2.23,6.92-5.24,9.21-9.02,2.88-4.76,4.05-10.17,3.71-15.73-.57-9.53-5.62-19.49-14.12-27.33-2.53-2.34-5.36-4.48-8.48-6.36-3.29-1.99-6.68-3.57-10.11-4.76-2.7-.94-5.42-1.64-8.11-2.08,6.04-10.53,2.75-24.14-7.34-32.01-.86-.66-1.77-1.3-2.73-1.87-9.41-5.71-20.74-5.2-28.69,.43-2.5,1.76-4.65,4.04-6.31,6.78-1.7,2.83-2.73,5.87-3.12,8.99-.42,3.25-.13,6.58,.8,9.78-4.01,1.41-7.84,3.6-11.38,6.44-3.99,3.22-7.57,7.28-10.57,12-3.74,5.92-6.56,12.87-8.03,20.53-1.49,7.73-1.44,15.32-.11,22.27Z"/></g><g><rect class="h" x="78.23" y="66.92" width="15.07" height="97.09" transform="translate(171.64 230.85) rotate(179.95)"/><rect class="h" x="80.6" y="34.05" width="10.29" height="23.67" transform="translate(171.54 91.69) rotate(179.95)"/><rect class="h" x="81.35" y="17.47" width="8.47" height="14.34" transform="translate(171.2 49.2) rotate(179.95)"/><rect class="h" x="84.63" y="10.22" width="2" height="3.4" transform="translate(171.27 23.75) rotate(179.95)"/><path class="h" d="M93.02,154.82h.08l-.48-.13,.06,.04-.34-.34c.39,.62,.48,1.32,.68,2.02,.25,.89,.51,1.77,.87,2.63,.18,.42,.37,.83,.61,1.21,.18,.3,.24,.64,.28,.99,.05,.44,.14,.85,.29,1.27,.09,.24,.17,.47,.31,.68,.04,.07,.09,.13,.14,.19,.02,.04,.08,.21,.04,.06v-.5l-.02,.08,.43-.57-.06,.03,.48-.13c-.1,0-.19,0-.29,.01,0,0-.39,.05-.16,.03,.26-.02-.23-.05-.31-.05-.1,0-.2,0-.29,0-.23,0-.44-.04-.67-.05-.06,0-.12,0-.18,0-.27,0-.17-.08,.03,.05l.34,.34c.05,.26,.08,.29,.08,.11,0-.08,0-.16,0-.24,0-.2,0-.4,.02-.61,.04-.39,.13-.77,.1-1.16-.07-.84-.49-1.66-.5-2.49l-1.76,.48c.2,.45,.3,.91,.63,1.28l-.24-.42c.15,.44,.3,.87,.47,1.3,.08,.22,.19,.42,.28,.63,.04,.1,.06,.2,.1,.3,.05,.15,.04,.35,.1,.07l1.73-.23c-.19-.27-.32-.67-.46-.99-.2-.44-.47-.84-.68-1.28s-.35-.87-.48-1.31c-.12-.42-.22-.9-.43-1.28-.58-1.07-2.21-.12-1.63,.95,0,.01,.07,.33,.11,.44,.08,.21,.13,.42,.2,.64,.15,.51,.36,1.04,.6,1.51,.21,.41,.46,.79,.65,1.21,.16,.36,.26,.73,.49,1.06,.43,.61,1.54,.63,1.73-.23,.16-.73-.2-1.34-.46-1.99s-.36-1.33-.81-1.85l.24,.42c-.11-.42-.3-.82-.48-1.21-.4-.87-1.78-.41-1.76,.48,.01,.82,.33,1.6,.48,2.4,.06,.32,0,.64-.04,.96-.05,.38-.05,.75-.07,1.13-.03,.85,.49,1.37,1.34,1.4,.55,.02,1.18,.14,1.75,.07-.05,0,.35-.04,.2-.03-.09,0,.04,.01,.05,0,.23-.02,.45-.08,.63-.23,.39-.31,.47-.82,.29-1.26-.1-.25-.27-.44-.38-.67-.13-.28-.22-.62-.25-.92-.04-.36-.1-.69-.18-1.04-.1-.42-.31-.73-.51-1.1-.35-.65-.62-1.33-.81-2.04-.2-.77-.42-1.53-.62-2.31s-.64-1.72-1.51-1.75c-1.22-.04-1.22,1.85,0,1.89h0Z"/><path class="h" d="M89.41,58.78c.14,.67,.41,1.34,.61,1.98,.16,.53,.16,1.08,.15,1.63-.01,.6-.18,1.18-.05,1.79,.05,.27,.17,.5,.21,.77,.04,.32,.13,.63,.16,.95l1.42-.82c.16,.09-.08-.2-.13-.29-.1-.21-.17-.42-.24-.64-.2-.61-.4-1.2-.54-1.83s-.27-1.21-.37-1.82c-.09-.52-.33-1.11-.31-1.64,.03-1.05-1.66-1.31-1.86-.25-.28,1.46-.11,3.03,.06,4.49,.04,.35,.12,.7,.16,1.05s0,.64-.01,1c-.04,.85,.03,1.54,.94,1.85l-.57-.43,.07,.09,1.07-1.39c-.75-.24-1.46-.37-2.23-.51-.39-.07-.7-.17-1.1-.04-.44,.14,.02,.09-.36,.08-.21,0-.43,0-.64-.02-.8-.05-1.62-.34-2.42-.3-.34,.02-.67,.08-1.01,.09-.13,0-.26,.02-.39,.02-.01,0-.33-.05-.24,0l.47,.82c-.04,.3-.22,.29,.04,.17,.1-.04,.18-.11,.28-.15,.29-.11,.65-.09,.95-.1,.77-.02,1.51,.06,2.28,.15,.35,.04,.69,.01,1.04,.05,.33,.03,.67,.11,.99,.12,.53,.02,1.38-.26,1.72-.68,.51-.62,.18-1.52-.47-1.9-.6-.34-1.33-.26-1.99-.26-.74,0-1.53,0-2.26,.11-.25,.04-.49,.08-.74,.04-.36-.06-.66-.19-1.03-.22l.48,.13c-.09-.04-.33-.23-.43-.22-.18,.03,.2,.12,.13,.28l-.24,.42c.56-.59,1.5-.2,2.19-.15,.91,.07,1.83,.16,2.72,.37l-.23-1.73c-.1,.08-.63,.11-.86,.08-.52-.06-1.02-.14-1.54-.15-.45,0-.88-.04-1.32-.13-.4-.08-1.01-.09-1.29-.18l.42,.24-.07-.07,.24,.42c-.04,.23-.04,.26,0,.08,.04-.02,.07-.07,.08-.12,.06-.1,.13-.19,.19-.29,.22-.33,.38-.69,.46-1.08s.19-.74,.29-1.12c.06-.21,.17-.64,.29-.74l-1.15,.15,.08,.05-.34-.34c-.1-.19,.18,.46,.1,.27,.06,.14,.08,.17,.13,.32,.09,.28,.16,.57,.21,.85,.05,.31,.09,.62,.17,.93,.05,.23,.07,.47,.16,.71,.3,.83,1.58,.97,1.82,0,.14-.56-.04-1.24-.13-1.81s-.15-1.11-.75-1.38c-.57-.26-1.24,0-1.65,.43-.44,.47-.43,1.07-.41,1.67,.04,1.21,1.89,1.22,1.89,0,0-.35-.05-.75,.02-1.09,.03-.13,.08-.25,.1-.38,.03-.12,.04-.24,.03-.36,0-.18-.03-.16-.08,.08l-.34,.34,.11-.05-.48,.13s.34,.14,.34,.14c.22,.08,.46,.11,.7,.12,.4,.03,.79,.11,1.19,.07,.48-.04,.88-.22,1.33-.34s.9-.1,1.34-.22l-.73-1.73c-.88,.4-1.09,1.28-.95,2.16,.09,.59,.5,1.51,.24,2.09l1.07-.43-.07-.02,.42,.24c.12,.1,.05,.11,0-.09-.04-.15-.07-.27-.13-.42-.17-.43-.42-.79-.71-1.15-.5-.64-1-1.57-1.99-1.13-.85,.38-.79,1.31-.94,2.07-.16,.84,.33,1.67,.44,2.47v-.5l-.04,.1,1.73-.23c-.19-.44-.32-.93-.38-1.41-.02-.19-.04-.39-.06-.58-.01-.12,0-.26-.02-.37s.03-.07-.02,0l-.34,.34-.17,.07-.48-.13c.25,.11,.51,.47,.6,.73l1.16-1.16c-.18-.05-.31-.13-.46-.23-.33-.21-.88-.16-1.15,.15-.46,.53-.31,1.2-.47,1.84-.3,1.18,1.53,1.68,1.82,.5,.07-.3,.15-.59,.18-.9,0-.09,.01-.17,0-.26,0-.02,0-.29-.02-.2l-.24,.42,.06-.07-1.15,.15c.29,.18,.59,.33,.92,.42,.67,.17,1.39-.46,1.16-1.16-.21-.64-.64-1.24-1.16-1.66-.59-.48-1.56-.46-1.96,.27-.31,.56-.18,1.24-.11,1.84,.09,.83,.3,1.59,.63,2.36,.15,.34,.61,.5,.94,.45,.4-.06,.64-.31,.79-.68s.02-.68-.09-1.03c-.09-.29-.14-.59-.21-.89s-.02-.42,.02-.72c.01-.11,0-.28,0-.37,.04-.38,.19-.04-.3,.11h-.5c-.23-.22-.28-.25-.16-.08,.03,.05,.06,.1,.1,.15,.11,.16,.23,.3,.35,.45,.17,.23,.36,.47,.46,.74,.22,.59,.3,1.18,1.02,1.37,.37,.1,.9-.06,1.07-.43,.36-.81,.33-1.58,.17-2.43-.06-.33-.16-.65-.2-.98,0-.08-.01-.16,0-.24,0,.15-.2,.21,.07,.09,.99-.45,.28-2-.73-1.73-.39,.1-.79,.09-1.18,.18-.33,.08-.63,.24-.96,.31-.58,.12-1.17-.07-1.71-.24-.78-.25-1.76,.21-1.68,1.14,.02,.23,.03,.05,0,.27-.03,.14-.07,.28-.09,.42-.07,.43-.04,.88-.04,1.31h1.89c0-.13,.03-.35-.02-.47,0-.1,0-.09-.04,.03-.09,.13-.22,.17-.39,.11l-.42-.24c-.1-.29-.14-.36-.12-.2,0,.05,0,.11,.02,.16,.02,.18,.06,.36,.09,.54,.02,.11,.01,.23,.03,.34,0,.06,.03,.5,.08,.31h1.82c-.21-.57-.25-1.38-.41-2.04s-.39-1.54-.96-1.88c-.38-.23-.83-.13-1.15,.15-.36,.32-.57,.88-.71,1.33-.16,.52-.24,1.07-.41,1.59-.14,.41-.47,.73-.63,1.14-.22,.56-.17,1.23,.36,1.6,.48,.34,1.03,.25,1.61,.35s1.2,.19,1.82,.2c.58,0,1.14,.15,1.71,.16,.49,0,1.24-.06,1.65-.36,.61-.45,.64-1.53-.23-1.73-.68-.16-1.38-.22-2.06-.35-.36-.07-.68-.06-1.04-.08s-.71-.15-1.07-.18c-1.24-.08-3.16,.53-2.85,2.09,.14,.67,.61,1,1.19,1.27,.28,.13,.56,.14,.84,.23,.34,.1,.7,.15,1.06,.13,.66-.03,1.31-.13,1.97-.16,.38-.02,.77,0,1.15,0,.07,0,.4,.05,.45,0,.15-.15,.08,.61-.11-.19v-.5l.04-.09,.34-.34c-.08,.05-.09,.06-.02,.02-.07,.02-.14,.04-.2,.06-.05,.02-.36,.13-.16,.1-.18,.03-.49-.07-.69-.08-.17-.01-.33-.04-.5-.05-.34-.03-.67,0-1-.07-.49-.1-1.03-.1-1.53-.12-1.49-.04-3.62,.12-3.85,1.97-.04,.31,.21,.67,.47,.82,.61,.34,1.32,.26,1.98,.22,.43-.03,.76-.1,1.2-.02s.85,.15,1.29,.2c.39,.04,.79,.07,1.19,.07,.25,0,.51-.01,.75-.1l.23-.1c-.33-.01-.38,0-.17,.05,.34,.14,.78,.1,1.15,.18,.42,.09,.83,.23,1.24,.36,.73,.24,1.57-.72,1.07-1.39-.18-.25-.42-.42-.6-.51l.34,.34-.05-.1,.13,.48c-.02-.53,.09-1.06,.04-1.59-.06-.58-.17-1.15-.24-1.74-.12-1.1-.28-2.38-.07-3.47l-1.86-.25c-.02,.69,.25,1.38,.37,2.05,.13,.76,.29,1.52,.47,2.27,.16,.7,.4,1.4,.67,2.06,.22,.54,.48,1.18,1.03,1.47s1.52-.06,1.42-.82c-.04-.32-.13-.63-.16-.95-.04-.35-.09-.66-.19-1-.17-.54,.04-1.17,.04-1.73,0-.66-.02-1.35-.23-1.99s-.46-1.29-.6-1.94c-.24-1.19-2.07-.69-1.82,.5h0Z"/><path class="h" d="M87.64,65.89c1.93,0,1.93-3,0-3s-1.93,3,0,3h0Z"/><path class="h" d="M90.34,33.1c-.19-.23-.18-.52-.34-.78-.26-.43-.73-.63-1.22-.63s-.95,.26-1.14,.72c-.11,.25-.13,.54-.06,.81,.03,.12,.08,.25,.14,.36,.13,.21-.06,.17,.01-.22l1.16-.66c.09,.02,.3,.22-.09-.09-.05-.04-.07-.05-.11-.09-.15-.13-.31-.25-.41-.42-.24-.38-.44-.81-.95-.89s-1.02,.12-1.16,.66c-.09,.33-.08,.67,.03,.99,.03,.1,.08,.2,.12,.3,.06,.16,.02,.24,.07,.07l.66-.66h-.07l.73,.11c.08,.03,.06,.13,.07,.06,0-.03-.3-.39-.21-.29-.13-.15-.28-.28-.41-.43-.5-.57-1.36-.2-1.58,.42-.08,.24-.1,.5-.09,.75,0,.08,0,.17,0,.25,0,.16-.05,.35,.1,0l.82-.47h-.08l.48,.13c.09,.05,.16,.13,.19,.22,.02,.06,.02,.04-.02-.04-.03-.1-.08-.2-.12-.29-.12-.26-.29-.49-.48-.71-.36-.42-.92-.62-1.43-.33-.45,.26-.56,.76-.57,1.24,.01-.38,0,.07-.02,.15,.02-.14,.02-.1,0,.01-.02,.07-.03,.14-.05,.21l-.03,.08c.03-.13,.11-.23,.24-.31l.48-.13h-.06l.48,.14c.2,.24,.26,.28,.15,.13l-.04-.08s-.05-.1-.07-.15c.05,.11,.06,.13,.03,.05-.06-.31-.18-.57-.4-.81-.2-.23-.63-.36-.92-.24-.4,.16-.71,.39-.9,.78-.08,.15-.14,.32-.19,.48-.02,.07-.04,.14-.07,.21-.05,.14,.1-.17-.02,.03l1.49-.19c.06,.06,.09,.13,.1,.21-.01-.1-.02-.21-.03-.31-.01-.21-.01-.41,0-.62,.01-.41-.3-.8-.69-.91-.37-.1-.91,.06-1.07,.43-.08,.18-.15,.36-.2,.55l1.73-.23c.08,.14,.03,.21-.04,.38l-1.07,.43c-.05-.06-.03-.05,.06,.02,.06,.04,.12,.09,.17,.13,.16,.11,.33,.18,.51,.23,.74,.2,1.57-.7,1.07-1.39-.38-.53-.91-.73-1.55-.72-.17,0-.35,.02-.52,.03-.16,.01-.32,0-.48,.05-.08,.02-.62,.39-.38,.23l.48-.13h-.07l.48,.12c.11,.06,.05,.04-.03-.03-.09-.08-.19-.16-.29-.22-.28-.16-.63-.18-.92-.06-.42,.17-.86,.76-1.09,1.14-.3,.52-.22,1.23,.34,1.55,.35,.2,.82,.21,1.21,.19,.26-.01,.51-.06,.73-.2,.12-.07,.23-.21,.33-.27,.2-.12,.46-.18,.67-.28,.24-.11,.45-.26,.69-.37,.16-.07,.33-.1,.49-.16,.18-.06,.44-.22,.56-.26,.3-.09,.75,0,1.09,.01,1.22,.02,1.22-1.87,0-1.89-.5,0-.98-.07-1.48,.03-.24,.05-.45,.17-.67,.27-.24,.11-.51,.15-.76,.26s-.45,.24-.68,.36c-.25,.14-.53,.21-.78,.34-.16,.08-.49,.24-.57,.41,.32-.11,.39-.16,.22-.16-.07,0-.14,0-.21,0-.34,0-.04-.09,.24,.19l.24,.42-.02-.05v.5c-.03,.16,.07-.08,.11-.14,.1-.13,.22-.24,.33-.36l-.92,.24c-.22-.16-.26-.18-.14-.07,.08,.07,.17,.14,.25,.2,.17,.1,.35,.16,.54,.16,.39,0,.62-.17,.9-.41l-.42,.24s.3,0,.4,0,.2,.01,.3,0h-.06c.21,.06,.13,0-.22-.22l1.07-1.39c.06,.02-.18-.14-.23-.17-.16-.1-.33-.18-.51-.22-.37-.07-.9,.04-1.07,.43-.21,.5-.25,1.05,.04,1.53,.41,.7,1.52,.56,1.73-.23,.05-.1,.06-.13,0-.1l-1.76-.48c-.02,.68-.05,1.56,.49,2.06,.44,.4,1.17,.36,1.49-.19,.11-.19,.18-.4,.25-.61,.02-.06,.1-.2,.09-.26,.02,.12-.27,.23-.29,.23l-.92-.24c-.2-.22-.14-.17-.08,.02,.03,.11,.08,.21,.12,.31,.06,.14,.12,.27,.21,.39,.34,.51,.95,.73,1.51,.41,.37-.21,.56-.65,.65-1.05,.02-.08,.03-.16,.04-.24,0-.04,.06-.45,.03-.24s.03-.19,.03-.23c.02-.32,.09-.02-.17,.25l-.42,.24,.06-.02h-.5l.05,.02-.42-.24c.24,.2,.29,.35,.4,.6,.2,.47,.61,.84,1.15,.8,.3-.02,.69-.16,.82-.47s.18-.56,.17-.91c0-.21-.04-.42,0-.55l-1.58,.42c.1,.12,.22,.22,.33,.34-.11-.13,.25,.34,.22,.3,.32,.37,.7,.46,1.18,.39,.31-.04,.58-.37,.66-.66,.09-.33,.07-.66-.03-.97-.03-.1-.08-.2-.12-.3-.05-.14-.02-.26-.07-.09l-1.16,.66c-.27-.04-.42-.43-.25-.11,.03,.06,.06,.13,.1,.19,.15,.24,.33,.44,.54,.63,.39,.34,.64,.68,1.17,.79,.47,.1,1.06-.14,1.16-.66,.05-.26,.08-.5,0-.75-.03-.11-.08-.21-.13-.31-.16-.32,.14,.08-.06,.39l-.34,.34c-.26,.04-.33,.06-.2,.06,.12,0,.06,0-.17-.04l-.34-.34c.11,.15,0-.12,.04,.1,.03,.14,.12,.32,.17,.43,.12,.26,.3,.47,.48,.69,.33,.39,1,.34,1.34,0,.39-.39,.33-.94,0-1.34h0Z"/><path class="h" d="M89.38,16.89c-.22-.21-.47-.4-.69-.61-.12-.11-.25-.23-.36-.35,.01,.02,.1,.13-.04-.04-.08-.1-.14-.21-.23-.31-.09-.11-.2-.2-.3-.3-.02-.02-.1-.13-.03-.03-.04-.06-.06-.12-.09-.18-.12-.26-.27-.48-.41-.73-.16-.27-.31-.51-.56-.7-.18-.13-.37-.22-.6-.25-.13-.02-.2-.02-.32,0,0,0-.35,.07-.23,.05s-.06,0-.09,0c-.09,0-.17,0-.25,.02-.26,.03-.49,.14-.69,.32-.22,.21-.36,.47-.48,.74-.04,.09-.07,.24-.13,.31,0,0,.05-.12,.06-.12-.03-.03-.35,.38-.36,.39,.07-.08-.04,.05-.04,.05-.05,.06-.11,.13-.17,.19-.1,.11-.21,.21-.32,.32-.1,.09-.22,.19-.24,.2-.08,.06-.15,.11-.23,.17-.28,.2-.55,.41-.75,.7-.46,.67-.13,1.57,.65,1.8,.56,.17,1.16,.05,1.67-.2,.34-.16,.37-.2,.73-.31,.29-.09,.58-.16,.87-.25,.11-.03,.21-.06,.32-.09,.05-.01,.09-.02,.14-.03,.07-.01,.26-.01,.03-.01,.05,0,.09,0,.14,0h.07c.09,0,.09,0,0,0h-.06c.1,.02,.08,.01-.05-.03-.05-.03-.22-.27-.13-.11l1.07-1.39c.12,.04,.17,.12,.05-.01-.06-.06-.11-.13-.16-.2-.15-.19-.33-.33-.52-.47-.18-.13-.35-.27-.57-.33-.42-.12-.81,.03-1.12,.32-.37,.35-.35,.98,0,1.34,.37,.37,.96,.35,1.34,0l.07-.06-.42,.24,.06-.02h-.5c-.17-.03-.08-.03,0,.03,.04,.03,.15,.12,.06,.04,.11,.09,.2,.19,.29,.3,.25,.32,.53,.53,.92,.66,.81,.27,1.45-.7,1.07-1.39-.56-.99-1.71-.84-2.63-.57-.53,.16-1.06,.28-1.56,.51-.1,.05-.2,.1-.3,.15-.02,0-.19,.1-.1,.06,.08-.04-.06,.02-.06,.02-.31,.08,.13,.02-.04,.02-.02,0-.25,0-.25,0,.02-.09,.2,.06,.07,0l.25,.45c.24,.18,.31,.37,.2,.58-.02,.05-.14,.14-.01,.03,.03-.02,.06-.05,.08-.08,.17-.16-.06,.03,.06-.05,.1-.07,.19-.14,.29-.21,.24-.18,.48-.36,.69-.57,.23-.22,.4-.5,.62-.72-.06,.05,.13-.1,.16-.13,.11-.11,.2-.24,.27-.37,.05-.1,.08-.21,.13-.31-.01,.03-.07,.14,0,0,.02-.04,.03-.07,.05-.11,.07-.13,.08-.07,0-.05,0,0-.58,.14-.3,.16,.04,0,.08,0,.13,0,.11,0,.23-.02,.34-.05,.18-.04,.21,0-.17-.1l-.29-.07,.05,.06c-.08,0-.07-.11-.02,0,.04,.09,.1,.18,.16,.27,.16,.25,.27,.52,.42,.78,.14,.24,.47,.51,.58,.65-.06-.07,.03,.06,.03,.06,.07,.11,.16,.21,.24,.31,.11,.12,.24,.24,.36,.35,.24,.22,.5,.42,.73,.65,.37,.35,.97,.37,1.34,0,.36-.36,.37-.98,0-1.34h0Z"/><path class="h" d="M86.56,9.65c0-.66,.1-1.34-.12-1.97l-1.73,.73s.03,.05,.04,.08l-.1-.23c.11,.26,.12,.54,.17,.8,.03,.15,.07,.29,.1,.44l-.03-.25c.01,.11,.02,.21,0,.32l.03-.25s-.02,.08-.03,.12l.1-.23s-.02,.03-.03,.05l.15-.19s-.02,.03-.04,.04l.19-.15s-.02,.01-.03,.02l.23-.1s-.02,0-.04,.01l.25-.03s-.04,0-.06,0c-.23-.02-.51,.12-.67,.28s-.29,.43-.28,.67,.09,.5,.28,.67,.41,.26,.67,.28c.11,0,.23-.02,.34-.04,.16-.04,.36-.16,.47-.27,.15-.16,.26-.34,.31-.55,.09-.32,.05-.63,0-.95-.03-.16-.08-.32-.11-.49-.02-.14-.04-.28-.07-.41-.04-.21-.12-.41-.22-.59-.1-.2-.35-.39-.57-.43s-.41-.04-.62,.05c-.18,.08-.36,.21-.45,.39-.11,.22-.18,.49-.1,.73,.04,.12,.07,.25,.09,.38l-.03-.25c.06,.45,0,.9,0,1.34,0,.24,.11,.5,.28,.67s.43,.29,.67,.28,.5-.09,.67-.28,.28-.41,.28-.67h0Z"/><path class="h" d="M86.55,6.99c.04,.18,.04,.18,.02,0-.02-.06-.03-.11-.05-.17-.04-.14-.07-.27-.11-.41-.08-.28-.13-.54-.15-.83-.03-.51-.06-1.01-.09-1.52-.03-.55,.07-1.1,.03-1.65-.04-.5,.08-1.02,.07-1.53h-.95c0,.68,.03,1.34-.04,2.01-.07,.64-.13,1.27-.16,1.91-.07,1.27-.27,2.54-.23,3.82,.02,.61,.95,.61,.95,0,0-.13-.03-.23-.09-.35-.27-.55-1.09-.07-.82,.48l-.04-.13h.95c-.04-1.28,.16-2.54,.23-3.82,.04-.64,.1-1.27,.16-1.91,.07-.68,.04-1.34,.04-2.01,0-.61-.95-.61-.95,0,0,.56-.1,1.11-.06,1.67s-.08,1.1-.03,1.65c.02,.25,.01,.5,.02,.75,0,.28,.06,.55,.08,.83,.02,.3,.09,.59,.17,.88,.07,.25,.12,.56,.24,.79,.29,.54,1.11,.06,.82-.48h0Z"/><g><path d="M73.94,164.38l3.9-12.81-.08-85.21v-.04l2.31-8.4-.02-24.08,1.05-2.11v-14.38l3.15-4.01v-3.27L85.12,0h1.25l.72,10.15v3.29l3.17,4.01v14.38l1.07,2.11,.02,24.08,2.33,8.48,.08,85.17,4.25,12.7-24.07,.02Zm4.45-97.94l.08,85.22v.04l-3.68,12.04,22.34-.02-4-12.02-.08-85.18-2.33-8.48-.02-23.97-1.06-2.11v-14.31l-3.18-4v-3.48l-.68-9.55h-.09l-.82,9.47v3.46l-3.16,4.01v14.31l-1.04,2.11,.02,24.02v.04l-2.31,8.4Z"/><polygon points="97.04 162.57 97.04 161.94 99.78 161.94 99.78 159.78 94.77 156.46 95.12 155.94 100.41 159.45 100.41 162.57 97.04 162.57"/><polygon points="71.41 162.43 71.41 159.31 76.69 155.79 77.04 156.32 72.04 159.65 72.04 161.8 74.78 161.8 74.78 162.43 71.41 162.43"/><rect x="78.02" y="92.23" width="15.35" height=".63"/><rect x="78.12" y="113.04" width="15.35" height=".63"/><rect x="90.21" y="92.54" width=".63" height="20.8"/><rect x="84.83" y="92.71" width=".63" height="20.65"/><rect x="79.37" y="92.63" width=".63" height="20.8"/><rect x="85.15" y="92.55" width="5.38" height="20.76" transform="translate(175.77 205.78) rotate(179.95)"/><rect x="78" y="92.75" width="1.55" height="20.45" transform="translate(157.64 205.88) rotate(179.95)"/><rect x="85.4" y="58.8" width=".63" height="15.29" transform="translate(18.76 151.77) rotate(-89.66)"/><rect x="80.38" y="57.64" width="10.65" height=".63"/><rect x="77.67" y="61.87" width="8.66" height=".63" transform="translate(3.84 129.13) rotate(-77.76)"/><polygon points="78.07 66.4 81.08 66.42 82.92 57.96 80.39 57.96 78.07 66.4"/><polygon points="91.94 66.59 90.65 62.27 92.31 62.28 92.31 63.41 93.15 66.23 91.94 66.59"/><rect x="85.37" y="27.58" width=".63" height="8.54" transform="translate(52.86 117.17) rotate(-89.35)"/><rect x="80.36" y="33.7" width="10.65" height=".63"/><rect x="80.34" y="35.44" width="10.76" height=".63"/><rect x="80.34" y="38.6" width="10.6" height=".63"/><rect x="80.34" y="35.7" width="10.53" height="3.22" transform="translate(171.24 74.54) rotate(179.95)"/><rect x="84.56" y="13.24" width="2.21" height=".63"/><rect x="81.4" y="17.24" width="8.54" height=".63"/><rect x="84.56" y="9.86" width="2.21" height=".63"/><polygon points="84.81 164.06 84.79 143.65 91.27 143.65 91.29 164.05 90.66 164.05 90.64 144.28 85.42 144.28 85.44 164.06 84.81 164.06"/><rect x="85.11" y="143.96" width="5.85" height="20.09" transform="translate(176.22 307.94) rotate(179.95)"/><polygon points="79.43 164.12 79.41 144.02 78.09 144.02 78.09 143.39 80.04 143.39 80.06 164.12 79.43 164.12"/><path d="M75.95,160.95c-.03,.26,.06,.51,.16,.74,.07,.17,.16,.34,.24,.51l-.1-.23c.09,.21,.2,.41,.29,.63l-.1-.23c.03,.07,.05,.14,.06,.21l-.03-.25c.04,.3,.07,.57,.25,.83,.11,.16,.23,.33,.38,.46,.21,.18,.42,.31,.69,.38,.32,.09,.62,.08,.94,.03l-.25,.03c.21-.03,.41,.01,.61-.06,.36-.13,.62-.39,.68-.79,.02-.17,0-.33-.06-.49-.08-.2-.21-.32-.39-.45-.17-.12-.42-.18-.63-.17-.25,.02-.48,.09-.67,.28-.16,.16-.29,.43-.28,.67s.09,.5,.28,.67,.42,.3,.67,.28c.02,0,.04,0,.07,0l-.25-.03h.03l-.23-.09s.04,.02,.05,.03l.23-1.73s-.04,.01-.06,.02l.25-.03c-.06,0-.12,0-.19,0-.14,0-.27,.02-.4,.05l.25-.03c-.08,0-.16,0-.24,0l.25,.03c-.09-.01-.17-.03-.26-.07l.23,.1c-.06-.03-.11-.06-.16-.1l.19,.15c-.07-.06-.13-.13-.19-.2l.15,.19c-.05-.06-.09-.12-.13-.19l.1,.23c-.02-.05-.03-.11-.04-.16l.03,.25c-.02-.13-.03-.26-.05-.39s-.09-.26-.14-.37c-.05-.12-.12-.23-.17-.34l.1,.23c-.1-.23-.21-.45-.31-.68l.1,.23c-.03-.08-.06-.17-.08-.25l.03,.25s0-.08,0-.13c.03-.22-.13-.52-.28-.67-.16-.16-.43-.29-.67-.28s-.5,.09-.67,.28l-.15,.19c-.09,.15-.13,.31-.13,.48h0Z"/><path d="M78.13,155.05c.03,.55,.34,1.09,.32,1.65-.01,.31-.19,.61-.22,.92-.03,.33,.05,.66,.06,.99,0,.29-.03,.58,0,.87,.03,.33,.08,.66,.11,.99,.02,.28,.04,.58,.02,.87-.01,.16-.02,.31-.04,.47,0,.04,0,.35,0,.36l1.3-.17-.04-.08c-.42-.81-1.65-.09-1.22,.72l.04,.08c.29,.55,1.14,.4,1.3-.17,.05-.16,.03-.3,.03-.46,0-.15,.06-.31,.06-.46,0-.34-.01-.68,0-1.03,0-.32-.04-.68-.08-1-.04-.29-.02-.57-.03-.86,0-.33-.09-.67-.06-.99s.2-.61,.22-.93-.05-.7-.12-1c-.05-.25-.18-.5-.2-.76-.06-.91-1.47-.91-1.42,0h0Z"/><path d="M79.03,161.4c.02,.06,.02,.08,0,.04,0-.07,0-.14,0-.21,0-.13,.01-.26,0-.39-.02-.33-.16-.62-.19-.94-.07-.63-.15-1.25-.06-1.87s.12-1.29,.14-1.93c.02-.51-.12-1.05-.61-1.33-.31-.18-.8-.1-.97,.25-.16,.33-.24,.7-.36,1.05-.11,.33-.21,.65-.32,.97s-.15,.64-.32,.95c-.19,.33-.18,.7-.28,1.04-.2,.66-.49,1.29-.74,1.93-.26,.68-.41,1.39-.71,2.06-.16,.36-.08,.97,.42,1.04,.37,.05,.72-.02,1.1-.02,.4,0,.81-.04,1.2-.12h-.38l.1,.02c.4,.08,.73-.11,.87-.5,.1-.28,.02-.55-.03-.83-.18-.89-1.55-.52-1.37,.38,0,.04,.02,.09,.03,.13,.02,.08,.02,.06,0-.05l.87-.5c-.39-.07-.78,.04-1.17,.05s-.76-.01-1.14,.09h.29l.42,1.03c.31-.7,.51-1.41,.75-2.12,.1-.3,.23-.61,.36-.9,.14-.33,.24-.67,.36-1.02,.07-.19,.13-.33,.17-.53,.03-.16,.05-.34,.11-.49,.13-.33,.3-.6,.38-.96,.07-.32,.16-.66,.28-.97,.07-.19,.14-.38,.2-.57,.05-.14,.07-.33,.13-.47l-.97,.25c-.13-.14-.15-.16-.07-.04,.06,.1,.05,.09-.02-.05-.02,.1-.01,.22-.01,.33,0,.31-.04,.61-.05,.91,0,.27-.05,.53-.08,.79-.05,.38-.06,.67-.03,1.05,.02,.28,.06,.57,.08,.85,.02,.34,.1,.62,.17,.94,.06,.25,0,.53,.03,.79,.04,.33,.15,.62,.4,.86,.66,.63,1.67-.37,1-1h0Z"/><path d="M77.18,158.92c-.19,.21-.25,.45-.28,.73,0,.06-.01,.12-.02,.18,0,.07,.04-.22,0-.07-.01,.05-.03,.11-.04,.16-.02,.09-.04,.18-.06,.27s-.02,.18-.04,.27c-.01,.08,.04-.14,0,0-.03,.09-.05,.18-.08,.27-.02,.05-.04,.1-.06,.15-.01,.03-.08,.15-.02,.06,.02-.02,.13-.16,.05-.09-.04,.04-.08,.09-.11,.13-.09,.12-.14,.24-.19,.38-.03,.07,.05-.14,.08-.14-.02,0-.09,.08-.1,.1-.07,.08-.13,.16-.17,.27,0-.01-.07,.15-.05,.16-.02-.02,.15-.21,.08-.15-.03,.02-.05,.06-.08,.08-.06,.08-.11,.14-.16,.22-.03,.05-.07,.11-.1,.16-.03,.05-.1,.11,.04-.05-.15,.17-.04-.15,.39-.14l.68,.52c.03,.18,.02,.02,.02-.02,0-.37-.33-.73-.71-.71-.39,.02-.7,.31-.71,.71,0,.14,.01,.26,.03,.4,.05,.31,.4,.51,.68,.52,.33,0,.56-.2,.75-.45,.06-.08,.16-.2,.19-.3-.08,.1-.1,.12-.06,.08,.02-.02,.03-.03,.05-.05,.06-.06,.12-.14,.17-.21,.04-.07,.09-.15,.09-.23,.01-.18-.06,.15-.11,.14,.02,0,.08-.08,.1-.1,.06-.07,.12-.14,.16-.22,.04-.07,.07-.15,.09-.23,.02-.05,0-.03-.03,.07-.07,.08-.08,.1-.04,.06,.22-.17,.29-.44,.38-.69s.13-.46,.17-.71c.01-.08-.03,.13,0,0,.01-.05,.03-.11,.04-.16,.03-.11,.05-.22,.07-.33,.01-.09,.02-.17,.03-.26,0-.14-.05,.16,0,.04v-.03c-.02,.08-.06,.15-.12,.21,.25-.27,.29-.74,0-1-.27-.25-.73-.29-1,0h0Z"/><path d="M78.13,155.47c.47-.13,1.14-.05,1.44-.52,.25-.4,.19-1.17,.19-1.63,0-.49-.07-1-.14-1.48-.04-.27-.03-.52-.02-.79,0-.14,0-.27-.03-.41-.06-.24-.07,.14-.01-.04,.16-.47-.06-1.02-.03-1.5,.02-.32,.08-.62,.08-.94,0-.27-.05-.53-.07-.8-.04-.5,.07-.99,.06-1.5-.01-.54-.07-1.03,0-1.58,.05-.38-.36-.71-.71-.71-.43,0-.66,.33-.71,.71-.06,.44-.06,.85-.01,1.29,.04,.42-.04,.8-.05,1.21s.05,.79,.07,1.18c.03,.48-.1,.95-.05,1.43,.08,.83-.02,1.65,.08,2.48,.04,.39,.09,.78,.12,1.16,.02,.24,0,.48,0,.72,0,.12-.01,.24-.02,.36,0,.13-.09,.44,.05,.11l.42-.33c-.13,.05-.32,.02-.46,.05-.19,.04-.37,.1-.55,.15-.88,.25-.5,1.61,.38,1.37h0Z"/><path d="M77.65,152.3s0,.04,0,.06l.03-.19s0,.03-.01,.05l.07-.17c-.04,.08-.09,.15-.12,.24-.06,.15-.08,.31-.1,.47l.03-.19c-.05,.31-.2,.6-.3,.89-.03,.08-.06,.16-.08,.24-.02,.07-.02,.15-.04,.23-.04,.2-.09,.38-.1,.59-.02,.37,.34,.73,.71,.71,.4-.02,.69-.31,.71-.71,0-.02,0-.05,0-.07l-.03,.19c.05-.32,.13-.63,.24-.93,.05-.15,.12-.3,.17-.45,.07-.2,.09-.39,.12-.6l-.03,.19s.01-.06,.02-.1l-.07,.17c.02-.05,.06-.09,.08-.14,.08-.14,.13-.32,.11-.48-.02-.19-.07-.36-.21-.5-.12-.12-.32-.22-.5-.21-.35,.02-.75,.31-.71,.71h0Z"/><path d="M76.13,156.66c-.23,.2-.28,.45-.48,.63-.09,.09-.19,.16-.28,.24-.06,.05-.11,.1-.16,.16-.03,.04-.06,.07-.1,.11,.06-.04,.05-.03-.02,.01-.06,.03-.12,.06-.18,.09,.12-.05-.03,.01-.06,.02-.09,.04-.19,.07-.28,.12-.23,.12,.08-.04-.08,.04s-.23,.09-.36,.21c-.17,.16,.01-.03,.09,0-.03-.01-.17,.05-.2,.06-.1,.04-.21,.09-.31,.14-.07,.04-.14,.08-.21,.13-.15,.11,.06,0-.1,.05-.17,.05-.32,.13-.47,.22-.04,.02-.07,.05-.11,.07,.19-.08-.15,0,.07-.03-.23,.04-.42,.06-.63,.18-.31,.19-.44,.55-.5,.89-.05,.29-.12,.58-.11,.87s.07,.6,.24,.85c.14,.21,.32,.35,.57,.4,.15,.03,.29,.03,.43-.01,.07-.03,.15-.06,.22-.09,.11-.05,.07-.04-.11,.02,0,.02,.24-.01,.25-.02-.03,0,.27-.03,.15-.02,.17-.01,.33,0,.5,0,.12,0,.23-.02,.34-.03,.01,0,.23-.04,.08-.02,.19-.02,.4-.07,.59-.07-.12,0,.06,.02,.07,.02,.14,0,.29-.04,.41-.11,.16-.09,.29-.24,.39-.4,.09-.14,.14-.31,.18-.48,.01-.06,.02-.13,.03-.19,0-.02,.06-.25,.02-.16,.05-.12,.13-.22,.2-.32,.07-.12,.12-.26,.19-.38,.22-.35,.38-.73,.14-1.12-.26-.43-.8-.47-1.2-.21l-.14,.11c.08-.06,.08-.06,0,0-.08,.04-.17,.09-.25,.14-.16,.1-.31,.24-.45,.37s-.29,.25-.41,.39,.1-.04-.05,.04c-.06,.03-.12,.07-.19,.1,.15-.07-.41,.17-.22,.09-.05,.02-.09,.04-.13,.06-.1,.06-.06,.05,.12-.02-.04-.05-.47,0-.55,0l.61,1.07c-.06,.08,.02-.01,.05-.04,.03-.03,.07-.06,.1-.09,.08-.07,.17-.13,.25-.2,.2-.17,.37-.39,.5-.62,.12-.21,.21-.47,.25-.7,.02-.12-.17,.18-.04,.08,.03-.02,.06-.05,.08-.08,.11-.12,.19-.26,.28-.39,.05-.07,.06-.07,.16-.17,.08-.08,.16-.16,.24-.24,.16-.17,.32-.34,.5-.49,.04-.03,.18-.13,.26-.18s.36-.18,.37-.25c.03-.03,.04-.03,0,0-.03,.03-.07,.04-.11,.04-.23,.06,.11,0,.15,0,.17-.04,.35-.14,.46-.27,.24-.3,.29-.71,0-1-.25-.25-.76-.3-1,0l.3-.11c-.05,0-.1,0-.15,.02-.13,.02-.2,.03-.32,.1-.04,.02-.08,.04-.11,.07-.06,.04-.11,.09-.17,.13-.03,.03-.04,.03,0,0,.06-.03-.13,.07-.12,.07-.05,.03-.09,.06-.14,.09-.14,.1-.28,.2-.41,.31-.19,.16-.35,.34-.53,.51-.19,.2-.39,.37-.56,.6-.03,.04-.06,.08-.08,.12-.11,.18,.02,0-.04,.06-.09,.09-.18,.16-.25,.28-.08,.13-.13,.28-.17,.42-.01,.05-.02,.09-.03,.14,0,0-.06,.16-.03,.11,.03-.06-.06,.09-.07,.11l-.04,.06s.03-.04,0,0c-.07,.08-.15,.15-.23,.22-.22,.18-.4,.34-.57,.57-.14,.2-.12,.51,0,.72,.14,.23,.36,.32,.61,.35,.36,.04,.77,.03,1.1-.14,.13-.07,.17-.08,.37-.17,.14-.06,.27-.14,.39-.23,.25-.19,.47-.43,.7-.64,.14-.13-.05,0,.1-.08,.06-.04,.13-.07,.19-.1,.07-.04,.13-.09,.19-.14,.1-.08,.1-.07,0,0,.15-.09,.03-.08-.38,.03l-.31-.18c.03-.58-.02-.75-.15-.53-.02,.03-.05,.07-.07,.1-.05,.08-.08,.17-.12,.25-.08,.16-.19,.3-.27,.45-.11,.21-.14,.4-.18,.63-.01,.08-.06,.18-.06,.26,0-.2,.61-.23,.29-.25-.13,0-.26,.04-.38,.05-.09,.01-.08,0-.2,.02,.05,0-.44,.06-.27,.04-.1,0-.2,0-.3,0s-.19,0-.29,0c-.09,0-.18,.02-.27,.03-.09,.02-.11,.02-.05,0-.14,0-.27,0-.41,.05-.08,.03-.15,.06-.23,.1-.08,.04-.07,.04,0,0h.38c.23,.24,.31,.29,.22,.15l.03,.06c.02-.12,0,.13,0-.03,0-.07,0-.14,0-.2,0-.2-.03,.1,0-.05,.03-.12,.04-.25,.07-.37,0-.04,.05-.15,.05-.19,.01,.11-.16,.17-.23,.23h-.07c.08,0,.17-.01,.25-.03,.06,0,.11-.02,.16-.03,.15-.05,.29-.13,.43-.22,.04-.02,.04-.02-.02,0,.03-.01,.07-.02,.11-.03,.1-.03,.21-.07,.3-.12,.07-.04,.14-.08,.2-.13,.03-.02,.19-.11,.16-.09,.06-.02,.28-.08,.4-.16,.02-.01,.19-.12,.21-.19-.19,.1-.23,.13-.12,.08l.17-.07c.24-.11,.54-.21,.79-.39,.15-.11,.26-.24,.4-.37,.11-.1,.23-.19,.34-.29,.13-.12,.25-.27,.35-.41,.03-.05,.07-.1,.09-.16,.01-.03,.03-.05,.04-.08-.06,.06-.06,.07,0,.02,.29-.25,.26-.75,0-1-.29-.29-.71-.25-1,0h0Z"/><path d="M99.96,159.54c-.19-.16-.39-.26-.63-.32-.04,0-.08-.02-.11-.03-.1-.03,.03,.02,.03,.01,0,0-.17-.12-.2-.13-.04-.02-.09-.04-.13-.06-.02,0-.15-.08-.08-.04,.07,.04-.04-.03-.05-.04-.04-.03-.08-.07-.12-.1-.21-.19-.41-.31-.67-.4-.02,0-.12-.06-.05-.02,.08,.05-.05-.03-.06-.04-.03-.02-.06-.04-.1-.06-.15-.1,.06,.06-.02-.02-.13-.13-.27-.25-.4-.38s-.3-.24-.47-.33c-.04-.02-.08-.04-.12-.06-.02,0-.03-.02-.05-.03-.04-.03-.03-.02,.04,.03-.06-.01-.15-.14-.2-.18-.26-.26-.74-.28-1,0s-.28,.72,0,1c.15,.15,.31,.29,.49,.4,.07,.04,.14,.07,.21,.11,.03,.01,.12,.1,.05,.02s0,.01,.02,.02c.29,.28,.58,.59,.95,.77,.11,.06,.23,.1,.35,.14,.08,.03,.03,.02-.02,0-.11-.06-.02-.02,.02,.02,.17,.15,.35,.32,.55,.42,.18,.09,.35,.21,.54,.28,.08,.03,.15,.05,.23,.07,.03,0,.06,.02,.09,.03,.06,.02,.06,.02,0,0-.04-.01-.08-.04-.11-.07,.28,.24,.73,.3,1,0,.24-.26,.3-.75,0-1h0Z"/><path d="M95.98,158.74c1.45,0,1.45-2.25,0-2.25s-1.45,2.25,0,2.25h0Z"/><path d="M95.82,158.42c1.45,0,1.45-2.25,0-2.25s-1.45,2.25,0,2.25h0Z"/><path d="M95.67,158.91c.02,.13,.08,.24,.13,.36,.01,.03,.03,.06,.04,.09l.02,.05c-.04-.09-.05-.11-.03-.05,0,0,.12,.27,.15,.33,0,0,.05,.07,.05,.09-.04-.09-.04-.1-.02-.03l.02,.05c.06,.19,.14,.38,.22,.56,.04,.1,.08,.19,.12,.29,.06,.14,0,0,0-.01,.03,.02,.03,.16,.04,.19,.04,.21,.14,.4,.22,.59,.02,.04,.04,.09,.06,.13,0-.02-.04-.14-.03-.04,.01,.11,.06,.24,.11,.33,.25,.45,.75,.48,1.21,.42,.05,0,.11-.01,.16-.02-.03,0-.18,0-.06,.01,.08,0,.16,.02,.24,.02s.15,0,.22,0c.05,0,.1,0,.14,0,.03,0,.22-.01,.1,0-.1,0,.01,0,.05,.01s.06,.01,.09,.02c.17,.03,.3,.05,.47,0,.32-.08,.5-.32,.61-.61,.12-.31,.16-.66,.06-.98-.03-.09-.06-.18-.11-.25-.07-.11-.12-.16-.21-.23l-.07-.06c.22,.51,.3,.6,.23,.25-.07-.26-.3-.48-.55-.59-.17-.08-.35-.13-.52-.19s-.37-.11-.57-.11c-.37,.01-.73,.24-.83,.61-.03,.1-.03,.2-.03,.31,0,.08,.02,.16,.04,.24,.05,.2-.04,0,.02-.21l.5-.5c.24-.05,.43,0,.6,.15-.09-.08,.07,.08,.06,.09,0,0-.07-.12-.08-.13-.03-.05-.05-.11-.08-.17,.11,.23,0,.02-.02-.04-.11-.29-.2-.58-.41-.82-.25-.28-.76-.27-1,0-.27,.3-.26,.71,0,1-.18-.21-.08-.11-.04-.02,.03,.06,.06,.18-.02-.05,0,.03,.02,.06,.03,.08,.08,.19,.15,.38,.23,.56,.2,.46,.55,.82,1.1,.71,.24-.05,.42-.27,.5-.5,.04-.14,.03-.29,0-.43,0-.04-.05-.22-.03-.07,0,.07,0,.09,0,.05,0-.11-.04-.04-.15,.23-.14,.24-.1,.25-.31,.3-.14,.03,.05,.02-.07,0s0,0,.03,.02c.1,.03,.19,.07,.29,.1,.03,0,.05,.02,.08,.03,.02,0,.15,.06,.03,0-.1-.04-.01,0,0,0,.03,.02,.02,.01-.02-.02-.04-.03-.08-.06-.1-.11l-.1-.36c.01,.28,.14,.63,.41,.76-.26-.12-.27-.46-.2-.22,.02,.07,0,.16,0-.08,0,.07,0,.05,.01-.07,0,.03-.01,.06-.02,.09-.01,.05-.03,.11-.05,.16-.02,.07-.01,.05,.03-.07,.06-.1,.16-.16,.28-.18,.22-.06,.28-.09,.17-.09,.13,.02,.15,.02,.06,0-.31-.08-.62-.04-.94-.06-.17-.01-.31,0-.48,.02-.15,.03,.18-.01,.03,0-.05,0-.11,.01-.16,.01-.03,0-.05,0-.08,0,.18,0,.33,.09,.44,.27,.09,.16,.05,.1,.03,.03-.04-.17-.12-.33-.2-.49l-.05-.1c-.03-.07-.03-.07,0,.01-.02-.01-.03-.14-.03-.16-.03-.19-.11-.36-.19-.54l-.04-.1,.03,.07c-.03-.07-.06-.14-.08-.21-.07-.18-.12-.36-.2-.53-.02-.05-.04-.09-.07-.14-.02-.03-.03-.06-.05-.09,.04,.09,.04,.1,.02,.03-.03-.07-.12-.22-.13-.31,.04,.09,.04,.1,.01,.03-.01-.03-.02-.06-.02-.09-.06-.37-.53-.61-.87-.5-.4,.13-.56,.48-.5,.87h0Z"/><rect x="82.78" y="18.63" width="3.99" height="2.93" transform="translate(169.57 40.11) rotate(179.95)"/><rect x="83.27" y="98.4" width=".63" height="2.43" transform="translate(167.27 199.16) rotate(179.95)"/><g><polygon class="i" points="77.85 164.12 75.95 167.31 95.81 167.29 94.02 164.12 77.85 164.12"/><path d="M75.4,167.63l2.27-3.82h16.54l2.14,3.8-20.95,.02Zm2.63-3.19l-1.52,2.55,18.76-.02-1.43-2.54h-15.81Z"/></g><g><line class="i" x1="93.44" y1="151.71" x2="93.46" y2="164.05"/><rect x="93.13" y="151.71" width=".63" height="12.34"/></g></g></g></g></g></svg>