<?xml version="1.0" encoding="UTF-8"?><svg xmlns="http://www.w3.org/2000/svg" xmlns:xlink="http://www.w3.org/1999/xlink" viewBox="0 0 195.08 444.33"><defs><style>.f{fill:url(#e);}.g{fill:url(#d);}.h{fill:#f7931e;}.i{fill:#fff;}.j{fill:#d4d6d5;}</style><linearGradient id="d" x1="-730.5" y1="267.49" x2="-729.21" y2="376.51" gradientTransform="translate(-631.96) rotate(-180) scale(1 -1)" gradientUnits="userSpaceOnUse"><stop offset="0" stop-color="#e55900"/><stop offset=".05" stop-color="#e46006" stop-opacity=".92"/><stop offset=".2" stop-color="#e17b1b" stop-opacity=".64"/><stop offset=".34" stop-color="#df912c" stop-opacity=".41"/><stop offset=".48" stop-color="#dea23a" stop-opacity=".23"/><stop offset=".6" stop-color="#dcae43" stop-opacity=".11"/><stop offset=".71" stop-color="#dcb649" stop-opacity=".03"/><stop offset=".78" stop-color="#dcb94c" stop-opacity="0"/></linearGradient><linearGradient id="e" x1="-720.09" y1="263.9" x2="-720.71" y2="376.38" gradientTransform="translate(-631.96) rotate(-180) scale(1 -1)" gradientUnits="userSpaceOnUse"><stop offset="0" stop-color="#d3a71d"/><stop offset=".2" stop-color="#d9b33c" stop-opacity=".66"/><stop offset=".4" stop-color="#debd56" stop-opacity=".38"/><stop offset=".56" stop-color="#e1c469" stop-opacity=".17"/><stop offset=".68" stop-color="#e4c974" stop-opacity=".05"/><stop offset=".76" stop-color="#e5cb79" stop-opacity="0"/></linearGradient></defs><g id="a"/><g id="b"><g id="c"><g><path class="g" d="M9.95,331.75c-3.52,22.47,7.88,52.47,31.55,77.25,31.55,33.02,73.41,44.69,95.6,27.33,24.03,2.43,44.51-4.4,53.44-20.2,11.68-20.69,0-50.43-26.44-73.44,4.94-13.48,2.2-29.19-8.38-40.28-5.22-5.47-11.67-9.08-18.5-10.82,1.64-14.49-3.98-31-16.38-43.98-1.99-2.09-4.1-4.01-6.28-5.75,4.16-10.83,2.07-23.53-6.44-32.42-11.78-12.32-31.38-12.7-43.79-.84-8.26,7.89-11.24,19.23-8.82,29.57-.33,.28-.65,.57-.97,.88-7.6,7.26-11.24,17.35-11.12,28.14-11.11-1.32-22.7,2.15-31.42,10.5-15.23,14.55-16.06,38.51-2.07,54.06Zm19.88,11.86c-1.33-6.95-1.38-14.53,.11-22.27,1.47-7.66,4.28-14.61,8.03-20.53,3-4.72,6.58-8.78,10.57-12,3.54-2.84,7.37-5.03,11.38-6.44-.93-3.19-1.21-6.52-.8-9.78,.39-3.12,1.42-6.17,3.12-8.99,1.66-2.74,3.82-5.02,6.31-6.78,7.95-5.63,19.28-6.14,28.69-.43,.95,.58,1.87,1.21,2.73,1.87,10.09,7.87,13.38,21.47,7.34,32.01,2.69,.44,5.41,1.14,8.11,2.08,3.43,1.19,6.81,2.77,10.11,4.76,3.12,1.88,5.95,4.03,8.48,6.36,8.5,7.84,13.54,17.8,14.12,27.33,.34,5.57-.83,10.97-3.71,15.73-2.29,3.78-5.46,6.79-9.21,9.02-2.67,1.58-5.64,2.75-8.82,3.5,1.73,2.75,3.07,5.77,3.96,8.98,.78,2.8,1.22,5.75,1.28,8.8,.35,19.42-15.2,35.44-34.73,35.8-19.54,.35-35.66-15.1-36.02-34.51-.01-.62-.01-1.25,.04-1.86-1.04-.09-2.08-.22-3.12-.43-7.81-1.5-14.45-5.99-19.38-12.43-4.18-5.42-7.16-12.23-8.59-19.8Z"/><path class="f" d="M29.84,343.6c1.43,7.56,4.4,14.38,8.59,19.8,4.93,6.44,11.57,10.93,19.38,12.43,1.04,.21,2.08,.34,3.12,.43-.05,.61-.05,1.24-.04,1.86,.35,19.42,16.48,34.87,36.02,34.51,19.54-.35,35.09-16.38,34.73-35.8-.06-3.05-.5-5.99-1.28-8.8-.89-3.21-2.24-6.23-3.96-8.98,3.18-.75,6.15-1.92,8.82-3.5,3.76-2.23,6.92-5.24,9.21-9.02,2.88-4.76,4.05-10.17,3.71-15.73-.57-9.53-5.62-19.49-14.12-27.33-2.53-2.34-5.36-4.48-8.48-6.36-3.29-1.99-6.68-3.57-10.11-4.76-2.7-.94-5.42-1.64-8.11-2.08,6.04-10.53,2.75-24.14-7.34-32.01-.86-.66-1.77-1.3-2.73-1.87-9.41-5.71-20.74-5.2-28.69,.43-2.5,1.76-4.65,4.04-6.31,6.78-1.7,2.83-2.73,5.87-3.12,8.99-.42,3.25-.13,6.58,.8,9.78-4.01,1.41-7.84,3.6-11.38,6.44-3.99,3.22-7.57,7.28-10.57,12-3.74,5.92-6.56,12.87-8.03,20.53-1.49,7.73-1.44,15.32-.11,22.27Z"/></g><g><path class="j" d="M76.62,16.4c.09,.41,0,.83,.08,1.24,.05,.28,.15,.45,.12,.67-.12,.84-.28,1.59-.28,2.45s.08,1.77,.08,2.65c0,.98-.06,1.98,0,2.95,.03,.46,.09,.9,.09,1.36,0,.52-.08,1.12,.19,1.59,.52,.91,1.82,.73,2.71,.69,.42-.02,.83-.14,1.25-.14,.51,0,1.02,0,1.53-.02,.94-.03,1.85,.21,2.79,.2,.52,0,1.02-.12,1.54-.14,.57-.03,1.15,0,1.71,0,.92,0,2.25,.06,2.43-1.15l-1.2,.89c-.29,.01,.26,.04,.34,.05,.66,.08,1.24-.61,1.24-1.22,0-.73-.56-1.16-1.22-1.24,.24,.03-.27-.05-.34-.05-.48,.02-1.12,.35-1.2,.89l.05-.08,.45-.44-.09,.04,.62-.16c-.87,.1-1.78,0-2.65,.02-.96,.02-1.87,.24-2.84,.07s-2-.12-3.03-.12c-.47,0-.91,.09-1.38,.14-.22,.02-.45,0-.67,0-.08,0-.8,.01-.59,.04l.54,.32-.07-.06,.31,.55c-.04-.22,.02-.53,.01-.76,0-.34-.03-.67-.07-1.01-.06-.58-.01-1.16-.01-1.74,0-1.12-.07-2.24-.09-3.36,0-.47-.05-1-.02-1.46,.03-.39,.14-.77,.22-1.16,.12-.58,.06-1.04-.05-1.6-.09-.48-.04-1.02-.15-1.53-.33-1.55-2.72-.92-2.38,.63h0Z"/><rect class="i" x="77.32" y="119.69" width="14.02" height="49.55" transform="translate(-.69 .4) rotate(-.27)"/><path class="i" d="M77.66,29.83l12.56-.06c1.58,0,1.61-2.47,.02-2.46l-12.56,.06c-1.58,0-1.61,2.47-.02,2.46h0Z"/><path class="i" d="M76.45,16.09c-.01,.45,.06,.9,.08,1.34,0,.16,.03,.33,.06,.49,.06,.36,.08-.13,0,.11-.1,.27-.1,.65-.12,.94-.07,1.01,.16,1.99,.25,2.87,.03,.26-.04,.53-.02,.79,0,.02,.08,.46,.07,.46,.03-.01,.07-.43-.02-.11-.13,.47-.11,.96-.11,1.52s0,1.07,.05,1.63c.05,.44,.12,.88,.1,1.29l2.46,.02v-.16c0-1.58-2.47-1.61-2.46-.02v.16c0,1.59,2.4,1.61,2.46,.02,.02-.45-.06-.9-.1-1.35-.05-.51-.06-.97-.05-1.48,0-.39,.03-.84,.08-1.15,.05-.35,.02-.58-.01-.93-.02-.2,.02-.44,.02-.66-.03-.95-.31-1.77-.26-2.78,.01-.23,.05-.46,.09-.69,.05-.33,0-.65,0-.95-.03-.44-.09-.94-.08-1.34,.05-1.59-2.42-1.61-2.46-.02h0Z"/><path class="i" d="M78.43,16.88c.26,.19,.5,.15,.78,.24-.16-.03-.17-.02-.03,.02,.17,.03,.33,.05,.5,.06,.51,.02,1.03-.02,1.54-.02,1.02,0,2.04-.04,3.06-.01,.46,.01,.89,.19,1.35,.21,.49,.02,.99-.02,1.49-.02,.97,0,1.94-.14,2.9-.22,.66-.06,1.24-.51,1.24-1.22,0-.62-.55-1.3-1.22-1.24-.89,.08-1.8,.22-2.71,.23-.5,0-1.02,.04-1.52,.01-.41-.02-.82-.17-1.24-.2-.97-.08-1.97,0-2.93,0-.46,0-.92,0-1.38,0-.08,0-.61,0-.5,.01-.2-.02-.4-.08-.61-.09l.62,.17-.08-.06c-.54-.4-1.37-.11-1.69,.43-.37,.62-.11,1.29,.43,1.69h0Z"/><path class="i" d="M88.94,16.94c0,.92,0,1.85,.01,2.77,0,.85-.11,1.7-.21,2.6-.04,.43-.13,.86-.12,1.29,0,.41,.1,.79,.09,1.19-.02,.92,.1,1.84,.14,2.76,.03,.66,.53,1.24,1.22,1.24,.64,0,1.27-.55,1.24-1.22-.04-.89-.16-1.78-.14-2.67,0-.39-.07-.92-.08-1.21-.02-.46,.08-.91,.12-1.37,.09-.87,.21-1.63,.21-2.49,0-.96,0-1.91-.01-2.87,0-1.58-2.47-1.61-2.46-.02h0Z"/><path class="i" d="M88.23,18.25c1.93,0,1.93-3,0-3s-1.93,3,0,3h0Z"/><path class="i" d="M79.1,104.23c.03,.66,.14,1.35,.05,2.01-.1,.71-.35,1.36-.47,2.06-.23,1.34-.21,2.65-.57,3.97-.67,2.44-.28,5-.55,7.47l.92-1.18h-.04l.63,2.39c.44-.15,.91-.08,1.37-.09,.49-.01,.98-.04,1.48-.05,.95-.01,1.88,0,2.82-.09,1.04-.1,2.03-.2,3.08-.2,.53,0,1.06,0,1.58,0,.43,0,.91,.07,1.32-.1,.57-.23,.83-.58,.92-1.18s-.37-1.38-.5-1.96c-.15-.73-.17-1.5-.25-2.24-.07-.55-.32-1.03-.89-1.2-.5-.14-1.15,.07-1.4,.55-.21,.42-.22,1.27-.58,1.55-.3,.24-.9,.43-1.28,.52-.44,.11-.89,.09-1.34,.14-1.8,.16-3.63,.57-5.44,.24l-.35,2.42c1.77,.01,3.53-.05,5.3-.02,.84,.01,1.67,.05,2.51,.04,.73,0,1.47-.06,2-.62,1.08-1.12,.38-3.26,.03-4.55-.4-1.48-.74-2.95-.81-4.5-.03-.71-.05-1.44-.07-2.15-.01-.8,.18-1.77-.16-2.52-.35-.77-1.09-.96-1.87-1.02-.89-.07-1.83-.02-2.72,.03-1.47,.08-2.89,.97-3.38,2.41s-.61,3.29-.78,4.86c-.17,1.54-.84,3.12-.81,4.69,.04,1.95,2.25,1.99,3.72,1.99,.74,0,1.54-.11,2.28-.18,.75-.08,1.68-.21,2.36-.56,1.69-.86,.97-2.75,.78-4.21-.2-1.65-.26-3.36-.3-5.02-.02-.67,.06-1.32-.29-1.93-.45-.79-1.12-1.13-2.02-.96-1.37,.26-2.91,.91-3.62,2.18-.82,1.46-.82,3.34-1.2,4.94-.34,1.4-1.3,3.92,.55,4.66,1.62,.65,3.05-.27,4.55-.71,1.96-.58,1.64-2.77,1.64-4.4,0-1.8,.26-3.91-.86-5.46-.48-.66-1.29-.84-1.93-.27-.57,.51-.76,1.4-1.05,2.09-.37,.88-.7,1.79-1.09,2.66-.37,.81-.81,1.6-1.2,2.4-.32,.66-.84,1.54-.65,2.29,.21,.83,1.01,1.09,1.78,1.03,.96-.08,1.74-.51,2.3-1.3,.44-.63,.66-1.42,.85-2.16,.17-.66,.34-1.54,.35-2.23,.01-1.59-2.45-1.61-2.46-.02,0,.68-.22,1.45-.41,2.1s-.33,1.25-1.12,1.15l.87,.37-.06-.05,.31,.55-.02-.11v.65c.1-.52,.46-1.11,.71-1.6,.37-.73,.74-1.45,1.07-2.2s.58-1.46,.89-2.18c.15-.34,.29-.69,.44-1.03,.06-.15,.12-.31,.19-.46,.05-.13,.19-.27,.06-.15l-1.93-.27c.55,.76,.53,1.57,.53,2.47,0,1.01,.02,2.02-.01,3.03,0,.22-.04,.45-.01,.67,.03,.34-.08,.24,.13,.15-.26,.11-.72,.11-1.04,.28s-.6,.32-.96,.42c-.16,.05-.32,.08-.49,.09-.07,0-.39-.08-.27,.04l.31,.55c-.18-.61,.27-1.61,.41-2.21,.22-.9,.34-1.81,.52-2.71,.14-.68,.2-1.71,.79-2.16,.44-.33,1.18-.64,1.72-.67l-.62-.17,.16,.08-.44-.45c.29,.39,.17,.76,.2,1.28,.03,.61,.08,1.21,.1,1.82,.04,1.38,.14,2.75,.35,4.11,.04,.26,.09,.51,.13,.77,.04,.16,.06,.32,.06,.48,.27-.35,.25-.45-.08-.31-.55,0-1.1,.23-1.66,.25-.61,.02-1.2,.17-1.81,.14-.4-.02-1.17,.06-1.5-.15l.44,.45-.09-.17,.16,.62c-.14-1.19,.42-2.47,.64-3.62,.23-1.17,.27-2.38,.45-3.56,.13-.88,.08-2.02,.98-2.48,.45-.23,1.18-.12,1.68-.12,.55,0,1.2-.12,1.72,.07l-.54-.32,.12,.13-.31-.55c.19,.73,0,1.65,.05,2.41s.03,1.57,.13,2.36,.19,1.63,.33,2.45,.43,1.59,.61,2.41c.08,.36,.19,.72,.25,1.09,.02,.12,0,.31,.05,.43-.07,.3,0,.33,.2,.1,.24-.12,.28-.17,.11-.15-.18-.12-.96,.01-1.2,.02-.47,0-.93-.03-1.39-.05-1.86-.06-3.72,.03-5.58,.02-1.34,0-1.76,2.16-.35,2.42,2.31,.42,4.54-.02,6.84-.19,1.11-.08,2.33-.41,3.27-1.01,.41-.26,.74-.66,.95-1.09,.19-.39,.19-.91,.37-1.26l-2.29-.64c.09,.78,.15,1.56,.25,2.35,.06,.43,.16,.82,.29,1.23,.04,.13,.08,.27,.12,.41,.03,.09,.07,.48,.1,.23l.92-1.18c-.28,.11-.84,.02-1.17,.02-.5,0-1,0-1.5,0-1.05,0-2.07,.13-3.11,.23-.92,.09-1.84,.05-2.76,.07-.99,.03-2.16-.1-3.1,.21-1.51,.5-.93,2.69,.63,2.38h.04c.57-.12,.86-.67,.92-1.19,.05-.43,.11-1.13,.1-1.69,0-.68-.01-1.35,.03-2.02,.08-1.22,.16-2.35,.44-3.55,.15-.64,.28-1.3,.33-1.96s.04-1.32,.19-1.96c.16-.72,.42-1.41,.49-2.16s0-1.45-.04-2.17c-.08-1.58-2.55-1.61-2.46-.02h0Z"/><path class="i" d="M77.07,169.56c0,.12,.05,.46,.05,.46,.01,.07,.01,.06,0-.03,0-.09,0-.1,0-.02-.02,.16,0,.14,0,0,0,.15-.05,.3-.07,.44-.02,.2,0,.4,0,.6,0,.08,0,.16,0,.24v.12c0-.1,0-.11,0-.02-.11,.42-.18,.91-.16,1.34,0,.2,.02-.12,0,.04s-.05,.31-.07,.46c0,.06-.01,.13,0,.19,0,.09,0,.08,0-.03,.01-.18,.09-.33,.23-.47l.55-.31-.06,.02,1.39,.58-.03-.06,.16,.62c.02-.5-.22-.99-.65-1.25-.24-.14-.4-.15-.67-.19-.21-.03,.33,.09-.02-.01l.54,.32-.05-.06,.35,.87c-.04-.39-.11-.73-.41-1.01s-.81-.48-1.24-.34c-.47,.15-.76,.49-1.13,.79l.55-.31c-.14,.05-.28,.1-.41,.17-.02,0-.52,.35-.48,.46-.02-.06,.45-.35,.11-.18-.14,.07-.26,.17-.38,.26-.29,.23-.54,.5-.77,.78-.08,.1-.06,.08,.02,0-.13,.12-.29,.2-.42,.32-.1,.08-.07,.06,.02,0-.1,.07-.19,.13-.28,.2-.17,.13-.33,.27-.49,.41-.06,.05-.11,.09-.17,.14l-.06,.04c.09-.09,.19-.14,.31-.16l1.37,1.82c-.16,.21,.06-.03,.09-.05-.17,.17,.05-.03,.09-.06,.16-.1,.31-.2,.47-.31,.39-.26,.76-.53,1.15-.79,.44-.28,.77-.62,1.01-1.09,.1-.21,.23-.45,.3-.67,.03-.11,.06-.21,.07-.32l-.05,.11c.08-.12,.07-.11-.02,0,.41-.5,.54-1.25,.02-1.74-.44-.42-1.3-.55-1.74-.02-.22,.27-.43,.52-.54,.87-.03,.09-.06,.2-.07,.3l.06-.11c-.02,.06-.05,.11-.08,.17-.04,.09-.08,.18-.13,.26-.02,.03-.17,.25-.06,.11,.06-.07,.05-.07-.02,.01,.1-.08,.11-.09,.03-.04-.11,.05-.2,.13-.3,.19-.39,.25-.75,.54-1.14,.79-.49,.32-.9,.64-1.25,1.11-.3,.38-.18,1.02,.08,1.37s.83,.63,1.29,.45c.41-.15,.72-.4,1.05-.68,.08-.07,.16-.15,.25-.22-.07,.06-.14,.1-.02,.03,.14-.09,.28-.2,.41-.31,.17-.15-.08,.04,.03-.03,.36-.24,.59-.56,.9-.86,.07-.07,.14-.15,.22-.2-.13,.09-.03,.05,.06,0,.31-.16,.49-.38,.69-.66l-.45,.44-.15,.05c.16-.04,.3-.11,.42-.22,.1-.08,.19-.15,.28-.24,.05-.05,.1-.1,.14-.15-.1,.13-.06,.04,.03,0l-.95,.11h.04l-.54-.31,.05,.06-.35-.87c.06,.56,.26,1.03,.8,1.27,.12,.05,.2,.08,.33,.1,.12,.02,.24,.04,.36,.05,.14,.01,.1,0-.14-.01l-.54-.32,.05,.06-.35-.87c.02,.3,.07,.53,.19,.81,.2,.44,.92,.77,1.39,.58,.72-.29,1.04-.78,1.1-1.54,0-.03,0-.34,0-.15-.02,.11-.01,.09,0-.06l.05-.33c.03-.25,.02-.51,.06-.76-.03,.21,.04-.15,.04-.18,.03-.17,.06-.34,.08-.51,.02-.22,0-.44,0-.66,0-.01,0-.41-.02-.15,0-.17,.06-.34,.08-.51,0-.09,0-.18,0-.28l-.04-.33c-.03-.14-.03-.12,0,.06,0-.64-.55-1.27-1.22-1.24s-1.24,.53-1.24,1.22h0Z"/><path class="i" d="M74.88,179.07s.15-.21,.02-.05,0,.02,.02-.01c.08-.08,.16-.15,.24-.23,.18-.16,.35-.33,.53-.49,.37-.35,.75-.7,1.15-1.02,.04-.03,.09-.06,.13-.1-.05,.05-.19,.14-.06,.04,.1-.07,.2-.14,.3-.22,.26-.19,.52-.38,.77-.58,.19-.15,.38-.31,.56-.48,.05-.04,.09-.08,.14-.13,.14-.13-.1,.07-.1,.07,0-.01,.1-.06,.11-.07-.19,.07-.24,.09-.14,.06,.03,0,.07-.02,.1-.02,.64-.11,1.06-.91,.88-1.51-.21-.68-.83-.99-1.51-.88-.65,.11-1.09,.63-1.57,1.03-.09,.08-.2,.15-.29,.23,.24-.22,.05-.04,0,0-.04,.03-.09,.06-.13,.1-.28,.2-.56,.41-.84,.63-.42,.33-.82,.7-1.21,1.07-.42,.39-.9,.77-1.2,1.27-.33,.56-.16,1.37,.43,1.69,.58,.32,1.34,.17,1.69-.43h0Z"/><path class="i" d="M76.46,179.09h.21l-.62-.18c-.25-.34-.32-.36-.18-.06,0,.09,0,.18,0,.26,.03,.3,0,.61,0,.91,0,.6,.06,1.23-.02,1.83-.15,1.06-.62,2.03-.77,3.08l.17-.62-.12,.23c-.41,.8,.06,1.88,1.05,1.86,1.97-.04,3.89-.19,5.87,0,.97,.09,1.93-.03,2.9-.06,1.07-.03,2.12-.04,3.19-.01,1.6,.04,1.59-2.34,.02-2.46s-3.04-.19-4.59-.19c-.97,0-2.8,.3-3.37-.61-.61-.96-1.36-2.16-1.64-3.26-.16-.62-.2-1.17-.21-1.81,0-.33,0-.6,.1-.92,.06-.14,.12-.29,.18-.43,.09-.25,.05-.21-.11,.11l-2.05-.56c.43,1.13,.57,2.55,.69,3.74,.06,.61,.1,1.23,.12,1.84,.01,.29,0,.59,0,.88,0,.19-.01,.39-.03,.58-.1,.45-.02,.4,.24-.16l1.49,.21c.6,.66,.09,.6,.33,.23,.18-.27,.26-.75,.36-1.06,.22-.66,.35-1.34,.44-2.03,.18-1.43,.16-2.92,.07-4.35-.11-1.56-2.52-1.62-2.46-.02s.55,3.06,.82,4.57c.13,.73,.2,1.48,.3,2.21s.2,1.55,.9,1.98c.63,.38,1.38,.16,2.04,.02,.84-.17,1.68-.37,2.54-.41,.81-.04,1.61,.01,2.42,.03,.76,.02,1.55,.29,2.29,.07,1.01-.29,1.24-1.69,.32-2.25-.53-.32-1.03-.19-1.59-.2-.66-.01-1.55-.08-2.29-.1-.89-.03-1.78-.02-2.67-.02-.18,0-.36,0-.53,0-.11,0-.23,0-.34,0l-.08,1.27c.14,.11,1.08-.06,1.24-.06,.82-.02,1.64-.04,2.46-.03s1.69,.27,2.45,.11c1.41-.29,3.33-.76,3.09-2.55-.08-.57-.68-.86-1.18-.92-1.46-.17-3.01-.17-4.48-.19-1.33-.02-2.99,.33-4.26-.16l.73,.57-.08-.16,.11,.95c0-.12,.04-.22,.14-.29l-.74,.56c.84-.33,2.13-.07,3.01-.02,1.11,.06,2.21,.1,3.32,.14,1.29,.05,3.79,.27,3.85-1.65,.06-1.98-3.45-1.85-4.75-1.86-.99,0-1.99,.07-2.97,.16-.46,.04-.92,.13-1.39,.14-.24,0-.47-.01-.7-.03-.36-.03-.24-.15-.19,.05v.65l.05-.15-.57,.73c.49-.35,1.6-.2,2.2-.22,1.04-.03,2.08-.03,3.12-.03,1.39,0,4.07,.33,4.75-1.31,.37-.89-.29-1.71-1.13-1.98s-1.87-.23-2.75-.18c-1.02,.05-2.03,.2-3.05,.31-.54,.06-1.08,.12-1.62,.17-.22,.02-.43,.03-.65,.04-.14,.02-.29,.03-.43,.03-.24-.04-.24,.08,0,.34l-.17,.62c-.24,.14-.28,.18-.13,.13,.12-.04,.24-.04,.36-.02,.28,0,.56,.07,.84,.11,.57,.09,1.13,.16,1.7,.2,1.16,.08,2.37,.15,3.54,.09,1.1-.05,2.24-.43,2.29-1.73,.04-1.08-.69-1.67-1.63-2.01-2.12-.77-4.6-.24-6.78-.05-.23,.02-.46,.04-.7,.03-.13,0-.26,0-.39-.02-.2-.08-.24-.08-.11,.03,.13,.26,.07-.4,.07-.48,0-.3,.04-.6,.04-.9,.02-1.22-.03-2.4,.24-3.6l-2.38-.02c.3,.84,.2,1.89,.25,2.77,.04,.79,.01,1.67,.2,2.44,.3,1.22,2,1.14,2.38,.02,.46-1.4,.58-2.85,1-4.25l-2.42-.35c.09,1.6-.48,3.19-.18,4.77,.24,1.27,2.01,1.09,2.38,.02,.26-.77,.48-1.56,.68-2.35,.15-.62,.21-1.71,.56-2.19l-2.29-.64c.07,.66,.11,1.32,.15,1.99s-.06,1.29,.29,1.88c.54,.92,1.94,.74,2.25-.27,.22-.72,.34-1.63,.71-2.28l-2.29-.64c.11,1.35-.11,2.7,.16,4.03,.25,1.23,2.05,1.14,2.38,.02,.19-.63,.36-1.27,.52-1.91,.1-.42,.04-1.05,.35-1.38l-2.05-.56c.24,.85,.37,1.71,.47,2.58,.1,.94,1.31,1.78,2.09,.89,.81-.93,.53-2.32,1.14-3.34l-1.94,.23c-.24-.23-.08-.15-.02,.16,.04,.2,.05,.41,.08,.62,.05,.45,.11,.89,.21,1.34,.22,1,1.77,1.25,2.25,.32,.28-.55,.58-1.08,.88-1.63,.76-1.39-1.36-2.66-2.12-1.26-.3,.55-.6,1.08-.88,1.63l2.25,.32c-.22-1.03-.06-2.43-.89-3.21-.57-.54-1.52-.47-1.94,.23-.28,.48-.43,.98-.56,1.52-.06,.26-.12,.51-.18,.77-.04,.17-.39,.99,0,.55l2.09,.89c-.12-1.09-.25-2.18-.55-3.24-.24-.86-1.41-1.26-2.05-.56-.54,.58-.81,1.19-.92,1.97-.11,.81-.36,1.61-.6,2.39l2.38,.02c-.22-1.07,0-2.27-.08-3.38s-1.64-1.79-2.29-.64c-.49,.86-.67,1.92-.96,2.87l2.25-.27-.11-.19,.16,.62c.11-.98-.05-2.08-.16-3.05-.14-1.22-1.54-1.69-2.29-.64-.48,.67-.55,1.68-.74,2.48-.22,.89-.45,1.78-.75,2.64l2.38,.02c-.13-.66,.11-1.47,.18-2.14s.12-1.31,.08-1.97c-.07-1.35-2-1.73-2.42-.35-.42,1.4-.54,2.86-1,4.25l2.38,.02c-.42-1.67,.14-3.58-.45-5.22-.38-1.05-2.09-1.31-2.38-.02-.34,1.52-.29,3.01-.35,4.56-.05,1.44-.03,2.92,1.6,3.4,1.41,.41,3.01,0,4.44-.1,.72-.05,1.44-.1,2.16-.09,.36,0,.68,.04,1.03,.13,.15,.04,.29,.09,.44,.14,.17,.06,.12-.03-.17-.28l.17-.62c.15-.3,.33-.15-.1-.2-.21-.02-.45,0-.66,0-.49,0-.97-.02-1.46-.03-.94-.03-1.85-.1-2.78-.25-1.43-.23-4.14,0-3.55,2.18,.57,2.08,3.18,1.52,4.75,1.34,.96-.11,1.93-.24,2.89-.32,.53-.04,1.06-.06,1.6-.05,.3,0,.76-.03,.99,.14l-.56-.74,.04,.14,.13-.95c.3-.53,.3-.18,.12-.17-.01,0-.35,.1-.46,.11-.5,.06-1.04,.02-1.54,.02-1.1,0-2.2-.01-3.31,.01-1.35,.03-4.79-.26-4.58,1.93,.21,2.2,2.97,2,4.51,1.84,.98-.1,1.98-.17,2.97-.18,.51,0,1.02,.02,1.53,.06,.27,.02,.53,.05,.79,.09,.16,.02,.83,.29,.5,.03l-.35-.87-.02,.13,.17-.62,.29-.24c-.16,.03-.21,.04-.13,.04,.06,.02-.56,.01-.4,.01-.48,0-.97-.03-1.45-.04-1.05-.04-2.1-.08-3.15-.13-1.58-.09-4.65-.61-4.83,1.71-.16,2.18,3.11,1.8,4.47,1.78,1.93-.03,3.95-.05,5.87,.18l-1.18-.92,.02,.16,.13-.95c.11-.21,.33-.11,.11-.16-.15-.03-.51,.17-.66,.21-.35,.11-.72,.23-1.08,.28h.65c-1.64-.24-3.26-.23-4.92-.18-.73,.02-1.71-.05-2.33,.42-.66,.51-.79,1.39-.5,2.14,.61,1.59,2.77,1.14,4.11,1.15,.86,0,1.73,.04,2.59,.06,.41,0,.82,.03,1.23,.02,.37-.05,.44-.06,.21-.02-.14,.02-.16,.02-.06,.02,.04,0,.09,0,.13,0,.18,.01,.1-.02-.25-.11l.32-2.25c-.44,.13-1.15-.14-1.64-.15-.65-.02-1.28-.06-1.93-.04-.74,.02-1.47,.1-2.2,.22-.35,.06-.69,.13-1.04,.2-.18,.04-.87,.06-.98,.19,.65,.73,.89,.84,.71,.33l-.03-.16c-.05-.31-.09-.62-.13-.93-.1-.71-.15-1.41-.29-2.11-.23-1.19-.64-2.4-.68-3.62l-2.46-.02c.11,1.64,.19,3.45-.21,5.06-.3,1.21-1.31,2.78-.29,3.91,.38,.42,1.01,.45,1.49,.21,1.48-.76,1.05-3.2,.97-4.57-.05-.82-.14-1.63-.28-2.44-.15-.87-.23-1.82-.54-2.65-.32-.84-1.34-1.27-2.05-.56-1.08,1.08-1.08,3.3-.81,4.69,.32,1.63,1.21,3.06,2.01,4.48,.37,.66,.94,1.39,1.69,1.63s1.75,.35,2.56,.34c1.98-.01,3.91,.03,5.88,.18l.02-2.46c-1.07-.03-2.12-.02-3.19,.01-.97,.03-1.93,.15-2.9,.06-1.97-.19-3.89-.03-5.87,0l1.05,1.86c.73-1.4,1.09-3.27,1.08-4.84,0-1.46,.34-4.36-1.86-4.33-1.58,.02-1.61,2.49-.02,2.46h0Z"/><path class="i" d="M87.44,173.42c1.93,0,1.93-3,0-3s-1.93,3,0,3h0Z"/><path class="i" d="M85.73,172.08c-.78,0-1.56-.06-2.34,0-.46,.03-.92,.1-1.38,.19s-.93,.15-1.25,.53c-.22,.26-.37,.52-.37,.87,0,.3,.13,.66,.35,.87,.45,.42,1.3,.55,1.74,.02,.13-.16-.25,.14-.11,.07l-.3,.12c.18-.05,.37-.07,.56-.11,.22-.04,.45-.08,.67-.11l-.33,.04c.9-.11,1.81-.03,2.72-.03,.64,0,1.27-.55,1.24-1.22s-.53-1.25-1.22-1.24h0Z"/><path class="i" d="M87.5,170.12c-.24-.07-.42-.2-.55-.41,.02,.04,.04,.07,.06,.11,.1,.18-.11-.29,0,.02,.07,.21,.15,.41,.24,.61,.03,.06,.06,.12,.09,.18-.06-.14-.06-.15-.01-.02,.04,.13,.08,.25,.12,.38,.03,.1,.05,.19,.07,.29,.01,.06,.09,.49,.03,.17,.1,.54,.13,1.14,.12,1.69,0,.11-.01,.22-.02,.34-.02,.15-.01,.15,0,0-.02,.14-.04,.28-.06,.42,0,.13-.01,.26,0,.38,0,.14,0,.13,.01-.05,.08-.14,.08-.15,0-.03l1.07-.6,.75,.31,.14,.18s-.1-.21,0,0-.02-.08-.04-.14c-.04-.14-.07-.27-.12-.4-.22-.65-.43-1.27-.88-1.81-.42-.5-1.31-.48-1.74-.02-.49,.52-.46,1.21-.02,1.74-.29-.34,.11,.18,.08,.18-.06-.14-.07-.17-.04-.09,.02,.04,.03,.08,.05,.13,.03,.07,.05,.14,.07,.21,.06,.19,.13,.38,.18,.58,.22,.81,.62,1.53,1.54,1.6,.44,.03,.84-.25,1.07-.6,.25-.38,.33-.81,.34-1.26,0-.08,.01-.16,0-.24,0-.07,0-.06,0,.01-.03,.17-.01,.08,.04-.27,.02-.17,.03-.33,.04-.5,.02-.75-.08-1.53-.19-2.27-.04-.3-.11-.59-.2-.87-.07-.21-.16-.42-.24-.62-.03-.07-.06-.17-.1-.23,0,0,.12,.32,.07,.16-.09-.28-.19-.56-.33-.82-.22-.41-.54-.65-.96-.82-.6-.24-1.38,.25-1.52,.85-.17,.71,.2,1.26,.85,1.52h0Z"/><path class="i" d="M86.39,173.21c.28,.81,.82,1.61,1.77,1.62s1.65-.84,2-1.66c.3-.72,.3-1.44,.17-2.2-.13-.74-.23-1.36-.14-2.15l-2.3,.6c-.06-.13,.08,.27,.09,.33,.03,.13,.05,.26,.08,.39,.07,.34,.14,.69,.2,1.03,.13,.74,.24,1.49,.37,2.24,.13,.76,.18,1.38,.31,2.1,.11,.63,.29,1.46,.65,2.01,.37,.55,1.08,.8,1.68,.46,.55-.31,.83-1.12,.46-1.68-.07-.11-.07-.11-.02,0-.02-.07-.05-.13-.07-.2-.05-.14-.08-.27-.12-.41-.07-.26-.18-.68-.21-.86-.11-.79-.22-1.57-.35-2.35-.12-.72-.22-1.45-.36-2.17s-.25-1.44-.57-2.11c-.23-.49-.89-.71-1.39-.58-.56,.15-.86,.63-.92,1.18-.05,.49-.03,1.03,.01,1.51,.03,.32,.08,.64,.15,.95,.02,.11,.05,.23,.07,.34,.07,.37,.02-.08,.02,.18,0,.03,0,.31,0,.14s-.03,.12-.04,.15c-.03,.11-.06,.22-.11,.32,.08-.19-.04,.03-.07,.09-.1,.17,.05,0-.03,.03-.06,.06-.05,.05,.05-.04h.84s.29,.31,.16,.13c-.14-.2,.07,.2-.01-.03-.21-.63-.83-1.05-1.51-.88-.61,.16-1.09,.87-.88,1.51h0Z"/><path class="i" d="M89.47,170.48s-.2-.31-.14-.39c-.03,.04,0,.23,.01,.3,.01,.17,.03,.35,.08,.52,.13,.31,.16,.39,.1,.24-.03-.08-.03-.07,0,.03,.29,.68,.82,1.04,1.49,1.32,.23,.09,.45,.17,.69,.24l.11,.03c.21,.07,.14,.01-.22-.17l-.17-.28c.04,.12,.09,.23,.15,.34,.26,.48,.73,.83,1.14,1.17,.24,.2,.48,.4,.73,.59,.09,.07,.22,.13,.3,.21-.16-.14,.08,.13,.11,.16,.17,.19,.34,.37,.51,.56,.21,.25-.07-.16,.07,.13,.05,.09,.1,.17,.16,.26,.36,.51,.82,.85,1.33,1.19,.1,.07,.21,.14,.31,.21,.21,.15-.1-.08,.17,.13,.09,.07,.19,.14,.28,.21,.25,.18-.06-.04-.11-.13l-.16-.62,.03-.16-.05,.33c0,.19,.04,.4,.11,.57,.06,.15,.09,.2,.19,.33,.03,.05,.07,.1,.12,.15,.07,.07,.03,.03-.1-.12l-.16-.62v.08c.01,.64,.54,1.27,1.22,1.24s1.26-.53,1.24-1.22c0-.27-.04-.5-.18-.74-.05-.11-.11-.2-.2-.28-.13-.15-.07-.05,.18,.3v.65c.09-.53,.05-1.01-.33-1.43-.17-.19-.38-.34-.59-.47-.08-.06-.09-.06-.02-.01,.13,.1,.07,.05-.2-.16-.1-.08-.2-.15-.3-.22-.17-.12-.51-.33-.6-.39,.05,.04-.16-.16-.19-.2,.12,.15,0-.04-.04-.1-.15-.26-.34-.49-.53-.72-.18-.21-.37-.42-.56-.62-.14-.15-.3-.28-.47-.4-.03-.02-.29-.19-.16-.1-.22-.16-.43-.35-.64-.53-.11-.09-.21-.18-.31-.28-.06-.05-.11-.1-.16-.15-.08-.09-.09-.1-.03-.02,.1,.35,0-.09-.1-.24-.09-.14-.19-.26-.31-.37-.26-.25-.58-.35-.92-.45-.12-.03-.23-.07-.35-.1-.08-.03-.15-.05-.23-.08,.09,.04,.1,.04,.02,0-.07-.04-.22-.18-.3-.19l.35,.48c-.05-.13-.1-.25-.15-.38,.02,.06,.08,.38,.07,.11,0-.16-.03-.36-.06-.5-.07-.34-.23-.72-.51-.94-.5-.4-1.25-.54-1.74-.02-.41,.44-.55,1.31-.02,1.74h0Z"/><path class="i" d="M99.81,179.51c0-.22,0-.44,0-.65,0-.26-.01-.51-.07-.76-.04-.16-.11-.31-.18-.47-.03-.07-.06-.13-.1-.19-.07-.11-.15-.22-.24-.32-.02-.03-.04-.05-.07-.07-.25-.22-.35-.27-.66-.4-.16-.05-.33-.06-.49-.03-.16,0-.32,.05-.46,.14-.14,.08-.26,.18-.35,.31-.11,.12-.18,.26-.22,.42-.07,.31-.06,.67,.11,.95l.19,.25c.15,.15,.33,.26,.54,.32h.02l-.29-.12s.05,.03,.08,.05l-.25-.2s.08,.07,.11,.11l-.19-.25c.06,.07,.1,.16,.13,.24l-.12-.3c.04,.09,.06,.19,.08,.29l-.04-.33c.02,.15,0,.3,0,.44,0,.17,0,.35,0,.52,0,.32,.13,.65,.35,.87,.11,.12,.24,.21,.39,.26,.15,.08,.3,.12,.47,.11,.32-.01,.65-.11,.87-.35s.37-.54,.37-.87h0Z"/><path class="i" d="M97.9,177.79c-.22,.02,.19,.08,.07,.03-.22-.09-.02,.05,.03,.03-.04,.02-.3-.16-.34-.19-.24-.14-.46-.32-.71-.45-.13-.07-.26-.14-.39-.21-.15-.08-.31-.14-.47-.21-.2-.09,.04,0,.04,.02,0-.01-.37-.2-.4-.22-.09-.06-.34-.18-.39-.27,.04,.07,.14,.11,.02,0s-.24-.2-.36-.29-.28-.19-.42-.24c-.11-.04,.17,.19,.04,.02-.04-.05-.09-.1-.14-.15-.09-.1-.18-.2-.27-.3-.18-.21,.08,.15,0,0-.03-.06-.08-.12-.11-.19-.07-.13-.14-.25-.22-.36-.12-.16-.25-.32-.38-.48s-.08-.02,0,.02c-.05-.02-.11-.17-.13-.21-.31-.57-1.13-.81-1.68-.46-.57,.36-.79,1.08-.46,1.68,.11,.2,.26,.39,.4,.57,.04,.05,.09,.11,.13,.16,.03,.03,.05,.06,.08,.1,.06,.07,.04,.04-.06-.09,.08,.02,.17,.3,.21,.37,.12,.2,.27,.39,.41,.57,.23,.29,.49,.56,.79,.78,.13,.1,.29,.2,.44,.26,.13,.05-.15-.13,.03,.02,.13,.11,.26,.21,.4,.32,.26,.19,.53,.38,.83,.51,.14,.06,.27,.13,.41,.18-.28-.1,0,.02,.05,.04,.14,.08,.29,.15,.42,.23,.64,.38,1.27,.93,2.07,.87,.64-.05,1.27-.52,1.24-1.22-.02-.62-.53-1.29-1.22-1.24h0Z"/><path class="i" d="M92.97,176.85l.09,.12-.31-.55,.05,.14c.21,.58,.7,.99,1.34,.9,.59-.08,1.08-.57,1.08-1.2,0-1-.65-1.95-1.22-2.74-.51-.71-1.29-1.71-2.15-1.95-.5-.14-1.14,.07-1.4,.55-.5,.94-.49,2.14-.49,3.18,0,.48,.01,.95-.02,1.43-.05,.61,.12,1.21,.23,1.8,.15,.8,1.15,1.12,1.8,.75,.52-.29,.8-.91,.92-1.48l-2.25,.27c-.02-.23-.03-.22-.03,0v.17c.02,.23,.07,.43,.11,.65,.06,.35,.05,.71,.11,1.07s.08,.7,.19,1.03c-.03-.08,.23,.7,.15,.35,.06,.25,.07,.52,.12,.77,.1,.62,.09,1.13,.25,1.82,.08,.31,.13,.62,.18,.94,0,0,.01,.08,.04,.28,.03,.26,.13,.5,.16,.76l1.2-1.55c.11,.03,.09,.03-.05,0-.14-.04-.29-.05-.43-.05-.18,0-.38,.03-.56,0-.45-.06-.9-.14-1.36-.18-.41-.04-.78-.01-1.19-.1-.25-.05-.51-.12-.76-.12-.07,0-.14,0-.21,.01-.23,0-.18,.04,.18,.12l.56,.74-.03-.09v.65c-.08,.33-.2,.21-.03,.12s.35-.27,.51-.39c.36-.28,.73-.55,1.08-.85,.65-.58,1.38-1.32,1.84-2.07l-.74,.56,.13-.05-1.55-1.2c.03,.32-.1,.64-.19,.95-.05,.18-.1,.35-.16,.53-.02,.07-.2,.46-.06,.23l.74-.56-.07,.03h.65l-.12-.02c-.65-.13-1.33,.17-1.52,.85-.17,.6,.19,1.39,.85,1.52,.98,.2,1.57-.3,1.85-1.21,.22-.71,.56-1.55,.48-2.29s-.72-1.5-1.55-1.2c-.64,.23-.96,.73-1.4,1.22-.39,.43-.78,.86-1.24,1.23-.77,.62-2.23,1.32-1.87,2.63,.18,.66,.79,1.02,1.45,1.03,.51,0,.96,.14,1.47,.18s1.05,.02,1.57,.1c.57,.08,1.16,.15,1.72,.14,.88-.01,1.3-.75,1.2-1.55-.09-.68-.24-1.39-.41-2.06-.07-.29-.08-.62-.12-.93,.03,.21,0-.19,0-.23-.01-.25-.09-.44-.13-.68-.14-.71-.36-1.37-.43-2.09-.04-.4-.12-.8-.15-1.2s-.02-.84-.28-1.25c-.54-.82-2.02-.83-2.25,.27-.02,.1-.04,.2-.08,.29-.08,.22,.03-.02-.08,.13l.45-.44-.06,.03,1.8,.75c-.08-.44-.17-.81-.13-1.26,.03-.36,.01-.73,.01-1.09,0-.6-.15-1.61,.14-2.16l-1.4,.55c-.3-.08-.14-.09-.01,.08,.07,.09,.16,.18,.24,.27,.2,.21,.4,.38,.57,.62s.32,.47,.46,.72c.08,.15,.33,.44,.33,.62l2.42-.3c-.11-.32-.25-.55-.46-.81-.4-.53-1.31-.44-1.74-.02-.52,.51-.42,1.21-.02,1.74h0Z"/><path class="i" d="M87.73,185.61c-1.11,.09-2.21,.08-3.32,.09h-.87c-.08,0-.83,.05-.84,.02,.2,.04,.24,.05,.13,.02-.03-.01-.07-.02-.1-.03-.25-.06-.5-.07-.75,0-.62,.16-.92,.7-.97,1.3-.06,.64,.59,1.27,1.22,1.24,.71-.02,1.18-.53,1.24-1.22v-.06l-.17,.62,.02-.04-.45,.44,.03-.02-.62,.16c.18-.02-.37-.06-.08,0,.15,.03,.31,.05,.47,.06,.24,.01,.49-.01,.73-.01h1.46c.95-.01,1.89-.01,2.84-.09,.64-.05,1.27-.51,1.24-1.22-.02-.62-.53-1.3-1.22-1.24h0Z"/><g><path class="j" d="M85.48,30.89c-.14,.29-.29,.58-.49,.84l.2-.25c-.11,.14-.24,.26-.38,.37-.06,.05-.13,.1-.18,.16-.09,.1-.18,.21-.26,.32-.03,.04-.05,.08-.07,.12-.09,.14-.14,.29-.15,.46-.04,.16-.03,.33,.02,.49,.04,.16,.11,.3,.22,.42,.09,.13,.2,.24,.34,.32,.28,.15,.63,.23,.95,.13l.3-.12c.19-.11,.33-.25,.45-.44,.02-.05,.05-.1,.09-.15l-.2,.25c.1-.11,.22-.2,.33-.3,.19-.17,.34-.37,.49-.57,.18-.25,.32-.52,.45-.8,.09-.14,.14-.29,.15-.46,.04-.16,.03-.33-.02-.49-.04-.16-.11-.3-.22-.42-.09-.13-.2-.24-.34-.32-.28-.15-.63-.23-.95-.13-.29,.09-.6,.27-.74,.56h0Z"/><path class="j" d="M76.73,31.78c.12,.2,.27,.39,.38,.59-.11-.19,.09,.3,.1,.32,.13,.49,.31,1,.51,1.47,.34,.77,.71,1.45,1.26,2.1l-.31-.55c-.1-.56,.11,.36,.19,.48,.2,.32,.47,.5,.83,.6,.43,.12,.93,.12,1.37,.12,.86,0,1.74-.19,2.62-.23,.41-.02,.82-.06,1.23-.09,.27-.02,.56-.02,.82-.1,.17-.04,.2-.05,.08-.04,.1,0,.2-.01,.29-.03,.74-.09,1.48-.38,2.19-.46,.66-.07,1.24-.5,1.24-1.22,0-.61-.55-1.31-1.22-1.24s-1.34,.28-1.99,.4c-.19,.04-.39,.07-.59,.1,.14-.02,.13-.02-.04,0-.13,0-.26,.02-.39,.05-.28,.06-.55,.08-.85,.11-.74,.07-1.48,.11-2.22,.18-.64,.06-1.33,.21-1.97,.06l.73,.57-.05-.07,.16,.62c-.04-.47-.22-.77-.48-1.14-.28-.4-.48-.77-.66-1.21-.17-.41-.27-.85-.41-1.27-.15-.47-.36-.82-.68-1.35-.82-1.35-2.97-.14-2.14,1.22h0Z"/><path class="j" d="M89,29.9c-.2,.2-.4,.5-.52,.76-.09,.19-.19,.39-.26,.59-.05,.13-.06,.26-.11,.38l.13-.29c-.1,.17-.2,.35-.25,.55-.03,.11-.06,.23-.1,.33l.13-.29c-.2,.43-.31,.79-.34,1.27l.05-.33c-.04,.2-.07,.39-.08,.59l.17-.62c-.11,.25-.21,.5-.31,.75l.13-.29c-.08,.18-.15,.35-.23,.53l.13-.29c-.08,.17-.15,.33-.21,.5l.13-.29s-.03,.06-.05,.09c-.18,.25-.21,.66-.13,.95s.29,.6,.56,.74c.28,.15,.63,.23,.95,.13s.55-.29,.74-.56c.11-.16,.16-.35,.23-.53l-.13,.29c.08-.18,.15-.36,.23-.54l-.13,.29c.1-.23,.19-.45,.27-.69l-.13,.29c.13-.27,.25-.52,.23-.83l-.05,.33c.04-.23,.07-.45,.09-.68l-.05,.33c.02-.12,.05-.24,.1-.36l-.13,.29c.12-.26,.21-.52,.3-.79l-.13,.29c.08-.18,.2-.35,.26-.54,.04-.13,.06-.26,.12-.39l-.13,.29c.11-.24,.23-.5,.39-.71l-.2,.25,.04-.04c.46-.46,.51-1.28,.02-1.74s-1.26-.5-1.74-.02h0Z"/><path class="j" d="M79.07,32.28c.94,.06,1.77,.26,2.77,.2,.15-.02,.3-.04,.45-.06-.12,.02-.1,.03,.05,.02,.22,0,.44,0,.66,0,.43,.02,.85,.04,1.28,0,.41-.03,.81,.05,1.22,.05,.22,0,.43,0,.65,0,.07,0,.81-.05,.55-.04,.46-.02,.93,0,1.39,0,.26,0,.52,0,.77,0,.08,0,.86-.07,.54-.04,.66-.06,1.24-.5,1.24-1.22,0-.61-.55-1.31-1.22-1.24-.75,.07-1.78,0-2.71,.05-.43,.02-.67,.04-1.2,.04-.41,0-.81-.08-1.22-.05s-.85,.01-1.28,0c-.46-.02-.91,.05-1.37,.06,.1-.03,.07-.03-.1-.02-.12,0-.23,0-.35,0-.25,0-.5,.01-.74,0-.35-.03-.93-.16-1.38-.19-.66-.04-1.24,.58-1.24,1.22,0,.7,.55,1.2,1.22,1.24h0Z"/><path class="j" d="M88.32,31.01c-.21,.4-.42,.88-.57,1.24-.02,.06-.12,.26-.17,.36-.03,.07-.08,.15-.11,.22-.04,.11-.19,.22,0,.07,.32-.25-.07-.06-.27-.03-.16,.03-.29,.03-.47,.04-.48,.03-.91,.12-1.37,.16-.95,.07-1.88,.1-2.83,.06-.44-.02-.6-.09-1.05-.19-.23-.05-.26-.04-.4-.15-.05-.04-.2-.19-.27-.2-.04-.03-.04-.02,.02,.02,.12,.08,.19,.21,.21,.37v.59l-.31,.54,.07-.06-.55,.31c.1-.04,.12-.04,0-.02,.11-.02,.24,0,.36-.01,.24-.01,.48-.03,.72-.03,.56-.01,1.13,.02,1.69-.02s1.14-.08,1.71-.16c.08-.01,.17,0,.05,0,.09,0,.19,.02,.28,.03,.31,.01,.63-.02,.93-.08,.65-.12,1.04-.9,.88-1.51-.18-.68-.85-1-1.51-.88,.17-.03-.34,0-.42-.01-.25-.01-.47,.02-.72,.05-.42,.05-.85,.08-1.27,.1-.93,.05-1.85,0-2.78,.07-.65,.05-1.28,.33-1.49,1-.17,.55,.04,1.09,.43,1.48,.63,.62,1.4,.88,2.27,1.1s1.91,.2,2.82,.15,1.84-.19,2.67-.25c.94-.07,2.09-.21,2.62-1.11,.38-.64,.59-1.35,.94-1.99,.32-.59,.16-1.34-.43-1.69-.55-.33-1.37-.16-1.69,.43h0Z"/><path class="j" d="M83.53,9.8c0,.41,.03,.83-.02,1.24l.05-.33c-.01,.07-.02,.15-.04,.22-.05,.16-.06,.33-.03,.49,0,.16,.05,.32,.14,.46,.08,.14,.18,.26,.31,.35,.12,.11,.26,.18,.42,.22,.31,.07,.67,.06,.95-.11,.26-.17,.5-.42,.57-.73,.08-.34,.12-.69,.12-1.04,0-.25,0-.5-.01-.75,0-.32-.13-.65-.35-.87-.11-.12-.24-.21-.39-.26-.15-.08-.3-.12-.47-.11-.32,.01-.65,.11-.87,.35s-.37,.54-.37,.87h0Z"/><path class="j" d="M78.81,14.5c.77,.46,1.61,.27,2.46,.28,.78,0,1.56,.13,2.34,.15,.43,.01,.86-.02,1.29,0s.84,.11,1.26,.13c.83,.04,1.81,.09,2.63-.08,1.03-.21,1.64-1.27,1.13-2.24-.16-.3-.31-.49-.47-.86s-.32-.78-.55-1.13c-.35-.56-.58-1.19-.83-1.88-.26-.74-.7-1.35-1.12-1.98-.5-.75-.7-1.67-1.19-2.41-.22-.33-.52-.61-.7-.96-.22-.42-.39-.8-.7-1.16-.43-.51-1.29-.46-1.74-.02-.5,.49-.45,1.23-.02,1.74,.18,.21,.32,.7,.52,.99,.29,.41,.58,.73,.79,1.19,.22,.5,.45,1,.7,1.48,.22,.42,.51,.77,.75,1.17,.49,.82,.68,1.78,1.12,2.62,.22,.41,.48,.79,.67,1.22,.1,.22,.18,.45,.29,.67,.06,.12,.12,.22,.19,.33,.04,.06,.25,.43,.17,.27l-.16-.62v.13l.18-.62c.12-.21,.28-.32,.49-.32h-.1c-.16-.05-.43,0-.61,0-.41,0-.81,.02-1.22,.01-.79-.02-1.56-.14-2.35-.14-.71,0-1.45-.01-2.15-.09-.39-.04-.74-.06-1.14-.04-.16,0-.32,.01-.48,.02-.05,0-.32-.04-.2,.03-1.37-.81-2.63,1.31-1.26,2.12h0Z"/><path class="j" d="M82.7,2.59c-.19,.25-.24,.65-.3,.84-.05,.15-.3,.47-.43,.68-.36,.58-.83,1.06-1.06,1.8-.19,.62-.63,1.22-.91,1.83-.14,.3-.28,.58-.47,.85-.22,.32-.3,.6-.46,.91s-.31,.63-.47,.94c-.1,.18-.2,.35-.29,.53-.06,.12-.33,.54-.1,.23-.49,.66-1.05,1.4-.44,2.21,.54,.71,1.44,.47,2.16,.43,.37-.02,.75-.12,1.1-.17,.38-.06,.82-.05,1.22-.12,.78-.12,1.6-.07,2.4-.07,.42,0,.85,0,1.27,0,.21,0,.42-.01,.63-.02,.06,0,.32,.03,.03-.02-.34-.06,.21,.11,.28,.13,.99,.23,1.66-.57,1.53-1.5-.06-.4-.31-.72-.48-1.07-.14-.31-.26-.63-.4-.95-.31-.69-.61-1.37-.96-2.04-.31-.6-.5-1.28-.88-1.87-.07-.14-.05-.09,.05,.13-.05-.12-.1-.25-.15-.37-.04-.09-.08-.18-.12-.27-.14-.29-.35-.59-.65-.75-.5-.26-1.08-.22-1.49,.18-.87,.82-1.41,1.84-1.89,2.92-.25,.57-.44,1.15-.65,1.73s-.58,1.09-.63,1.72,.59,1.31,1.22,1.24c.93-.1,1.82-.65,2.57-1.18,.5-.35,.99-.73,1.2-1.34,.09-.26,.1-.52,.15-.79,.06-.31,.15-.6,.15-.92,.02-1.59-2.44-1.61-2.46-.02,0,.1-.05,.73-.16,.92,.09-.16-.02-.02-.07,0,.06-.06,.04-.04-.08,.05-.07,.05-.14,.1-.21,.14-.27,.18-.56,.34-.84,.49-.08,.05-.17,.09-.25,.14-.24,.12-.24,.08,.03,.05l1.22,1.24v-.13l-.16,.62c.23-.46,.46-.92,.64-1.4,.18-.48,.32-.98,.52-1.45,.36-.85,.78-1.66,1.43-2.28l-1.49,.18c-.42-.22-.37-.45-.23-.15,.02,.05,.16,.38,.03,.05,.12,.28,.24,.54,.39,.81,.29,.54,.47,1.11,.76,1.66s.54,1.16,.81,1.74c.15,.31,.26,.64,.4,.95,.06,.13,.12,.25,.18,.37,.03,.06,.07,.13,.11,.19,.09,.13,.09,.15,.01,.07l1.53-1.5c.16,.1,.08,.07-.23-.08-.14-.06-.29-.09-.44-.09-.16-.02-.3-.03-.46-.03-.38,0-.76,.03-1.14,.03-.77,0-1.55,0-2.32,.01-.43,0-.83,.08-1.25,.13-.38,.05-.76,.05-1.14,.11-.35,.05-.6,.11-.92,.12-.22,0-.42,.02-.65,.06-.04,0-.52,.04-.18,.03l.62,.17-.06-.03,.56,.74v-.05l-.02,.65c-.02,.13-.12,.21,0,.03,.1-.15-.11,.14,0,0,.14-.18,.28-.34,.39-.54,.28-.47,.53-.97,.77-1.46,.42-.86,.84-1.6,1.27-2.5,.22-.46,.5-.88,.72-1.34,.1-.21,.17-.55,.24-.7-.01,.02-.18,.21,.05-.07,.06-.07,.12-.14,.18-.21,.31-.38,.57-.8,.82-1.22,.14-.22,.29-.47,.37-.71,.02-.08,.04-.15,.05-.23,0-.06,.02-.12,.03-.18,.02-.09,.02-.08,0,.02,.4-.53,.1-1.37-.43-1.69-.62-.37-1.29-.11-1.69,.43h0Z"/><path class="j" d="M83.35,1.62c0,.16,.04,.31,.09,.46,.03,.1,.07,.2,.08,.31l-.02-.16s0,.09,0,.14l.02-.16s-.01,.05-.02,.08l1.03-.26s-.02-.02-.02-.03l.1,.13s-.03-.05-.04-.07l.06,.15c-.05-.12-.06-.24-.13-.35-.1-.16-.24-.28-.43-.33-.16-.04-.31-.03-.46,0-.08,.02-.15,.05-.21,.11-.07,.04-.12,.1-.16,.17-.05,.07-.07,.15-.08,.23-.02,.08-.02,.16,0,.25,.05,.15,.14,.29,.28,.37l.15,.06c.11,.03,.22,.03,.33,0,.02,0,.03,0,.05,0l-.16,.02s.05,0,.07,0l-.16-.02s.02,0,.03,0l-.15-.06s.02,0,.03,.01l-.12-.1s.01,.01,.02,.02l-.1-.13s.01,.02,.02,.04l-.06-.15s.03,.09,.04,.13c.05,.16,.11,.28,.23,.4,.15,.16,.39,.22,.6,.16s.37-.22,.43-.43c.07-.23,.05-.48-.01-.7-.04-.13-.09-.26-.11-.4l.02,.16s0-.03,0-.05c0-.16-.06-.32-.18-.44-.06-.06-.12-.1-.2-.13-.07-.04-.15-.06-.24-.06-.16,0-.33,.06-.44,.18s-.19,.27-.18,.43h0Z"/><path class="i" d="M85.44,17.7c-.09,1.09-.06,2.17-.05,3.26,0,.64,.55,1.27,1.22,1.24s1.25-.53,1.24-1.22c0-1.09-.04-2.18,.05-3.26,.03-.3-.15-.67-.35-.87s-.56-.38-.87-.37-.65,.11-.87,.35-.34,.53-.37,.87h0Z"/><path class="i" d="M78.88,16.35c-.43,.89-.97,1.97-.91,2.99,.03,.54,.12,1.06,.13,1.6,.01,.51,0,1.01,.04,1.52,.07,1-.04,1.99,.07,2.99,.06,.51,.16,1.01,.19,1.53,0,.12,0,.25,0,.37,.05-.09,.05-.07,0,.06-.03,.33-.08,.52,0,.85,.13,.53,.64,.91,1.18,.92,.89,.02,1.8-.24,2.69-.29s1.78,0,2.68-.07c.95-.07,1.91-.02,2.86-.02s2.07,0,2.22-1.21c.1-.85-.29-1.73-.37-2.57-.09-.95-.24-1.89-.33-2.84-.04-.45,0-.9-.03-1.35s-.12-.87-.14-1.31-.03-.87-.17-1.29c-.06-.18-.12-.38-.22-.55-.02-.04-.66-.69-.43-.46l-.89,2.09c.15-.02,.64-.08,.65-.08,.66-.08,1.24-.49,1.24-1.22,0-.65-.55-1.26-1.22-1.24-.9,.02-1.8-.12-2.71-.11s-1.83,.04-2.74-.05c-.79-.08-1.76-.22-2.54-.02s-1.38,1.04-1.4,1.87c-.04,1.95,3.01,1.74,4.28,1.8,.84,.03,1.67,.04,2.51,.04,.18,0,.38,.02,.57,0,.19,.02,.22,0,.08-.03-.15-.06-.12-.04,.08,.06,.16,.1,.34,.18,.5,.28,.09,.06,.17,.11,.26,.17,.14,.08,.15,.09,.04,.05l-.31-.55-.03-.24,.17-.62c.13-.21,.3-.34,.53-.41-.05,.02-.1,.03-.16,.04-.13,.02-.12,.02,.04,0-.07,0-.14,.01-.21,.02-.22,.01-.44,.02-.67,.02-.68,0-1.38,.03-2.05-.06-.94-.12-1.89-.38-2.71-.35-.88,.03-1.51,.69-2.11,1.25-.7,.66-1.07,1.88-.05,2.5,.57,.34,1.42,.18,2.05,.19,.95,0,1.9-.14,2.84-.07,.43,.03,.49,0,.81,.22,.25,.16,.51,.3,.79,.4,.06,.02,.13,.04,.19,.05,.21,.07,.15,.02-.16-.13l-.31-.55,.03,.09,.58-1.39c.22,0,.26,0,.11-.01-.06,0-.12-.01-.19,0-.17,0-.35,.02-.52,.02-.35,.02-.69,.03-1.04,.05-.72,.02-1.43,.02-2.15,.02-.6,0-1.24-.09-1.82,.09-.72,.22-1.09,.76-1.31,1.44-.23,.7-.14,1.48,.55,1.89,.5,.3,1.09,.24,1.64,.18,.73-.08,1.45-.21,2.17-.34,.58-.11,1.27-.34,1.85-.28l-.62-.17c-.23-.28-.28-.31-.16-.1l.07,.14c.1,.19,.2,.36,.32,.53,.14,.19,.28,.34,.49,.46,.09,.05,.56,.25,.41,.15l-.44-.45c-.18-.35-.05-.31-.06-.09,0,.1,0,.2,0,.3,.01-.16-.04,.15-.03,.17,.04,.12-.07,.03,.07-.01,.02,0,.26-.2,.28-.16,0,0-.31,0-.35,0-.28,0-.57,0-.85-.01-.64-.01-1.29-.04-1.93-.08-.27-.02-.53-.08-.8-.07-.15,0-.3,.04-.45,.06,.26-.03-.07-.01-.12-.02l.62,.17,.06,.07,.31,.55c.14,.5-.1,.29-.21,.59-.1,.03-.07,.02,.08-.02l.14-.03c.34-.07,.69-.12,1.04-.19s.69-.09,1.05-.11,.77-.11,1.13-.03c.65,.13,1.33-.17,1.52-.85,.17-.6-.19-1.39-.85-1.52-.98-.2-2.09-.11-3.08,.05-.74,.12-1.65,.2-2.3,.59-.86,.52-1.34,1.88-.58,2.69,.33,.35,.8,.52,1.28,.5,.18,0,.37-.08,.55-.07-.25,0,0,.03,.03,.04,.12,.03,.26,.03,.38,.05,.94,.08,1.89,.08,2.84,.1s1.81-.11,2.29-.99c.37-.68,.49-1.63,.31-2.39-.12-.5-.5-1.04-1.03-1.15-.33-.07,.21,.02,.19,.22,0-.04-.09-.17-.11-.21-.1-.2-.19-.39-.32-.57-.76-1.01-2.18-.5-3.21-.32-.54,.09-1.08,.21-1.63,.29-.23,.04-.47,.06-.7,.08-.05,0-.14,0-.2,.01-.21,.05,.09,.07-.08,0l.54,.32-.07-.06,.31,.55,.02,.33,.04-.11c.06-.18,.05-.18-.04-.01-.03,.08-.08,.14-.16,.18-.07,.15-.15,.01-.01,.08,.09,.04,.28,.01,.39,.02,.62,.02,1.24,0,1.85,0s1.2-.03,1.8-.06c.66-.03,1.37,.04,1.95-.34,.41-.28,.78-.86,.58-1.39-.19-.48-.42-.8-.9-1.01-.3-.13-.45-.14-.68-.29-.35-.22-.66-.43-1.07-.52s-.84-.09-1.25-.11c-.78-.04-1.56,.09-2.34,.09-.36,0-.73-.02-1.09,0-.1,0-.2,.02-.29,.02-.2,0-.36-.11-.04,.02l.73,.57-.04-.06,.16,.62c.03,.34-.33,.6-.01,.33,.1-.08,.19-.17,.29-.26,.08-.07,.18-.16,.25-.24,.2-.11,.18-.11-.06-.01-.14-.04-.04-.03,.29,.04,.96,.11,1.91,.31,2.87,.36,1.03,.05,2.59,.2,3.51-.33,1.04-.6,.81-1.86-.08-2.48-.76-.53-1.53-.91-2.46-.9s-1.93,0-2.89-.04c-.46-.02-.93-.02-1.39-.06-.22-.02-.44-.04-.66-.08-.09-.02-.18-.04-.28-.06-.27-.08-.16,.02,.32,.32l.16,.62c-.02,.14,0,.16,.02,.06,.07-.16,0-.1-.21,.16-.28,.27-.38,.23-.11,.25,.32,.02,.65,0,.98,.02,.68,.03,1.36,.13,2.04,.13s1.34-.03,2.01-.02c.73,.01,1.45,.13,2.18,.11l.02-2.46c-.22,.03-.44,.06-.65,.08-.5,.05-.93,.25-1.13,.75-.18,.44-.12,1,.24,1.35,.62,.59,.16-.1,.02-.09,.01,0,.1,.35,.09,.27,.07,.4,.05,.84,.1,1.25,.1,.78,.04,1.56,.14,2.34,.1,.79,.2,1.58,.28,2.37,.04,.45,.1,.89,.2,1.33,.04,.18,.08,.36,.11,.54,.04,.22-.02,.71,.11,.19l.32-.54-.05,.05,.55-.31c.35-.1-.06-.02-.17-.02-.21,0-.42,0-.64,0-.41,0-.82,0-1.23,0-.78,0-1.55,.08-2.32,.09-.72,.02-1.44-.05-2.16,.03-.76,.08-1.55,.28-2.31,.26l1.18,.92c0,.37,0,.45,.03,.24,.04-.16,.06-.33,.05-.49,0-.19,0-.39-.02-.58-.04-.48-.13-.95-.19-1.42-.1-.89,.02-1.79-.05-2.68-.06-.91-.03-1.82-.11-2.72-.05-.5-.11-.74,.04-1.21,.12-.39,.27-.77,.45-1.14,.29-.6,.18-1.33-.43-1.69-.53-.32-1.4-.18-1.69,.43h0Z"/><rect class="h" x="79.05" y="36.97" width="9.85" height="65.58" transform="translate(-.33 .4) rotate(-.27)"/><path class="i" d="M87.11,104.19c.61,1.82,.14,3.88,.45,5.72,.16,.94,.21,1.87,.29,2.82,.08,.86,.12,1.95,.78,2.6,.83,.81,1.97,.17,2.11-.85,.02-.17,0-.33-.03-.5,0-.04-.07-.32-.04-.1-.03-.23-.04-.55-.06-.69-.06-.56-.19-1.11-.21-1.67s-.13-1.09-.24-1.65c-.1-.52-.07-.95-.4-1.45-.36-.56-1.08-.8-1.68-.46-.55,.32-.82,1.12-.46,1.68-.01-.02-.02-.07-.02-.09,.03,.15,.02,.31,.06,.46,.05,.19,.09,.37,.13,.57,.05,.23,.1,.29,.13,.54s.02,.52,.05,.78,.07,.52,.09,.78c.02,.16,.04,.31,.07,.46,0,0,.05,.2,.03,.1,.05,.26,.04,.44,.06,.67,.01,.15,.04,.3,.06,.45,0,.04,.02,.08,.03,.13,.03,.1,.02,.09-.02-.03l2.11-.85c.17,.17,.08,.15,.04-.09-.03-.14-.06-.28-.08-.43-.06-.42-.09-.84-.1-1.26-.03-.91-.25-1.78-.33-2.68-.16-1.85,.17-3.78-.43-5.58-.21-.63-.83-1.05-1.51-.88-.61,.16-1.09,.87-.88,1.51h0Z"/><path class="i" d="M81.16,105.56c.49,0,.97,.05,1.46,.06,.57,.01,1.15-.06,1.71-.15,.3-.05-.15,0,.12-.02,.15,0,.29-.02,.44-.02,.25,0,.51,0,.76,0s.5,.01,.74,0c.18,0,.35-.03,.52-.05,.06,0,.12-.02,.19-.03-.17,.02-.19,.02-.05,.02,.64,.02,1.27-.57,1.24-1.22s-.53-1.22-1.22-1.24c-.2,0-.4,.02-.6,.06-.3,.05,.28,0-.05,0-.25,0-.5,0-.74,0-.59,0-1.16,0-1.74,.08-.11,.02-.22,.03-.34,.05-.07,.01-.15,.02-.22,.03,.14-.02,.14-.02,0,0-.24,.02-.48,.03-.72,.02-.49-.01-.97-.06-1.46-.06-.64,0-1.27,.55-1.24,1.22,.02,.66,.53,1.24,1.22,1.24h0Z"/><path class="i" d="M80.62,105.04c.97,.17,1.95,.34,2.93,.35,.32,0,.65-.13,.87-.35s.38-.56,.37-.87c-.02-.67-.53-1.24-1.22-1.24-.54,0-1.07-.06-1.61-.14l.33,.05c-.33-.05-.67-.11-1-.16-.16-.05-.33-.06-.49-.03-.16,0-.32,.05-.46,.14-.26,.15-.5,.44-.57,.73-.07,.31-.06,.67,.11,.95,.16,.25,.42,.52,.73,.57h0Z"/><path class="j" d="M77.86,14.31c.48,0,.48-.75,0-.75s-.48,.75,0,.75h0Z"/><path class="j" d="M78.34,14.27c.48,0,.48-.75,0-.75s-.48,.75,0,.75h0Z"/><path class="j" d="M89.94,14.44c.48,0,.48-.75,0-.75s-.48,.75,0,.75h0Z"/><path class="j" d="M87.72,33.15c.48,0,.48-.75,0-.75s-.48,.75,0,.75h0Z"/><path class="j" d="M88.15,35.73c.48,0,.48-.75,0-.75s-.48,.75,0,.75h0Z"/><path class="j" d="M87.93,35.81c.48,0,.48-.75,0-.75s-.48,.75,0,.75h0Z"/><g><rect x="77.38" y="119.27" width="13.96" height=".82" transform="translate(-.23 .16) rotate(-.11)"/><g><rect x="76.6" y="14.47" width="14.51" height=".82" transform="translate(-.06 .33) rotate(-.22)"/><rect x="78.92" y="36.12" width="10.07" height=".82" transform="translate(-.14 .33) rotate(-.22)"/><rect x="76.67" y="29.32" width="14.51" height=".82" transform="translate(-.12 .33) rotate(-.22)"/><g><rect x="79.24" y="102.6" width="10.07" height=".82" transform="translate(-.4 .33) rotate(-.22)"/><path d="M84.59,66.47l-.14-28.93h2.9l.14,28.91h-2.9Zm.69-28.09l.13,27.28h1.26l-.13-27.29h-1.26Z"/><path d="M81.64,80.32l-.02-4.98h2.8l.02,4.97h-2.8Zm.8-4.15l.02,3.34h1.16l-.02-3.35h-1.16Z"/><path d="M80.58,98.54v-3.22l3.2-.02v3.22l-3.2,.02Zm.81-2.4v1.57h1.58v-1.58h-1.58Z"/><g><path d="M88.8,188.92l-3.94-20.39-3.22,17.73-.81-.15,3.3-18.18c.06-.35,.36-.6,.72-.6,.39,0,.66,.24,.73,.6l3.09,16.01,2.48-17.56,.81,.11-3.16,22.43Z"/><rect x="78.69" y="166.35" width=".82" height="20.2" transform="translate(-25.41 13.76) rotate(-8.57)"/><path d="M80.16,126.32l-.02-5.3h3.01l.02,5.28h-3.01Zm.8-4.47l.02,3.65h1.36l-.02-3.66h-1.36Z"/><path class="i" d="M71.85,181.22s.05-.06,.07-.1l-.56,.42s.06-.02,.09-.03c.17-.04,.32-.12,.48-.18,.06-.03,.13-.05,.19-.08-.05,.03-.22,.09-.07,.03,.1-.04,.21-.07,.31-.11,.29-.1,.56-.24,.84-.37,.11-.05,.22-.1,.32-.17,.04-.03,.09-.06,.13-.09l.25-.19c-.14,.1-.17,.12-.09,.07,.04-.02,.2-.09,.03-.03s0,0,.03,0c.11-.03,.23-.06,.34-.09,.23-.07,.46-.16,.69-.25,.59-.23,1.14-.5,1.6-.95,.46-.45,.5-1.29,.02-1.74s-1.25-.5-1.74-.02c-.04,.04-.08,.07-.11,.11-.19,.17,.16-.09,.03-.02-.11,.06-.21,.13-.31,.18-.09,.05-.2,.08-.29,.14,.26-.15,.12-.05,.04-.02-.05,.02-.11,.04-.16,.06-.24,.09-.47,.15-.72,.22-.19,.05-.38,.12-.55,.22-.05,.03-.09,.06-.14,.09-.09,.06-.47,.36-.25,.19,.14-.11,0,0-.04,.02-.04,.03-.09,.05-.14,.08-.11,.05-.22,.1-.33,.16-.04,.02-.26,.11-.07,.04,.18-.06,0,0-.04,0-.12,.04-.23,.08-.35,.12-.19,.07-.38,.14-.56,.23-.14,.07,.22-.05,.1-.04-.04,0-.09,.02-.12,.03-.26,.08-.48,.19-.68,.37-.14,.13-.23,.29-.34,.44-.38,.52-.12,1.39,.43,1.69,.63,.34,1.28,.13,1.69-.43h0Z"/><path class="i" d="M72.3,179.35c0-.06,0-.12,0-.19l-.05,.33c.01-.06,.03-.12,.05-.18l-.13,.29c.04-.09,.09-.17,.15-.24l-.2,.25c.06-.07,.13-.13,.2-.19l-.25,.19c.21-.16,.42-.31,.6-.5s.33-.4,.49-.61l-.2,.25c.11-.13,.23-.24,.36-.34l-.25,.19c.16-.12,.33-.23,.49-.35,.14-.11,.29-.21,.42-.33,.14-.13,.25-.3,.36-.46l-.2,.25,.03-.03-.25,.19c.11-.08,.24-.12,.35-.2,.19-.13,.37-.27,.53-.44,.22-.23,.37-.55,.37-.87,0-.3-.13-.66-.35-.87-.48-.45-1.26-.51-1.74-.02-.08,.08-.16,.16-.26,.23l.25-.19c-.1,.07-.21,.12-.31,.18-.26,.16-.44,.36-.6,.62l.2-.25c-.08,.09-.17,.17-.27,.24l.25-.19c-.24,.18-.5,.35-.74,.54s-.42,.42-.62,.67l.2-.25c-.16,.2-.33,.4-.54,.56l.25-.19c-.31,.23-.58,.45-.79,.8-.19,.32-.32,.72-.29,1.09,.03,.33,.11,.63,.35,.87,.21,.22,.56,.38,.87,.37s.65-.11,.87-.35c.21-.23,.4-.55,.37-.87h0Z"/><path d="M81.25,188.68c-.22,0-.41-.18-.41-.41v-1.67l-6.95,.03v-.82h.7l2.6-19.4-.23-46.71,1.87-16.71-.32-66.37-2.23-6.73s-.02-.08-.02-.13l-.07-14.85c0-.06,.01-.13,.04-.19L83.54,.23C83.61,.09,83.75,0,83.91,0h0c.15,0,.3,.09,.36,.23l7.21,14.46c.03,.06,.04,.12,.04,.18l.07,14.85s0,.09-.02,.13l-2.17,6.75,.32,66.41,2.02,16.6,.23,46.82,2.87,19.92c.02,.12-.02,.24-.1,.33s-.19,.14-.31,.14l-5.28,.03v1.39c0,.11-.03,.21-.11,.29-.08,.08-.18,.12-.29,.12l-7.49,.04h0Zm0-2.9c.22,0,.41,.18,.41,.41v1.67l6.68-.03v-1.39c0-.11,.03-.21,.11-.29,.08-.08,.18-.12,.29-.12l5.22-.02-2.8-19.51-.23-46.83-2.02-16.6-.32-66.53s0-.09,.02-.13l2.17-6.75-.07-14.69-6.8-13.64-6.89,13.68,.07,14.69,2.23,6.73s.02,.08,.02,.13l.32,66.48-1.87,16.71,.23,46.72-2.59,19.34,5.82-.03h0Z"/><polygon points="99.86 181.47 93.14 178.77 93.45 178.01 99.04 180.25 99.02 177.09 92.04 170.68 92.6 170.08 99.84 176.72 99.86 181.47"/><polygon points="69.42 182.59 69.4 177.85 76.58 171.13 77.14 171.73 70.22 178.2 70.24 181.37 75.81 179.07 76.12 179.83 69.42 182.59"/></g></g></g></g></g></g></g></g></svg>