<?xml version="1.0" encoding="UTF-8"?><svg xmlns="http://www.w3.org/2000/svg" viewBox="0 0 249.91 160.82"><defs><style>.d{fill:#fff;}.e{fill:#d4d6d5;}.f{fill:#405b9d;}.f,.g,.h{stroke:#000;stroke-miterlimit:10;}.g{fill:#4463ae;}.h{fill:#263077;}</style></defs><g id="a"/><g id="b"><g id="c"><path class="h" d="M165.81,95.76c-10.9-.77-21.24-6.77-27.12-16.94-9.4-16.28-3.82-37.11,12.46-46.51L198.34,5.07c16.28-9.4,37.11-3.82,46.51,12.46,9.4,16.28,3.82,37.11-12.46,46.51l-35.03,20.23"/><circle cx="157.9" cy="84" r="3.06"/><path class="f" d="M165.73,77.9c-3.93-1.94-7.35-5.02-9.7-9.1-6.33-10.97-2.57-24.99,8.39-31.32l31.77-18.34c10.97-6.33,24.99-2.57,31.32,8.39,6.33,10.97,2.57,24.99-8.39,31.32l-21.75,12.56"/><circle cx="149.99" cy="76.93" r="3.06"/><path class="g" d="M196.99,45.84c0-8.63-7-15.63-15.63-15.63s-15.63,7-15.63,15.63v98.85c0,8.63,7,15.63,15.63,15.63s15.63-7,15.63-15.63V45.84Z"/><circle cx="181.36" cy="45.44" r="5.16"/><path class="h" d="M84.1,95.76c10.9-.77,21.24-6.77,27.12-16.94,9.4-16.28,3.82-37.11-12.46-46.51L51.58,5.07C35.29-4.33,14.47,1.24,5.07,17.53c-9.4,16.28-3.82,37.11,12.46,46.51l35.03,20.23"/><circle cx="92.01" cy="84" r="3.06"/><path class="f" d="M84.18,77.9c3.93-1.94,7.35-5.02,9.7-9.1,6.33-10.97,2.57-24.99-8.39-31.32l-31.77-18.34c-10.97-6.33-24.99-2.57-31.32,8.39s-2.57,24.99,8.39,31.32l21.75,12.56"/><circle cx="99.92" cy="76.93" r="3.06"/><path class="g" d="M52.92,45.84c0-8.63,7-15.63,15.63-15.63,8.63,0,15.63,7,15.63,15.63v98.85c0,8.63-7,15.63-15.63,15.63s-15.63-7-15.63-15.63V45.84Z"/><circle cx="68.55" cy="45.44" r="5.16"/><g><rect class="d" x="65.06" y="101.84" width="6.84" height="44.08" transform="translate(137.08 247.7) rotate(179.95)"/><rect class="d" x="66.14" y="86.92" width="4.67" height="10.74" transform="translate(137.03 184.53) rotate(179.95)"/><rect class="d" x="66.48" y="79.39" width="3.84" height="6.51" transform="translate(136.88 165.23) rotate(179.95)"/><rect class="d" x="67.97" y="76.1" width=".91" height="1.54" transform="translate(136.91 153.68) rotate(179.95)"/><path class="d" d="M71.78,141.75h.04l-.22-.06,.03,.02-.15-.15c.18,.28,.22,.6,.31,.92,.11,.41,.23,.8,.39,1.19,.08,.19,.17,.38,.27,.55,.08,.14,.11,.29,.13,.45,.02,.2,.06,.39,.13,.57,.04,.11,.08,.21,.14,.31,.02,.03,.04,.06,.06,.09,.01,.02,.04,.09,.02,.03v-.19l.19-.26h-.03l.22-.05s-.09,0-.13,0c0,0-.18,.02-.07,.02,.12,0-.11-.02-.14-.02-.04,0-.09,0-.13,0-.1,0-.2-.02-.3-.02-.03,0-.06,0-.08,0-.12,0-.08-.04,.02,.02l.15,.15c.02,.12,.04,.13,.04,.05,0-.04,0-.07,0-.11,0-.09,0-.18,.01-.28,.02-.18,.06-.35,.04-.53-.03-.38-.22-.75-.23-1.13l-.8,.22c.09,.2,.14,.41,.29,.58l-.11-.19c.07,.2,.14,.39,.21,.59,.04,.1,.09,.19,.13,.29,.02,.04,.03,.09,.04,.14,.02,.07,.02,.16,.04,.03l.78-.1c-.09-.12-.14-.3-.21-.45-.09-.2-.21-.38-.31-.58s-.16-.39-.22-.6c-.05-.19-.1-.41-.19-.58-.26-.49-1.01-.05-.74,.43,0,0,.03,.15,.05,.2,.03,.1,.06,.19,.09,.29,.07,.23,.17,.47,.27,.69,.09,.19,.21,.36,.3,.55,.07,.16,.12,.33,.22,.48,.2,.28,.7,.29,.78-.1,.07-.33-.09-.61-.21-.9s-.16-.6-.37-.84l.11,.19c-.05-.19-.14-.37-.22-.55-.18-.4-.81-.19-.8,.22,0,.37,.15,.72,.22,1.09,.03,.15,0,.29-.02,.44-.02,.17-.02,.34-.03,.52-.01,.39,.22,.62,.61,.63,.25,0,.54,.06,.79,.03-.02,0,.16-.02,.09-.01-.04,0,.02,0,.02,0,.11-.01,.2-.04,.29-.1,.18-.14,.21-.37,.13-.57-.05-.11-.12-.2-.17-.31-.06-.13-.1-.28-.12-.42-.02-.16-.04-.31-.08-.47-.05-.19-.14-.33-.23-.5-.16-.29-.28-.6-.37-.93-.09-.35-.19-.7-.28-1.05s-.29-.78-.69-.8c-.55-.02-.55,.84,0,.86h0Z"/><path class="d" d="M70.14,98.15c.06,.3,.18,.61,.28,.9,.07,.24,.07,.49,.07,.74,0,.27-.08,.54-.02,.81,.02,.12,.08,.23,.09,.35,.02,.14,.06,.29,.07,.43l.65-.37c.07,.04-.04-.09-.06-.13-.05-.09-.08-.19-.11-.29-.09-.28-.18-.55-.24-.83s-.12-.55-.17-.83c-.04-.24-.15-.5-.14-.74,.02-.47-.75-.6-.84-.11-.13,.66-.05,1.38,.03,2.04,.02,.16,.06,.32,.07,.48s0,.29,0,.45c-.02,.39,.01,.7,.43,.84l-.26-.2,.03,.04,.48-.63c-.34-.11-.66-.17-1.01-.23-.18-.03-.32-.08-.5-.02-.2,.06,0,.04-.16,.04-.1,0-.19,0-.29,0-.36-.02-.74-.16-1.1-.14-.15,0-.3,.03-.46,.04-.06,0-.12,0-.18,.01,0,0-.15-.02-.11,0l.21,.37c-.02,.14-.1,.13,.02,.08,.04-.02,.08-.05,.13-.07,.13-.05,.29-.04,.43-.05,.35,0,.69,.03,1.03,.07,.16,.02,.31,0,.47,.02,.15,.01,.3,.05,.45,.06,.24,.01,.63-.12,.78-.31,.23-.28,.08-.69-.21-.86-.27-.16-.61-.12-.9-.12-.33,0-.7,0-1.03,.05-.11,.02-.22,.04-.34,.02-.16-.03-.3-.09-.47-.1l.22,.06s-.15-.11-.2-.1c-.08,.01,.09,.06,.06,.13l-.11,.19c.25-.27,.68-.09,.99-.07,.41,.03,.83,.07,1.24,.17l-.1-.78s-.28,.05-.39,.04c-.24-.03-.46-.06-.7-.07-.2,0-.4-.02-.6-.06-.18-.04-.46-.04-.59-.08l.19,.11-.03-.03,.11,.19c-.02,.11-.02,.12,0,.04,.02-.01,.03-.03,.04-.05,.03-.05,.06-.09,.09-.13,.1-.15,.17-.31,.21-.49s.08-.34,.13-.51c.03-.1,.08-.29,.13-.33l-.52,.07,.04,.02-.15-.15c-.04-.09,.08,.21,.04,.12,.03,.06,.04,.08,.06,.14,.04,.13,.07,.26,.09,.39,.02,.14,.04,.28,.08,.42,.02,.11,.03,.21,.07,.32,.14,.38,.72,.44,.83,0,.06-.26-.02-.56-.06-.82s-.07-.5-.34-.63c-.26-.12-.56,0-.75,.2-.2,.21-.2,.48-.19,.76,.02,.55,.86,.55,.86,0,0-.16-.02-.34,0-.5,.01-.06,.03-.11,.05-.17,.01-.05,.02-.11,.01-.16,0-.08-.01-.07-.03,.04l-.15,.15,.05-.02-.22,.06s.15,.06,.16,.06c.1,.04,.21,.05,.32,.06,.18,.01,.36,.05,.54,.03,.22-.02,.4-.1,.6-.16s.41-.05,.61-.1l-.33-.78c-.4,.18-.49,.58-.43,.98,.04,.27,.23,.68,.11,.95l.48-.2h-.03l.19,.1c.06,.04,.02,.05,0-.04-.02-.07-.03-.12-.06-.19-.08-.19-.19-.36-.32-.52-.23-.29-.45-.71-.9-.51-.39,.17-.36,.59-.42,.94-.07,.38,.15,.76,.2,1.12v-.23l-.02,.05,.78-.1c-.09-.2-.14-.42-.17-.64-.01-.09-.02-.18-.03-.26,0-.05,0-.12-.01-.17s.01-.03,0,0l-.15,.15-.08,.03-.22-.06c.11,.05,.23,.21,.27,.33l.53-.53c-.08-.02-.14-.06-.21-.1-.15-.09-.4-.07-.52,.07-.21,.24-.14,.54-.21,.83-.13,.54,.69,.76,.83,.23,.03-.13,.07-.27,.08-.41,0-.04,0-.08,0-.12,0-.01,0-.13,0-.09l-.11,.19,.03-.03-.52,.07c.13,.08,.27,.15,.42,.19,.3,.08,.63-.21,.53-.53-.1-.29-.29-.56-.52-.75-.27-.22-.71-.21-.89,.12-.14,.25-.08,.56-.05,.84,.04,.38,.13,.72,.29,1.07,.07,.15,.28,.23,.43,.2,.18-.03,.29-.14,.36-.31s0-.31-.04-.47c-.04-.13-.06-.27-.09-.4s0-.19,0-.33c0-.05,0-.13,0-.17,.02-.17,.09-.02-.14,.05h-.23c-.1-.1-.13-.11-.07-.03,.01,.02,.03,.05,.05,.07,.05,.07,.11,.14,.16,.21,.08,.1,.16,.21,.21,.34,.1,.27,.14,.53,.46,.62,.17,.04,.41-.03,.48-.2,.16-.37,.15-.72,.08-1.1-.03-.15-.07-.3-.09-.45,0-.03,0-.07,0-.11,0,.07-.09,.1,.03,.04,.45-.2,.13-.91-.33-.78-.18,.05-.36,.04-.53,.08-.15,.03-.29,.11-.43,.14-.26,.05-.53-.03-.78-.11-.35-.11-.8,.09-.76,.52,0,.11,.01,.02,0,.12-.01,.06-.03,.13-.04,.19-.03,.2-.02,.4-.02,.6h.86c0-.06,.01-.16,0-.21,0-.05,0-.04-.02,.01-.04,.06-.1,.08-.18,.05l-.19-.11c-.04-.13-.06-.16-.05-.09,0,.02,0,.05,0,.07,0,.08,.03,.16,.04,.24,0,.05,0,.1,.01,.16,0,.03,.01,.23,.04,.14h.83c-.09-.26-.11-.63-.18-.92s-.18-.7-.44-.85c-.17-.1-.38-.06-.52,.07-.17,.14-.26,.4-.32,.6-.07,.24-.11,.49-.19,.72-.06,.19-.21,.33-.29,.52-.1,.25-.08,.56,.16,.73,.22,.16,.47,.11,.73,.16s.55,.09,.83,.09c.26,0,.52,.07,.78,.07,.22,0,.56-.03,.75-.16,.28-.2,.29-.69-.1-.78-.31-.07-.63-.1-.94-.16-.16-.03-.31-.03-.47-.04s-.32-.07-.48-.08c-.56-.04-1.44,.24-1.29,.95,.06,.3,.28,.45,.54,.57,.13,.06,.25,.06,.38,.1,.15,.05,.32,.07,.48,.06,.3-.01,.6-.06,.9-.07,.17,0,.35,0,.52,0,.03,0,.18,.02,.2,0,.07-.07,.03,.28-.05-.09v-.23l.02-.04,.15-.15s-.04,.03-.01,.01l-.09,.03s-.16,.06-.07,.04c-.08,.01-.22-.03-.31-.04-.08,0-.15-.02-.23-.02-.15-.01-.3,0-.46-.03-.22-.05-.47-.05-.7-.05-.68-.02-1.65,.05-1.75,.9-.02,.14,.09,.3,.21,.37,.27,.15,.6,.12,.9,.1,.2-.01,.35-.05,.54,0s.39,.07,.58,.09c.18,.02,.36,.03,.54,.03,.11,0,.23,0,.34-.04l.1-.04c-.15,0-.17,0-.08,.02,.15,.07,.36,.05,.52,.08,.19,.04,.38,.11,.56,.17,.33,.11,.71-.33,.48-.63-.08-.11-.19-.19-.27-.23l.15,.15-.02-.04,.06,.22c0-.24,.04-.48,.02-.72-.03-.26-.08-.52-.11-.79-.05-.5-.13-1.08-.03-1.58l-.84-.11c-.01,.31,.11,.63,.17,.93,.06,.35,.13,.69,.21,1.03,.07,.32,.18,.63,.3,.93,.1,.25,.22,.54,.47,.67s.69-.03,.65-.37c-.02-.15-.06-.29-.07-.43-.02-.16-.04-.3-.09-.45-.08-.24,.02-.53,.02-.79,0-.3,0-.62-.11-.9s-.21-.59-.27-.88c-.11-.54-.94-.31-.83,.23h0Z"/><path class="d" d="M69.34,102.19c1.93,0,1.93-3,0-3s-1.93,3,0,3h0Z"/><path class="d" d="M70.56,86.49c-.09-.1-.08-.23-.16-.35-.12-.2-.33-.29-.55-.29s-.43,.12-.52,.33c-.05,.11-.06,.25-.03,.37,.01,.06,.03,.11,.06,.16,.06,.1-.03,.08,0-.1l.53-.3s.14,.1-.04-.04c-.02-.02-.03-.02-.05-.04-.07-.06-.14-.11-.19-.19-.11-.17-.2-.37-.43-.4s-.47,.05-.53,.3c-.04,.15-.03,.3,.01,.45,.01,.05,.04,.09,.05,.13,.03,.07,.01,.11,.03,.03l.3-.3h-.03l.33,.05s.03,.06,.03,.03c0-.01-.14-.18-.1-.13-.06-.07-.13-.13-.18-.19-.23-.26-.62-.09-.72,.19-.04,.11-.04,.23-.04,.34,0,.04,0,.08,0,.12,0,.07-.02,.16,.04,0l.37-.21h-.03l.22,.06s.07,.06,.08,.1c0,.03,0,.02,0-.02-.01-.04-.03-.09-.05-.13-.06-.12-.13-.22-.22-.32-.16-.19-.42-.28-.65-.15-.2,.12-.25,.34-.26,.56,0-.17,0,.03,0,.07,0-.06,0-.05,0,0,0,.03-.01,.06-.02,.1v.04c0-.06,.04-.11,.1-.14l.22-.06h-.03l.22,.06c.09,.11,.12,.13,.07,.06l-.02-.04s-.02-.04-.03-.07c.02,.05,.03,.06,.02,.02-.03-.14-.08-.26-.18-.37-.09-.1-.29-.16-.42-.11-.18,.07-.32,.18-.41,.35-.03,.07-.06,.15-.09,.22-.01,.03-.02,.07-.03,.1-.02,.06,.04-.08,0,.01l.67-.09s.04,.06,.04,.1c0-.05-.01-.09-.01-.14,0-.09,0-.19,0-.28,0-.19-.14-.36-.32-.41-.17-.05-.41,.03-.48,.2-.04,.08-.07,.16-.09,.25l.78-.1c.04,.06,.01,.1-.02,.17l-.48,.2s-.02-.02,.03,.01c.03,.02,.05,.04,.08,.06,.07,.05,.15,.08,.23,.11,.33,.09,.71-.32,.48-.63-.17-.24-.41-.33-.7-.33-.08,0-.16,0-.24,.01-.07,0-.15,0-.22,.02-.04,.01-.28,.18-.17,.11l.22-.06h-.03l.22,.06c.05,.03,.02,.02-.01-.01-.04-.04-.09-.07-.13-.1-.13-.07-.28-.08-.42-.03-.19,.08-.39,.34-.49,.52-.14,.24-.1,.56,.15,.71,.16,.09,.37,.09,.55,.09,.12,0,.23-.03,.33-.09,.05-.03,.1-.09,.15-.12,.09-.05,.21-.08,.31-.13,.11-.05,.21-.12,.31-.17,.07-.03,.15-.04,.22-.07,.08-.03,.2-.1,.25-.12,.14-.04,.34,0,.49,0,.55,0,.55-.85,0-.86-.23,0-.45-.03-.67,.01-.11,.02-.2,.08-.3,.12-.11,.05-.23,.07-.34,.12s-.21,.11-.31,.16c-.11,.06-.24,.1-.36,.15-.07,.04-.22,.11-.26,.19,.15-.05,.18-.07,.1-.07-.03,0-.06,0-.09,0-.15,0-.02-.04,.11,.08l.11,.19v.2c-.02,.07,.02-.04,.04-.06,.05-.06,.1-.11,.15-.16l-.42,.11c-.1-.07-.12-.08-.06-.03,.04,.03,.08,.06,.12,.09,.08,.05,.16,.07,.25,.07,.18,0,.28-.08,.41-.19l-.19,.11s.14,0,.18,0,.09,0,.13,0h-.03c.09,.03,.06,0-.1-.1l.48-.63s-.08-.06-.11-.08c-.07-.05-.15-.08-.23-.1-.17-.03-.41,.02-.48,.2-.1,.23-.11,.48,.02,.7,.19,.32,.69,.26,.78-.1,.02-.05,.03-.06,0-.04l-.8-.22c0,.31-.02,.71,.22,.93,.2,.18,.53,.16,.67-.09,.05-.09,.08-.18,.11-.28,0-.03,.05-.09,.04-.12,.01,.05-.12,.1-.13,.11l-.42-.11c-.09-.1-.06-.08-.04,0,.01,.05,.04,.09,.06,.14,.03,.06,.06,.12,.09,.18,.15,.23,.43,.33,.69,.19,.17-.1,.26-.29,.29-.48,0-.04,.01-.07,.02-.11,0-.02,.03-.2,.01-.11s.01-.09,.01-.1c0-.14,.04,0-.08,.11l-.19,.11h-.18l-.19-.11c.11,.09,.13,.16,.18,.27,.09,.21,.28,.38,.52,.37,.14,0,.31-.07,.37-.21s.08-.26,.08-.41c0-.1-.02-.19,0-.25l-.72,.19c.05,.05,.1,.1,.15,.15-.05-.06,.11,.15,.1,.14,.15,.17,.32,.21,.54,.18,.14-.02,.27-.17,.3-.3,.04-.15,.03-.3-.01-.44-.02-.05-.04-.09-.05-.13-.02-.06-.01-.12-.03-.04l-.53,.3c-.12-.02-.19-.2-.11-.05,.02,.03,.03,.06,.05,.08,.07,.11,.15,.2,.24,.28,.18,.16,.29,.31,.53,.36,.21,.05,.48-.06,.53-.3,.02-.12,.04-.22,0-.34-.01-.05-.04-.1-.06-.14-.07-.15,.07,.04-.03,.18l-.15,.15c-.12,.02-.15,.03-.09,.03,.05,0,.03,0-.08-.02l-.15-.15c.05,.07,0-.05,.02,.05,.01,.06,.05,.14,.08,.2,.06,.12,.13,.22,.22,.31,.15,.18,.45,.15,.61,0,.18-.18,.15-.43,0-.61h0Z"/><path class="d" d="M70.12,79.13c-.1-.1-.21-.18-.31-.28-.05-.05-.11-.1-.16-.16,0,0,.04,.06-.02-.02-.03-.05-.06-.1-.1-.14-.04-.05-.09-.09-.14-.13-.01,0-.04-.06-.01-.01-.02-.03-.03-.06-.04-.08-.06-.12-.12-.22-.19-.33-.07-.12-.14-.23-.26-.32-.08-.06-.17-.1-.27-.11-.06,0-.09,0-.15,0,0,0-.16,.03-.1,.02s-.03,0-.04,0c-.04,0-.08,0-.12,0-.12,.02-.22,.06-.31,.14-.1,.09-.16,.21-.22,.34-.02,.04-.03,.11-.06,.14,0,0,.02-.06,.03-.05-.01-.01-.16,.17-.16,.18,.03-.04-.02,.02-.02,.02-.02,.03-.05,.06-.08,.09-.05,.05-.1,.1-.15,.14-.05,.04-.1,.08-.11,.09-.03,.03-.07,.05-.1,.08-.13,.09-.25,.19-.34,.32-.21,.31-.06,.71,.29,.82,.25,.08,.53,.02,.76-.09,.15-.07,.17-.09,.33-.14,.13-.04,.27-.07,.4-.11,.05-.01,.1-.03,.15-.04,.02,0,.04-.01,.06-.02,.03,0,.12,0,.02,0,.02,0,.04,0,.06,0h.03s.04,0,0,0h-.03s.04,0-.02-.02c-.02-.01-.1-.12-.06-.05l.48-.63c.06,.02,.08,.06,.02,0-.03-.03-.05-.06-.07-.09-.07-.09-.15-.15-.24-.21-.08-.06-.16-.12-.26-.15-.19-.06-.37,.01-.51,.14-.17,.16-.16,.45,0,.61,.17,.17,.44,.16,.61,0l.03-.03-.19,.11h-.2c-.08-.02-.04-.03,0,0,.02,.01,.07,.05,.03,.02,.05,.04,.09,.09,.13,.14,.11,.14,.24,.24,.42,.3,.37,.12,.66-.32,.48-.63-.25-.45-.78-.38-1.19-.26-.24,.07-.48,.13-.71,.23-.05,.02-.09,.05-.13,.07,0,0-.09,.04-.05,.03,.04-.02-.03,0-.03,0-.14,.04,.06,0-.02,0,0,0-.11,0-.11,0,0-.04,.09,.03,.03,0l.11,.21c.11,.08,.14,.17,.09,.26,0,.02-.06,.06,0,.01,.01-.01,.03-.02,.04-.03,.08-.07-.03,.01,.03-.02,.04-.03,.09-.06,.13-.09,.11-.08,.22-.17,.31-.26,.1-.1,.18-.23,.28-.33-.03,.02,.06-.05,.07-.06,.05-.05,.09-.11,.12-.17,.02-.05,.04-.09,.06-.14,0,.01-.03,.06,0,0,0-.02,.02-.03,.02-.05,.03-.06,.04-.03,0-.02,0,0-.26,.06-.13,.07,.02,0,.04,0,.06,0,.05,0,.1-.01,.15-.02,.08-.02,.1,0-.08-.05l-.13-.03,.02,.03s-.03-.05,0,0c.02,.04,.05,.08,.07,.12,.07,.11,.12,.24,.19,.35,.07,.11,.21,.23,.26,.3-.03-.03,.01,.03,.01,.03,.03,.05,.07,.1,.11,.14,.05,.06,.11,.11,.16,.16,.11,.1,.22,.19,.33,.29,.17,.16,.44,.17,.61,0s.17-.45,0-.61h0Z"/><path class="d" d="M68.84,75.84c0-.3,.05-.61-.06-.9l-.78,.33,.02,.04-.04-.1c.05,.12,.05,.24,.08,.37,.01,.07,.03,.13,.04,.2l-.02-.11s0,.1,0,.15l.02-.11s0,.04-.01,.05l.04-.1v.02l.05-.09-.02,.02,.09-.07h-.01l.1-.03h.1s-.02,0-.03,0c-.11,0-.23,.05-.3,.13s-.13,.2-.13,.3,.04,.23,.13,.3,.18,.12,.3,.13c.05,0,.11,0,.15-.02,.07-.02,.16-.07,.21-.12,.07-.07,.12-.15,.14-.25,.04-.15,.02-.28,0-.43-.01-.07-.04-.15-.05-.22-.01-.06-.02-.12-.03-.19-.02-.09-.06-.19-.1-.27-.05-.09-.16-.17-.26-.2s-.19-.02-.28,.02c-.08,.03-.16,.09-.21,.18-.05,.1-.08,.22-.04,.33,.02,.06,.03,.11,.04,.17l-.02-.11c.03,.2,0,.41,0,.61,0,.11,.05,.23,.13,.3s.2,.13,.3,.13,.23-.04,.3-.13,.13-.19,.13-.3h0Z"/><path class="d" d="M68.84,74.63c.02,.08,.02,.08,0,0l-.02-.08c-.02-.06-.03-.12-.05-.19-.04-.13-.06-.25-.07-.38-.01-.23-.03-.46-.04-.69-.01-.25,.03-.5,.01-.75-.02-.23,.03-.46,.03-.69h-.43c0,.31,.01,.61-.02,.91-.03,.29-.06,.58-.07,.87-.03,.58-.12,1.15-.11,1.73,0,.28,.43,.28,.43,0,0-.06-.01-.11-.04-.16-.12-.25-.49-.03-.37,.22l-.02-.06h.43c-.02-.58,.07-1.15,.11-1.73,.02-.29,.04-.58,.07-.87,.03-.31,.02-.61,.02-.91,0-.28-.43-.28-.43,0,0,.26-.05,.5-.03,.76s-.04,.5-.01,.75c.01,.11,0,.23,0,.34,0,.13,.03,.25,.04,.38,.01,.14,.04,.27,.08,.4,.03,.12,.05,.26,.11,.36,.13,.24,.5,.03,.37-.22h0Z"/><g><path d="M63.11,146.09l1.77-5.82-.04-38.69v-.02l1.05-3.81v-10.93l.47-.96v-6.53l1.43-1.82v-1.48l.4-4.57h.57l.32,4.61v1.49l1.44,1.82v6.53l.49,.96v10.93l1.07,3.85,.04,38.66,1.93,5.77h-10.93Zm2.02-44.45l.04,38.69v.02l-1.67,5.47h10.14l-1.82-5.47-.04-38.67-1.06-3.85v-10.88l-.49-.96v-6.5l-1.44-1.82v-1.58l-.31-4.33h-.04l-.37,4.3v1.57l-1.43,1.82v6.5l-.47,.96v10.92l-1.04,3.81Z"/><polygon points="73.6 145.26 73.6 144.98 74.85 144.98 74.85 144 72.57 142.49 72.73 142.25 75.13 143.85 75.13 145.26 73.6 145.26"/><polygon points="61.97 145.2 61.97 143.79 64.36 142.19 64.52 142.43 62.25 143.94 62.25 144.92 63.5 144.91 63.5 145.2 61.97 145.2"/><rect x="64.97" y="113.33" width="6.97" height=".29"/><rect x="65.01" y="122.78" width="6.97" height=".29"/><rect x="70.5" y="113.48" width=".29" height="9.44"/><rect x="68.06" y="113.55" width=".29" height="9.37"/><rect x="65.58" y="113.52" width=".29" height="9.44"/><rect x="68.2" y="113.48" width="2.44" height="9.43" transform="translate(138.96 236.32) rotate(179.95)"/><rect x="64.96" y="113.57" width=".7" height="9.28" transform="translate(130.73 236.36) rotate(179.95)"/><rect x="68.32" y="98.16" width=".29" height="6.94" transform="translate(-33.57 169.48) rotate(-89.66)"/><rect x="66.04" y="97.63" width="4.84" height=".29"/><rect x="64.81" y="99.55" width="3.93" height=".29" transform="translate(-44.81 143.81) rotate(-77.76)"/><polygon points="64.99 101.61 66.36 101.61 67.19 97.77 66.04 97.78 64.99 101.61"/><polygon points="71.29 101.69 70.7 99.73 71.45 99.73 71.45 100.25 71.84 101.53 71.29 101.69"/><rect x="68.3" y="83.98" width=".29" height="3.88" transform="translate(-18.25 153.38) rotate(-89.35)"/><rect x="66.03" y="86.76" width="4.84" height=".29"/><rect x="66.02" y="87.55" width="4.88" height=".29"/><rect x="66.02" y="88.99" width="4.81" height=".29"/><rect x="66.02" y="87.67" width="4.78" height="1.46" transform="translate(136.9 176.74) rotate(179.95)"/><rect x="67.94" y="77.47" width="1.01" height=".29"/><rect x="66.5" y="79.29" width="3.88" height=".29"/><rect x="67.94" y="75.94" width="1.01" height=".29"/><polygon points="68.05 145.94 68.04 136.68 70.98 136.67 70.99 145.94 70.71 145.94 70.7 136.96 68.33 136.96 68.34 145.94 68.05 145.94"/><rect x="68.19" y="136.82" width="2.66" height="9.12" transform="translate(139.16 282.69) rotate(179.95)"/><polygon points="65.61 145.97 65.6 136.85 65 136.85 65 136.56 65.88 136.56 65.89 145.97 65.61 145.97"/><path d="M64.03,144.53c-.01,.12,.03,.23,.07,.34,.03,.08,.07,.15,.11,.23l-.04-.1c.04,.1,.09,.19,.13,.28l-.04-.1s.02,.06,.03,.1l-.02-.11c.02,.14,.03,.26,.11,.37,.05,.07,.11,.15,.17,.21,.1,.08,.19,.14,.31,.17,.15,.04,.28,.04,.43,.01l-.11,.02c.09-.01,.18,0,.28-.03,.16-.06,.28-.18,.31-.36,.01-.08,0-.15-.03-.22-.04-.09-.09-.15-.18-.21-.08-.05-.19-.08-.28-.08-.11,0-.22,.04-.3,.13-.07,.07-.13,.2-.13,.3s.04,.23,.13,.3,.19,.13,.3,.13c0,0,.02,0,.03,0l-.11-.02h.01l-.1-.04s.02,0,.02,.01l.1-.78s-.02,0-.03,0l.11-.02s-.06,0-.08,0c-.06,0-.12,.01-.18,.02l.11-.02s-.07,0-.11,0l.11,.02s-.08-.01-.12-.03l.1,.04s-.05-.03-.07-.04l.09,.07s-.06-.06-.09-.09l.07,.09s-.04-.06-.06-.09l.04,.1s-.01-.05-.02-.07l.02,.11c0-.06-.01-.12-.02-.18s-.04-.12-.06-.17c-.02-.05-.05-.1-.08-.16l.04,.1c-.04-.1-.09-.21-.14-.31l.04,.1s-.03-.08-.04-.12l.02,.11s0-.04,0-.06c.01-.1-.06-.24-.13-.3-.07-.07-.2-.13-.3-.13s-.23,.04-.3,.13l-.07,.09c-.04,.07-.06,.14-.06,.22h0Z"/><path d="M65.02,141.85c.02,.25,.16,.49,.15,.75,0,.14-.08,.28-.1,.42-.01,.15,.02,.3,.03,.45,0,.13-.01,.26,0,.39,.01,.15,.04,.3,.05,.45,0,.13,.02,.27,0,.39,0,.07,0,.14-.02,.21,0,.02,0,.16,0,.17l.59-.08-.02-.04c-.19-.37-.75-.04-.56,.33l.02,.04c.13,.25,.52,.18,.59-.08,.02-.07,.01-.14,.01-.21,0-.07,.03-.14,.03-.21,0-.16,0-.31,0-.47,0-.14-.02-.31-.04-.45-.02-.13-.01-.26-.01-.39,0-.15-.04-.3-.03-.45s.09-.28,.1-.42-.02-.32-.05-.46c-.02-.11-.08-.23-.09-.34-.02-.41-.67-.41-.64,0h0Z"/><path d="M65.43,144.73s0,.03,0,.02c0-.03,0-.06,0-.1,0-.06,0-.12,0-.18,0-.15-.07-.28-.09-.43-.03-.29-.07-.57-.03-.85s.05-.59,.06-.88c0-.23-.05-.48-.27-.6-.14-.08-.36-.04-.44,.12-.07,.15-.11,.32-.16,.48-.05,.15-.1,.29-.15,.44s-.07,.29-.15,.43c-.08,.15-.08,.32-.13,.47-.09,.3-.22,.58-.34,.88-.12,.31-.19,.63-.32,.94-.07,.16-.04,.44,.19,.47,.17,.02,.33,0,.5,0,.18,0,.37-.02,.54-.05h-.12c.18,.04,.33-.04,.4-.22,.05-.13,.01-.25-.02-.38-.08-.41-.7-.23-.62,.17,0,.02,0,.04,.01,.06,0,.04,0,.03,0-.02l.4-.22c-.18-.03-.35,.02-.53,.02s-.34,0-.52,.04h.13l.19,.47c.14-.32,.23-.64,.34-.96,.05-.14,.11-.28,.16-.41,.06-.15,.11-.31,.16-.46,.03-.09,.06-.15,.08-.24,.01-.07,.02-.15,.05-.22,.06-.15,.14-.27,.17-.43,.03-.15,.07-.3,.13-.44,.03-.09,.06-.17,.09-.26,.02-.06,.03-.15,.06-.21l-.44,.12c-.06-.06-.07-.07-.03-.02,.03,.05,.02,.04,0-.02,0,.05,0,.1,0,.15,0,.14-.02,.28-.02,.41,0,.12-.02,.24-.04,.36-.02,.17-.03,.3-.01,.48,.01,.13,.03,.26,.03,.39,0,.15,.05,.28,.08,.43,.03,.11,0,.24,.02,.36,.02,.15,.07,.28,.18,.39,.3,.29,.76-.17,.46-.46h0Z"/><path d="M64.59,143.61c-.09,.1-.12,.2-.13,.33,0,.03,0,.05,0,.08,0,.03,.02-.1,0-.03l-.02,.07s-.02,.08-.03,.12-.01,.08-.02,.12c0,.04,.02-.06,0,0-.01,.04-.02,.08-.04,.12,0,.02-.02,.05-.03,.07,0,.01-.04,.07,0,.03,0,0,.06-.07,.02-.04-.02,.02-.04,.04-.05,.06-.04,.05-.06,.11-.09,.17-.01,.03,.02-.06,.04-.06,0,0-.04,.04-.04,.04-.03,.04-.06,.07-.08,.12,0,0-.03,.07-.02,.07,0,0,.07-.09,.04-.07-.01,.01-.02,.03-.03,.04-.03,.03-.05,.06-.07,.1-.01,.02-.03,.05-.05,.07-.01,.02-.04,.05,.02-.02-.07,.08-.02-.07,.18-.06l.31,.24c.01,.08,0,0,0-.01,0-.17-.15-.33-.32-.32s-.32,.14-.32,.32c0,.06,0,.12,.02,.18,.02,.14,.18,.23,.31,.24,.15,0,.26-.09,.34-.2,.03-.04,.07-.09,.09-.14-.04,.04-.05,.06-.03,.04l.02-.02s.06-.06,.08-.1c.02-.03,.04-.07,.04-.1,0-.08-.03,.07-.05,.06,0,0,.04-.04,.04-.04,.03-.03,.05-.06,.07-.1,.02-.03,.03-.07,.04-.1,0-.02,0-.01-.01,.03-.03,.04-.04,.04-.02,.03,.1-.08,.13-.2,.17-.31s.06-.21,.08-.32c0-.04-.01,.06,0,0l.02-.07c.01-.05,.02-.1,.03-.15,0-.04,.01-.08,.01-.12,0-.06-.02,.07,0,.02v-.02s-.03,.07-.06,.1c.11-.12,.13-.33,0-.46-.12-.11-.33-.13-.46,0h0Z"/><path d="M65.02,142.04c.22-.06,.52-.02,.65-.24,.12-.18,.08-.53,.08-.74,0-.22-.03-.45-.06-.67-.02-.12-.01-.24-.01-.36,0-.06,0-.12-.01-.18-.03-.11-.03,.06,0-.02,.07-.21-.03-.46-.01-.68,0-.14,.04-.28,.03-.43,0-.12-.02-.24-.03-.36-.02-.23,.03-.45,.03-.68,0-.25-.03-.47,0-.72,.02-.17-.16-.32-.32-.32-.19,0-.3,.15-.32,.32-.03,.2-.03,.38,0,.59,.02,.19-.02,.36-.02,.55s.02,.36,.03,.54c.01,.22-.05,.43-.02,.65,.04,.38,0,.75,.03,1.13,.02,.18,.04,.35,.06,.53,0,.11,0,.22,0,.33,0,.05,0,.11,0,.16,0,.06-.04,.2,.02,.05l.19-.15c-.06,.02-.15,0-.21,.02-.09,.02-.17,.04-.25,.07-.4,.11-.23,.73,.17,.62h0Z"/><path d="M64.8,140.6s0,.02,0,.03v-.09s0,.01,0,.02l.03-.08s-.04,.07-.06,.11c-.03,.07-.03,.14-.04,.21v-.09c-.01,.14-.08,.27-.12,.41-.01,.04-.03,.07-.04,.11,0,.03-.01,.07-.02,.1-.02,.09-.04,.17-.05,.27,0,.17,.15,.33,.32,.32,.18,0,.31-.14,.32-.32v.05c.01-.14,.05-.29,.1-.42,.02-.07,.05-.13,.08-.2,.03-.09,.04-.18,.06-.27v.09s0-.03,0-.04l-.03,.08s.03-.04,.04-.06c.04-.06,.06-.14,.05-.22,0-.09-.03-.16-.09-.23-.06-.06-.15-.1-.23-.09-.16,0-.34,.14-.32,.32h0Z"/><path d="M64.11,142.58c-.1,.09-.13,.2-.22,.29-.04,.04-.09,.07-.13,.11-.03,.02-.05,.05-.07,.07-.01,.02-.03,.03-.04,.05,.03-.02,.02-.02,0,0-.03,.02-.05,.03-.08,.04,.05-.02-.02,0-.03,.01-.04,.02-.09,.03-.13,.06-.11,.05,.04-.02-.04,.02s-.11,.04-.16,.1c-.08,.07,0-.01,.04,0-.01,0-.08,.02-.09,.03-.05,.02-.1,.04-.14,.06-.03,.02-.06,.04-.09,.06-.07,.05,.03,0-.05,.02-.08,.02-.15,.06-.21,.1-.02,.01-.03,.02-.05,.03,.08-.03-.07,0,.03-.01-.11,.02-.19,.03-.28,.08-.14,.09-.2,.25-.23,.4-.02,.13-.05,.26-.05,.39s.03,.27,.11,.39c.06,.09,.15,.16,.26,.18,.07,.01,.13,.01,.2,0,.03-.01,.07-.03,.1-.04,.05-.02,.03-.02-.05,0,0,0,.11,0,.11,0-.02,0,.12-.02,.07-.01,.08,0,.15,0,.23,0,.05,0,.1,0,.16-.02,0,0,.11-.02,.04,0,.08,0,.18-.03,.27-.03-.06,0,.03,0,.03,0,.06,0,.13-.02,.19-.05,.07-.04,.13-.11,.18-.18,.04-.06,.07-.14,.08-.22,0-.03,0-.06,.01-.09,0-.01,.03-.11,0-.07,.02-.05,.06-.1,.09-.15,.03-.06,.05-.12,.09-.17,.1-.16,.17-.33,.06-.51-.12-.2-.36-.21-.54-.1l-.07,.05s.04-.03,0,0c-.04,.02-.08,.04-.11,.06-.07,.05-.14,.11-.2,.17s-.13,.11-.19,.18,.04-.02-.02,.02c-.03,.01-.06,.03-.08,.04,.07-.03-.18,.08-.1,.04-.02,0-.04,.02-.06,.03-.05,.03-.03,.02,.05,0-.02-.02-.21,0-.25,0l.28,.48s0,0,.02-.02c.02-.01,.03-.03,.05-.04,.04-.03,.08-.06,.11-.09,.09-.08,.17-.18,.23-.28,.05-.09,.1-.21,.11-.32,0-.05-.08,.08-.02,.04,.01,0,.03-.02,.04-.03,.05-.05,.09-.12,.13-.18,.02-.03,.03-.03,.07-.08,.04-.04,.07-.07,.11-.11,.07-.08,.14-.16,.23-.22,.02-.01,.08-.06,.12-.08s.16-.08,.17-.11c.01-.01,.02-.01,0,0-.01,.01-.03,.02-.05,.02-.11,.03,.05,0,.07,0,.08-.02,.16-.06,.21-.12,.11-.14,.13-.32,0-.46-.11-.11-.35-.14-.46,0l.14-.05s-.05,0-.07,0c-.06,0-.09,.02-.15,.04-.02,0-.03,.02-.05,.03-.03,.02-.05,.04-.08,.06-.01,.01-.02,.01,0,0,.03-.02-.06,.03-.06,.03-.02,.01-.04,.03-.06,.04-.06,.04-.13,.09-.19,.14-.09,.07-.16,.15-.24,.23-.09,.09-.18,.17-.25,.27-.01,.02-.03,.04-.04,.06-.05,.08,.01,0-.02,.03-.04,.04-.08,.07-.11,.13-.03,.06-.06,.13-.08,.19,0,.02,0,.04-.01,.06,0,0-.03,.07-.01,.05,.01-.03-.03,.04-.03,.05l-.02,.03s.01-.02,0,0c-.03,.04-.07,.07-.11,.1-.1,.08-.18,.15-.26,.26-.07,.09-.05,.23,0,.33,.06,.11,.16,.15,.28,.16,.16,.02,.35,.01,.5-.06,.06-.03,.08-.04,.17-.08,.06-.03,.12-.06,.18-.11,.11-.09,.21-.2,.32-.29,.06-.06-.02,0,.04-.03,.03-.02,.06-.03,.08-.05,.03-.02,.06-.04,.09-.06,.04-.03,.04-.03,0,0,.07-.04,.01-.04-.17,.01l-.14-.08c.01-.26-.01-.34-.07-.24l-.03,.05s-.04,.08-.06,.11c-.04,.07-.08,.14-.12,.21-.05,.1-.06,.18-.08,.28,0,.04-.03,.08-.03,.12,0-.09,.28-.11,.13-.11-.06,0-.12,.02-.17,.02-.04,0-.03,0-.09,0,.02,0-.2,.03-.12,.02-.04,0-.09,0-.13,0s-.09,0-.13,0c-.04,0-.08,0-.12,.02-.04,0-.05,.01-.02,0-.06,0-.12,0-.19,.02-.03,.01-.07,.03-.1,.04-.03,.02-.03,.02,0,0h.17c.11,.11,.14,.13,.1,.07v.03c.02-.05,0,.06,0-.01,0-.03,0-.06,0-.09,0-.09-.02,.05,0-.02,.01-.06,.02-.11,.03-.17,0-.02,.02-.07,.02-.09,0,.05-.07,.08-.1,.1h-.03s.08,0,.11-.01c.03,0,.05,0,.07-.02,.07-.02,.13-.06,.2-.1,.02-.01,.02-.01,0,0h.05s.09-.05,.14-.07c.03-.02,.06-.04,.09-.06,.02,0,.09-.05,.07-.04,.03,0,.13-.04,.18-.07,0,0,.09-.06,.1-.09-.09,.05-.11,.06-.06,.04l.08-.03c.11-.05,.25-.09,.36-.18,.07-.05,.12-.11,.18-.17,.05-.05,.1-.09,.15-.13,.06-.06,.11-.12,.16-.19,.02-.02,.03-.05,.04-.07l.02-.04s-.03,.03,0,0c.13-.11,.12-.34,0-.46-.13-.13-.32-.11-.46,0h0Z"/><path d="M74.93,143.89c-.09-.07-.18-.12-.29-.15h-.05s.01,0,.02,0c0,0-.08-.05-.09-.06-.02,0-.04-.02-.06-.03,0,0-.07-.04-.03-.02,.03,.02-.02-.01-.02-.02-.02-.02-.04-.03-.05-.05-.09-.08-.19-.14-.31-.18,0,0-.05-.03-.02,0,.04,.02-.02-.02-.03-.02-.01,0-.03-.02-.04-.03-.07-.05,.03,.03,0,0-.06-.06-.12-.11-.18-.17s-.13-.11-.21-.15c-.02,0-.04-.02-.05-.03h-.02s-.01-.02,.02,0c-.03,0-.07-.06-.09-.08-.12-.12-.34-.13-.46,0s-.13,.33,0,.46c.07,.07,.14,.13,.22,.18,.03,.02,.06,.03,.09,.05,.01,0,.05,.04,.02,.01s0,0,.01,.01c.13,.13,.26,.27,.43,.35,.05,.03,.11,.05,.16,.06,.04,.01,.01,0,0,0-.05-.03,0,0,0,0,.08,.07,.16,.15,.25,.19,.08,.04,.16,.09,.24,.13,.03,.01,.07,.02,.1,.03h.04s.03,.02,0,.01c-.02,0-.04-.02-.05-.03,.13,.11,.33,.14,.46,0,.11-.12,.14-.34,0-.46h0Z"/><path d="M73.12,144.14c1.45,0,1.45-2.25,0-2.25s-1.45,2.25,0,2.25h0Z"/><path d="M73.05,144c1.45,0,1.45-2.25,0-2.25s-1.45,2.25,0,2.25h0Z"/><path d="M72.98,143.6c0,.06,.04,.11,.06,.16l.02,.04v.02s-.01-.05,0-.02c0,0,.05,.12,.07,.15,0,0,.02,.03,.02,.04-.02-.04-.02-.05,0-.01v.02c.04,.09,.07,.17,.11,.25,.02,.04,.04,.09,.06,.13,.03,.06,0,0,0,0,.01,0,.01,.07,.02,.09,.02,.09,.06,.18,.1,.27,0,.02,.02,.04,.03,.06,0,0-.02-.06-.01-.02,0,.05,.03,.11,.05,.15,.12,.21,.34,.22,.55,.19,.02,0,.05,0,.07-.01-.01,0-.08,0-.03,0,.03,0,.07,0,.11,0s.07,0,.1,0h.06s.1,0,.04,0c-.05,0,0,0,.02,0h.04c.08,.02,.14,.03,.22,0,.14-.04,.23-.14,.28-.28,.05-.14,.07-.3,.03-.44-.01-.04-.03-.08-.05-.11-.03-.05-.05-.07-.1-.1l-.03-.03c.1,.23,.13,.27,.1,.11-.03-.12-.14-.22-.25-.27-.08-.03-.16-.06-.24-.09s-.17-.05-.26-.05c-.17,0-.33,.11-.38,.28-.01,.04-.02,.09-.01,.14,0,.04,0,.07,.02,.11,.02,.09-.02,0,.01-.09l.22-.22c.11-.02,.19,0,.27,.07-.04-.04,.03,.04,.03,.04,0,0-.03-.05-.04-.06-.01-.02-.02-.05-.04-.08,.05,.1,0,0,0-.02-.05-.13-.09-.27-.19-.37-.11-.13-.34-.12-.46,0-.12,.14-.12,.32,0,.46-.08-.09-.04-.05-.02,0,.01,.03,.03,.08,0-.02,0,.01,.01,.03,.02,.04,.03,.09,.07,.17,.1,.26,.09,.21,.25,.37,.5,.32,.11-.02,.19-.12,.22-.22,.02-.06,.02-.13,0-.19,0-.02-.02-.1-.01-.03,0,.03,0,.04,0,.02,0-.05-.02-.02-.07,.11-.07,.11-.05,.11-.14,.14-.06,.02,.02,0-.03,0s0,0,.01,0c.04,.01,.09,.03,.13,.05h.04s.07,.04,.02,.01c-.05-.02,0,0,0,0,.01,0,.01,0-.01,0-.02-.01-.04-.03-.05-.05l-.04-.16c0,.13,.06,.29,.19,.35-.12-.06-.12-.21-.09-.1,0,.03,0,.07,0-.03,0,.03,0,.02,0-.03v.04s-.02,.05-.03,.07c-.01,.03,0,.02,.02-.03,.03-.05,.07-.07,.13-.08,.1-.03,.13-.04,.08-.04,.06,0,.07,0,.03,0-.14-.04-.28-.02-.43-.03-.08,0-.14,0-.22,0-.07,.01,.08,0,.01,0-.02,0-.05,0-.07,0-.01,0-.02,0-.03,0,.08,0,.15,.04,.2,.12,.04,.07,.02,.05,.01,.01-.02-.08-.06-.15-.09-.22l-.02-.05s-.01-.03,0,0c-.01,0-.01-.06-.01-.07-.02-.09-.05-.16-.09-.24l-.02-.05v.03s-.01-.06-.03-.1c-.03-.08-.05-.16-.09-.24,0-.02-.02-.04-.03-.06l-.02-.04s.02,.04,0,.01c-.01-.03-.05-.1-.06-.14,.02,.04,.02,.04,0,.01,0-.01,0-.03,0-.04-.03-.17-.24-.27-.4-.22-.18,.06-.26,.22-.22,.4h0Z"/><rect x="67.13" y="79.92" width="1.81" height="1.33" transform="translate(136.14 161.11) rotate(179.95)"/><rect x="67.35" y="116.14" width=".29" height="1.1" transform="translate(135.1 233.31) rotate(179.95)"/><g><polygon class="e" points="64.89 145.97 64.03 147.42 73.04 147.41 72.23 145.97 64.89 145.97"/><path d="M63.78,147.56l1.03-1.73h7.51l.97,1.72h-9.51Zm1.19-1.44l-.69,1.16h8.52l-.65-1.16h-7.18Z"/></g><g><line class="e" x1="71.97" y1="140.34" x2="71.97" y2="145.94"/><rect x="71.83" y="140.34" width=".29" height="5.6"/></g></g></g><g><rect class="d" x="177.8" y="101.94" width="6.84" height="44.08" transform="translate(362.55 247.78) rotate(179.95)"/><rect class="d" x="178.87" y="87.02" width="4.67" height="10.74" transform="translate(362.5 184.61) rotate(179.95)"/><rect class="d" x="179.21" y="79.49" width="3.84" height="6.51" transform="translate(362.35 165.32) rotate(179.95)"/><rect class="d" x="180.7" y="76.2" width=".91" height="1.54" transform="translate(362.38 153.77) rotate(179.95)"/><path class="d" d="M184.51,141.84h.04l-.22-.06,.03,.02-.15-.15c.18,.28,.22,.6,.31,.92,.11,.41,.23,.8,.39,1.19,.08,.19,.17,.38,.27,.55,.08,.14,.11,.29,.13,.45,.02,.2,.06,.39,.13,.57,.04,.11,.08,.21,.14,.31,.02,.03,.04,.06,.06,.09,.01,.02,.04,.09,.02,.03v-.19l.19-.26h-.03l.22-.05s-.09,0-.13,0c0,0-.18,.02-.07,.02,.12,0-.11-.02-.14-.02-.04,0-.09,0-.13,0-.1,0-.2-.02-.3-.02-.03,0-.06,0-.08,0-.12,0-.08-.04,.02,.02l.15,.15c.02,.12,.04,.13,.04,.05,0-.04,0-.07,0-.11,0-.09,0-.18,.01-.28,.02-.18,.06-.35,.04-.53-.03-.38-.22-.75-.23-1.13l-.8,.22c.09,.2,.14,.41,.29,.58l-.11-.19c.07,.2,.14,.39,.21,.59,.04,.1,.09,.19,.13,.29,.02,.04,.03,.09,.04,.14,.02,.07,.02,.16,.04,.03l.78-.1c-.09-.12-.14-.3-.21-.45-.09-.2-.21-.38-.31-.58s-.16-.39-.22-.6c-.05-.19-.1-.41-.19-.58-.26-.49-1.01-.05-.74,.43,0,0,.03,.15,.05,.2,.03,.1,.06,.19,.09,.29,.07,.23,.17,.47,.27,.69,.09,.19,.21,.36,.3,.55,.07,.16,.12,.33,.22,.48,.2,.28,.7,.29,.78-.1,.07-.33-.09-.61-.21-.9s-.16-.6-.37-.84l.11,.19c-.05-.19-.14-.37-.22-.55-.18-.4-.81-.19-.8,.22,0,.37,.15,.72,.22,1.09,.03,.15,0,.29-.02,.44-.02,.17-.02,.34-.03,.52-.01,.39,.22,.62,.61,.63,.25,0,.54,.06,.79,.03-.02,0,.16-.02,.09-.01-.04,0,.02,0,.02,0,.11-.01,.2-.04,.29-.1,.18-.14,.21-.37,.13-.57-.05-.11-.12-.2-.17-.31-.06-.13-.1-.28-.12-.42-.02-.16-.04-.31-.08-.47-.05-.19-.14-.33-.23-.5-.16-.29-.28-.6-.37-.93-.09-.35-.19-.7-.28-1.05s-.29-.78-.69-.8c-.55-.02-.55,.84,0,.86h0Z"/><path class="d" d="M182.87,98.24c.06,.3,.18,.61,.28,.9,.07,.24,.07,.49,.07,.74,0,.27-.08,.54-.02,.81,.02,.12,.08,.23,.09,.35,.02,.14,.06,.29,.07,.43l.65-.37c.07,.04-.04-.09-.06-.13-.05-.09-.08-.19-.11-.29-.09-.28-.18-.55-.24-.83s-.12-.55-.17-.83c-.04-.24-.15-.5-.14-.74,.02-.47-.75-.6-.84-.11-.13,.66-.05,1.38,.03,2.04,.02,.16,.06,.32,.07,.48s0,.29,0,.45c-.02,.39,.01,.7,.43,.84l-.26-.2,.03,.04,.48-.63c-.34-.11-.66-.17-1.01-.23-.18-.03-.32-.08-.5-.02-.2,.06,0,.04-.16,.04-.1,0-.19,0-.29,0-.36-.02-.74-.16-1.1-.14-.15,0-.3,.03-.46,.04-.06,0-.12,0-.18,.01,0,0-.15-.02-.11,0l.21,.37c-.02,.14-.1,.13,.02,.08,.04-.02,.08-.05,.13-.07,.13-.05,.29-.04,.43-.05,.35,0,.69,.03,1.03,.07,.16,.02,.31,0,.47,.02,.15,.01,.3,.05,.45,.06,.24,.01,.63-.12,.78-.31,.23-.28,.08-.69-.21-.86-.27-.16-.61-.12-.9-.12-.33,0-.7,0-1.03,.05-.11,.02-.22,.04-.34,.02-.16-.03-.3-.09-.47-.1l.22,.06s-.15-.11-.2-.1c-.08,.01,.09,.06,.06,.13l-.11,.19c.25-.27,.68-.09,.99-.07,.41,.03,.83,.07,1.24,.17l-.1-.78s-.28,.05-.39,.04c-.24-.03-.46-.06-.7-.07-.2,0-.4-.02-.6-.06-.18-.04-.46-.04-.59-.08l.19,.11-.03-.03,.11,.19c-.02,.11-.02,.12,0,.04,.02-.01,.03-.03,.04-.05,.03-.05,.06-.09,.09-.13,.1-.15,.17-.31,.21-.49s.08-.34,.13-.51c.03-.1,.08-.29,.13-.33l-.52,.07,.04,.02-.15-.15c-.04-.09,.08,.21,.04,.12,.03,.06,.04,.08,.06,.14,.04,.13,.07,.26,.09,.39,.02,.14,.04,.28,.08,.42,.02,.11,.03,.21,.07,.32,.14,.38,.72,.44,.83,0,.06-.26-.02-.56-.06-.82s-.07-.5-.34-.63c-.26-.12-.56,0-.75,.2-.2,.21-.2,.48-.19,.76,.02,.55,.86,.55,.86,0,0-.16-.02-.34,0-.5,.01-.06,.03-.11,.05-.17,.01-.05,.02-.11,.01-.16,0-.08-.01-.07-.03,.04l-.15,.15,.05-.02-.22,.06s.15,.06,.16,.06c.1,.04,.21,.05,.32,.06,.18,.01,.36,.05,.54,.03,.22-.02,.4-.1,.6-.16s.41-.05,.61-.1l-.33-.78c-.4,.18-.49,.58-.43,.98,.04,.27,.23,.68,.11,.95l.48-.2h-.03l.19,.1c.06,.04,.02,.05,0-.04-.02-.07-.03-.12-.06-.19-.08-.19-.19-.36-.32-.52-.23-.29-.45-.71-.9-.51-.39,.17-.36,.59-.42,.94-.07,.38,.15,.76,.2,1.12v-.23l-.02,.05,.78-.1c-.09-.2-.14-.42-.17-.64-.01-.09-.02-.18-.03-.26,0-.05,0-.12-.01-.17s.01-.03,0,0l-.15,.15-.08,.03-.22-.06c.11,.05,.23,.21,.27,.33l.53-.53c-.08-.02-.14-.06-.21-.1-.15-.09-.4-.07-.52,.07-.21,.24-.14,.54-.21,.83-.13,.54,.69,.76,.83,.23,.03-.13,.07-.27,.08-.41,0-.04,0-.08,0-.12,0-.01,0-.13,0-.09l-.11,.19,.03-.03-.52,.07c.13,.08,.27,.15,.42,.19,.3,.08,.63-.21,.53-.53-.1-.29-.29-.56-.52-.75-.27-.22-.71-.21-.89,.12-.14,.25-.08,.56-.05,.84,.04,.38,.13,.72,.29,1.07,.07,.15,.28,.23,.43,.2,.18-.03,.29-.14,.36-.31s0-.31-.04-.47c-.04-.13-.06-.27-.09-.4s0-.19,0-.33c0-.05,0-.13,0-.17,.02-.17,.09-.02-.14,.05h-.23c-.1-.1-.13-.11-.07-.03,.01,.02,.03,.05,.05,.07,.05,.07,.11,.14,.16,.21,.08,.1,.16,.21,.21,.34,.1,.27,.14,.53,.46,.62,.17,.04,.41-.03,.48-.2,.16-.37,.15-.72,.08-1.1-.03-.15-.07-.3-.09-.45,0-.03,0-.07,0-.11,0,.07-.09,.1,.03,.04,.45-.2,.13-.91-.33-.78-.18,.05-.36,.04-.53,.08-.15,.03-.29,.11-.43,.14-.26,.05-.53-.03-.78-.11-.35-.11-.8,.09-.76,.52,0,.11,.01,.02,0,.12-.01,.06-.03,.13-.04,.19-.03,.2-.02,.4-.02,.6h.86c0-.06,.01-.16,0-.21,0-.05,0-.04-.02,.01-.04,.06-.1,.08-.18,.05l-.19-.11c-.04-.13-.06-.16-.05-.09,0,.02,0,.05,0,.07,0,.08,.03,.16,.04,.24,0,.05,0,.1,.01,.16,0,.03,.01,.23,.04,.14h.83c-.09-.26-.11-.63-.18-.92s-.18-.7-.44-.85c-.17-.1-.38-.06-.52,.07-.17,.14-.26,.4-.32,.6-.07,.24-.11,.49-.19,.72-.06,.19-.21,.33-.29,.52-.1,.25-.08,.56,.16,.73,.22,.16,.47,.11,.73,.16s.55,.09,.83,.09c.26,0,.52,.07,.78,.07,.22,0,.56-.03,.75-.16,.28-.2,.29-.69-.1-.78-.31-.07-.63-.1-.94-.16-.16-.03-.31-.03-.47-.04s-.32-.07-.48-.08c-.56-.04-1.44,.24-1.29,.95,.06,.3,.28,.45,.54,.57,.13,.06,.25,.06,.38,.1,.15,.05,.32,.07,.48,.06,.3-.01,.6-.06,.9-.07,.17,0,.35,0,.52,0,.03,0,.18,.02,.2,0,.07-.07,.03,.28-.05-.09v-.23l.02-.04,.15-.15s-.04,.03-.01,.01l-.09,.03s-.16,.06-.07,.04c-.08,.01-.22-.03-.31-.04-.08,0-.15-.02-.23-.02-.15-.01-.3,0-.46-.03-.22-.05-.47-.05-.7-.05-.68-.02-1.65,.05-1.75,.9-.02,.14,.09,.3,.21,.37,.27,.15,.6,.12,.9,.1,.2-.01,.35-.05,.54,0s.39,.07,.58,.09c.18,.02,.36,.03,.54,.03,.11,0,.23,0,.34-.04l.1-.04c-.15,0-.17,0-.08,.02,.15,.07,.36,.05,.52,.08,.19,.04,.38,.11,.56,.17,.33,.11,.71-.33,.48-.63-.08-.11-.19-.19-.27-.23l.15,.15-.02-.04,.06,.22c0-.24,.04-.48,.02-.72-.03-.26-.08-.52-.11-.79-.05-.5-.13-1.08-.03-1.58l-.84-.11c-.01,.31,.11,.63,.17,.93,.06,.35,.13,.69,.21,1.03,.07,.32,.18,.63,.3,.93,.1,.25,.22,.54,.47,.67s.69-.03,.65-.37c-.02-.15-.06-.29-.07-.43-.02-.16-.04-.3-.09-.45-.08-.24,.02-.53,.02-.79,0-.3,0-.62-.11-.9s-.21-.59-.27-.88c-.11-.54-.94-.31-.83,.23h0Z"/><path class="d" d="M182.07,102.29c1.93,0,1.93-3,0-3s-1.93,3,0,3h0Z"/><path class="d" d="M183.29,86.58c-.09-.1-.08-.23-.16-.35-.12-.2-.33-.29-.55-.29s-.43,.12-.52,.33c-.05,.11-.06,.25-.03,.37,.01,.06,.03,.11,.06,.16,.06,.1-.03,.08,0-.1l.53-.3s.14,.1-.04-.04c-.02-.02-.03-.02-.05-.04-.07-.06-.14-.11-.19-.19-.11-.17-.2-.37-.43-.4s-.47,.05-.53,.3c-.04,.15-.03,.3,.01,.45,.01,.05,.04,.09,.05,.13,.03,.07,.01,.11,.03,.03l.3-.3h-.03l.33,.05s.03,.06,.03,.03c0-.01-.14-.18-.1-.13-.06-.07-.13-.13-.18-.19-.23-.26-.62-.09-.72,.19-.04,.11-.04,.23-.04,.34,0,.04,0,.08,0,.12,0,.07-.02,.16,.04,0l.37-.21h-.03l.22,.06s.07,.06,.08,.1c0,.03,0,.02,0-.02-.01-.04-.03-.09-.05-.13-.06-.12-.13-.22-.22-.32-.16-.19-.42-.28-.65-.15-.2,.12-.25,.34-.26,.56,0-.17,0,.03,0,.07,0-.06,0-.05,0,0,0,.03-.01,.06-.02,.1v.04c0-.06,.04-.11,.1-.14l.22-.06h-.03l.22,.06c.09,.11,.12,.13,.07,.06l-.02-.04s-.02-.04-.03-.07c.02,.05,.03,.06,.02,.02-.03-.14-.08-.26-.18-.37-.09-.1-.29-.16-.42-.11-.18,.07-.32,.18-.41,.35-.03,.07-.06,.15-.09,.22-.01,.03-.02,.07-.03,.1-.02,.06,.04-.08,0,.01l.67-.09s.04,.06,.04,.1c0-.05-.01-.09-.01-.14,0-.09,0-.19,0-.28,0-.19-.14-.36-.32-.41-.17-.05-.41,.03-.48,.2-.04,.08-.07,.16-.09,.25l.78-.1c.04,.06,.01,.1-.02,.17l-.48,.2s-.02-.02,.03,.01c.03,.02,.05,.04,.08,.06,.07,.05,.15,.08,.23,.11,.33,.09,.71-.32,.48-.63-.17-.24-.41-.33-.7-.33-.08,0-.16,0-.24,.01-.07,0-.15,0-.22,.02-.04,.01-.28,.18-.17,.11l.22-.06h-.03l.22,.06c.05,.03,.02,.02-.01-.01-.04-.04-.09-.07-.13-.1-.13-.07-.28-.08-.42-.03-.19,.08-.39,.34-.49,.52-.14,.24-.1,.56,.15,.71,.16,.09,.37,.09,.55,.09,.12,0,.23-.03,.33-.09,.05-.03,.1-.09,.15-.12,.09-.05,.21-.08,.31-.13,.11-.05,.21-.12,.31-.17,.07-.03,.15-.04,.22-.07,.08-.03,.2-.1,.25-.12,.14-.04,.34,0,.49,0,.55,0,.55-.85,0-.86-.23,0-.45-.03-.67,.01-.11,.02-.2,.08-.3,.12-.11,.05-.23,.07-.34,.12s-.21,.11-.31,.16c-.11,.06-.24,.1-.36,.15-.07,.04-.22,.11-.26,.19,.15-.05,.18-.07,.1-.07-.03,0-.06,0-.09,0-.15,0-.02-.04,.11,.08l.11,.19v.2c-.02,.07,.02-.04,.04-.06,.05-.06,.1-.11,.15-.16l-.42,.11c-.1-.07-.12-.08-.06-.03,.04,.03,.08,.06,.12,.09,.08,.05,.16,.07,.25,.07,.18,0,.28-.08,.41-.19l-.19,.11s.14,0,.18,0,.09,0,.13,0h-.03c.09,.03,.06,0-.1-.1l.48-.63s-.08-.06-.11-.08c-.07-.05-.15-.08-.23-.1-.17-.03-.41,.02-.48,.2-.1,.23-.11,.48,.02,.7,.19,.32,.69,.26,.78-.1,.02-.05,.03-.06,0-.04l-.8-.22c0,.31-.02,.71,.22,.93,.2,.18,.53,.16,.67-.09,.05-.09,.08-.18,.11-.28,0-.03,.05-.09,.04-.12,.01,.05-.12,.1-.13,.11l-.42-.11c-.09-.1-.06-.08-.04,0,.01,.05,.04,.09,.06,.14,.03,.06,.06,.12,.09,.18,.15,.23,.43,.33,.69,.19,.17-.1,.26-.29,.29-.48,0-.04,.01-.07,.02-.11,0-.02,.03-.2,.01-.11s.01-.09,.01-.1c0-.14,.04,0-.08,.11l-.19,.11h-.18l-.19-.11c.11,.09,.13,.16,.18,.27,.09,.21,.28,.38,.52,.37,.14,0,.31-.07,.37-.21s.08-.26,.08-.41c0-.1-.02-.19,0-.25l-.72,.19c.05,.05,.1,.1,.15,.15-.05-.06,.11,.15,.1,.14,.15,.17,.32,.21,.54,.18,.14-.02,.27-.17,.3-.3,.04-.15,.03-.3-.01-.44-.02-.05-.04-.09-.05-.13-.02-.06-.01-.12-.03-.04l-.53,.3c-.12-.02-.19-.2-.11-.05,.02,.03,.03,.06,.05,.08,.07,.11,.15,.2,.24,.28,.18,.16,.29,.31,.53,.36,.21,.05,.48-.06,.53-.3,.02-.12,.04-.22,0-.34-.01-.05-.04-.1-.06-.14-.07-.15,.07,.04-.03,.18l-.15,.15c-.12,.02-.15,.03-.09,.03,.05,0,.03,0-.08-.02l-.15-.15c.05,.07,0-.05,.02,.05,.01,.06,.05,.14,.08,.2,.06,.12,.13,.22,.22,.31,.15,.18,.45,.15,.61,0,.18-.18,.15-.43,0-.61h0Z"/><path class="d" d="M182.86,79.22c-.1-.1-.21-.18-.31-.28-.05-.05-.11-.1-.16-.16,0,0,.04,.06-.02-.02-.03-.05-.06-.1-.1-.14-.04-.05-.09-.09-.14-.13-.01,0-.04-.06-.01-.01-.02-.03-.03-.06-.04-.08-.06-.12-.12-.22-.19-.33-.07-.12-.14-.23-.26-.32-.08-.06-.17-.1-.27-.11-.06,0-.09,0-.15,0,0,0-.16,.03-.1,.02s-.03,0-.04,0c-.04,0-.08,0-.12,0-.12,.02-.22,.06-.31,.14-.1,.09-.16,.21-.22,.34-.02,.04-.03,.11-.06,.14,0,0,.02-.06,.03-.05-.01-.01-.16,.17-.16,.18,.03-.04-.02,.02-.02,.02-.02,.03-.05,.06-.08,.09-.05,.05-.1,.1-.15,.14-.05,.04-.1,.08-.11,.09-.03,.03-.07,.05-.1,.08-.13,.09-.25,.19-.34,.32-.21,.31-.06,.71,.29,.82,.25,.08,.53,.02,.76-.09,.15-.07,.17-.09,.33-.14,.13-.04,.27-.07,.4-.11,.05-.01,.1-.03,.15-.04,.02,0,.04-.01,.06-.02,.03,0,.12,0,.02,0,.02,0,.04,0,.06,0h.03s.04,0,0,0h-.03s.04,0-.02-.02c-.02-.01-.1-.12-.06-.05l.48-.63c.06,.02,.08,.06,.02,0-.03-.03-.05-.06-.07-.09-.07-.09-.15-.15-.24-.21-.08-.06-.16-.12-.26-.15-.19-.06-.37,.01-.51,.14-.17,.16-.16,.45,0,.61,.17,.17,.44,.16,.61,0l.03-.03-.19,.11h-.2c-.08-.02-.04-.03,0,0,.02,.01,.07,.05,.03,.02,.05,.04,.09,.09,.13,.14,.11,.14,.24,.24,.42,.3,.37,.12,.66-.32,.48-.63-.25-.45-.78-.38-1.19-.26-.24,.07-.48,.13-.71,.23-.05,.02-.09,.05-.13,.07,0,0-.09,.04-.05,.03,.04-.02-.03,0-.03,0-.14,.04,.06,0-.02,0,0,0-.11,0-.11,0,0-.04,.09,.03,.03,0l.11,.21c.11,.08,.14,.17,.09,.26,0,.02-.06,.06,0,.01,.01-.01,.03-.02,.04-.03,.08-.07-.03,.01,.03-.02,.04-.03,.09-.06,.13-.09,.11-.08,.22-.17,.31-.26,.1-.1,.18-.23,.28-.33-.03,.02,.06-.05,.07-.06,.05-.05,.09-.11,.12-.17,.02-.05,.04-.09,.06-.14,0,.01-.03,.06,0,0,0-.02,.02-.03,.02-.05,.03-.06,.04-.03,0-.02,0,0-.26,.06-.13,.07,.02,0,.04,0,.06,0,.05,0,.1-.01,.15-.02,.08-.02,.1,0-.08-.05l-.13-.03,.02,.03s-.03-.05,0,0c.02,.04,.05,.08,.07,.12,.07,.11,.12,.24,.19,.35,.07,.11,.21,.23,.26,.3-.03-.03,.01,.03,.01,.03,.03,.05,.07,.1,.11,.14,.05,.06,.11,.11,.16,.16,.11,.1,.22,.19,.33,.29,.17,.16,.44,.17,.61,0s.17-.45,0-.61h0Z"/><path class="d" d="M181.58,75.94c0-.3,.05-.61-.06-.9l-.78,.33,.02,.04-.04-.1c.05,.12,.05,.24,.08,.37,.01,.07,.03,.13,.04,.2l-.02-.11s0,.1,0,.15l.02-.11s0,.04-.01,.05l.04-.1v.02l.05-.09-.02,.02,.09-.07h-.01l.1-.03h.1s-.02,0-.03,0c-.11,0-.23,.05-.3,.13s-.13,.2-.13,.3,.04,.23,.13,.3,.18,.12,.3,.13c.05,0,.11,0,.15-.02,.07-.02,.16-.07,.21-.12,.07-.07,.12-.15,.14-.25,.04-.15,.02-.28,0-.43-.01-.07-.04-.15-.05-.22-.01-.06-.02-.12-.03-.19-.02-.09-.06-.19-.1-.27-.05-.09-.16-.17-.26-.2s-.19-.02-.28,.02c-.08,.03-.16,.09-.21,.18-.05,.1-.08,.22-.04,.33,.02,.06,.03,.11,.04,.17l-.02-.11c.03,.2,0,.41,0,.61,0,.11,.05,.23,.13,.3s.2,.13,.3,.13,.23-.04,.3-.13,.13-.19,.13-.3h0Z"/><path class="d" d="M181.57,74.73c.02,.08,.02,.08,0,0l-.02-.08c-.02-.06-.03-.12-.05-.19-.04-.13-.06-.25-.07-.38-.01-.23-.03-.46-.04-.69-.01-.25,.03-.5,.01-.75-.02-.23,.03-.46,.03-.69h-.43c0,.31,.01,.61-.02,.91-.03,.29-.06,.58-.07,.87-.03,.58-.12,1.15-.11,1.73,0,.28,.43,.28,.43,0,0-.06-.01-.11-.04-.16-.12-.25-.49-.03-.37,.22l-.02-.06h.43c-.02-.58,.07-1.15,.11-1.73,.02-.29,.04-.58,.07-.87,.03-.31,.02-.61,.02-.91,0-.28-.43-.28-.43,0,0,.26-.05,.5-.03,.76s-.04,.5-.01,.75c.01,.11,0,.23,0,.34,0,.13,.03,.25,.04,.38,.01,.14,.04,.27,.08,.4,.03,.12,.05,.26,.11,.36,.13,.24,.5,.03,.37-.22h0Z"/><g><path d="M175.85,146.18l1.77-5.82-.04-38.69v-.02l1.05-3.81v-10.93l.47-.96v-6.53l1.43-1.82v-1.48l.4-4.57h.57l.32,4.61v1.49l1.44,1.82v6.53l.49,.96v10.93l1.07,3.85,.04,38.66,1.93,5.77h-10.93Zm2.02-44.45l.04,38.69v.02l-1.67,5.47h10.14l-1.82-5.47-.04-38.67-1.06-3.85v-10.88l-.49-.96v-6.5l-1.44-1.82v-1.58l-.31-4.33h-.04l-.37,4.3v1.57l-1.43,1.82v6.5l-.47,.96v10.92l-1.04,3.81Z"/><polygon points="186.34 145.36 186.34 145.07 187.58 145.07 187.58 144.09 185.31 142.59 185.46 142.35 187.87 143.94 187.87 145.36 186.34 145.36"/><polygon points="174.7 145.3 174.7 143.88 177.1 142.28 177.26 142.52 174.99 144.03 174.99 145.01 176.23 145.01 176.23 145.29 174.7 145.3"/><rect x="177.7" y="113.43" width="6.97" height=".29"/><rect x="177.74" y="122.87" width="6.97" height=".29"/><rect x="183.24" y="113.57" width=".29" height="9.44"/><rect x="180.79" y="113.64" width=".29" height="9.37"/><rect x="178.32" y="113.61" width=".29" height="9.44"/><rect x="180.94" y="113.57" width="2.44" height="9.43" transform="translate(364.42 236.4) rotate(179.95)"/><rect x="177.69" y="113.66" width=".7" height="9.28" transform="translate(356.19 236.45) rotate(179.95)"/><rect x="181.05" y="98.25" width=".29" height="6.94" transform="translate(78.39 282.31) rotate(-89.66)"/><rect x="178.77" y="97.72" width="4.84" height=".29"/><rect x="177.54" y="99.65" width="3.93" height=".29" transform="translate(43.92 254.05) rotate(-77.76)"/><polygon points="177.73 101.7 179.09 101.71 179.92 97.87 178.77 97.87 177.73 101.7"/><polygon points="184.02 101.79 183.44 99.83 184.19 99.83 184.19 100.34 184.57 101.62 184.02 101.79"/><rect x="181.04" y="84.08" width=".29" height="3.88" transform="translate(93.1 266.2) rotate(-89.35)"/><rect x="178.76" y="86.85" width="4.84" height=".29"/><rect x="178.75" y="87.64" width="4.88" height=".29"/><rect x="178.76" y="89.08" width="4.81" height=".29"/><rect x="178.75" y="87.76" width="4.78" height="1.46" transform="translate(362.37 176.82) rotate(179.95)"/><rect x="180.67" y="77.57" width="1.01" height=".29"/><rect x="179.24" y="79.39" width="3.88" height=".29"/><rect x="180.67" y="76.03" width="1.01" height=".29"/><polygon points="180.78 146.03 180.77 136.77 183.72 136.77 183.73 146.03 183.44 146.03 183.43 137.05 181.06 137.06 181.07 146.03 180.78 146.03"/><rect x="180.92" y="136.91" width="2.66" height="9.12" transform="translate(364.63 282.78) rotate(179.95)"/><polygon points="178.34 146.06 178.33 136.94 177.73 136.94 177.73 136.65 178.62 136.65 178.63 146.06 178.34 146.06"/><path d="M176.76,144.63c-.01,.12,.03,.23,.07,.34,.03,.08,.07,.15,.11,.23l-.04-.1c.04,.1,.09,.19,.13,.28l-.04-.1s.02,.06,.03,.1l-.02-.11c.02,.14,.03,.26,.11,.37,.05,.07,.11,.15,.17,.21,.1,.08,.19,.14,.31,.17,.15,.04,.28,.04,.43,.01l-.11,.02c.09-.01,.18,0,.28-.03,.16-.06,.28-.18,.31-.36,.01-.08,0-.15-.03-.22-.04-.09-.09-.15-.18-.21-.08-.05-.19-.08-.28-.08-.11,0-.22,.04-.3,.13-.07,.07-.13,.2-.13,.3s.04,.23,.13,.3,.19,.13,.3,.13c0,0,.02,0,.03,0l-.11-.02h.01l-.1-.04s.02,0,.02,.01l.1-.78s-.02,0-.03,0l.11-.02s-.06,0-.08,0c-.06,0-.12,.01-.18,.02l.11-.02s-.07,0-.11,0l.11,.02s-.08-.01-.12-.03l.1,.04s-.05-.03-.07-.04l.09,.07s-.06-.06-.09-.09l.07,.09s-.04-.06-.06-.09l.04,.1s-.01-.05-.02-.07l.02,.11c0-.06-.01-.12-.02-.18s-.04-.12-.06-.17c-.02-.05-.05-.1-.08-.16l.04,.1c-.04-.1-.09-.21-.14-.31l.04,.1s-.03-.08-.04-.12l.02,.11s0-.04,0-.06c.01-.1-.06-.24-.13-.3-.07-.07-.2-.13-.3-.13s-.23,.04-.3,.13l-.07,.09c-.04,.07-.06,.14-.06,.22h0Z"/><path d="M177.75,141.94c.02,.25,.16,.49,.15,.75,0,.14-.08,.28-.1,.42-.01,.15,.02,.3,.03,.45,0,.13-.01,.26,0,.39,.01,.15,.04,.3,.05,.45,0,.13,.02,.27,0,.39,0,.07,0,.14-.02,.21,0,.02,0,.16,0,.17l.59-.08-.02-.04c-.19-.37-.75-.04-.56,.33l.02,.04c.13,.25,.52,.18,.59-.08,.02-.07,.01-.14,.01-.21,0-.07,.03-.14,.03-.21,0-.16,0-.31,0-.47,0-.14-.02-.31-.04-.45-.02-.13-.01-.26-.01-.39,0-.15-.04-.3-.03-.45s.09-.28,.1-.42-.02-.32-.05-.46c-.02-.11-.08-.23-.09-.34-.02-.41-.67-.41-.64,0h0Z"/><path d="M178.16,144.83s0,.03,0,.02c0-.03,0-.06,0-.1,0-.06,0-.12,0-.18,0-.15-.07-.28-.09-.43-.03-.29-.07-.57-.03-.85s.05-.59,.06-.88c0-.23-.05-.48-.27-.6-.14-.08-.36-.04-.44,.12-.07,.15-.11,.32-.16,.48-.05,.15-.1,.29-.15,.44s-.07,.29-.15,.43c-.08,.15-.08,.32-.13,.47-.09,.3-.22,.58-.34,.88-.12,.31-.19,.63-.32,.94-.07,.16-.04,.44,.19,.47,.17,.02,.33,0,.5,0,.18,0,.37-.02,.54-.05h-.12c.18,.04,.33-.04,.4-.22,.05-.13,.01-.25-.02-.38-.08-.41-.7-.23-.62,.17,0,.02,0,.04,.01,.06,0,.04,0,.03,0-.02l.4-.22c-.18-.03-.35,.02-.53,.02s-.34,0-.52,.04h.13l.19,.47c.14-.32,.23-.64,.34-.96,.05-.14,.11-.28,.16-.41,.06-.15,.11-.31,.16-.46,.03-.09,.06-.15,.08-.24,.01-.07,.02-.15,.05-.22,.06-.15,.14-.27,.17-.43,.03-.15,.07-.3,.13-.44,.03-.09,.06-.17,.09-.26,.02-.06,.03-.15,.06-.21l-.44,.12c-.06-.06-.07-.07-.03-.02,.03,.05,.02,.04,0-.02,0,.05,0,.1,0,.15,0,.14-.02,.28-.02,.41,0,.12-.02,.24-.04,.36-.02,.17-.03,.3-.01,.48,.01,.13,.03,.26,.03,.39,0,.15,.05,.28,.08,.43,.03,.11,0,.24,.02,.36,.02,.15,.07,.28,.18,.39,.3,.29,.76-.17,.46-.46h0Z"/><path d="M177.32,143.7c-.09,.1-.12,.2-.13,.33,0,.03,0,.05,0,.08,0,.03,.02-.1,0-.03l-.02,.07s-.02,.08-.03,.12-.01,.08-.02,.12c0,.04,.02-.06,0,0-.01,.04-.02,.08-.04,.12,0,.02-.02,.05-.03,.07,0,.01-.04,.07,0,.03,0,0,.06-.07,.02-.04-.02,.02-.04,.04-.05,.06-.04,.05-.06,.11-.09,.17-.01,.03,.02-.06,.04-.06,0,0-.04,.04-.04,.04-.03,.04-.06,.07-.08,.12,0,0-.03,.07-.02,.07,0,0,.07-.09,.04-.07-.01,.01-.02,.03-.03,.04-.03,.03-.05,.06-.07,.1-.01,.02-.03,.05-.05,.07-.01,.02-.04,.05,.02-.02-.07,.08-.02-.07,.18-.06l.31,.24c.01,.08,0,0,0-.01,0-.17-.15-.33-.32-.32s-.32,.14-.32,.32c0,.06,0,.12,.02,.18,.02,.14,.18,.23,.31,.24,.15,0,.26-.09,.34-.2,.03-.04,.07-.09,.09-.14-.04,.04-.05,.06-.03,.04l.02-.02s.06-.06,.08-.1c.02-.03,.04-.07,.04-.1,0-.08-.03,.07-.05,.06,0,0,.04-.04,.04-.04,.03-.03,.05-.06,.07-.1,.02-.03,.03-.07,.04-.1,0-.02,0-.01-.01,.03-.03,.04-.04,.04-.02,.03,.1-.08,.13-.2,.17-.31s.06-.21,.08-.32c0-.04-.01,.06,0,0l.02-.07c.01-.05,.02-.1,.03-.15,0-.04,.01-.08,.01-.12,0-.06-.02,.07,0,.02v-.02s-.03,.07-.06,.1c.11-.12,.13-.33,0-.46-.12-.11-.33-.13-.46,0h0Z"/><path d="M177.75,142.13c.22-.06,.52-.02,.65-.24,.12-.18,.08-.53,.08-.74,0-.22-.03-.45-.06-.67-.02-.12-.01-.24-.01-.36,0-.06,0-.12-.01-.18-.03-.11-.03,.06,0-.02,.07-.21-.03-.46-.01-.68,0-.14,.04-.28,.03-.43,0-.12-.02-.24-.03-.36-.02-.23,.03-.45,.03-.68,0-.25-.03-.47,0-.72,.02-.17-.16-.32-.32-.32-.19,0-.3,.15-.32,.32-.03,.2-.03,.38,0,.59,.02,.19-.02,.36-.02,.55s.02,.36,.03,.54c.01,.22-.05,.43-.02,.65,.04,.38,0,.75,.03,1.13,.02,.18,.04,.35,.06,.53,0,.11,0,.22,0,.33,0,.05,0,.11,0,.16,0,.06-.04,.2,.02,.05l.19-.15c-.06,.02-.15,0-.21,.02-.09,.02-.17,.04-.25,.07-.4,.11-.23,.73,.17,.62h0Z"/><path d="M177.53,140.7s0,.02,0,.03v-.09s0,.01,0,.02l.03-.08s-.04,.07-.06,.11c-.03,.07-.03,.14-.04,.21v-.09c-.01,.14-.08,.27-.12,.41-.01,.04-.03,.07-.04,.11,0,.03-.01,.07-.02,.1-.02,.09-.04,.17-.05,.27,0,.17,.15,.33,.32,.32,.18,0,.31-.14,.32-.32v.05c.01-.14,.05-.29,.1-.42,.02-.07,.05-.13,.08-.2,.03-.09,.04-.18,.06-.27v.09s0-.03,0-.04l-.03,.08s.03-.04,.04-.06c.04-.06,.06-.14,.05-.22,0-.09-.03-.16-.09-.23-.06-.06-.15-.1-.23-.09-.16,0-.34,.14-.32,.32h0Z"/><path d="M176.84,142.67c-.1,.09-.13,.2-.22,.29-.04,.04-.09,.07-.13,.11-.03,.02-.05,.05-.07,.07-.01,.02-.03,.03-.04,.05,.03-.02,.02-.02,0,0-.03,.02-.05,.03-.08,.04,.05-.02-.02,0-.03,.01-.04,.02-.09,.03-.13,.06-.11,.05,.04-.02-.04,.02s-.11,.04-.16,.1c-.08,.07,0-.01,.04,0-.01,0-.08,.02-.09,.03-.05,.02-.1,.04-.14,.06-.03,.02-.06,.04-.09,.06-.07,.05,.03,0-.05,.02-.08,.02-.15,.06-.21,.1-.02,.01-.03,.02-.05,.03,.08-.03-.07,0,.03-.01-.11,.02-.19,.03-.28,.08-.14,.09-.2,.25-.23,.4-.02,.13-.05,.26-.05,.39s.03,.27,.11,.39c.06,.09,.15,.16,.26,.18,.07,.01,.13,.01,.2,0,.03-.01,.07-.03,.1-.04,.05-.02,.03-.02-.05,0,0,0,.11,0,.11,0-.02,0,.12-.02,.07-.01,.08,0,.15,0,.23,0,.05,0,.1,0,.16-.02,0,0,.11-.02,.04,0,.08,0,.18-.03,.27-.03-.06,0,.03,0,.03,0,.06,0,.13-.02,.19-.05,.07-.04,.13-.11,.18-.18,.04-.06,.07-.14,.08-.22,0-.03,0-.06,.01-.09,0-.01,.03-.11,0-.07,.02-.05,.06-.1,.09-.15,.03-.06,.05-.12,.09-.17,.1-.16,.17-.33,.06-.51-.12-.2-.36-.21-.54-.1l-.07,.05s.04-.03,0,0c-.04,.02-.08,.04-.11,.06-.07,.05-.14,.11-.2,.17s-.13,.11-.19,.18,.04-.02-.02,.02c-.03,.01-.06,.03-.08,.04,.07-.03-.18,.08-.1,.04-.02,0-.04,.02-.06,.03-.05,.03-.03,.02,.05,0-.02-.02-.21,0-.25,0l.28,.48s0,0,.02-.02c.02-.01,.03-.03,.05-.04,.04-.03,.08-.06,.11-.09,.09-.08,.17-.18,.23-.28,.05-.09,.1-.21,.11-.32,0-.05-.08,.08-.02,.04,.01,0,.03-.02,.04-.03,.05-.05,.09-.12,.13-.18,.02-.03,.03-.03,.07-.08,.04-.04,.07-.07,.11-.11,.07-.08,.14-.16,.23-.22,.02-.01,.08-.06,.12-.08s.16-.08,.17-.11c.01-.01,.02-.01,0,0-.01,.01-.03,.02-.05,.02-.11,.03,.05,0,.07,0,.08-.02,.16-.06,.21-.12,.11-.14,.13-.32,0-.46-.11-.11-.35-.14-.46,0l.14-.05s-.05,0-.07,0c-.06,0-.09,.02-.15,.04-.02,0-.03,.02-.05,.03-.03,.02-.05,.04-.08,.06-.01,.01-.02,.01,0,0,.03-.02-.06,.03-.06,.03-.02,.01-.04,.03-.06,.04-.06,.04-.13,.09-.19,.14-.09,.07-.16,.15-.24,.23-.09,.09-.18,.17-.25,.27-.01,.02-.03,.04-.04,.06-.05,.08,.01,0-.02,.03-.04,.04-.08,.07-.11,.13-.03,.06-.06,.13-.08,.19,0,.02,0,.04-.01,.06,0,0-.03,.07-.01,.05,.01-.03-.03,.04-.03,.05l-.02,.03s.01-.02,0,0c-.03,.04-.07,.07-.11,.1-.1,.08-.18,.15-.26,.26-.07,.09-.05,.23,0,.33,.06,.11,.16,.15,.28,.16,.16,.02,.35,.01,.5-.06,.06-.03,.08-.04,.17-.08,.06-.03,.12-.06,.18-.11,.11-.09,.21-.2,.32-.29,.06-.06-.02,0,.04-.03,.03-.02,.06-.03,.08-.05,.03-.02,.06-.04,.09-.06,.04-.03,.04-.03,0,0,.07-.04,.01-.04-.17,.01l-.14-.08c.01-.26-.01-.34-.07-.24l-.03,.05s-.04,.08-.06,.11c-.04,.07-.08,.14-.12,.21-.05,.1-.06,.18-.08,.28,0,.04-.03,.08-.03,.12,0-.09,.28-.11,.13-.11-.06,0-.12,.02-.17,.02-.04,0-.03,0-.09,0,.02,0-.2,.03-.12,.02-.04,0-.09,0-.13,0s-.09,0-.13,0c-.04,0-.08,0-.12,.02-.04,0-.05,.01-.02,0-.06,0-.12,0-.19,.02-.03,.01-.07,.03-.1,.04-.03,.02-.03,.02,0,0h.17c.11,.11,.14,.13,.1,.07v.03c.02-.05,0,.06,0-.01,0-.03,0-.06,0-.09,0-.09-.02,.05,0-.02,.01-.06,.02-.11,.03-.17,0-.02,.02-.07,.02-.09,0,.05-.07,.08-.1,.1h-.03s.08,0,.11-.01c.03,0,.05,0,.07-.02,.07-.02,.13-.06,.2-.1,.02-.01,.02-.01,0,0h.05s.09-.05,.14-.07c.03-.02,.06-.04,.09-.06,.02,0,.09-.05,.07-.04,.03,0,.13-.04,.18-.07,0,0,.09-.06,.1-.09-.09,.05-.11,.06-.06,.04l.08-.03c.11-.05,.25-.09,.36-.18,.07-.05,.12-.11,.18-.17,.05-.05,.1-.09,.15-.13,.06-.06,.11-.12,.16-.19,.02-.02,.03-.05,.04-.07l.02-.04s-.03,.03,0,0c.13-.11,.12-.34,0-.46-.13-.13-.32-.11-.46,0h0Z"/><path d="M187.66,143.98c-.09-.07-.18-.12-.29-.15h-.05s.01,0,.02,0c0,0-.08-.05-.09-.06-.02,0-.04-.02-.06-.03,0,0-.07-.04-.03-.02,.03,.02-.02-.01-.02-.02-.02-.02-.04-.03-.05-.05-.09-.08-.19-.14-.31-.18,0,0-.05-.03-.02,0,.04,.02-.02-.02-.03-.02-.01,0-.03-.02-.04-.03-.07-.05,.03,.03,0,0-.06-.06-.12-.11-.18-.17s-.13-.11-.21-.15c-.02,0-.04-.02-.05-.03h-.02s-.01-.02,.02,0c-.03,0-.07-.06-.09-.08-.12-.12-.34-.13-.46,0s-.13,.33,0,.46c.07,.07,.14,.13,.22,.18,.03,.02,.06,.03,.09,.05,.01,0,.05,.04,.02,.01s0,0,.01,.01c.13,.13,.26,.27,.43,.35,.05,.03,.11,.05,.16,.06,.04,.01,.01,0,0,0-.05-.03,0,0,0,0,.08,.07,.16,.15,.25,.19,.08,.04,.16,.09,.24,.13,.03,.01,.07,.02,.1,.03h.04s.03,.02,0,.01c-.02,0-.04-.02-.05-.03,.13,.11,.33,.14,.46,0,.11-.12,.14-.34,0-.46h0Z"/><path d="M185.85,144.23c1.45,0,1.45-2.25,0-2.25s-1.45,2.25,0,2.25h0Z"/><path d="M185.78,144.09c1.45,0,1.45-2.25,0-2.25s-1.45,2.25,0,2.25h0Z"/><path d="M185.71,143.7c0,.06,.04,.11,.06,.16l.02,.04v.02s-.01-.05,0-.02c0,0,.05,.12,.07,.15,0,0,.02,.03,.02,.04-.02-.04-.02-.05,0-.01v.02c.04,.09,.07,.17,.11,.25,.02,.04,.04,.09,.06,.13,.03,.06,0,0,0,0,.01,0,.01,.07,.02,.09,.02,.09,.06,.18,.1,.27,0,.02,.02,.04,.03,.06,0,0-.02-.06-.01-.02,0,.05,.03,.11,.05,.15,.12,.21,.34,.22,.55,.19,.02,0,.05,0,.07-.01-.01,0-.08,0-.03,0,.03,0,.07,0,.11,0s.07,0,.1,0h.06s.1,0,.04,0c-.05,0,0,0,.02,0h.04c.08,.02,.14,.03,.22,0,.14-.04,.23-.14,.28-.28,.05-.14,.07-.3,.03-.44-.01-.04-.03-.08-.05-.11-.03-.05-.05-.07-.1-.1l-.03-.03c.1,.23,.13,.27,.1,.11-.03-.12-.14-.22-.25-.27-.08-.03-.16-.06-.24-.09s-.17-.05-.26-.05c-.17,0-.33,.11-.38,.28-.01,.04-.02,.09-.01,.14,0,.04,0,.07,.02,.11,.02,.09-.02,0,.01-.09l.22-.22c.11-.02,.19,0,.27,.07-.04-.04,.03,.04,.03,.04,0,0-.03-.05-.04-.06-.01-.02-.02-.05-.04-.08,.05,.1,0,0,0-.02-.05-.13-.09-.27-.19-.37-.11-.13-.34-.12-.46,0-.12,.14-.12,.32,0,.46-.08-.09-.04-.05-.02,0,.01,.03,.03,.08,0-.02,0,.01,.01,.03,.02,.04,.03,.09,.07,.17,.1,.26,.09,.21,.25,.37,.5,.32,.11-.02,.19-.12,.22-.22,.02-.06,.02-.13,0-.19,0-.02-.02-.1-.01-.03,0,.03,0,.04,0,.02,0-.05-.02-.02-.07,.11-.07,.11-.05,.11-.14,.14-.06,.02,.02,0-.03,0s0,0,.01,0c.04,.01,.09,.03,.13,.05h.04s.07,.04,.02,.01c-.05-.02,0,0,0,0,.01,0,.01,0-.01,0-.02-.01-.04-.03-.05-.05l-.04-.16c0,.13,.06,.29,.19,.35-.12-.06-.12-.21-.09-.1,0,.03,0,.07,0-.03,0,.03,0,.02,0-.03v.04s-.02,.05-.03,.07c-.01,.03,0,.02,.02-.03,.03-.05,.07-.07,.13-.08,.1-.03,.13-.04,.08-.04,.06,0,.07,0,.03,0-.14-.04-.28-.02-.43-.03-.08,0-.14,0-.22,0-.07,.01,.08,0,.01,0-.02,0-.05,0-.07,0-.01,0-.02,0-.03,0,.08,0,.15,.04,.2,.12,.04,.07,.02,.05,.01,.01-.02-.08-.06-.15-.09-.22l-.02-.05s-.01-.03,0,0c-.01,0-.01-.06-.01-.07-.02-.09-.05-.16-.09-.24l-.02-.05v.03s-.01-.06-.03-.1c-.03-.08-.05-.16-.09-.24,0-.02-.02-.04-.03-.06l-.02-.04s.02,.04,0,.01c-.01-.03-.05-.1-.06-.14,.02,.04,.02,.04,0,.01,0-.01,0-.03,0-.04-.03-.17-.24-.27-.4-.22-.18,.06-.26,.22-.22,.4h0Z"/><rect x="179.86" y="80.01" width="1.81" height="1.33" transform="translate(361.61 161.19) rotate(179.95)"/><rect x="180.09" y="116.23" width=".29" height="1.1" transform="translate(360.56 233.39) rotate(179.95)"/><g><polygon class="e" points="177.62 146.06 176.76 147.51 185.78 147.5 184.97 146.06 177.62 146.06"/><path d="M176.51,147.65l1.03-1.73h7.51l.97,1.72h-9.51Zm1.19-1.44l-.69,1.16h8.52l-.65-1.16h-7.18Z"/></g><g><line class="e" x1="184.7" y1="140.43" x2="184.71" y2="146.03"/><rect x="184.56" y="140.43" width=".29" height="5.6"/></g></g></g></g></g></svg>