<?xml version="1.0" encoding="UTF-8"?><svg xmlns="http://www.w3.org/2000/svg" viewBox="0 0 348.59 524.32"><defs><style>.d{fill:#fff;}</style></defs><g id="a"/><g id="b"><g id="c"><path class="d" d="M314.86,435.34c1.93,0,1.93-3,0-3s-1.93,3,0,3h0Z"/><path class="d" d="M160.26,473.33c1.93,0,1.93-3,0-3s-1.93,3,0,3h0Z"/><path class="d" d="M8.31,416.79c1.93,0,1.93-3,0-3s-1.93,3,0,3h0Z"/><path class="d" d="M240.66,142.92c1.93,0,1.93-3,0-3s-1.93,3,0,3h0Z"/><path class="d" d="M347.87,18.81c.97,0,.97-1.5,0-1.5s-.97,1.5,0,1.5h0Z"/><path class="d" d="M149.6,37.86c1.93,0,1.93-3,0-3s-1.93,3,0,3h0Z"/><path class="d" d="M6.55,160.59c1.93,0,1.93-3,0-3s-1.93,3,0,3h0Z"/><path class="d" d="M329,158.96c.97,0,.97-1.5,0-1.5s-.97,1.5,0,1.5h0Z"/><path class="d" d="M275.99,56.48c.97,0,.97-1.5,0-1.5s-.97,1.5,0,1.5h0Z"/><path class="d" d="M149.66,151.89c.97,0,.97-1.5,0-1.5s-.97,1.5,0,1.5h0Z"/><path class="d" d="M48.95,68.85c.97,0,.97-1.5,0-1.5s-.97,1.5,0,1.5h0Z"/><path class="d" d="M226.52,435.95c3.86,0,3.87-6,0-6s-3.87,6,0,6h0Z"/><path class="d" d="M7.43,481.89c3.86,0,3.87-6,0-6s-3.87,6,0,6h0Z"/><path class="d" d="M81.07,15.23c3.86,0,3.87-6,0-6s-3.87,6,0,6h0Z"/><path class="d" d="M286.59,101.13c3.86,0,3.87-6,0-6s-3.87,6,0,6h0Z"/><path class="d" d="M217.69,97.62c.48,0,.48-.75,0-.75s-.48,.75,0,.75h0Z"/><path class="d" d="M98.42,78.19c.48,0,.48-.75,0-.75s-.48,.75,0,.75h0Z"/><path class="d" d="M.36,44.62c.48,0,.48-.75,0-.75s-.48,.75,0,.75H.36Z"/><path class="d" d="M86.94,434.21c.48,0,.48-.75,0-.75s-.48,.75,0,.75h0Z"/><path class="d" d="M76.34,462.48c.48,0,.48-.75,0-.75s-.48,.75,0,.75h0Z"/><path class="d" d="M174.4,427.15c.48,0,.48-.75,0-.75s-.48,.75,0,.75h0Z"/><path class="d" d="M336.07,500.47c.48,0,.48-.75,0-.75s-.48,.75,0,.75h0Z"/><path class="d" d="M261.86,524.32c.48,0,.48-.75,0-.75s-.48,.75,0,.75h0Z"/><path class="d" d="M271.58,462.48c.48,0,.48-.75,0-.75s-.48,.75,0,.75h0Z"/><path class="d" d="M263.94,1.5c.97,0,.97-1.5,0-1.5s-.97,1.5,0,1.5h0Z"/><path class="d" d="M15.7,1.5c.97,0,.97-1.5,0-1.5s-.97,1.5,0,1.5h0Z"/><path class="d" d="M249.81,74.83c.97,0,.97-1.5,0-1.5s-.97,1.5,0,1.5h0Z"/></g></g></svg>