<?xml version="1.0" encoding="UTF-8"?><svg xmlns="http://www.w3.org/2000/svg" xmlns:xlink="http://www.w3.org/1999/xlink" viewBox="0 0 16.65 16.65"><defs><style>.f{fill:url(#e);}.g{fill:url(#d);}</style><linearGradient id="d" x1="0" y1="8.32" x2="16.65" y2="8.32" gradientTransform="matrix(1, 0, 0, 1, 0, 0)" gradientUnits="userSpaceOnUse"><stop offset="0" stop-color="#00a6ff"/><stop offset=".23" stop-color="#008aff"/><stop offset=".75" stop-color="#004dff"/><stop offset="1" stop-color="#0036ff"/></linearGradient><linearGradient id="e" x1="4.94" y1="8.32" x2="11.71" y2="8.32" xlink:href="#d"/></defs><g id="a"/><g id="b"><g id="c"><path class="g" d="M8.32,1c4.04,0,7.32,3.29,7.32,7.32s-3.29,7.32-7.32,7.32S1,12.36,1,8.32,4.29,1,8.32,1m0-1C3.73,0,0,3.73,0,8.32s3.73,8.32,8.32,8.32,8.32-3.73,8.32-8.32S12.92,0,8.32,0h0Z"/><path class="f" d="M5.47,11.81l-.53-.56,5.5-5.65H5.91v-.77h5.81v5.98h-.76V6.15l-5.49,5.66Z"/></g></g></svg>