<?xml version="1.0" encoding="UTF-8"?><svg xmlns="http://www.w3.org/2000/svg" viewBox="0 0 404.76 497.62"><defs><style>.d,.e{fill:#d3d3d3;}.f,.g{fill:#b45000;}.f,.h{stroke:#b45000;}.i{opacity:.41;}.j{opacity:.66;}.g{stroke:#000;stroke-width:.5px;}.h{fill:none;}.e{opacity:.46;}</style></defs><g id="a"/><g id="b"><g id="c"><g><path class="h" d="M131.88,39.3c15.91,46.61,37.88,70.57,69.98,56.71"/><path class="h" d="M131.92,150c8.28,23.3,21.41,22.19,35.49,16.25"/><line class="h" x1="200.2" y1="93.78" x2="203.69" y2="98.78"/><line class="f" x1="166.58" y1="164.01" x2="167.99" y2="169.32"/><rect class="f" x="126.45" y="74.46" width="12.27" height="1.66"/><rect class="f" x="126.95" y="184.74" width="12.27" height="1.66"/><path class="g" d="M122.14,282.89c0-68.25,0-278.74,0-278.74,0,0,0-.24,0-.47h-5.03V.25h27.2V3.67h-12.39V303.97h-9.78s0-7.88,0-21.08Z"/></g><g class="i"><path class="d" d="M351.82,177.66c-8.72-8.34-20.31-11.82-31.42-10.5,.12-10.79-3.52-20.88-11.12-28.14-.32-.31-.64-.6-.97-.88,2.42-10.34-.56-21.68-8.82-29.57-12.41-11.86-32.01-11.48-43.79,.84-8.5,8.89-10.6,21.59-6.44,32.42-2.18,1.74-4.28,3.66-6.28,5.75-12.41,12.98-18.02,29.5-16.38,43.98-6.83,1.74-13.27,5.35-18.5,10.82-10.58,11.08-13.32,26.79-8.38,40.28-26.44,23.01-38.12,52.76-26.44,73.44,8.93,15.79,29.41,22.63,53.44,20.2,22.19,17.36,64.05,5.69,95.6-27.33,23.67-24.78,35.08-54.77,31.55-77.25,14-15.55,13.16-39.52-2.07-54.06Zm-26.4,85.72c-4.93,6.44-11.57,10.93-19.38,12.43-1.04,.21-2.08,.34-3.12,.43,.05,.61,.05,1.24,.04,1.86-.35,19.42-16.48,34.87-36.02,34.51-19.54-.35-35.09-16.38-34.73-35.8,.06-3.05,.5-5.99,1.28-8.8,.89-3.21,2.24-6.23,3.96-8.98-3.18-.75-6.15-1.92-8.82-3.5-3.76-2.23-6.92-5.24-9.21-9.02-2.88-4.76-4.05-10.17-3.71-15.73,.57-9.53,5.62-19.49,14.12-27.33,2.53-2.34,5.36-4.48,8.48-6.36,3.29-1.99,6.68-3.57,10.11-4.76,2.7-.94,5.42-1.64,8.11-2.08-6.04-10.53-2.75-24.14,7.34-32.01,.86-.66,1.77-1.3,2.73-1.87,9.41-5.71,20.74-5.2,28.69,.43,2.5,1.76,4.65,4.04,6.31,6.78,1.7,2.83,2.73,5.87,3.12,8.99,.42,3.25,.13,6.58-.8,9.78,4.01,1.41,7.84,3.6,11.38,6.44,3.99,3.22,7.57,7.28,10.57,12,3.74,5.92,6.56,12.87,8.03,20.53,1.49,7.73,1.44,15.32,.11,22.27-1.43,7.56-4.4,14.38-8.59,19.8Z"/><path class="d" d="M334,243.58c-1.43,7.56-4.4,14.38-8.59,19.8-4.93,6.44-11.57,10.93-19.38,12.43-1.04,.21-2.08,.34-3.12,.43,.05,.61,.05,1.24,.04,1.86-.35,19.42-16.48,34.87-36.02,34.51-19.54-.35-35.09-16.38-34.73-35.8,.06-3.05,.5-5.99,1.28-8.8,.89-3.21,2.24-6.23,3.96-8.98-3.18-.75-6.15-1.92-8.82-3.5-3.76-2.23-6.92-5.24-9.21-9.02-2.88-4.76-4.05-10.17-3.71-15.73,.57-9.53,5.62-19.49,14.12-27.33,2.53-2.34,5.36-4.48,8.48-6.36,3.29-1.99,6.68-3.57,10.11-4.76,2.7-.94,5.42-1.64,8.11-2.08-6.04-10.53-2.75-24.14,7.34-32.01,.86-.66,1.77-1.3,2.73-1.87,9.41-5.71,20.74-5.2,28.69,.43,2.5,1.76,4.65,4.04,6.31,6.78,1.7,2.83,2.73,5.87,3.12,8.99,.42,3.25,.13,6.58-.8,9.78,4.01,1.41,7.84,3.6,11.38,6.44,3.99,3.22,7.57,7.28,10.57,12,3.74,5.92,6.56,12.87,8.03,20.53,1.49,7.73,1.44,15.32,.11,22.27Z"/></g><path class="e" d="M403.72,398.58c-1.31,3.24-3.22,6.19-5.75,8.71-3.13,3.12-6.94,5.27-11.12,6.52-2.97,.89-6.14,1.31-9.41,1.26,1.01,3.09,1.58,6.35,1.68,9.67,.08,2.91-.2,5.88-.88,8.85-4.35,18.93-23.31,30.72-42.36,26.34-19.04-4.38-30.96-23.27-26.61-42.2,.14-.61,.29-1.21,.49-1.8-.99-.33-1.97-.72-2.92-1.17-7.21-3.35-12.57-9.31-15.8-16.75-2.75-6.27-3.99-13.6-3.55-21.28,.39-7.07,2.17-14.44,5.49-21.58,3.28-7.08,7.69-13.14,12.75-17.98,4.05-3.86,8.51-6.93,13.16-9.09,4.12-1.9,8.36-3.1,12.6-3.49-.13-3.32,.4-6.62,1.59-9.68,1.13-2.93,2.87-5.64,5.2-7.97,2.28-2.26,4.92-3.94,7.76-5.05,9.08-3.54,20.19-1.3,27.94,6.52,.79,.79,1.52,1.63,2.19,2.48,7.89,10.07,7.8,24.07-.61,32.83,2.51,1.08,4.97,2.41,7.37,3.98,3.04,1.98,5.94,4.33,8.66,7.06,2.57,2.58,4.8,5.34,6.69,8.22,2.57,3.9,4.49,8,5.77,12.12,.11-7.61,.21-15.21,.32-22.82-.03-.02-.06-.04-.09-.05,.03-.09,.06-.19,.09-.28,.15-10.95,.29-21.89,.41-32.82-1.35-4.57-3.25-9.13-5.76-13.54-1.43-2.51-3.01-4.88-4.7-7.1,6.65-9.5,7.69-22.33,1.59-33.02-8.45-14.8-27.38-19.91-42.29-11.4-9.92,5.66-15.56,15.94-15.71,26.56-.39,.19-.77,.4-1.15,.62-9.13,5.2-15.1,14.12-17.59,24.62-10.46-3.97-22.54-3.4-33.02,2.59-18.3,10.43-24.9,33.49-15.08,51.96-8.85,20.96-5.04,52.82,11.94,82.59,22.64,39.67,60.43,61.11,86.16,49.63,11.98,4.31,23.62,5.87,33.79,4.46-.04-32.78,.32-65.65,.77-98.53Z"/><g class="j"><path class="d" d="M355.74,274.39c-10.1-6.61-22.13-7.9-32.81-4.57-1.85-10.63-7.29-19.89-16.08-25.63-.37-.24-.74-.47-1.11-.69,.49-10.61-4.52-21.21-14.08-27.46-14.37-9.38-33.57-5.42-42.89,8.84-6.73,10.3-6.46,23.17-.39,33.05-1.82,2.11-3.54,4.38-5.12,6.8-9.82,15.03-12.32,32.3-8.06,46.24-6.39,2.96-12.07,7.69-16.21,14.02-8.38,12.83-8.19,28.78-.87,41.13-21.78,27.46-27.82,58.84-12.55,77.04,11.67,13.89,33.06,16.87,56.24,10.08,25,13.01,64.01-6.13,88.98-44.37,18.74-28.69,24.46-60.27,16.88-81.72,10.91-17.85,5.71-41.26-11.93-52.77Zm-10.27,89.1c-3.67,7.23-9.38,12.86-16.78,15.77-.98,.39-1.98,.72-2.99,.99,.16,.59,.27,1.21,.38,1.82,3.2,19.15-9.82,37.3-29.09,40.52-19.27,3.23-37.49-9.68-40.7-28.84-.5-3.01-.6-5.99-.35-8.88,.29-3.31,1.06-6.53,2.25-9.55-3.26-.15-6.4-.76-9.31-1.83-4.1-1.5-7.77-3.88-10.71-7.18-3.7-4.15-5.84-9.25-6.52-14.79-1.18-9.47,1.95-20.19,8.88-29.45,2.06-2.76,4.45-5.38,7.17-7.81,2.87-2.56,5.91-4.73,9.06-6.53,2.49-1.42,5.03-2.6,7.59-3.53-7.87-9.25-7.12-23.23,1.36-32.81,.72-.81,1.51-1.6,2.34-2.34,8.2-7.34,19.44-8.91,28.28-4.83,2.78,1.28,5.31,3.12,7.45,5.51,2.19,2.47,3.76,5.27,4.71,8.27,1,3.12,1.34,6.45,1.01,9.76,4.2,.65,8.37,2.1,12.36,4.24,4.51,2.43,8.78,5.77,12.59,9.86,4.76,5.14,8.8,11.45,11.65,18.71,2.88,7.33,4.22,14.79,4.18,21.87-.02,7.7-1.7,14.94-4.82,21.03Z"/><path class="d" d="M350.29,342.46c-.02,7.7-1.7,14.94-4.82,21.03-3.67,7.23-9.38,12.86-16.78,15.77-.98,.39-1.98,.72-2.99,.99,.16,.59,.27,1.21,.38,1.82,3.2,19.15-9.82,37.3-29.09,40.52-19.27,3.23-37.49-9.68-40.7-28.84-.5-3.01-.6-5.99-.35-8.88,.29-3.31,1.06-6.53,2.25-9.55-3.26-.15-6.4-.76-9.31-1.83-4.1-1.5-7.77-3.88-10.71-7.18-3.7-4.15-5.84-9.25-6.52-14.79-1.18-9.47,1.95-20.19,8.88-29.45,2.06-2.76,4.45-5.38,7.17-7.81,2.87-2.56,5.91-4.73,9.06-6.53,2.49-1.42,5.03-2.6,7.59-3.53-7.87-9.25-7.12-23.23,1.36-32.81,.72-.81,1.51-1.6,2.34-2.34,8.2-7.34,19.44-8.91,28.28-4.83,2.78,1.28,5.31,3.12,7.45,5.51,2.19,2.47,3.76,5.27,4.71,8.27,1,3.12,1.34,6.45,1.01,9.76,4.2,.65,8.37,2.1,12.36,4.24,4.51,2.43,8.78,5.77,12.59,9.86,4.76,5.14,8.8,11.45,11.65,18.71,2.88,7.33,4.22,14.79,4.18,21.87Z"/></g><g class="i"><path class="d" d="M81.3,245.07c-8.76,8.3-12.8,19.71-12.03,30.87-10.77-.65-21.03,2.5-28.65,9.73-.32,.3-.63,.61-.93,.92-10.21-2.93-21.68-.5-29.97,7.36-12.45,11.81-13.03,31.4-1.3,43.78,8.47,8.93,21.05,11.64,32.07,8.02,1.63,2.26,3.44,4.46,5.44,6.55,12.36,13.03,28.58,19.45,43.13,18.52,1.4,6.9,4.69,13.52,9.9,19.01,10.55,11.11,26.11,14.62,39.82,10.35,21.69,27.54,50.82,40.66,72.06,30.01,16.21-8.15,24.05-28.27,22.8-52.39,18.43-21.32,8.82-63.69-22.61-96.83-23.58-24.86-52.99-37.72-75.61-35.3-14.85-14.74-38.82-15.09-54.1-.59Zm84.32,30.57c6.19,5.24,10.34,12.1,11.47,19.97,.16,1.05,.24,2.09,.27,3.14,.61-.02,1.24,.01,1.86,.05,19.38,1.31,34.02,18.17,32.71,37.67-1.31,19.5-18.08,34.24-37.46,32.94-3.04-.21-5.96-.79-8.72-1.71-3.16-1.05-6.11-2.54-8.77-4.4-.9,3.14-2.22,6.05-3.93,8.64-2.41,3.64-5.57,6.66-9.46,8.76-4.89,2.64-10.35,3.55-15.9,2.93-9.49-1.04-19.19-6.56-26.61-15.44-2.21-2.64-4.21-5.57-5.94-8.78-1.83-3.38-3.24-6.85-4.26-10.33-.81-2.75-1.37-5.49-1.68-8.2-10.82,5.52-24.24,1.57-31.61-8.9-.62-.89-1.21-1.84-1.74-2.82-5.25-9.68-4.18-20.97,1.83-28.63,1.88-2.41,4.26-4.45,7.08-5.97,2.91-1.56,6-2.44,9.13-2.68,3.27-.26,6.58,.19,9.72,1.27,1.6-3.94,3.98-7.66,6.99-11.05,3.41-3.83,7.64-7.21,12.51-9.97,6.1-3.45,13.18-5.92,20.9-7.01,7.8-1.11,15.37-.69,22.25,.98,7.48,1.8,14.14,5.1,19.35,9.55Z"/><path class="d" d="M146.27,266.1c7.48,1.8,14.14,5.1,19.35,9.55,6.19,5.24,10.34,12.1,11.47,19.97,.16,1.05,.24,2.09,.27,3.14,.61-.02,1.24,.01,1.86,.05,19.38,1.31,34.02,18.17,32.71,37.67-1.31,19.5-18.08,34.24-37.46,32.94-3.04-.21-5.96-.79-8.72-1.71-3.16-1.05-6.11-2.54-8.77-4.4-.9,3.14-2.22,6.05-3.93,8.64-2.41,3.64-5.57,6.66-9.46,8.76-4.89,2.64-10.35,3.55-15.9,2.93-9.49-1.04-19.19-6.56-26.61-15.44-2.21-2.64-4.21-5.57-5.94-8.78-1.83-3.38-3.24-6.85-4.26-10.33-.81-2.75-1.37-5.49-1.68-8.2-10.82,5.52-24.24,1.57-31.61-8.9-.62-.89-1.21-1.84-1.74-2.82-5.25-9.68-4.18-20.97,1.83-28.63,1.88-2.41,4.26-4.45,7.08-5.97,2.91-1.56,6-2.44,9.13-2.68,3.27-.26,6.58,.19,9.72,1.27,1.6-3.94,3.98-7.66,6.99-11.05,3.41-3.83,7.64-7.21,12.51-9.97,6.1-3.45,13.18-5.92,20.9-7.01,7.8-1.11,15.37-.69,22.25,.98Z"/></g></g></g></svg>