<?xml version="1.0" encoding="UTF-8"?><svg xmlns="http://www.w3.org/2000/svg" viewBox="0 0 50.02 50.02"><defs><style>.e{fill:#fff;}</style></defs><g id="a"/><g id="b"><g id="c"><rect class="e" width="50.02" height="50.02" rx="12" ry="12"/><g id="d"><g><path class="e" d="M38.06,36.41H11.96V14.02h26.09v22.38Zm-16.41-11.17c-.09,0-.14,0-.2,0-1.55,0-3.1,0-4.65,0-.57,0-.84,.19-1.05,.71-.15,.38-.3,.77-.46,1.15-1.07,2.67-2.14,5.34-3.2,8.01-.22,.54,.07,1.1,.63,1.24,.1,.03,.21,.03,.31,.03,5.38,0,10.77,0,16.15,0,2.62,0,5.24,0,7.85,0,.18,0,.39-.05,.55-.14,.44-.24,.55-.71,.33-1.25-1.21-3.02-2.41-6.03-3.62-9.05-.2-.5-.49-.7-1.02-.7-1.55,0-3.11,0-4.66,0-.06,0-.11,0-.2,0,.04-.08,.08-.15,.11-.21,.58-1.02,1.11-2.05,1.54-3.14,.25-.63,.47-1.27,.51-1.96,.06-1.1-.2-2.12-.75-3.07-1.11-1.92-3.3-3.02-5.49-2.73-1.82,.25-3.22,1.18-4.14,2.77-.79,1.37-.97,2.82-.45,4.34,.36,1.07,.86,2.08,1.38,3.07,.16,.3,.33,.6,.51,.93Z"/><path d="M21.64,25.24c-.18-.33-.35-.63-.51-.93-.53-.99-1.02-2-1.38-3.07-.52-1.52-.34-2.97,.45-4.34,.92-1.59,2.32-2.52,4.14-2.77,2.19-.29,4.38,.81,5.49,2.73,.55,.95,.81,1.97,.75,3.07-.04,.68-.26,1.33-.51,1.96-.43,1.09-.97,2.12-1.54,3.14-.03,.06-.07,.12-.11,.21,.08,0,.14,0,.2,0,1.55,0,3.11,0,4.66,0,.54,0,.82,.19,1.02,.7,1.21,3.02,2.41,6.03,3.62,9.05,.22,.54,.11,1.02-.33,1.25-.16,.09-.37,.13-.55,.14-2.62,0-5.24,0-7.85,0-5.38,0-10.77,0-16.15,0-.1,0-.21,0-.31-.03-.56-.14-.85-.7-.63-1.24,1.07-2.67,2.14-5.34,3.2-8.01,.15-.38,.31-.77,.46-1.15,.21-.52,.48-.71,1.05-.71,1.55,0,3.1,0,4.65,0,.05,0,.11,0,.2,0Zm14.11,9.29c-.03-.07-.05-.12-.07-.17-.95-2.38-1.9-4.75-2.84-7.13-.05-.12-.11-.15-.23-.15-1.69,0-3.37,0-5.06,0-.18,0-.28,.05-.38,.21-.68,1.06-1.37,2.1-2.06,3.15-.03,.04-.06,.07-.09,.11-.03-.05-.06-.08-.08-.11-.7-1.07-1.4-2.14-2.1-3.21-.06-.09-.11-.16-.24-.16-1.72,0-3.45,0-5.18,0-.11,0-.17,.03-.22,.14-.9,2.26-1.8,4.51-2.7,6.76-.07,.18-.14,.35-.22,.55h21.46Zm-10.73-7.31c.06-.09,.11-.15,.14-.2,.78-1.14,1.48-2.32,2.13-3.54,.5-.94,.97-1.9,1.29-2.93,.2-.64,.22-1.27,.04-1.92-.42-1.47-1.66-2.53-3.15-2.7-1.54-.17-2.98,.55-3.71,1.9-.45,.82-.62,1.69-.31,2.61,.17,.5,.34,1,.55,1.48,.64,1.42,1.41,2.78,2.24,4.1,.24,.39,.51,.77,.78,1.19Z"/><path class="e" d="M35.75,34.53H14.3c.08-.19,.15-.37,.22-.55,.9-2.25,1.8-4.51,2.7-6.76,.05-.11,.1-.14,.22-.14,1.73,0,3.45,0,5.18,0,.13,0,.18,.07,.24,.16,.7,1.07,1.4,2.14,2.1,3.21,.02,.03,.04,.06,.08,.11,.03-.04,.07-.08,.09-.11,.69-1.05,1.38-2.1,2.06-3.15,.1-.15,.2-.21,.38-.21,1.69,0,3.37,0,5.06,0,.12,0,.18,.03,.23,.15,.94,2.38,1.9,4.75,2.84,7.13,.02,.05,.04,.1,.07,.17Z"/><path class="e" d="M25.02,27.22c-.28-.42-.54-.8-.78-1.19-.83-1.32-1.6-2.68-2.24-4.1-.22-.48-.38-.98-.55-1.48-.31-.92-.13-1.79,.31-2.61,.74-1.35,2.17-2.07,3.71-1.9,1.48,.16,2.72,1.23,3.15,2.7,.18,.64,.16,1.28-.04,1.92-.32,1.02-.79,1.98-1.29,2.93-.65,1.22-1.35,2.4-2.13,3.54-.04,.06-.08,.11-.14,.2Zm0-5.73c1.01,0,1.86-.83,1.86-1.82,0-1.03-.83-1.87-1.85-1.87-1.01,0-1.85,.84-1.85,1.86,0,1,.84,1.84,1.84,1.84Z"/><path d="M25.02,21.5c-1.01,0-1.85-.84-1.84-1.84,0-1.02,.84-1.86,1.85-1.86,1.02,0,1.85,.85,1.85,1.87,0,1-.85,1.83-1.86,1.82Z"/></g></g></g></g></svg>