<?xml version="1.0" encoding="UTF-8"?><svg xmlns="http://www.w3.org/2000/svg" viewBox="0 0 50.02 50.02"><defs><style>.d,.e{fill:#fff;}.f,.e{stroke:#000;stroke-width:.25px;}</style></defs><g id="a"/><g id="b"><g id="c"><rect class="d" width="50.02" height="50.02" rx="12" ry="12"/><g><path class="e" d="M25.19,15.91h0c-4.11,0-8.21,0-12.32,0-.69,0-1.1,.4-1.1,1.09,0,5.08,0,10.17,0,15.25,0,.74,.39,1.14,1.13,1.14,8.19,0,16.38,0,24.56,0,.64,0,1.08-.44,1.08-1.09,0-5.08,0-10.17,0-15.25,0-.71-.43-1.14-1.13-1.14-4.07,0-8.15,0-12.22,0Z"/><path class="f" d="M25.19,15.91c4.07,0,8.15,0,12.22,0,.71,0,1.13,.43,1.13,1.14,0,5.08,0,10.17,0,15.25,0,.65-.44,1.09-1.08,1.09-8.19,0-16.38,0-24.56,0-.74,0-1.13-.39-1.13-1.14,0-5.08,0-10.17,0-15.25,0-.69,.4-1.09,1.1-1.09,4.11,0,8.21,0,12.32,0h0Zm-10.39,1.49c.12,.09,.2,.15,.28,.22,.29,.22,.58,.44,.86,.67,.26,.21,.52,.42,.78,.63,.19,.15,.37,.31,.56,.46,.36,.28,.72,.56,1.08,.84,.3,.24,.6,.48,.9,.72,.27,.22,.55,.44,.82,.67,.25,.2,.5,.41,.75,.61,.17,.13,.35,.25,.52,.38,.19,.15,.38,.3,.57,.45,.25,.2,.51,.39,.76,.59,.17,.13,.32,.29,.49,.42,.28,.22,.57,.43,.85,.65,.25,.2,.49,.43,.75,.62,.07,.05,.25,.05,.33,0,.42-.3,.82-.62,1.22-.94,.46-.36,.9-.74,1.36-1.11,.4-.32,.82-.63,1.22-.94,.5-.39,1.01-.78,1.51-1.17,.12-.1,.25-.19,.37-.29,.25-.18,.51-.36,.76-.55,.35-.27,.67-.56,1.02-.83,.37-.28,.75-.55,1.12-.83,.4-.3,.8-.6,1.19-.91,.16-.12,.3-.26,.45-.4l-.03-.06-20.48,.09Zm-.37,14.67l.04,.05h21.27c-.03-.06-.04-.1-.06-.11-.21-.14-.43-.28-.64-.43-.4-.29-.8-.59-1.2-.88-.47-.35-.94-.69-1.41-1.04-.35-.25-.7-.5-1.05-.75-.38-.27-.75-.53-1.13-.8-.47-.34-.94-.69-1.41-1.03-.28-.2-.56-.39-.84-.59-.3-.22-.58-.47-.89-.68-.07-.05-.24,0-.33,.07-.18,.11-.34,.26-.51,.39-.23,.18-.49,.33-.69,.53-.33,.31-.81,.4-1.16,.13-.49-.38-.97-.78-1.44-1.17l-8.55,6.32Zm22.7-.78v-13.42c-.11,.07-.19,.1-.26,.16-.24,.19-.48,.39-.72,.57-.37,.29-.75,.58-1.13,.86-.26,.2-.53,.4-.8,.6-.24,.18-.48,.36-.71,.55-.35,.28-.69,.57-1.04,.85-.27,.21-.55,.4-.81,.61-.34,.27-.66,.55-1.01,.81-.35,.27-.72,.51-1.07,.77-.41,.31-.81,.63-1.21,.95-.07,.06-.11,.15-.16,.23,.1,.06,.17,.09,.23,.13,.31,.23,.62,.47,.94,.69,.34,.25,.69,.48,1.04,.72,.32,.23,.63,.47,.95,.71,.28,.21,.56,.4,.84,.61,.32,.23,.63,.47,.95,.7,.34,.25,.69,.49,1.03,.74,.3,.22,.58,.46,.88,.69,.3,.22,.6,.43,.91,.65,.37,.27,.75,.54,1.15,.83ZM13.18,17.97v13.21l8.59-6.34s-.06-.11-.11-.15c-.36-.29-.72-.58-1.09-.86-.12-.1-.25-.2-.37-.3-.28-.22-.56-.44-.84-.66-.15-.12-.3-.25-.45-.37-.28-.22-.56-.43-.84-.65-.26-.21-.51-.43-.77-.64-.3-.24-.62-.47-.92-.71-.27-.21-.52-.44-.79-.65-.37-.28-.75-.54-1.11-.83-.28-.22-.54-.47-.81-.7-.14-.12-.29-.21-.48-.35Z"/><path class="e" d="M14.8,17.4l20.48-.09,.03,.06c-.15,.13-.29,.27-.45,.4-.39,.31-.79,.61-1.19,.91-.37,.28-.75,.55-1.12,.83-.35,.27-.67,.56-1.02,.83-.25,.19-.51,.37-.76,.55-.13,.09-.25,.19-.37,.29-.5,.39-1.01,.78-1.51,1.17-.41,.31-.82,.62-1.22,.94-.46,.36-.9,.74-1.36,1.11-.4,.32-.8,.64-1.22,.94-.08,.05-.25,.06-.33,0-.26-.19-.5-.42-.75-.62-.28-.22-.57-.43-.85-.65-.17-.13-.32-.28-.49-.42-.25-.2-.51-.39-.76-.59-.19-.15-.38-.31-.57-.45-.17-.13-.35-.25-.52-.38-.25-.2-.5-.41-.75-.61-.27-.22-.55-.44-.82-.67-.3-.24-.6-.48-.9-.72-.36-.28-.72-.56-1.08-.84-.19-.15-.37-.31-.56-.46-.26-.21-.52-.42-.78-.63-.29-.23-.58-.45-.86-.67-.08-.06-.16-.13-.28-.22Z"/><path class="e" d="M14.43,32.07l8.55-6.32c.48,.39,.95,.79,1.44,1.17,.35,.27,.83,.18,1.16-.13,.21-.2,.46-.35,.69-.53,.17-.13,.33-.28,.51-.39,.09-.06,.26-.11,.33-.07,.31,.21,.59,.45,.89,.68,.27,.2,.56,.39,.84,.59,.47,.34,.94,.69,1.41,1.03,.37,.27,.75,.54,1.13,.8,.35,.25,.7,.5,1.05,.75,.47,.34,.94,.69,1.41,1.04,.4,.29,.79,.59,1.2,.88,.21,.15,.43,.28,.64,.43,.02,.02,.03,.05,.06,.11H14.47l-.04-.05Z"/><path class="e" d="M37.13,31.29c-.4-.29-.77-.56-1.15-.83-.3-.22-.61-.42-.91-.65-.3-.22-.58-.46-.88-.69-.34-.25-.69-.49-1.03-.74-.32-.23-.63-.47-.95-.7-.28-.2-.56-.4-.84-.61-.32-.23-.63-.48-.95-.71-.34-.25-.69-.48-1.04-.72-.32-.23-.62-.46-.94-.69-.06-.04-.13-.07-.23-.13,.05-.08,.09-.18,.16-.23,.4-.32,.8-.64,1.21-.95,.35-.26,.72-.51,1.07-.77,.34-.26,.67-.55,1.01-.81,.27-.21,.55-.4,.81-.61,.35-.28,.69-.57,1.04-.85,.23-.19,.47-.37,.71-.55,.26-.2,.53-.4,.8-.6,.38-.29,.75-.57,1.13-.86,.24-.19,.48-.39,.72-.57,.07-.05,.15-.09,.26-.16v13.42Z"/><path class="e" d="M13.18,17.97c.19,.13,.34,.23,.48,.35,.27,.23,.53,.48,.81,.7,.36,.29,.75,.55,1.11,.83,.27,.21,.53,.44,.79,.65,.3,.24,.62,.47,.92,.71,.26,.21,.51,.43,.77,.64,.28,.22,.56,.43,.84,.65,.15,.12,.3,.25,.45,.37,.28,.22,.56,.44,.84,.66,.13,.1,.25,.2,.37,.3,.36,.29,.73,.57,1.09,.86,.05,.04,.08,.11,.11,.15l-8.59,6.34v-13.21Z"/></g></g></g></svg>