<?xml version="1.0" encoding="UTF-8"?><svg xmlns="http://www.w3.org/2000/svg" viewBox="0 0 50.02 50.02"><defs><style>.d{stroke:#000;stroke-width:1.7px;}.d,.e{fill:#fff;}</style></defs><g id="a"/><g id="b"><g id="c"><rect class="e" width="50.02" height="50.02" rx="12" ry="12"/><path class="d" d="M13.1,17.61c0-1.62,.52-2.67,1.41-3.57,.88-.9,1.9-1.53,3.16-1.71,.75-.11,1.3,.1,1.68,.76,.42,.73,.8,1.47,1.19,2.22,.37,.71,.74,1.43,1.1,2.14,.25,.49,.4,.99,.31,1.54-.07,.47-.28,.86-.63,1.17-.25,.23-.51,.45-.73,.71-.62,.73-.63,1.3-.01,2.03,1.07,1.27,2.14,2.54,3.24,3.78,1.03,1.17,2.08,2.3,3.13,3.45,.26,.29,.58,.49,.98,.55,.37,.06,.69-.04,.95-.31,.2-.2,.41-.4,.57-.64,.42-.64,1.34-.86,2.03-.56,.58,.25,1.12,.59,1.66,.92,1.02,.61,2.02,1.24,3.03,1.86,.62,.38,.99,1.3,.73,2.1-.54,1.67-1.5,3.07-2.93,4.11-.78,.57-1.64,.62-2.55,.4-1.53-.38-2.92-1.09-4.24-1.93-2.89-1.84-5.3-4.21-7.41-6.9-1.49-1.89-2.92-3.81-4.17-5.86-.88-1.45-1.69-2.94-2.15-4.59-.18-.66-.27-1.34-.34-1.68Z"/></g></g></svg>